<svg width="64" height="64" viewBox="0 0 64 64" fill="none" xmlns="http://www.w3.org/2000/svg">
    <path d="M0.799805 57.6004C0.799805 56.7167 1.51615 56.0004 2.3998 56.0004H61.5998C62.4835 56.0004 63.1998 56.7167 63.1998 57.6004C63.1998 58.484 62.4835 59.2004 61.5998 59.2004H2.3998C1.51615 59.2004 0.799805 58.484 0.799805 57.6004Z" fill="#1B202C" fill-opacity="0.1"/>
    <path fill-rule="evenodd" clip-rule="evenodd" d="M58.3998 6.40039C59.2835 6.40039 59.9998 7.11674 59.9998 8.00039V12.9268H26.9549C26.6635 12.9268 26.3779 13.0098 26.1303 13.1665L18.2628 18.1452H3.9998V8.00039C3.9998 7.11673 4.71615 6.40039 5.5998 6.40039H58.3998ZM9.5998 12.1604C9.5998 13.044 8.88346 13.7604 7.9998 13.7604C7.11615 13.7604 6.3998 13.044 6.3998 12.1604C6.3998 11.2767 7.11615 10.5604 7.9998 10.5604C8.88346 10.5604 9.5998 11.2767 9.5998 12.1604ZM14.3998 12.1604C14.3998 13.044 13.6835 13.7604 12.7998 13.7604C11.9161 13.7604 11.1998 13.044 11.1998 12.1604C11.1998 11.2767 11.9161 10.5604 12.7998 10.5604C13.6835 10.5604 14.3998 11.2767 14.3998 12.1604ZM17.5998 13.7604C18.4835 13.7604 19.1998 13.044 19.1998 12.1604C19.1998 11.2767 18.4835 10.5604 17.5998 10.5604C16.7161 10.5604 15.9998 11.2767 15.9998 12.1604C15.9998 13.044 16.7161 13.7604 17.5998 13.7604Z" fill="#1B202C" fill-opacity="0.1"/>
    <path d="M31.9999 30.7216C31.0369 30.7216 30.2544 31.5104 30.2544 32.4814V39.5208C30.2544 40.4918 31.0369 41.2807 31.9999 41.2807C32.9629 41.2807 33.7453 40.4918 33.7453 39.5208V32.4814C33.7453 31.5104 32.9629 30.7216 31.9999 30.7216Z" fill="#1B202C" fill-opacity="0.1"/>
    <path fill-rule="evenodd" clip-rule="evenodd" d="M27.4007 15.3139H59.9998V51.2002C59.9998 52.0839 59.2835 52.8002 58.3998 52.8002H5.5998C4.71615 52.8002 3.9998 52.0839 3.9998 51.2002V20.5323H18.7086C19 20.5323 19.2856 20.4493 19.5332 20.2926L27.4007 15.3139ZM23.2726 43.0405C23.2726 44.0133 22.492 44.8004 21.5272 44.8004C20.5624 44.8004 19.7817 44.0133 19.7817 43.0405V41.2807H14.5454C13.9846 41.2807 13.4579 41.0092 13.1289 40.5502C12.8016 40.0914 12.7113 39.5002 12.8902 38.9639L16.3811 28.4048C16.6862 27.4819 17.663 26.9818 18.5885 27.2928C19.5022 27.5986 19.9965 28.5955 19.6914 29.5184L16.9675 37.761H19.7817V36.0011C19.7817 35.0284 20.5624 34.2413 21.5272 34.2413C22.492 34.2413 23.2726 35.0284 23.2726 36.0011V43.0405ZM37.2362 39.5208C37.2362 42.4321 34.8873 44.8004 31.9999 44.8004C29.1124 44.8004 26.7635 42.4321 26.7635 39.5208V32.4814C26.7635 29.5701 29.1124 27.2019 31.9999 27.2019C34.8873 27.2019 37.2362 29.5701 37.2362 32.4814V39.5208ZM51.1998 43.0405C51.1998 44.0133 50.4191 44.8004 49.4544 44.8004C48.4896 44.8004 47.7089 44.0133 47.7089 43.0405V41.2807H42.4726C41.9118 41.2807 41.385 41.0092 41.0561 40.5502C40.7287 40.0914 40.6384 39.5002 40.8174 38.9639L44.3083 28.4048C44.6117 27.4819 45.5918 26.9818 46.5157 27.2928C47.4294 27.5986 47.9237 28.5955 47.6186 29.5184L44.8947 37.761H47.7089V36.0011C47.7089 35.0284 48.4896 34.2413 49.4544 34.2413C50.4191 34.2413 51.1998 35.0284 51.1998 36.0011V43.0405Z" fill="#1B202C" fill-opacity="0.1"/>
</svg>
