<svg width="20" height="20" viewBox="0 0 20 20" fill="none" xmlns="http://www.w3.org/2000/svg">
<g clip-path="url(#clip0_11595_21641)">
<path d="M10 0.00195312C12.6711 0.00195312 15.1823 1.04187 17.0711 2.93008C18.9598 4.81836 20 7.32891 20 9.99929C20 12.6697 18.9598 15.1802 17.0711 17.0685C15.1823 18.9567 12.6711 19.9966 10 19.9966C7.32891 19.9966 4.8177 18.9567 2.92891 17.0685C1.0402 15.1802 0 12.6697 0 9.99929C0 8.19707 0.485039 6.4304 1.40273 4.89026C2.29367 3.39488 3.56508 2.15134 5.07949 1.29399C5.22035 1.21436 5.3991 1.2638 5.47879 1.40455C5.55852 1.54529 5.50898 1.72403 5.3682 1.80374C3.94223 2.61098 2.74504 3.78196 1.90609 5.19002C1.04246 6.63952 0.585938 8.30255 0.585938 9.99929C0.585938 12.5132 1.56516 14.8767 3.34324 16.6543C5.12133 18.4319 7.48539 19.4108 10 19.4108C12.5146 19.4108 14.8787 18.4319 16.6568 16.6543C18.4348 14.8767 19.4141 12.5132 19.4141 9.99929C19.4141 7.48535 18.4348 5.12192 16.6568 3.3443C14.8787 1.56669 12.5146 0.587735 10 0.587735C8.765 0.587735 7.56453 0.823062 6.43199 1.2872C6.28227 1.34851 6.11117 1.27693 6.0498 1.12724C5.9884 0.977553 6.06004 0.806504 6.20977 0.745154C7.41316 0.252004 8.6884 0.00195312 10 0.00195312ZM10 1.25611C12.336 1.25611 14.5322 2.16556 16.184 3.81691C17.8358 5.46831 18.7455 7.6639 18.7455 9.99929C18.7455 12.3347 17.8358 14.5303 16.184 16.1817C14.5322 17.833 12.336 18.7425 10 18.7425C8.9841 18.7425 7.98859 18.5698 7.04109 18.2293C6.88883 18.1746 6.80977 18.0068 6.86449 17.8546C6.91922 17.7024 7.08703 17.6234 7.2393 17.6781C8.12305 17.9956 9.05187 18.1567 10 18.1567C14.4992 18.1567 18.1596 14.4973 18.1596 9.99929C18.1596 5.50131 14.4992 1.84189 10 1.84189C5.50082 1.84189 1.84043 5.50131 1.84043 9.99929C1.84043 12.9932 3.47676 15.7417 6.11086 17.1723C6.25301 17.2495 6.30566 17.4273 6.22844 17.5695C6.15121 17.7116 5.97336 17.7642 5.83117 17.687C3.00816 16.1539 1.25449 13.2081 1.25449 9.99929C1.25449 7.6639 2.16418 5.46831 3.81598 3.81691C5.46781 2.16556 7.66398 1.25611 10 1.25611ZM11.0031 4.736L11.0674 4.91459L12.3659 8.52413L14.0642 8.52451V9.87445L12.8516 9.87406L13.083 10.5167L14.0642 10.5168V11.8667L13.5687 11.8667L14.4264 14.2487L14.5564 14.6101H12.4845L12.4217 14.4283L11.5361 11.8667H8.463L7.5783 14.4283L7.51545 14.6101H5.44358L5.57362 14.2487L6.43043 11.8667L5.93578 11.8667V10.5168L6.91615 10.5167L7.14758 9.87406L5.93578 9.87445V8.52451L7.63329 8.52413L8.93259 4.91459L8.99686 4.736H11.0031ZM10.847 9.87406H9.15215L8.92986 10.5167H11.0693L10.847 9.87406ZM9.99965 7.42239L9.61843 8.52413H10.3807L9.99965 7.42239Z"
      fill="#AF00C1" />
</g>
<defs>
<clipPath id="clip0_11595_21641">
<rect width="20" height="20" fill="white" />
</clipPath>
</defs>
</svg>
