<svg width="20" height="20" viewBox="0 0 20 20" fill="none" xmlns="http://www.w3.org/2000/svg">
<g clip-path="url(#clip0_10899_14378)">
<path d="M9.99996 19.165C15.0617 19.165 19.165 15.0617 19.165 9.99996C19.165 4.93827 15.0617 0.834961 9.99996 0.834961C4.93827 0.834961 0.834961 4.93827 0.834961 9.99996C0.834961 15.0617 4.93827 19.165 9.99996 19.165Z"
      fill="#321D47" />
<path d="M13.8763 12.5244H11.7494L11.3498 11.505H8.65039L8.25085 12.5244H6.12402L8.66927 6.46387H11.3278L13.8763 12.5244ZM10.0033 8.03901L9.29851 9.84766H10.7049L10.0033 8.03901Z"
      fill="white" />
<path d="M11.4173 3.7007C11.4173 4.48357 10.7826 5.1182 9.99978 5.1182C9.21692 5.1182 8.58228 4.48357 8.58228 3.7007C8.58228 2.91784 9.21692 2.2832 9.99978 2.2832C10.7826 2.2832 11.4173 2.91784 11.4173 3.7007Z"
      fill="#E40B7B" />
<path d="M11.4173 16.3007C11.4173 17.0836 10.7826 17.7182 9.99978 17.7182C9.21692 17.7182 8.58228 17.0836 8.58228 16.3007C8.58228 15.5178 9.21692 14.8832 9.99978 14.8832C10.7826 14.8832 11.4173 15.5178 11.4173 16.3007Z"
      fill="#E40B7B" />
<path d="M16.1644 8.0787C15.4864 8.47014 14.6195 8.23784 14.228 7.55986C13.8366 6.88188 14.0689 6.01495 14.7469 5.62352C15.4249 5.23209 16.2918 5.46438 16.6832 6.14236C17.0747 6.82034 16.8424 7.68727 16.1644 8.0787Z"
      fill="#E40B7B" />
<path d="M5.25247 14.3787C4.57449 14.7701 3.70756 14.5378 3.31613 13.8599C2.92469 13.1819 3.15699 12.315 3.83497 11.9235C4.51295 11.5321 5.37988 11.7644 5.77131 12.4424C6.16274 13.1203 5.93045 13.9873 5.25247 14.3787Z"
      fill="#E40B7B" />
<path d="M3.83496 8.0787C4.51294 8.47013 5.37987 8.23784 5.7713 7.55986C6.16274 6.88188 5.93044 6.01495 5.25246 5.62352C4.57448 5.23208 3.70755 5.46438 3.31612 6.14236C2.92469 6.82034 3.15698 7.68727 3.83496 8.0787Z"
      fill="#E40B7B" />
<path d="M14.7469 14.3787C15.4249 14.7701 16.2918 14.5378 16.6832 13.8599C17.0747 13.1819 16.8424 12.3149 16.1644 11.9235C15.4864 11.5321 14.6195 11.7644 14.228 12.4424C13.8366 13.1203 14.0689 13.9873 14.7469 14.3787Z"
      fill="#E40B7B" />
</g>
<defs>
<clipPath id="clip0_10899_14378">
<rect width="20" height="20" fill="white" />
</clipPath>
</defs>
</svg>
