<svg width="20" height="20" viewBox="0 0 20 20" fill="none" xmlns="http://www.w3.org/2000/svg">
<g clip-path="url(#clip0_11566_37261)">
<path d="M9.99996 19.1659C15.0617 19.1659 19.165 15.0626 19.165 10.0009C19.165 4.93925 15.0617 0.835938 9.99996 0.835938C4.93827 0.835938 0.834961 4.93925 0.834961 10.0009C0.834961 15.0626 4.93827 19.1659 9.99996 19.1659Z"
      fill="black" />
<path fill-rule="evenodd" clip-rule="evenodd"
      d="M12.264 9.82239C12.2862 9.81076 12.3079 9.79879 12.3292 9.78647C12.6028 9.62778 12.8025 9.43352 12.9283 9.2037C13.0542 8.9684 13.1171 8.70848 13.1171 8.42394C13.1171 7.95335 12.9557 7.58672 12.6329 7.32407C12.31 7.05594 11.864 6.92188 11.295 6.92188H6.63281L7.10067 9.9178L6.63281 13.0779H11.4673C12.1349 13.0779 12.6438 12.9165 12.994 12.5936C13.3497 12.2653 13.5275 11.8385 13.5275 11.3132C13.5275 10.8261 13.3497 10.4431 12.994 10.164C12.8002 10.012 12.5569 9.89809 12.264 9.82239ZM11.2211 11.5348C11.1171 11.6278 10.9748 11.6743 10.7943 11.6743H8.84755L9.01296 10.6073H10.7779C10.9694 10.6073 11.1171 10.6593 11.2211 10.7632C11.3251 10.8617 11.377 10.9876 11.377 11.1408C11.377 11.3049 11.3251 11.4363 11.2211 11.5348ZM9.00604 9.22832H10.4659C10.6082 9.22832 10.7259 9.18455 10.8189 9.097C10.9174 9.00944 10.9666 8.89727 10.9666 8.76047C10.9666 8.62914 10.9201 8.52517 10.8271 8.44856C10.7395 8.36648 10.6192 8.32544 10.4659 8.32544H8.85702L9.00604 9.22832Z"
      fill="white" />
<path d="M11.4173 3.7007C11.4173 4.48357 10.7826 5.1182 9.99978 5.1182C9.21692 5.1182 8.58228 4.48357 8.58228 3.7007C8.58228 2.91784 9.21692 2.2832 9.99978 2.2832C10.7826 2.2832 11.4173 2.91784 11.4173 3.7007Z"
      fill="#1CC776" />
<path d="M11.4173 16.3007C11.4173 17.0836 10.7826 17.7182 9.99978 17.7182C9.21692 17.7182 8.58228 17.0836 8.58228 16.3007C8.58228 15.5178 9.21692 14.8832 9.99978 14.8832C10.7826 14.8832 11.4173 15.5178 11.4173 16.3007Z"
      fill="#1CC776" />
<path d="M16.1644 8.0787C15.4864 8.47014 14.6195 8.23784 14.228 7.55986C13.8366 6.88188 14.0689 6.01495 14.7469 5.62352C15.4249 5.23209 16.2918 5.46438 16.6832 6.14236C17.0747 6.82034 16.8424 7.68727 16.1644 8.0787Z"
      fill="#1CC776" />
<path d="M5.25247 14.3787C4.57449 14.7701 3.70756 14.5378 3.31613 13.8599C2.92469 13.1819 3.15699 12.315 3.83497 11.9235C4.51295 11.5321 5.37988 11.7644 5.77131 12.4424C6.16274 13.1203 5.93045 13.9873 5.25247 14.3787Z"
      fill="#1CC776" />
<path d="M3.83496 8.0787C4.51294 8.47013 5.37987 8.23784 5.7713 7.55986C6.16274 6.88188 5.93044 6.01495 5.25246 5.62352C4.57448 5.23208 3.70755 5.46438 3.31612 6.14236C2.92469 6.82034 3.15698 7.68727 3.83496 8.0787Z"
      fill="#1CC776" />
<path d="M14.7469 14.3787C15.4249 14.7701 16.2918 14.5378 16.6832 13.8599C17.0747 13.1819 16.8424 12.3149 16.1644 11.9235C15.4864 11.5321 14.6195 11.7644 14.228 12.4424C13.8366 13.1203 14.0689 13.9873 14.7469 14.3787Z"
      fill="#1CC776" />
</g>
<defs>
<clipPath id="clip0_11566_37261">
<rect width="20" height="20" fill="white" />
</clipPath>
</defs>
</svg>
