<svg width="20" height="20" viewBox="0 0 20 20" fill="none" xmlns="http://www.w3.org/2000/svg">
<path d="M10.1785 19.3638C6.88513 19.3638 3.79182 17.6001 2.10819 14.7592C1.86195 14.3406 1.64342 13.9004 1.4649 13.451L1.20327 12.7893L1.78808 12.3861C2.66837 11.7797 3.17007 10.9087 3.17007 9.99144C3.17007 9.07424 2.66529 8.20319 1.78808 7.59682L1.2002 7.19359L1.4649 6.53185C1.64342 6.08553 1.85579 5.64848 2.10203 5.22988C3.78566 2.38587 6.87899 0.619141 10.1785 0.619141C13.0995 0.619141 15.8019 1.94573 17.5963 4.26341L18.1442 4.97134L13.4596 8.59097L12.9148 7.88614C12.2561 7.03354 11.2589 6.54417 10.1847 6.54417C9.74452 6.54417 9.3167 6.62726 8.91042 6.78731C8.47337 6.96277 8.07937 7.22132 7.74386 7.55682L6.48194 6.29485C6.98981 5.78698 7.58382 5.39611 8.24868 5.13138C8.86424 4.88515 9.51679 4.76206 10.1847 4.76206C11.5144 4.76206 12.764 5.25452 13.7212 6.13789L15.5988 4.68815C14.1768 3.23231 12.2469 2.4105 10.1816 2.4105C7.50995 2.4105 5.0076 3.84174 3.64407 6.14712C3.55481 6.29485 3.47479 6.44876 3.39476 6.60263C4.39817 7.51373 4.95835 8.72024 4.95835 9.99762C4.95835 11.275 4.39509 12.4815 3.39476 13.3957C3.47479 13.5526 3.55789 13.7065 3.64715 13.8573C5.01068 16.1566 7.51304 17.5878 10.1816 17.5878C11.8314 17.5878 13.4011 17.0645 14.7216 16.0796C15.0324 15.8457 15.3279 15.5902 15.5988 15.3132L13.7212 13.8635C12.764 14.7469 11.5144 15.2393 10.1847 15.2393C8.78729 15.2393 7.47304 14.6945 6.48503 13.7065L7.74695 12.4446C8.3995 13.0971 9.26438 13.4572 10.1847 13.4572C11.2589 13.4572 12.2531 12.9678 12.9148 12.1152L13.4596 11.4104L18.1442 15.03L17.5963 15.7349C17.0762 16.4059 16.4698 17.003 15.7896 17.5139C14.1583 18.7328 12.2192 19.3791 10.1816 19.3791L10.1785 19.3638Z"
      fill="#AA44F3" />
</svg>
