<svg width="20" height="20" viewBox="0 0 20 20" fill="none" xmlns="http://www.w3.org/2000/svg">
<path d="M3.37416 5.14544L10.3901 0.941957C10.6322 0.796691 10.9299 0.796691 11.1721 0.941957L15.5909 3.58902C16.0352 3.85419 16.1152 4.48598 15.7531 4.86413L14.2557 6.42747C14.0069 6.68802 13.6181 6.74106 13.3115 6.55659L11.1788 5.27918C10.9322 5.13161 10.6278 5.13161 10.3812 5.27918L2.98315 9.75705V5.84871C2.98315 5.55818 3.132 5.29071 3.37416 5.14544Z"
      fill="#FA8C16" />
<path d="M15.6065 16.4011L11.1699 19.0597C10.9277 19.205 10.63 19.205 10.3901 19.0597L3.37416 14.8562C3.132 14.711 2.98315 14.4435 2.98315 14.153V10.6089L6.59775 8.43457V11.9878C6.59775 12.2784 6.7466 12.5458 6.98876 12.6888L10.3901 14.7271C10.6322 14.8724 10.9299 14.8724 11.1699 14.7271L13.3226 13.4382C13.6292 13.2537 14.0158 13.3067 14.2646 13.5673L15.7664 15.126C16.1308 15.5019 16.0508 16.136 15.6065 16.4011Z"
      fill="#262627" />
</svg>
