<?xml version="1.0" encoding="UTF-8"?><svg id="Layer_1" xmlns="http://www.w3.org/2000/svg" viewBox="0 0 2995.62 327.34"><defs><style>.cls-1,.cls-2,.cls-3{fill-rule:evenodd;}.cls-1,.cls-2,.cls-3,.cls-4,.cls-5,.cls-6{stroke-width:0px;}.cls-1,.cls-5{fill:#149b9b;}.cls-2,.cls-4{fill:#262626;}.cls-3,.cls-6{fill:#fff;}</style></defs><path class="cls-5" d="m188.23,298.53H18.5c-10.2,0-18.5-7.81-18.5-17.4V42.31c0-9.59,8.3-17.4,18.5-17.4h427.38c10.2,0,18.5,7.81,18.5,17.4v238.82c0,6.96-4.41,13.24-11.24,15.99l-4.86-12.06c1.88-.76,3.1-2.3,3.1-3.94V42.31c0-2.38-2.52-4.4-5.5-4.4H18.5c-2.98,0-5.5,2.01-5.5,4.4v238.82c0,2.38,2.52,4.4,5.5,4.4h169.73v13Z"/><path class="cls-5" d="m158.31,131.03c-10.63-2.78-25.37-2.86-39.52,5.47-14.43,8.5-20.2,22.06-22.82,33.44-.89,3.85-3.01,6.03-5.63,6.03-1.57,0-3.01-.26-3.49-1.39v-82.08l-26.73,4.07v35.65c-3.95-1.32-7.64-1.97-11.06-1.97-17.51,0-29.36,15.41-29.23,32.92.13,21.73,12.38,35.02,26.33,34.76,5.66,0,19.78-1.11,24.06-5.4h.35c6.67,6.43,16.67,9.3,26.65,6.32l1.77-.53c11.47-3.43,17.95-13.42,20.25-22.41,2.1-8.18,4.68-13.8,12.05-18.94,4.78-3.33,11.77-3.97,18.69-3.08,6.08.79,10.96,3.8,10.96,4.92,0,0-11.98-3.79-22.06-.96-13.26,3.72-14.76,15.67-13.76,22.57,1,6.9,5.81,14.87,16.7,17.12,9.06,1.87,16.82-2.23,19.63-4.11v4.63h23.53v-38.81c.16-18.46-13.66-24.82-26.67-28.22Zm-98.19,39.9c-.13,4.74-1.84,11.32-7.77,9.88-5.92-1.45-6.06-8.56-6.06-17.64,0-11.32,3.03-16.33,8.16-15.54,3.95.66,5.66,4.21,5.66,9.22v14.09Zm95.32,11.4c-4.2,0-6.87-2.54-6.87-6.48s2.8-6.48,6.87-6.48,5.98,2.42,5.98,6.48-1.78,6.48-5.98,6.48Z"/><path class="cls-5" d="m314.97,173.12c-3.09,2.42-7.26,4.43-12.09,4.43-7.66,0-15.18-4.84-15.18-13.17,0-6.18,4.97-11.02,10.61-12.5,3.49-.94,12.23-.27,16.66,3.9v-25.26c-2.55-2.02-13.97-2.02-16.53-2.02-20.02,0-35.61,14.92-35.61,35.88s15.59,36.15,35.61,36.15c2.55,0,13.3-.4,16.53-2.15v-25.26Z"/><path class="cls-5" d="m354.86,200.4c11.15,0,25.4-3.22,33.59-21.63l-21.36-4.03c-3.63,3.76-8.47,4.7-12.23,4.7s-6.72-1.88-8.87-4.84l43.13-10.08c-.27-21.5-14.24-36.15-34.26-36.15s-34.26,14.92-34.26,35.88,14.24,36.15,34.26,36.15Zm0-53.34c4.3,0,7.66,2.28,9.81,5.78l-21.23,4.3c1.48-5.64,5.51-10.08,11.42-10.08Z"/><path class="cls-5" d="m267.88,228.09c-3.49,0-7.26.67-11.29,2.02v-29.98h0v-31.58c.4-22.44-2.55-40.18-20.42-40.04-8.33,0-14.11,3.76-17.74,8.06v-6.99h-27.28v70.54h27.28v-44.34s.81-4.7,4.3-5.64c6.85-1.61,6.58,9.54,6.58,18.41v31.05h0v97.82h27.28v-5.78c3.49,3.09,8.47,5.51,14.24,5.51,14.24.27,26.74-13.3,26.87-35.47.13-17.87-11.96-33.59-29.83-33.59Zm-3.36,51.6c-5.91,1.48-7.79-5.24-7.93-10.08v-14.38c0-5.11,1.75-8.73,5.78-9.41,5.24-.81,8.33,4.3,8.33,15.86,0,9.27-.13,16.53-6.18,18.01Z"/><path class="cls-5" d="m340.55,225.81c-20.02,0-35.61,14.92-35.61,35.88s15.59,36.15,35.61,36.15,35.61-15.05,35.61-36.15-15.59-35.88-35.61-35.88Zm-.13,48.51c-6.05,0-10.61-6.18-10.61-12.63s4.7-12.5,10.61-12.5,10.75,6.32,10.75,12.5-4.7,12.63-10.75,12.63Z"/><polygon class="cls-5" points="447.09 226.88 419.81 226.88 409.46 242.2 398.98 226.88 371.71 226.88 394.15 259.67 371.71 297.43 398.98 297.43 408.66 281.03 419.81 297.43 447.09 297.43 423.04 262.09 447.09 226.88"/><path class="cls-1" d="m223.99,288.99l-14.73,1.47-8.14,11.65-1.65-14.11-12.28-8.27,14.73-1.47,8.14-11.65,1.65,14.11,12.28,8.27h0Z"/><path class="cls-4" d="m1228.23,298.53h-169.73c-10.2,0-18.5-7.81-18.5-17.4V42.31c0-9.59,8.3-17.4,18.5-17.4h427.38c10.2,0,18.5,7.81,18.5,17.4v238.82c0,6.96-4.41,13.24-11.24,15.99l-4.86-12.06c1.88-.76,3.1-2.3,3.1-3.94V42.31c0-2.38-2.52-4.4-5.5-4.4h-427.38c-2.98,0-5.5,2.01-5.5,4.4v238.82c0,2.38,2.52,4.4,5.5,4.4h169.73v13Z"/><path class="cls-4" d="m1198.31,131.03c-10.63-2.78-25.37-2.86-39.52,5.47-14.43,8.5-20.2,22.06-22.82,33.44-.89,3.85-3.01,6.03-5.63,6.03-1.57,0-3.01-.26-3.49-1.39v-82.08l-26.73,4.07v35.65c-3.95-1.32-7.64-1.97-11.06-1.97-17.51,0-29.36,15.41-29.23,32.92.13,21.73,12.38,35.02,26.33,34.76,5.66,0,19.78-1.11,24.06-5.4h.35c6.67,6.43,16.67,9.3,26.65,6.32l1.77-.53c11.47-3.43,17.95-13.42,20.25-22.41,2.1-8.18,4.68-13.8,12.05-18.94,4.78-3.33,11.77-3.97,18.69-3.08,6.08.79,10.96,3.8,10.96,4.92,0,0-11.98-3.79-22.06-.96-13.26,3.72-14.76,15.67-13.76,22.57,1,6.9,5.81,14.87,16.7,17.12,9.06,1.87,16.82-2.23,19.63-4.11v4.63h23.53v-38.81c.16-18.46-13.66-24.82-26.67-28.22Zm-98.19,39.9c-.13,4.74-1.84,11.32-7.77,9.88-5.92-1.45-6.06-8.56-6.06-17.64,0-11.32,3.03-16.33,8.16-15.54,3.95.66,5.66,4.21,5.66,9.22v14.09Zm95.32,11.4c-4.2,0-6.87-2.54-6.87-6.48s2.8-6.48,6.87-6.48,5.98,2.42,5.98,6.48-1.78,6.48-5.98,6.48Z"/><path class="cls-4" d="m1354.97,173.12c-3.09,2.42-7.26,4.43-12.09,4.43-7.66,0-15.18-4.84-15.18-13.17,0-6.18,4.97-11.02,10.61-12.5,3.49-.94,12.23-.27,16.66,3.9v-25.26c-2.55-2.02-13.97-2.02-16.53-2.02-20.02,0-35.61,14.92-35.61,35.88s15.59,36.15,35.61,36.15c2.55,0,13.3-.4,16.53-2.15v-25.26Z"/><path class="cls-4" d="m1394.86,200.4c11.15,0,25.4-3.22,33.59-21.63l-21.36-4.03c-3.63,3.76-8.47,4.7-12.23,4.7s-6.72-1.88-8.87-4.84l43.13-10.08c-.27-21.5-14.24-36.15-34.26-36.15s-34.26,14.92-34.26,35.88,14.24,36.15,34.26,36.15Zm0-53.34c4.3,0,7.66,2.28,9.81,5.78l-21.23,4.3c1.48-5.64,5.51-10.08,11.42-10.08Z"/><path class="cls-4" d="m1307.88,228.09c-3.49,0-7.26.67-11.29,2.02v-29.98h0v-31.58c.4-22.44-2.55-40.18-20.42-40.04-8.33,0-14.11,3.76-17.74,8.06v-6.99h-27.28v70.54h27.28v-44.34s.81-4.7,4.3-5.64c6.85-1.61,6.58,9.54,6.58,18.41v31.05h0v97.82h27.28v-5.78c3.49,3.09,8.47,5.51,14.24,5.51,14.24.27,26.74-13.3,26.87-35.47.13-17.87-11.96-33.59-29.83-33.59Zm-3.36,51.6c-5.91,1.48-7.79-5.24-7.93-10.08v-14.38c0-5.11,1.75-8.73,5.78-9.41,5.24-.81,8.33,4.3,8.33,15.86,0,9.27-.13,16.53-6.18,18.01Z"/><path class="cls-4" d="m1380.55,225.81c-20.02,0-35.61,14.92-35.61,35.88s15.59,36.15,35.61,36.15,35.61-15.05,35.61-36.15-15.59-35.88-35.61-35.88Zm-.13,48.51c-6.05,0-10.61-6.18-10.61-12.63s4.7-12.5,10.61-12.5,10.75,6.32,10.75,12.5-4.7,12.63-10.75,12.63Z"/><polygon class="cls-4" points="1487.09 226.88 1459.81 226.88 1449.46 242.2 1438.98 226.88 1411.71 226.88 1434.15 259.67 1411.71 297.43 1438.98 297.43 1448.66 281.03 1459.81 297.43 1487.09 297.43 1463.04 262.09 1487.09 226.88"/><path class="cls-2" d="m1263.99,288.99l-14.73,1.47-8.14,11.65-1.65-14.11-12.28-8.27,14.73-1.47,8.14-11.65,1.65,14.11,12.28,8.27h0Z"/><path class="cls-6" d="m2268.23,298.53h-169.73c-10.2,0-18.5-7.81-18.5-17.4V42.31c0-9.59,8.3-17.4,18.5-17.4h427.38c10.2,0,18.5,7.81,18.5,17.4v238.82c0,6.96-4.41,13.24-11.24,15.99l-4.86-12.06c1.88-.76,3.1-2.3,3.1-3.94V42.31c0-2.38-2.52-4.4-5.5-4.4h-427.38c-2.98,0-5.5,2.01-5.5,4.4v238.82c0,2.38,2.52,4.4,5.5,4.4h169.73v13Z"/><path class="cls-6" d="m2238.31,131.03c-10.63-2.78-25.37-2.86-39.52,5.47-14.43,8.5-20.2,22.06-22.82,33.44-.89,3.85-3.01,6.03-5.63,6.03-1.57,0-3.01-.26-3.49-1.39v-82.08l-26.73,4.07v35.65c-3.95-1.32-7.64-1.97-11.06-1.97-17.51,0-29.36,15.41-29.23,32.92.13,21.73,12.38,35.02,26.33,34.76,5.66,0,19.78-1.11,24.06-5.4h.35c6.67,6.43,16.67,9.3,26.65,6.32l1.77-.53c11.47-3.43,17.95-13.42,20.25-22.41,2.1-8.18,4.68-13.8,12.05-18.94,4.78-3.33,11.77-3.97,18.69-3.08,6.08.79,10.96,3.8,10.96,4.92,0,0-11.98-3.79-22.06-.96-13.26,3.72-14.76,15.67-13.76,22.57,1,6.9,5.81,14.87,16.7,17.12,9.06,1.87,16.82-2.23,19.63-4.11v4.63h23.53v-38.81c.16-18.46-13.66-24.82-26.67-28.22Zm-98.19,39.9c-.13,4.74-1.84,11.32-7.77,9.88-5.92-1.45-6.06-8.56-6.06-17.64,0-11.32,3.03-16.33,8.16-15.54,3.95.66,5.66,4.21,5.66,9.22v14.09Zm95.32,11.4c-4.2,0-6.87-2.54-6.87-6.48s2.8-6.48,6.87-6.48,5.98,2.42,5.98,6.48-1.78,6.48-5.98,6.48Z"/><path class="cls-6" d="m2394.97,173.12c-3.09,2.42-7.26,4.43-12.09,4.43-7.66,0-15.18-4.84-15.18-13.17,0-6.18,4.97-11.02,10.61-12.5,3.49-.94,12.23-.27,16.66,3.9v-25.26c-2.55-2.02-13.97-2.02-16.53-2.02-20.02,0-35.61,14.92-35.61,35.88s15.59,36.15,35.61,36.15c2.55,0,13.3-.4,16.53-2.15v-25.26Z"/><path class="cls-6" d="m2434.86,200.4c11.15,0,25.4-3.22,33.59-21.63l-21.36-4.03c-3.63,3.76-8.47,4.7-12.23,4.7s-6.72-1.88-8.87-4.84l43.13-10.08c-.27-21.5-14.24-36.15-34.26-36.15s-34.26,14.92-34.26,35.88,14.24,36.15,34.26,36.15Zm0-53.34c4.3,0,7.66,2.28,9.81,5.78l-21.23,4.3c1.48-5.64,5.51-10.08,11.42-10.08Z"/><path class="cls-6" d="m2347.88,228.09c-3.49,0-7.26.67-11.29,2.02v-29.98h0v-31.58c.4-22.44-2.55-40.18-20.42-40.04-8.33,0-14.11,3.76-17.74,8.06v-6.99h-27.28v70.54h27.28v-44.34s.81-4.7,4.3-5.64c6.85-1.61,6.58,9.54,6.58,18.41v31.05h0v97.82h27.28v-5.78c3.49,3.09,8.47,5.51,14.24,5.51,14.24.27,26.74-13.3,26.87-35.47.13-17.87-11.96-33.59-29.83-33.59Zm-3.36,51.6c-5.91,1.48-7.79-5.24-7.93-10.08v-14.38c0-5.11,1.75-8.73,5.78-9.41,5.24-.81,8.33,4.3,8.33,15.86,0,9.27-.13,16.53-6.18,18.01Z"/><path class="cls-6" d="m2420.55,225.81c-20.02,0-35.61,14.92-35.61,35.88s15.59,36.15,35.61,36.15,35.61-15.05,35.61-36.15-15.59-35.88-35.61-35.88Zm-.13,48.51c-6.05,0-10.61-6.18-10.61-12.63s4.7-12.5,10.61-12.5,10.75,6.32,10.75,12.5-4.7,12.63-10.75,12.63Z"/><polygon class="cls-6" points="2527.09 226.88 2499.81 226.88 2489.46 242.2 2478.98 226.88 2451.71 226.88 2474.15 259.67 2451.71 297.43 2478.98 297.43 2488.66 281.03 2499.81 297.43 2527.09 297.43 2503.04 262.09 2527.09 226.88"/><path class="cls-3" d="m2303.99,288.99l-14.73,1.47-8.14,11.65-1.65-14.11-12.28-8.27,14.73-1.47,8.14-11.65,1.65,14.11,12.28,8.27h0Z"/><path class="cls-5" d="m673.06,327.34h-75.68c-10.04,0-17.61-10.27-17.61-23.88V23.88c0-13.61,7.57-23.88,17.61-23.88h279.38c10.04,0,17.61,10.27,17.61,23.88v164.72h-18V23.88c0-2.81-.68-4.85-1.24-5.88h-276.12c-.56,1.03-1.24,3.07-1.24,5.88v279.58c0,2.81.68,4.85,1.24,5.88h74.05v18Z"/><path class="cls-5" d="m893.52,261.42l-17.99-4.07c-2.21,11.04-19.25,13.41-26.01,13.41-3.99,0-7.71-.58-9-3.19V72.64l-68.9,9.66v84.62c-10.18-3.12-19.69-4.69-28.51-4.69-45.14,0-75.69,36.56-75.35,78.12.34,51.56,31.91,83.12,67.88,82.5,14.59,0,50.99-2.65,62.03-12.81l2.25.03c16.6,12.8,40.76,17.77,65.68,12.18l4.57-1.26c29.56-10.35,29.67-38.07,23.36-59.58Zm-121.9-2.63c-.34,11.25-4.75,26.87-20.03,23.44-15.27-3.44-15.61-20.31-15.61-41.87,0-26.87,7.81-38.75,21.04-36.87,10.18,1.56,14.59,10,14.59,21.87v33.44Z"/><path class="cls-1" d="m901.39,254.16l-13.87-15.72-20.13.28,14.87-13.57-.65-20.96,13.87,15.72,20.13-.29-14.87,13.57.65,20.96h0Z"/><path class="cls-4" d="m1713.06,327.34h-75.68c-10.04,0-17.61-10.27-17.61-23.88V23.88c0-13.61,7.57-23.88,17.61-23.88h279.38c10.04,0,17.61,10.27,17.61,23.88v164.72h-18V23.88c0-2.81-.68-4.85-1.24-5.88h-276.12c-.56,1.03-1.24,3.07-1.24,5.88v279.58c0,2.81.68,4.85,1.24,5.88h74.05v18Z"/><path class="cls-4" d="m1933.52,261.42l-17.99-4.07c-2.21,11.04-19.25,13.41-26.01,13.41-3.99,0-7.71-.58-9-3.19V72.64l-68.9,9.66v84.62c-10.18-3.12-19.69-4.69-28.51-4.69-45.14,0-75.69,36.56-75.35,78.12.34,51.56,31.91,83.12,67.88,82.5,14.59,0,50.99-2.65,62.03-12.81l2.25.03c16.6,12.8,40.76,17.77,65.68,12.18l4.57-1.26c29.56-10.35,29.67-38.07,23.36-59.58Zm-121.9-2.63c-.34,11.25-4.75,26.87-20.03,23.44-15.27-3.44-15.61-20.31-15.61-41.87,0-26.87,7.81-38.75,21.04-36.87,10.18,1.56,14.59,10,14.59,21.87v33.44Z"/><path class="cls-2" d="m1941.39,254.16l-13.87-15.72-20.13.28,14.87-13.57-.65-20.96,13.87,15.72,20.13-.29-14.87,13.57.65,20.96h0Z"/><path class="cls-6" d="m2753.06,327.34h-75.68c-10.04,0-17.61-10.27-17.61-23.88V23.88c0-13.61,7.57-23.88,17.61-23.88h279.38c10.04,0,17.61,10.27,17.61,23.88v164.72h-18V23.88c0-2.81-.68-4.85-1.24-5.88h-276.12c-.56,1.03-1.24,3.07-1.24,5.88v279.58c0,2.81.68,4.85,1.24,5.88h74.05v18Z"/><path class="cls-6" d="m2973.52,261.42l-17.99-4.07c-2.21,11.04-19.25,13.41-26.01,13.41-3.99,0-7.71-.58-9-3.19V72.64l-68.9,9.66v84.62c-10.18-3.12-19.69-4.69-28.51-4.69-45.14,0-75.69,36.56-75.35,78.12.34,51.56,31.91,83.12,67.88,82.5,14.59,0,50.99-2.65,62.03-12.81l2.25.03c16.6,12.8,40.76,17.77,65.68,12.18l4.57-1.26c29.56-10.35,29.67-38.07,23.36-59.58Zm-121.9-2.63c-.34,11.25-4.75,26.87-20.03,23.44-15.27-3.44-15.61-20.31-15.61-41.87,0-26.87,7.81-38.75,21.04-36.87,10.18,1.56,14.59,10,14.59,21.87v33.44Z"/><path class="cls-3" d="m2981.39,254.16l-13.87-15.72-20.13.28,14.87-13.57-.65-20.96,13.87,15.72,20.13-.29-14.87,13.57.65,20.96h0Z"/></svg>