<svg width="20" height="20" viewBox="0 0 20 20" fill="none" xmlns="http://www.w3.org/2000/svg">
<g clip-path="url(#clip0_12896_2684)">
<mask id="mask0_12896_2684" style="mask-type:luminance" maskUnits="userSpaceOnUse" x="0" y="0" width="20" height="20">
<path d="M20 0H0V20H20V0Z" fill="white"/>
</mask>
<g mask="url(#mask0_12896_2684)">
<path d="M18.4772 6.00141C18.2561 5.02783 16.7798 5.51775 16.1799 5.89251C15.8144 6.12104 15.9033 6.21339 15.3754 6.21652C15.3663 6.21652 15.3282 6.21921 15.2764 6.22301C15.1987 6.22882 15.1611 6.13916 15.2228 6.096C15.2236 6.09555 15.2243 6.09488 15.225 6.09444C15.9861 5.56202 16.6641 4.89254 17.0225 3.99789C17.2941 3.32014 17.5239 2.53885 17.2151 1.78999C17.1048 1.52233 16.8451 1.26518 16.5726 1.46329C16.3681 1.61221 16.3224 1.98161 16.2616 2.2173C16.2585 2.23004 16.2548 2.24346 16.2454 2.25219C16.2379 2.25934 16.2253 2.2618 16.2162 2.25688C16.214 2.25576 16.2121 2.25419 16.2104 2.25219C16.2064 2.24749 16.2047 2.24123 16.2032 2.23519C16.1047 1.83672 15.7448 1.47134 15.3791 1.31706C15.1901 1.23723 14.8754 1.31057 14.8526 1.53216C14.8229 1.82084 15.071 2.13322 15.2405 2.3537C15.326 2.46484 15.4518 2.60749 15.5041 2.75485C15.5254 2.81523 15.4561 2.86889 15.3943 2.84005C15.2761 2.78504 15.157 2.69694 15.0383 2.66228C14.8592 2.60973 14.7175 2.66116 14.6794 2.85078C14.6644 2.92479 14.6735 3.00328 14.7013 3.0764C14.7629 3.23829 14.8661 3.36955 14.9904 3.48449C15.2619 3.73559 15.5626 3.98626 15.4284 4.38294C15.3272 4.68213 15.0044 4.90797 14.6853 4.77515C14.5306 4.71075 14.3954 4.58933 14.2834 4.46232C14.1093 4.26488 13.8361 3.98984 13.5759 4.17051C13.3224 4.34649 13.4617 4.74071 13.5315 4.99764C13.6145 5.30309 13.6924 5.73554 13.4821 5.98554C13.3153 6.18343 12.9179 6.24626 12.6813 6.11836C12.2961 5.91018 12.1175 5.47012 11.8271 5.19106C11.6554 5.02604 11.4245 4.97617 11.2786 5.16914C11.1229 5.37487 11.1929 5.61256 11.2285 5.85562C11.2509 6.00834 11.2263 6.16219 11.1722 6.30038C10.9983 6.7458 10.1702 6.61566 10.0378 6.14631C9.96536 5.88961 10.0344 5.62486 9.97071 5.36838C9.90514 5.10363 9.64057 4.77739 9.37971 5.01486C9.249 5.13381 9.24385 5.28408 9.21807 5.43524C9.206 5.50634 9.09814 5.51708 9.06871 5.45022C8.95178 5.18591 8.9085 4.84894 8.82178 4.59492C8.71371 4.27896 8.39707 3.98447 8.13521 4.31004C8.03864 4.43012 8.00621 4.59358 7.99371 4.75324C7.98093 4.91602 7.98635 5.0844 8.02785 5.24674C8.03593 5.27826 8.07971 5.42942 8.12221 5.54592C8.14407 5.60563 8.07528 5.66019 8.01385 5.63157C7.87678 5.56762 7.75171 5.46811 7.6095 5.41646C7.14178 5.24674 7.00176 5.68747 7.18035 6.05911C7.43314 6.58481 7.91071 6.94794 8.41721 7.18719C9.28486 7.59734 10.2085 7.73391 11.1147 7.67555C11.5233 7.64919 11.9281 7.58319 12.3229 7.48462C12.6044 7.41441 12.8761 7.32834 13.1396 7.22855C13.2062 7.20355 13.2711 7.26748 13.2386 7.32605C13.1981 7.39898 13.1559 7.47748 13.1111 7.56219C13.0144 7.74619 12.3914 8.10626 12.3759 8.10962C12.2221 8.14291 12.0603 8.10198 11.9166 8.04205C11.5655 7.89562 11.2651 7.73926 10.8624 7.75941C10.2571 7.78984 9.90907 8.15184 9.48507 8.49198C9.35214 8.59862 9.18807 8.81326 9.01585 8.85555C8.82428 8.90269 8.48257 8.80655 8.28035 8.79562C7.79178 8.76876 7.2845 8.76562 6.81015 8.88998C6.29403 9.02526 4.79161 9.81441 4.44254 10.1791C4.0124 10.6288 4.17969 11.0073 4.79358 10.9866C4.84345 10.9848 4.88201 11.0259 4.87268 11.0706L4.63095 12.2188C4.63022 12.2226 4.62973 12.2262 4.62948 12.23C4.61573 12.5822 4.63169 12.9303 4.68573 13.2767C4.69065 13.3076 4.6732 13.3382 4.64176 13.351C4.46514 13.4218 3.92593 13.4268 3.85051 13.7316C3.81023 13.8946 3.90849 16.0602 3.87975 16.0595C3.25284 16.0434 2.07886 16.2386 1.77032 16.8131C1.59394 17.1413 1.86244 17.3037 2.13905 17.4148C2.20439 17.441 2.19997 17.5261 2.13241 17.5467C1.8057 17.6473 1.37482 17.8502 1.53425 18.1671C1.69883 18.4939 2.23313 18.5521 2.57459 18.5921C3.09194 18.6525 3.61468 18.6867 4.13572 18.7061C5.57918 18.7601 7.02534 18.7131 8.46957 18.7475C10.5372 18.7969 12.6324 18.8088 14.6129 18.1912C15.0174 18.0651 15.8195 17.894 15.8627 17.4121C15.8915 17.0911 15.2441 16.9835 14.9894 16.9544C14.9201 16.9463 14.6934 16.9515 14.5337 16.9269C14.4635 16.9161 14.4456 16.8334 14.5048 16.7974C14.7445 16.6516 14.9369 16.3583 14.6467 16.1673C14.2324 15.8943 13.2236 15.9983 12.725 16.0246C12.5732 16.0327 12.5189 13.7716 12.5499 13.3999C12.5516 13.3778 12.5649 13.3581 12.5852 13.3458C12.7574 13.2414 12.9464 13.2148 13.1154 13.0929C13.3851 12.8983 13.5769 12.6021 13.7541 12.3387C13.8501 12.1956 13.955 12.0491 14.0331 11.8973C14.1073 11.7531 14.1336 11.5724 14.2495 11.4485C14.3864 11.3025 14.5409 11.2951 14.6617 11.112C14.7745 10.9413 14.8718 10.7627 14.9614 10.5813C15.0904 10.3204 15.1636 9.63305 15.4701 9.49505C15.5913 9.44048 15.7809 9.50062 15.9219 9.45326C16.0509 9.40984 16.157 9.33048 16.2476 9.23812C16.6456 8.83226 16.723 8.22634 16.8724 7.71869C16.877 7.70262 16.8881 7.68855 16.9029 7.67891C17.0399 7.58926 17.2209 7.61091 17.3767 7.56062C18.0846 7.33162 18.6435 6.72993 18.4779 6.00164L18.4772 6.00141ZM11.6814 16.1241C11.4665 16.1251 11.2565 16.1733 11.0464 16.2145C11.0071 16.2221 10.9659 16.2028 10.9539 16.1678C10.9015 16.0143 10.6166 15.969 10.4571 15.9558C9.69193 15.8925 8.94928 16.1255 8.19243 16.1241C8.17207 16.1241 8.02785 15.6604 8.01064 15.6126C7.90328 15.3142 7.86864 15.0005 7.83107 14.6901C7.78885 14.3413 7.76135 13.9891 7.79157 13.6385C7.81735 13.34 7.4415 13.5496 7.30857 13.6392C7.02804 13.8286 6.67405 14.0969 6.49301 14.372C6.33702 14.6094 6.63426 15.0206 6.75119 15.2344C6.77404 15.276 6.91922 15.4864 6.99243 15.6371C7.02068 15.6951 6.95803 15.7545 6.89293 15.7319C6.35913 15.5459 5.50646 15.5944 5.31805 16.1333C5.30625 16.1673 5.2672 16.187 5.22863 16.1798L4.92967 16.1237C4.88693 16.1156 4.85966 16.0772 4.86948 16.0385C4.96627 15.6506 5.17925 15.2443 5.40992 14.912C5.65582 14.5578 5.9823 14.2427 6.30066 13.9426C6.5473 13.7103 6.79443 13.4659 7.07938 13.2718C7.27814 13.1365 7.47928 12.9847 7.72228 12.9214C7.93228 12.8666 8.147 12.9123 8.35657 12.9426C8.95321 13.0294 9.59757 12.9418 10.1621 13.1725C10.477 13.3013 10.647 13.5967 10.8086 13.8578C11.0246 14.2063 11.1179 14.6003 11.2857 14.9672C11.4474 15.3201 11.6306 15.6666 11.7544 16.0327C11.7696 16.0781 11.7331 16.1243 11.681 16.1246L11.6814 16.1241ZM15.5972 7.17041C15.5151 7.33412 15.2019 7.55126 14.9916 7.42648C14.8054 7.31576 15.0314 7.15434 15.1349 7.08837C15.2209 7.03336 15.3218 6.97276 15.4306 6.96069C15.5144 6.95152 15.58 6.99155 15.6043 7.04991C15.6191 7.08546 15.6186 7.12795 15.5974 7.17041H15.5972Z" fill="#2A1605"/>
<path d="M13.7288 13.9238C13.5828 14.1595 13.3946 14.373 13.218 14.5897C13.1237 14.7055 13.0298 14.822 12.9421 14.9421C12.8598 15.0548 12.7459 15.1673 12.7635 15.3129C12.7837 15.4785 12.8002 15.6592 12.8466 15.8209C12.8579 15.8604 13.179 15.6174 13.1993 15.5989C13.4762 15.3444 13.758 15.0944 14.0318 14.837C14.0881 14.7842 14.1441 14.7312 14.1996 14.6778C14.4655 14.4231 14.7258 14.1635 14.9953 13.9121C15.213 13.7091 15.4711 13.4748 15.4945 13.1749C15.5083 12.9991 15.382 12.8006 15.2955 12.6508C15.1975 12.4811 15.0548 12.3386 14.913 12.1986C14.8143 12.1009 14.7219 11.9862 14.6133 11.8921C14.5816 11.8646 14.4775 11.7635 14.4375 11.7868C14.4035 11.8066 14.4092 11.8843 14.4006 11.9167C14.3058 12.2747 14.0275 12.5679 13.783 12.85C13.7307 12.9104 13.6766 12.9696 13.6209 13.0274C13.571 13.0792 13.4868 13.1204 13.56 13.1711C13.6413 13.2275 13.7808 13.2481 13.8766 13.2769C13.9073 13.2861 14.066 13.3158 14.0726 13.3531C14.0753 13.3686 14.0687 13.3838 14.062 13.3981C13.9746 13.5834 13.8378 13.748 13.729 13.9234L13.7288 13.9238Z" fill="#2A1605"/>
</g>
</g>
<defs>
<clipPath id="clip0_12896_2684">
<rect width="20" height="20" fill="white"/>
</clipPath>
</defs>
</svg>
