<svg width="44" height="44" viewBox="0 0 44 44" fill="none" xmlns="http://www.w3.org/2000/svg">
<g clip-path="url(#clip0_9340_15975)">
<rect width="44" height="44" rx="8" fill="url(#paint0_linear_9340_15975)"/>
<path fill-rule="evenodd" clip-rule="evenodd" d="M13.7516 15.1949C13.7516 13.4872 15.1809 12.1416 16.8954 12.1416C18.6098 12.1416 20.0391 13.4872 20.0391 15.1949C20.0391 16.9025 18.6098 18.2481 16.8954 18.2481C15.1809 18.2481 13.7516 16.9025 13.7516 15.1949ZM16.8954 13.3916C15.8277 13.3916 15.0016 14.2203 15.0016 15.1949C15.0016 16.1694 15.8277 16.9981 16.8954 16.9981C17.9629 16.9981 18.7891 16.1694 18.7891 15.1949C18.7891 14.2203 17.9629 13.3916 16.8954 13.3916ZM16.8951 21.165C14.7135 21.165 12.9851 22.863 12.9851 24.9091L12.9851 30.2491C12.9851 30.4184 13.1343 30.595 13.3679 30.595H17.8951C18.2403 30.595 18.5201 30.8748 18.5201 31.22C18.5201 31.5652 18.2403 31.845 17.8951 31.845H13.3679C12.4883 31.845 11.7351 31.1522 11.7351 30.2491V24.9091C11.7351 22.1292 14.0675 19.915 16.8951 19.915C18.5593 19.915 20.0455 20.6787 20.9909 21.871C21.2054 22.1415 21.16 22.5346 20.8895 22.7491C20.619 22.9635 20.2259 22.9181 20.0114 22.6476C19.2996 21.7498 18.1718 21.165 16.8951 21.165ZM29.011 21.1141C28.7598 21.0101 28.4905 20.9566 28.2186 20.9567C27.9467 20.9567 27.6775 21.0104 27.4264 21.1145C27.1752 21.2187 26.947 21.3713 26.7548 21.5636L26.7546 21.5638L25.5533 22.7652C25.319 22.9995 24.9391 22.9995 24.7048 22.7652C24.4704 22.5308 24.4704 22.1509 24.7048 21.9166L25.9059 20.7155L25.9061 20.7153L25.9061 20.7153C26.2097 20.4115 26.5701 20.1705 26.9668 20.006C27.3635 19.8415 27.7888 19.7568 28.2184 19.7567C28.6479 19.7566 29.0732 19.8411 29.4701 20.0054C29.8669 20.1698 30.2275 20.4107 30.5312 20.7144C30.835 21.0181 31.0759 21.3787 31.2402 21.7755C31.4045 22.1724 31.4891 22.5977 31.489 23.0273C31.4889 23.4568 31.4041 23.8821 31.2396 24.2789C31.0751 24.6755 30.8341 25.036 30.5304 25.3395L30.5302 25.3397L28.8141 27.0557C28.5105 27.3593 28.15 27.6002 27.7533 27.7645C27.3566 27.9288 26.9314 28.0134 26.502 28.0134C26.0726 28.0134 25.6474 27.9288 25.2507 27.7645C24.854 27.6002 24.4935 27.3593 24.1899 27.0557C23.9556 26.8214 23.9556 26.4415 24.1899 26.2072C24.4242 25.9729 24.8041 25.9729 25.0384 26.2072C25.2306 26.3994 25.4588 26.5518 25.7099 26.6559C25.961 26.7599 26.2302 26.8134 26.502 26.8134C26.7738 26.8134 27.043 26.7599 27.2941 26.6559C27.5452 26.5518 27.7734 26.3994 27.9656 26.2072L29.6818 24.491L29.682 24.4908C29.8744 24.2986 30.027 24.0704 30.1311 23.8193C30.2353 23.5681 30.2889 23.2989 30.289 23.027C30.289 22.7551 30.2355 22.4858 30.1315 22.2346C30.0275 21.9834 29.875 21.7552 29.6827 21.5629C29.4905 21.3707 29.2622 21.2182 29.011 21.1141ZM24.4434 24.7342C24.1716 24.7342 23.9025 24.7878 23.6513 24.8918C23.4002 24.9958 23.172 25.1483 22.9798 25.3405L21.2636 27.0567L21.2634 27.0569C21.0711 27.249 20.9185 27.4772 20.8143 27.7284C20.7102 27.9795 20.6565 28.2488 20.6565 28.5207C20.6564 28.7925 20.7099 29.0618 20.8139 29.313C20.918 29.5642 21.0705 29.7925 21.2627 29.9847C21.455 30.177 21.6832 30.3295 21.9344 30.4335C22.1857 30.5375 22.4549 30.591 22.7268 30.591C22.9987 30.5909 23.2679 30.5373 23.5191 30.4331C23.7702 30.329 23.9984 30.1764 24.1906 29.984L24.1908 29.9838L25.3922 28.7825C25.6265 28.5482 26.0064 28.5482 26.2407 28.7825C26.475 29.0168 26.475 29.3967 26.2407 29.631L25.0395 30.8322L25.0393 30.8324C24.7358 31.1361 24.3754 31.3771 23.9787 31.5416C23.5819 31.7061 23.1566 31.7909 22.7271 31.791C22.2976 31.7911 21.8722 31.7065 21.4754 31.5422C21.0785 31.3779 20.7179 31.137 20.4142 30.8332C20.1105 30.5295 19.8696 30.1689 19.7052 29.7721C19.5409 29.3752 19.4564 28.9499 19.4565 28.5204C19.4566 28.0908 19.5413 27.6655 19.7058 27.2688C19.8703 26.8721 20.1113 26.5117 20.4151 26.2081L20.4153 26.2079L22.1313 24.4919C22.4349 24.1883 22.7954 23.9474 23.1921 23.7831C23.5888 23.6188 24.014 23.5342 24.4434 23.5342C24.8728 23.5342 25.298 23.6188 25.6947 23.7831C26.0915 23.9474 26.4519 24.1883 26.7556 24.4919C26.9899 24.7262 26.9899 25.1061 26.7556 25.3405C26.5212 25.5748 26.1413 25.5748 25.907 25.3405C25.7148 25.1483 25.4866 24.9958 25.2355 24.8918C24.9844 24.7878 24.7152 24.7342 24.4434 24.7342Z" fill="#1B202C" />
</g>
<defs>
<linearGradient id="paint0_linear_9340_15975" x1="0" y1="0" x2="44" y2="44" gradientUnits="userSpaceOnUse">
<stop stop-color="#1B202C" stop-opacity="0.05"/>
<stop offset="1" stop-color="#1B202C" stop-opacity="0"/>
</linearGradient>
<clipPath id="clip0_9340_15975">
<rect width="44" height="44" fill="white"/>
</clipPath>
</defs>
</svg>
