<svg width="20" height="20" viewBox="0 0 20 20" fill="none" xmlns="http://www.w3.org/2000/svg">
<g clip-path="url(#clip0_1321_60)">
<mask id="mask0_1321_60" style="mask-type:luminance" maskUnits="userSpaceOnUse" x="0" y="0" width="20" height="20">
<path d="M20 0H0V20H20V0Z" fill="white"/>
</mask>
<g mask="url(#mask0_1321_60)">
<path d="M18.4772 6.00135C18.2561 5.02777 16.7798 5.51769 16.1799 5.89245C15.8144 6.12098 15.9033 6.21333 15.3754 6.21646C15.3663 6.21646 15.3282 6.21915 15.2764 6.22295C15.1987 6.22876 15.1611 6.1391 15.2228 6.09594C15.2236 6.09549 15.2243 6.09482 15.225 6.09438C15.9861 5.56196 16.6641 4.89248 17.0225 3.99783C17.2941 3.32008 17.5239 2.53879 17.2151 1.78992C17.1048 1.52227 16.8451 1.26512 16.5726 1.46323C16.3681 1.61215 16.3224 1.98155 16.2616 2.21724C16.2585 2.22998 16.2548 2.2434 16.2454 2.25213C16.2379 2.25928 16.2253 2.26174 16.2162 2.25682C16.214 2.2557 16.2121 2.25413 16.2104 2.25213C16.2064 2.24743 16.2047 2.24117 16.2032 2.23513C16.1047 1.83666 15.7448 1.47128 15.3791 1.317C15.1901 1.23717 14.8754 1.31051 14.8526 1.5321C14.8229 1.82078 15.071 2.13316 15.2405 2.35364C15.326 2.46478 15.4518 2.60743 15.5041 2.75479C15.5254 2.81517 15.4561 2.86883 15.3943 2.83999C15.2761 2.78498 15.157 2.69687 15.0383 2.66222C14.8592 2.60967 14.7175 2.6611 14.6794 2.85072C14.6644 2.92473 14.6735 3.00322 14.7013 3.07634C14.7629 3.23823 14.8661 3.36949 14.9904 3.48443C15.2619 3.73553 15.5626 3.9862 15.4284 4.38288C15.3272 4.68207 15.0044 4.90791 14.6853 4.77509C14.5306 4.71069 14.3954 4.58927 14.2834 4.46226C14.1093 4.26482 13.8361 3.98978 13.5759 4.17045C13.3224 4.34643 13.4617 4.74065 13.5315 4.99758C13.6145 5.30303 13.6924 5.73548 13.4821 5.98547C13.3153 6.18337 12.9179 6.2462 12.6813 6.1183C12.2961 5.91012 12.1175 5.47006 11.8271 5.191C11.6554 5.02598 11.4245 4.97611 11.2786 5.16908C11.1229 5.3748 11.1929 5.6125 11.2285 5.85556C11.2509 6.00828 11.2263 6.16212 11.1722 6.30032C10.9983 6.74574 10.1702 6.6156 10.0378 6.14625C9.96535 5.88955 10.0344 5.6248 9.97071 5.36832C9.90514 5.10357 9.64057 4.77733 9.37971 5.0148C9.249 5.13375 9.24385 5.28402 9.21807 5.43518C9.206 5.50628 9.09814 5.51702 9.06871 5.45016C8.95178 5.18585 8.9085 4.84888 8.82178 4.59486C8.71371 4.2789 8.39707 3.98441 8.13521 4.30998C8.03864 4.43006 8.00621 4.59352 7.99371 4.75318C7.98093 4.91596 7.98635 5.08434 8.02785 5.24668C8.03593 5.2782 8.07971 5.42936 8.12221 5.54586C8.14407 5.60557 8.07528 5.66013 8.01385 5.6315C7.87678 5.56755 7.75171 5.46805 7.6095 5.4164C7.14178 5.24668 7.00176 5.68741 7.18035 6.05905C7.43314 6.58475 7.91071 6.94788 8.41721 7.18713C9.28485 7.59728 10.2085 7.73385 11.1147 7.67549C11.5233 7.64913 11.9281 7.58313 12.3229 7.48456C12.6044 7.41435 12.8761 7.32827 13.1396 7.22849C13.2062 7.20349 13.2711 7.26742 13.2386 7.32599C13.1981 7.39892 13.1559 7.47742 13.1111 7.56213C13.0144 7.74613 12.3914 8.1062 12.3759 8.10956C12.2221 8.14285 12.0603 8.10192 11.9166 8.04199C11.5655 7.89556 11.2651 7.7392 10.8624 7.75935C10.2571 7.78977 9.90907 8.15178 9.48507 8.49192C9.35214 8.59856 9.18807 8.8132 9.01585 8.85549C8.82428 8.90263 8.48257 8.80649 8.28035 8.79556C7.79178 8.7687 7.2845 8.76556 6.81015 8.88992C6.29403 9.0252 4.79161 9.81435 4.44254 10.179C4.0124 10.6287 4.17969 11.0073 4.79358 10.9865C4.84345 10.9847 4.88201 11.0258 4.87268 11.0706L4.63095 12.2188C4.63022 12.2226 4.62973 12.2261 4.62948 12.2299C4.61573 12.5821 4.63169 12.9303 4.68573 13.2766C4.69065 13.3075 4.6732 13.3381 4.64176 13.3509C4.46514 13.4218 3.92593 13.4267 3.85051 13.7315C3.81023 13.8945 3.90849 16.0601 3.87975 16.0594C3.25284 16.0433 2.07886 16.2386 1.77032 16.813C1.59394 17.1413 1.86244 17.3036 2.13905 17.4147C2.20439 17.4409 2.19997 17.5261 2.13241 17.5466C1.8057 17.6473 1.37482 17.8501 1.53425 18.167C1.69883 18.4938 2.23313 18.552 2.57459 18.5921C3.09194 18.6524 3.61468 18.6866 4.13572 18.7061C5.57918 18.76 7.02534 18.713 8.46957 18.7474C10.5372 18.7968 12.6324 18.8087 14.6129 18.1911C15.0174 18.065 15.8195 17.8939 15.8627 17.4121C15.8915 17.091 15.2441 16.9834 14.9894 16.9543C14.9201 16.9463 14.6934 16.9514 14.5337 16.9268C14.4635 16.9161 14.4456 16.8333 14.5048 16.7973C14.7445 16.6516 14.9369 16.3582 14.6467 16.1672C14.2324 15.8942 13.2236 15.9982 12.725 16.0246C12.5732 16.0326 12.5189 13.7715 12.5499 13.3998C12.5516 13.3777 12.5649 13.3581 12.5852 13.3458C12.7574 13.2413 12.9464 13.2147 13.1154 13.0928C13.3851 12.8983 13.5769 12.6021 13.7541 12.3386C13.8501 12.1955 13.955 12.0491 14.0331 11.8972C14.1073 11.753 14.1336 11.5723 14.2495 11.4484C14.3864 11.3024 14.5409 11.2951 14.6617 11.1119C14.7745 10.9413 14.8718 10.7626 14.9614 10.5813C15.0904 10.3203 15.1636 9.63299 15.4701 9.49499C15.5913 9.44042 15.7809 9.50056 15.9219 9.4532C16.0509 9.40978 16.157 9.33042 16.2476 9.23806C16.6456 8.8322 16.723 8.22627 16.8724 7.71863C16.877 7.70256 16.8881 7.68849 16.9029 7.67885C17.0399 7.5892 17.2209 7.61085 17.3767 7.56056C18.0846 7.33156 18.6435 6.72987 18.4779 6.00158L18.4772 6.00135ZM11.6814 16.1241C11.4665 16.125 11.2565 16.1733 11.0464 16.2144C11.0071 16.222 10.9659 16.2028 10.9539 16.1677C10.9015 16.0143 10.6166 15.9689 10.4571 15.9557C9.69192 15.8924 8.94928 16.1254 8.19243 16.1241C8.17207 16.1241 8.02785 15.6603 8.01064 15.6125C7.90328 15.3141 7.86864 15.0004 7.83107 14.6901C7.78885 14.3413 7.76135 13.9891 7.79157 13.6384C7.81735 13.3399 7.4415 13.5495 7.30857 13.6391C7.02804 13.8285 6.67405 14.0968 6.49301 14.3719C6.33702 14.6093 6.63426 15.0206 6.75119 15.2343C6.77404 15.2759 6.91922 15.4863 6.99243 15.6371C7.02068 15.695 6.95803 15.7544 6.89293 15.7318C6.35913 15.5458 5.50646 15.5943 5.31805 16.1333C5.30625 16.1672 5.2672 16.1869 5.22863 16.1798L4.92967 16.1236C4.88693 16.1156 4.85966 16.0771 4.86948 16.0384C4.96627 15.6505 5.17925 15.2442 5.40992 14.9119C5.65582 14.5577 5.9823 14.2426 6.30066 13.9426C6.5473 13.7102 6.79443 13.4658 7.07938 13.2717C7.27814 13.1364 7.47928 12.9846 7.72228 12.9213C7.93228 12.8666 8.147 12.9122 8.35657 12.9426C8.95321 13.0293 9.59757 12.9417 10.1621 13.1724C10.477 13.3013 10.647 13.5966 10.8086 13.8578C11.0246 14.2062 11.1179 14.6002 11.2857 14.9671C11.4474 15.32 11.6306 15.6666 11.7544 16.0326C11.7696 16.078 11.7331 16.1243 11.681 16.1245L11.6814 16.1241ZM15.5972 7.17035C15.5151 7.33406 15.2019 7.5512 14.9916 7.42642C14.8054 7.3157 15.0314 7.15428 15.1349 7.08831C15.2209 7.0333 15.3218 6.9727 15.4306 6.96063C15.5144 6.95146 15.58 6.99149 15.6043 7.04985C15.6191 7.0854 15.6186 7.12789 15.5974 7.17035H15.5972Z" fill="#306961"/>
<path d="M13.7284 13.9238C13.5824 14.1595 13.3942 14.373 13.2176 14.5897C13.1233 14.7055 13.0294 14.822 12.9417 14.9421C12.8594 15.0548 12.7455 15.1673 12.7631 15.3129C12.7833 15.4785 12.7998 15.6592 12.8462 15.8209C12.8575 15.8604 13.1786 15.6174 13.1989 15.5989C13.4758 15.3444 13.7576 15.0944 14.0314 14.837C14.0877 14.7842 14.1437 14.7312 14.1992 14.6778C14.4651 14.4231 14.7254 14.1635 14.9949 13.9121C15.2126 13.7091 15.4707 13.4748 15.4941 13.1749C15.5079 12.9991 15.3816 12.8006 15.2951 12.6508C15.1971 12.4811 15.0544 12.3386 14.9126 12.1986C14.8139 12.1009 14.7215 11.9862 14.6129 11.8921C14.5812 11.8646 14.4771 11.7635 14.4371 11.7868C14.4031 11.8066 14.4088 11.8843 14.4002 11.9167C14.3054 12.2747 14.0271 12.5679 13.7826 12.85C13.7303 12.9104 13.6762 12.9696 13.6205 13.0274C13.5706 13.0792 13.4864 13.1204 13.5596 13.1711C13.6409 13.2275 13.7804 13.2481 13.8762 13.2769C13.9069 13.2861 14.0656 13.3158 14.0722 13.3531C14.0749 13.3686 14.0683 13.3838 14.0616 13.3981C13.9742 13.5834 13.8374 13.748 13.7286 13.9234L13.7284 13.9238Z" fill="#306961"/>
</g>
</g>
<defs>
<clipPath id="clip0_1321_60">
<rect width="20" height="20" fill="white"/>
</clipPath>
</defs>
</svg>
