<svg width="44" height="44" viewBox="0 0 44 44" fill="none" xmlns="http://www.w3.org/2000/svg">
<rect width="44" height="44" rx="8" fill="url(#paint0_linear_5145_24902)"/>
<path d="M32.95 24.1002C32.8712 24.1593 32.7815 24.2023 32.6861 24.2267C32.5907 24.2511 32.4914 24.2566 32.3939 24.2426C32.2964 24.2287 32.2026 24.1957 32.1179 24.1455C32.0331 24.0953 31.9591 24.029 31.9 23.9502C31.448 23.3425 30.8596 22.8495 30.1822 22.5108C29.5048 22.1721 28.7573 21.9972 28 22.0002C27.8525 22.0002 27.7083 21.9567 27.5854 21.8751C27.4625 21.7936 27.3664 21.6776 27.3091 21.5417C27.2701 21.4495 27.2501 21.3503 27.2501 21.2502C27.2501 21.15 27.2701 21.0509 27.3091 20.9586C27.3664 20.8227 27.4625 20.7068 27.5854 20.6252C27.7083 20.5437 27.8525 20.5002 28 20.5002C28.4208 20.5001 28.8332 20.3821 29.1903 20.1594C29.5474 19.9368 29.8349 19.6184 30.0201 19.2406C30.2053 18.8627 30.2809 18.4405 30.2382 18.0219C30.1955 17.6032 30.0362 17.2049 29.7785 16.8723C29.5208 16.5396 29.175 16.2858 28.7803 16.1399C28.3856 15.9939 27.9579 15.9615 27.5457 16.0465C27.1336 16.1314 26.7535 16.3302 26.4487 16.6203C26.1438 16.9104 25.9265 17.2802 25.8213 17.6877C25.7966 17.7831 25.7535 17.8727 25.6942 17.9514C25.6349 18.0302 25.5607 18.0965 25.4759 18.1465C25.391 18.1966 25.2971 18.2294 25.1995 18.2432C25.1019 18.2569 25.0026 18.2514 24.9072 18.2267C24.8118 18.2021 24.7221 18.1589 24.6434 18.0997C24.5647 18.0404 24.4984 17.9662 24.4483 17.8813C24.3983 17.7965 24.3654 17.7026 24.3517 17.605C24.3379 17.5074 24.3435 17.4081 24.3681 17.3127C24.5141 16.7476 24.79 16.2245 25.1738 15.7849C25.5576 15.3452 26.0387 15.0012 26.5788 14.7802C27.1189 14.5593 27.7032 14.4674 28.285 14.5119C28.8669 14.5565 29.4304 14.7362 29.9306 15.0368C30.4308 15.3374 30.8539 15.7506 31.1663 16.2436C31.4787 16.7365 31.6717 17.2955 31.7301 17.8762C31.7884 18.4568 31.7104 19.0431 31.5023 19.5883C31.2942 20.1335 30.9617 20.6226 30.5312 21.0167C31.5511 21.4583 32.4376 22.159 33.1028 23.0492C33.1619 23.1282 33.2048 23.2181 33.2291 23.3137C33.2534 23.4093 33.2586 23.5088 33.2444 23.6064C33.2303 23.704 33.1969 23.7979 33.1464 23.8826C33.0959 23.9673 33.0291 24.0413 32.95 24.1002ZM27.8988 29.8752C27.953 29.9605 27.9895 30.056 28.0059 30.1558C28.0223 30.2556 28.0183 30.3577 27.9943 30.456C27.9702 30.5542 27.9265 30.6466 27.8658 30.7275C27.8052 30.8084 27.7287 30.8762 27.6411 30.9268C27.5536 30.9775 27.4567 31.0099 27.3563 31.022C27.2558 31.0342 27.154 31.026 27.0568 30.9978C26.9597 30.9696 26.8693 30.9221 26.791 30.8581C26.7127 30.794 26.6481 30.7148 26.6013 30.6252C26.1288 29.8252 25.4559 29.1622 24.649 28.7016C23.8421 28.241 22.9291 27.9988 22 27.9988C21.0709 27.9988 20.1579 28.241 19.351 28.7016C18.5441 29.1622 17.8712 29.8252 17.3988 30.6252C17.3519 30.7148 17.2873 30.794 17.209 30.8581C17.1307 30.9221 17.0403 30.9696 16.9432 30.9978C16.846 31.026 16.7442 31.0342 16.6438 31.022C16.5433 31.0099 16.4464 30.9775 16.3589 30.9268C16.2713 30.8762 16.1949 30.8084 16.1342 30.7275C16.0735 30.6466 16.0298 30.5542 16.0057 30.456C15.9817 30.3577 15.9777 30.2556 15.9941 30.1558C16.0105 30.056 16.047 29.9605 16.1013 29.8752C16.8284 28.6258 17.9371 27.6427 19.2644 27.0702C18.5175 26.4983 17.9686 25.7068 17.6948 24.8069C17.421 23.9069 17.4362 22.9438 17.738 22.053C18.0399 21.1621 18.6134 20.3882 19.3779 19.8401C20.1423 19.2919 21.0593 18.9972 22 18.9972C22.9407 18.9972 23.8577 19.2919 24.6221 19.8401C25.3866 20.3882 25.9601 21.1621 26.262 22.053C26.5638 22.9438 26.579 23.9069 26.3052 24.8069C26.0314 25.7068 25.4825 26.4983 24.7356 27.0702C26.0629 27.6427 27.1716 28.6258 27.8988 29.8752ZM22 26.5002C22.5933 26.5002 23.1734 26.3242 23.6667 25.9946C24.1601 25.6649 24.5446 25.1964 24.7716 24.6482C24.9987 24.1 25.0581 23.4968 24.9424 22.9149C24.8266 22.333 24.5409 21.7984 24.1213 21.3788C23.7018 20.9593 23.1672 20.6736 22.5853 20.5578C22.0033 20.4421 21.4001 20.5015 20.852 20.7285C20.3038 20.9556 19.8352 21.3401 19.5056 21.8335C19.1759 22.3268 19 22.9068 19 23.5002C19 24.2958 19.3161 25.0589 19.8787 25.6215C20.4413 26.1841 21.2044 26.5002 22 26.5002ZM16.75 21.2502C16.75 21.0513 16.671 20.8605 16.5303 20.7198C16.3897 20.5792 16.1989 20.5002 16 20.5002C15.5792 20.5001 15.1668 20.3821 14.8097 20.1594C14.4526 19.9368 14.1651 19.6184 13.9799 19.2406C13.7947 18.8627 13.7191 18.4405 13.7618 18.0219C13.8045 17.6032 13.9638 17.2049 14.2215 16.8723C14.4792 16.5396 14.825 16.2858 15.2197 16.1399C15.6144 15.9939 16.0421 15.9615 16.4543 16.0465C16.8664 16.1314 17.2465 16.3302 17.5514 16.6203C17.8562 16.9104 18.0735 17.2802 18.1788 17.6877C18.2285 17.8804 18.3527 18.0454 18.5241 18.1465C18.6956 18.2476 18.9001 18.2765 19.0928 18.2267C19.2855 18.177 19.4506 18.0528 19.5517 17.8813C19.6527 17.7099 19.6816 17.5054 19.6319 17.3127C19.4859 16.7476 19.21 16.2245 18.8262 15.7849C18.4424 15.3452 17.9613 15.0012 17.4212 14.7802C16.8811 14.5593 16.2968 14.4674 15.715 14.5119C15.1331 14.5565 14.5696 14.7362 14.0694 15.0368C13.5692 15.3374 13.1461 15.7506 12.8337 16.2436C12.5213 16.7365 12.3283 17.2955 12.2699 17.8762C12.2116 18.4568 12.2896 19.0431 12.4977 19.5883C12.7058 20.1335 13.0383 20.6226 13.4688 21.0167C12.45 21.4587 11.5644 22.1594 10.9 23.0492C10.7805 23.2084 10.7292 23.4084 10.7572 23.6054C10.7853 23.8024 10.8904 23.9802 11.0495 24.0997C11.2087 24.2192 11.4087 24.2705 11.6057 24.2425C11.8027 24.2144 11.9805 24.1093 12.1 23.9502C12.5521 23.3425 13.1405 22.8495 13.8178 22.5108C14.4952 22.1721 15.2427 21.9972 16 22.0002C16.1989 22.0002 16.3897 21.9211 16.5303 21.7805C16.671 21.6398 16.75 21.4491 16.75 21.2502Z" fill="#1B202C" fill-opacity="0.3"/>
<defs>
<linearGradient id="paint0_linear_5145_24902" x1="0" y1="0" x2="44" y2="44" gradientUnits="userSpaceOnUse">
<stop stop-color="#1B202C" stop-opacity="0.05"/>
<stop offset="1" stop-color="#1B202C" stop-opacity="0"/>
</linearGradient>
</defs>
</svg>

