<svg width="20" height="20" viewBox="0 0 20 20" fill="none" xmlns="http://www.w3.org/2000/svg">
<path d="M12.9774 6.17226C11.8957 5.09049 10.1351 5.09049 9.05342 6.17226L7.76706 7.4587L5.85533 5.54687L8.41309 2.98898L7.08394 1.6405L3.18848 5.53618L3.85091 6.20792L3.84521 6.21362L6.42864 8.79719L6.23967 8.98616C5.15796 10.0679 5.15796 11.8286 6.23967 12.9104C6.78089 13.4509 7.4911 13.7219 8.20131 13.7219C8.91152 13.7219 9.62245 13.4516 10.1629 12.9104L12.9774 10.0957C14.0591 9.01397 14.0591 7.25332 12.9774 6.17155V6.17226ZM11.6383 8.75726L10.3519 10.0437L10.1052 9.79696C9.73583 9.42757 9.13614 9.42757 8.76606 9.79696C8.39598 10.1663 8.39598 10.7661 8.76606 11.1362L9.01278 11.3829L8.82382 11.5719C8.48012 11.9156 7.92179 11.9156 7.57809 11.5719C7.2344 11.2282 7.2344 10.6691 7.57809 10.3261L10.3926 7.51147C10.5644 7.33961 10.7897 7.25404 11.0158 7.25404C11.2418 7.25404 11.4671 7.33961 11.639 7.51147C11.9827 7.85518 11.9827 8.41425 11.639 8.75726H11.6383Z"
      fill="#3798D4" />
<path d="M12.3387 12.0944L11 13.4331L13.2427 15.676L14.5814 14.3372L12.3387 12.0944Z" fill="#3798D4" />
<path d="M19.0987 7.82308L12.1756 0.899577C10.9762 -0.299859 9.02453 -0.299859 7.82516 0.899577L7.77667 0.948068L9.10582 2.29654L9.16358 2.23878C9.3939 2.00845 9.69695 1.89293 10 1.89293C10.3031 1.89293 10.6061 2.00845 10.8364 2.23878L17.7596 9.16228C17.9827 9.38549 18.1061 9.68285 18.1061 9.99875C18.1061 10.3147 17.9827 10.612 17.7596 10.8352L10.8364 17.7587C10.6132 17.9819 10.3159 18.1053 10 18.1053C9.68411 18.1053 9.38677 17.9819 9.16358 17.7587L2.24045 10.8352C2.01726 10.612 1.8939 10.3147 1.8939 9.99875C1.8939 9.68285 2.01726 9.38549 2.24045 9.16228L3.82487 7.57777L2.49572 6.2293L0.901312 7.82379C0.320165 8.40497 0 9.17726 0 9.99947C0 10.8217 0.320165 11.594 0.901312 12.1751L7.82444 19.0986C8.40559 19.6798 9.17784 20 10 20C10.8222 20 11.5944 19.6798 12.1756 19.0986L19.0987 12.1751C19.6798 11.594 20 10.8217 20 9.99947C20 9.17726 19.6798 8.40497 19.0987 7.82379V7.82308Z"
      fill="#3798D4" />
</svg>
