<svg width="44" height="44" viewBox="0 0 44 44" fill="none" xmlns="http://www.w3.org/2000/svg">
<rect width="44" height="44" rx="8" fill="url(#paint0_linear_5145_24902)"/>
<path d="M24.3665 14.7098C23.9678 14.8222 23.7357 15.2364 23.848 15.6351C23.9604 16.0338 24.3746 16.266 24.7733 16.1536L24.3665 14.7098ZM25.8927 25.0001L25.8921 24.2501C25.478 24.2504 25.1425 24.5863 25.1427 25.0005C25.1429 25.4146 25.4787 25.7502 25.8928 25.7501L25.8927 25.0001ZM10.8861 28.0747C10.6479 28.4136 10.7294 28.8814 11.0683 29.1196C11.4071 29.3578 11.875 29.2763 12.1132 28.9374L10.8861 28.0747ZM24.3865 28.9369C24.6248 29.2758 25.0926 29.3573 25.4314 29.1191C25.7703 28.8808 25.8518 28.413 25.6136 28.0742L24.3865 28.9369ZM32.0289 28.9365C32.2669 29.2755 32.7346 29.3574 33.0736 29.1194C33.4126 28.8814 33.4945 28.4136 33.2565 28.0746L32.0289 28.9365ZM22.375 20.1251C22.375 22.4033 20.5282 24.2501 18.25 24.2501V25.7501C21.3566 25.7501 23.875 23.2317 23.875 20.1251H22.375ZM18.25 24.2501C15.9719 24.2501 14.125 22.4033 14.125 20.1251H12.625C12.625 23.2317 15.1434 25.7501 18.25 25.7501V24.2501ZM14.125 20.1251C14.125 17.847 15.9719 16.0001 18.25 16.0001V14.5001C15.1434 14.5001 12.625 17.0185 12.625 20.1251H14.125ZM18.25 16.0001C20.5282 16.0001 22.375 17.847 22.375 20.1251H23.875C23.875 17.0185 21.3566 14.5001 18.25 14.5001V16.0001ZM24.7733 16.1536C25.3407 15.9938 25.9357 15.9574 26.5184 16.0468L26.746 14.5642C25.9516 14.4422 25.1402 14.4919 24.3665 14.7098L24.7733 16.1536ZM26.5184 16.0468C27.101 16.1363 27.6577 16.3496 28.1509 16.6723L28.9722 15.4172C28.2996 14.9771 27.5405 14.6862 26.746 14.5642L26.5184 16.0468ZM28.1509 16.6723C28.6442 16.9951 29.0626 17.4198 29.3779 17.9178L30.6452 17.1155C30.2153 16.4364 29.6448 15.8572 28.9722 15.4172L28.1509 16.6723ZM29.3779 17.9178C29.6932 18.4159 29.8981 18.9757 29.9788 19.5596L31.4647 19.3542C31.3546 18.558 31.0752 17.7946 30.6452 17.1155L29.3779 17.9178ZM29.9788 19.5596C30.0595 20.1435 30.0142 20.738 29.8458 21.3029L31.2834 21.7313C31.5129 20.961 31.5748 20.1504 31.4647 19.3542L29.9788 19.5596ZM29.8458 21.3029C29.6775 21.8678 29.39 22.3901 29.0028 22.8345L30.1338 23.8198C30.6618 23.2138 31.0538 22.5016 31.2834 21.7313L29.8458 21.3029ZM29.0028 22.8345C28.6156 23.279 28.1377 23.6353 27.6012 23.8795L28.2226 25.2447C28.9541 24.9118 29.6059 24.4259 30.1338 23.8198L29.0028 22.8345ZM27.6012 23.8795C27.0647 24.1237 26.4821 24.2501 25.8926 24.2501L25.8928 25.7501C26.6966 25.75 27.491 25.5777 28.2226 25.2447L27.6012 23.8795ZM12.1132 28.9374C12.8054 27.9529 13.7243 27.1493 14.7923 26.5945L14.1009 25.2634C12.8193 25.929 11.7167 26.8933 10.8861 28.0747L12.1132 28.9374ZM14.7923 26.5945C15.8603 26.0398 17.0465 25.7502 18.2501 25.7501L18.25 24.2501C16.8059 24.2502 15.3826 24.5977 14.1009 25.2634L14.7923 26.5945ZM18.2501 25.7501C19.4536 25.7501 20.6391 26.0396 21.7072 26.5943L22.3985 25.2631C21.1169 24.5975 19.6942 24.2501 18.25 24.2501L18.2501 25.7501ZM21.7072 26.5943C22.7753 27.1489 23.6943 27.9524 24.3865 28.9369L25.6136 28.0742C24.7829 26.8928 23.6802 25.9286 22.3985 25.2631L21.7072 26.5943ZM25.8932 25.7501C27.0967 25.7493 28.2826 26.0384 29.3507 26.5931L30.042 25.2619C28.7601 24.5961 27.3366 24.2491 25.8921 24.2501L25.8932 25.7501ZM29.3507 26.5931C30.4187 27.1477 31.3374 27.9515 32.0289 28.9365L33.2565 28.0746C32.4265 26.8924 31.3239 25.9276 30.042 25.2619L29.3507 26.5931Z" fill="#1B202C" />
<defs>
<linearGradient id="paint0_linear_5145_24902" x1="0" y1="0" x2="44" y2="44" gradientUnits="userSpaceOnUse">
<stop stop-color="#1B202C" stop-opacity="0.05"/>
<stop offset="1" stop-color="#1B202C" stop-opacity="0"/>
</linearGradient>
</defs>
</svg>
