<svg width="20" height="20" viewBox="0 0 20 20" fill="none" xmlns="http://www.w3.org/2000/svg">
<g clip-path="url(#clip0_10038_20271)">
<path d="M9.99996 19.165C15.0617 19.165 19.165 15.0617 19.165 9.99996C19.165 4.93827 15.0617 0.834961 9.99996 0.834961C4.93827 0.834961 0.834961 4.93827 0.834961 9.99996C0.834961 15.0617 4.93827 19.165 9.99996 19.165Z"
      fill="#E6007A" />
<path fill-rule="evenodd" clip-rule="evenodd"
      d="M2.5 10.0003L10.0027 2.5L17.5 10.0022L10.0027 17.5L2.5 10.0003ZM5.26065 7.76239C4.94384 8.11894 4.28076 8.98705 4.28076 10.0003C4.28076 11.0175 4.94905 11.8884 5.26436 12.2423L6.8863 13.8655L6.89392 13.8581C7.54324 13.2231 8.62264 12.3886 9.8532 12.3251C9.5434 12.6705 8.8602 13.5487 8.8602 14.5764C8.8602 15.6041 9.5434 16.4823 9.8532 16.8277L10.0027 16.9844L10.1522 16.8277C10.4619 16.4823 11.1451 15.6041 11.1451 14.5764C11.1451 13.5487 10.4619 12.6705 10.1522 12.3251C11.3875 12.3889 12.4706 13.2297 13.1191 13.8655L14.7792 12.204L14.7831 12.1996C15.1114 11.8224 15.7302 10.979 15.7302 10.0003C15.7302 9.01766 15.1065 8.17151 14.7792 7.79651L13.1268 6.14274L13.1192 6.15021C12.4705 6.786 11.3875 7.62676 10.1522 7.69058C10.4619 7.34516 11.1451 6.46697 11.1451 5.43924C11.1451 4.41153 10.4619 3.53332 10.1522 3.18792L10.0027 3.01615L9.8532 3.18792C9.5434 3.53332 8.8602 4.41153 8.8602 5.43924C8.8602 6.46697 9.5434 7.34516 9.8532 7.69058C8.613 7.62652 7.52635 6.7794 6.87855 6.14274L5.26065 7.76239ZM5.57795 7.74913C7.58035 7.85508 9.18139 10.0003 9.18139 10.0003C9.18139 10.0003 7.58035 12.1454 5.57795 12.2514C5.88965 11.9031 6.56932 11.0261 6.56932 10.0003C6.56932 8.97447 5.88965 8.09741 5.57795 7.74913ZM14.433 7.74913C14.1213 8.09741 13.4416 8.97447 13.4416 10.0003C13.4416 11.0261 14.1213 11.9031 14.433 12.2514C12.4306 12.1454 10.8296 10.0003 10.8296 10.0003C10.8296 10.0003 12.4306 7.85508 14.433 7.74913Z"
      fill="white" />
</g>
<defs>
<clipPath id="clip0_10038_20271">
<rect width="20" height="20" fill="white" />
</clipPath>
</defs>
</svg>
