<svg width="20" height="20" viewBox="0 0 20 20" fill="none" xmlns="http://www.w3.org/2000/svg">
<g clip-path="url(#clip0_10238_27218)">
<path d="M9.99996 19.165C15.0617 19.165 19.165 15.0617 19.165 9.99996C19.165 4.93827 15.0617 0.834961 9.99996 0.834961C4.93827 0.834961 0.834961 4.93827 0.834961 9.99996C0.834961 15.0617 4.93827 19.165 9.99996 19.165Z"
      fill="black" />
<path fill-rule="evenodd" clip-rule="evenodd"
      d="M10.0254 5.08008C9.35351 5.08008 8.8069 5.62671 8.8069 6.29859C8.8069 6.97048 9.35351 7.51711 10.0254 7.51711C10.6973 7.51711 11.2438 6.97048 11.2438 6.29859C11.2438 5.62671 10.6973 5.08008 10.0254 5.08008ZM10.0254 7.06751C9.87332 7.06752 9.72464 7.02244 9.59816 6.93796C9.47174 6.85348 9.37315 6.7334 9.31498 6.5929C9.25676 6.4524 9.24151 6.2978 9.27114 6.14864C9.30082 5.99948 9.37407 5.86247 9.48156 5.75493C9.5891 5.64738 9.72611 5.57414 9.87527 5.54447C10.0244 5.51479 10.179 5.53001 10.3195 5.58821C10.46 5.6464 10.5801 5.74496 10.6646 5.8714C10.7491 5.99785 10.7942 6.14651 10.7942 6.29859C10.7939 6.50246 10.7129 6.69792 10.5688 6.84211C10.4247 6.98629 10.2293 7.06719 10.0254 7.06751ZM16.2673 8.58779C16.0486 8.29023 15.7111 8.13297 15.2914 8.13297C14.1406 8.13297 13.2594 9.30306 12.4134 10.4721C12.1327 10.0247 11.8393 9.58189 11.5091 9.22717C11.0331 8.71579 10.5476 8.46733 10.0254 8.46733C9.50316 8.46733 9.0178 8.71545 8.5415 9.22717C8.29544 9.4918 7.85261 10.1441 7.63743 10.4721C6.79138 9.30306 5.91016 8.13297 4.75935 8.13297C4.33962 8.13297 4.0021 8.29023 3.78351 8.58779C3.59528 8.84344 3.50049 9.1897 3.50049 9.61629C3.50049 9.93012 3.55533 10.279 3.65497 10.6295H3.6515C3.6515 10.9991 3.68295 11.3613 3.74332 11.7137L3.73964 11.7143C3.74805 11.7595 3.75752 11.8044 3.76802 11.849C4.33702 14.786 6.92228 17.0037 10.0255 17.0037C13.5457 17.0037 16.3995 14.1499 16.3995 10.6295H16.3957C16.4953 10.279 16.5501 9.93011 16.5501 9.61629C16.5505 9.18961 16.4551 8.84344 16.2673 8.58779ZM15.779 11.9655C15.3452 12.6008 14.8193 12.9607 14.3137 12.9607C13.6734 12.9607 13.1838 12.4568 12.7229 11.7926C12.6702 12.7852 12.4984 13.7157 12.237 14.5035C12.9452 14.3378 13.5742 14.0951 14.1014 13.797C14.9882 13.2954 15.5669 12.6502 15.779 11.9655ZM12.2806 11.4105C11.6358 12.2312 10.7906 13.1174 10.0252 13.1174C9.16555 13.1174 8.46819 12.3497 7.77057 11.4172C7.79853 12.6233 8.00903 13.7389 8.33783 14.6165C8.86191 14.7028 9.42529 14.749 10.022 14.749C10.6186 14.749 11.186 14.6997 11.716 14.6088C12.0438 13.7307 12.2533 12.6156 12.2806 11.4105ZM7.32803 11.7921C6.86689 12.4566 6.37725 12.9607 5.73682 12.9607C5.23447 12.9607 4.71183 12.6053 4.27969 11.9773C4.52583 12.6967 5.11033 13.3427 5.9853 13.833C6.50367 14.1235 7.11997 14.3566 7.81779 14.515C7.55423 13.7246 7.381 12.7897 7.32803 11.7921ZM7.92208 10.8649C8.46655 10.0154 9.26571 8.91694 10.0254 8.91694C10.8859 8.91694 11.521 9.88776 12.1287 10.8649C11.526 11.6639 10.6679 12.6678 10.0255 12.6678C9.39371 12.6678 8.78345 12.008 8.19038 11.2265C8.10046 11.1081 8.01071 10.9869 7.92208 10.8649ZM15.5153 11.5447C15.1494 12.1498 14.7001 12.5111 14.3137 12.5111C13.7119 12.5111 13.2015 11.7392 12.67 10.8844C12.6786 10.8718 12.6882 10.8588 12.6975 10.8464C13.5017 9.73333 14.3341 8.58258 15.2914 8.58258C15.8285 8.58258 16.101 8.93011 16.101 9.61629C16.101 10.2077 15.8766 10.9471 15.5153 11.5447ZM5.73708 12.5111C5.35063 12.5111 4.90129 12.1498 4.53579 11.5447C4.17449 10.9471 3.94983 10.2081 3.94983 9.61629C3.94983 8.93011 4.22232 8.58258 4.75935 8.58258C5.71697 8.58258 6.54873 9.73332 7.3533 10.8464C7.35794 10.8528 7.36258 10.8592 7.36719 10.8657C7.37168 10.8719 7.37638 10.8784 7.38077 10.8844C6.8493 11.7392 6.33879 12.5111 5.73708 12.5111ZM14.1136 6.29859C14.1136 5.62671 14.6602 5.08008 15.3321 5.08008C16.0037 5.08008 16.5505 5.62671 16.5505 6.29859C16.5505 6.97048 16.004 7.51711 15.3321 7.51711C14.6602 7.51711 14.1136 6.97048 14.1136 6.29859ZM14.9049 6.93792C15.0314 7.02241 15.18 7.06751 15.3321 7.06751C15.536 7.06721 15.7314 6.98633 15.8755 6.84214C16.0197 6.69795 16.1008 6.50247 16.101 6.29859C16.101 6.14652 16.0559 5.99786 15.9714 5.87141C15.8869 5.74496 15.7669 5.64641 15.6263 5.58821C15.4859 5.53002 15.3313 5.51479 15.1821 5.54446C15.0329 5.57413 14.8959 5.64736 14.7885 5.75489C14.6809 5.86243 14.6077 5.99944 14.578 6.14859C14.5484 6.29774 14.5635 6.45234 14.6218 6.59284C14.6799 6.73335 14.7785 6.85343 14.9049 6.93792ZM4.71896 5.08008C4.0471 5.08008 3.50082 5.62671 3.50082 6.29859C3.50082 6.97048 4.0471 7.51711 4.71896 7.51711C5.39083 7.51711 5.93744 6.97048 5.93744 6.29859C5.93744 5.62671 5.3904 5.08008 4.71896 5.08008ZM4.71896 7.06751C4.56689 7.06751 4.41824 7.02241 4.29179 6.93792C4.16535 6.85343 4.0668 6.73335 4.0086 6.59284C3.95041 6.45234 3.93518 6.29774 3.96485 6.14859C3.99452 5.99944 4.06775 5.86243 4.17528 5.75489C4.28281 5.64736 4.41981 5.57413 4.56896 5.54446C4.71811 5.51479 4.87271 5.53002 5.0132 5.58821C5.1537 5.64641 5.27378 5.74496 5.35827 5.87141C5.44275 5.99786 5.48785 6.14652 5.48785 6.29859C5.48762 6.50247 5.40655 6.69795 5.26241 6.84214C5.11828 6.98633 4.92284 7.06721 4.71896 7.06751ZM8.923 16.4447C7.23654 16.1269 5.80275 15.0935 4.94904 13.672C5.19085 13.8766 5.46317 14.0637 5.76211 14.2313C6.39503 14.586 7.15246 14.8563 8.00717 15.0211C8.02407 15.0615 8.04123 15.1013 8.05864 15.1407C8.29116 15.6656 8.57385 16.1078 8.89912 16.4219C8.90704 16.4295 8.915 16.4371 8.923 16.4447ZM9.21623 16.0934C8.97537 15.8608 8.74772 15.5277 8.54688 15.1093C9.01476 15.1725 9.50777 15.2056 10.022 15.2056C10.5375 15.2056 11.0342 15.1703 11.5069 15.1035C11.3054 15.5246 11.0767 15.8597 10.8347 16.0934C10.566 16.353 10.2929 16.4769 10.0255 16.4769C9.75812 16.4769 9.48498 16.353 9.21623 16.0934ZM11.9923 15.1407C12.0112 15.0983 12.0296 15.0552 12.0478 15.0116C12.9135 14.8387 13.6848 14.5571 14.3261 14.1944C14.6136 14.0318 14.8769 13.8516 15.1114 13.6564C14.2588 15.0859 12.8207 16.1257 11.128 16.4447C11.136 16.4371 11.144 16.4295 11.1519 16.4219C11.4771 16.1078 11.7598 15.6656 11.9923 15.1407Z"
      fill="url(#paint0_linear_10238_27218)" />
</g>
<defs>
<linearGradient id="paint0_linear_10238_27218" x1="10.0255" y1="5.08008" x2="10.0255" y2="17.0067"
                gradientUnits="userSpaceOnUse">
<stop stop-color="#F7D365" />
<stop offset="0.50205" stop-color="#EA4683" />
<stop offset="1" stop-color="#735FA1" />
</linearGradient>
<clipPath id="clip0_10238_27218">
<rect width="20" height="20" fill="white" />
</clipPath>
</defs>
</svg>
