<svg width="20" height="20" viewBox="0 0 20 20" fill="none" xmlns="http://www.w3.org/2000/svg">
<g clip-path="url(#clip0_12609_2219)">
<path d="M9.99996 19.165C15.0617 19.165 19.165 15.0617 19.165 9.99996C19.165 4.93827 15.0617 0.834961 9.99996 0.834961C4.93827 0.834961 0.834961 4.93827 0.834961 9.99996C0.834961 15.0617 4.93827 19.165 9.99996 19.165Z"
      fill="#041234" />
<path d="M11.9177 8.09437C11.4235 7.60727 10.757 7.33486 10.063 7.33634C10.0541 7.33634 10.0445 7.33634 10.0366 7.33634C9.33345 7.33985 8.66044 7.62254 8.16568 8.12223C7.67094 8.6219 7.39496 9.29768 7.39847 10.0008C7.40198 10.704 7.68468 11.377 8.18439 11.8717C8.68409 12.3664 9.35987 12.6424 10.063 12.6389H10.0895C10.6138 12.6336 11.1247 12.4728 11.5578 12.1771C11.9907 11.8814 12.3263 11.4639 12.522 10.9774C12.7177 10.4909 12.7647 9.9574 12.6572 9.44423C12.5496 8.93106 12.2923 8.46131 11.9177 8.09437Z"
      fill="url(#paint0_linear_12609_2219)" />
<path d="M11.1941 7.7734C10.8833 7.69405 10.6336 7.75859 10.4307 7.967C10.4057 7.99342 10.3822 8.02124 10.3603 8.05032C10.3075 8.11724 10.2625 8.17516 10.1599 8.19896C10.0215 8.22655 9.87977 8.23244 9.73955 8.21643C9.69941 8.21034 9.66575 8.20293 9.63613 8.19605C9.53166 8.17225 9.46845 8.15797 9.34339 8.27699C9.30429 8.31664 9.26884 8.35975 9.23757 8.4058C9.18198 8.48223 9.12967 8.55444 9.04371 8.5875C9.00386 8.60227 8.96207 8.61115 8.91961 8.61399L8.90827 8.60891L8.90558 8.61451C8.84484 8.616 8.78403 8.61205 8.72388 8.60287C8.67657 8.59585 8.62889 8.5916 8.58105 8.59018C8.64605 8.49538 8.70291 8.39532 8.75112 8.29101C8.83872 8.27752 8.91327 8.22013 8.9855 8.16379C9.02356 8.13245 9.06408 8.10415 9.10661 8.07915C9.2513 7.9998 9.32137 7.93236 9.44704 7.79455C9.56606 7.66416 9.69411 7.58296 9.8491 7.50123C9.92663 7.46162 9.99409 7.4047 10.0462 7.33487C10.5637 7.33857 11.0483 7.45944 11.4744 7.74086C11.4287 7.76943 11.3332 7.80831 11.1941 7.7734Z"
      fill="#DADADA" />
<path d="M12.6314 9.61817C12.5947 9.60399 12.5594 9.58683 12.5256 9.56683C12.4733 9.5337 12.4154 9.51049 12.3548 9.49833L12.2 9.42244C11.9561 9.38042 11.8561 9.41214 11.6099 9.34311C11.4957 9.30938 11.3768 9.29468 11.2578 9.29946L11.2518 9.29446L11.2472 9.29998C11.1629 9.30371 11.078 9.31558 10.9828 9.32879L10.9174 9.33804C10.891 9.34155 10.8614 9.34625 10.8278 9.35154C10.618 9.3846 10.2665 9.4402 10.1445 9.30341L10.1377 9.30976C9.95075 9.19962 9.73778 9.14149 9.52085 9.14126C9.18282 9.14126 9.07678 9.05007 8.88396 8.88419C8.85112 8.85591 8.81464 8.82472 8.77441 8.79136C8.79188 8.79136 8.80934 8.79136 8.82732 8.79136C8.91463 8.82158 9.00634 8.83703 9.09872 8.8371C9.1164 8.83718 9.13401 8.83628 9.15163 8.83449C9.19991 8.82927 9.2449 8.80763 9.27908 8.77308C9.29438 8.75987 9.31042 8.74756 9.32721 8.73637C9.3646 8.7142 9.40765 8.70368 9.45101 8.70622C9.46981 8.70622 9.48936 8.70458 9.51055 8.70196C9.60234 8.69062 9.66689 8.63928 9.72927 8.58959C9.78718 8.54354 9.84195 8.4999 9.91627 8.488C9.93478 8.48482 9.95358 8.4835 9.97313 8.48191C10.0225 8.48226 10.0712 8.47045 10.1149 8.44753C10.1385 8.43253 10.1601 8.41477 10.1795 8.39463C10.2015 8.36916 10.2285 8.34846 10.2588 8.33379C10.3567 8.3002 10.4003 8.21953 10.4527 8.15262C10.4759 8.12299 10.585 8.10712 10.6143 8.07723C10.8346 7.85056 11.011 7.7699 11.3486 7.85532C11.5205 7.89844 11.5866 7.90637 11.6443 7.86432C11.9278 8.07511 12.1665 8.34046 12.346 8.64481C12.5256 8.94911 12.6425 9.28625 12.6899 9.63645C12.67 9.6316 12.6505 9.62548 12.6314 9.61817Z"
      fill="#DADADA" />
<path d="M9.27503 11.9093C9.27183 11.8928 9.27018 11.8761 9.27026 11.8593C9.26966 11.8204 9.26533 11.7816 9.25735 11.7435C9.23907 11.6546 9.2137 11.6377 9.18168 11.6146C9.15474 11.5973 9.13154 11.5747 9.1134 11.5483C9.08169 11.4997 9.05833 11.446 9.04438 11.3896L9.04199 11.3822C9.06527 11.3968 9.0893 11.4102 9.11393 11.4224C9.12587 11.4285 9.14042 11.437 9.15892 11.4465C9.22743 11.4835 9.3216 11.5348 9.36921 11.5305C9.41017 11.5247 9.44741 11.5036 9.47338 11.4713C9.49562 11.4491 9.56733 11.4911 9.598 11.4856C9.65434 11.4756 9.71963 11.4591 9.80432 11.4938C9.83999 11.5084 9.87096 11.5203 9.89447 11.5285C9.93864 11.5422 9.98364 11.5612 10.0268 11.5792C10.0981 11.6128 10.1734 11.6373 10.2508 11.6525C10.2939 11.6584 10.3374 11.6611 10.3809 11.6605C10.4614 11.6558 10.5415 11.6727 10.6131 11.7096C10.779 11.7924 10.8147 11.799 10.9956 11.7813C11.1313 11.7678 11.3038 11.7549 11.4352 11.7763C11.5595 11.7964 11.6733 11.8543 11.7841 11.9265C11.7841 11.9376 11.8007 11.9752 11.8018 11.986C11.3429 12.4073 10.7423 12.6405 10.1193 12.6393C10.0646 12.6393 10.0104 12.6372 9.95663 12.6335C9.93193 12.607 9.90477 12.5829 9.87544 12.5616C9.84044 12.54 9.80283 12.5229 9.76358 12.5108C9.71224 12.4923 9.65777 12.4732 9.62919 12.4407C9.58792 12.3952 9.5924 12.3444 9.59665 12.2952C9.60307 12.2621 9.60024 12.2277 9.58845 12.196C9.56412 12.1458 9.51099 12.1148 9.45465 12.0823C9.42114 12.0643 9.3895 12.0433 9.35995 12.0193C9.33063 11.9964 9.30541 11.9687 9.28533 11.9374C9.28854 11.9289 9.27503 11.9093 9.27503 11.9093Z"
      fill="#DADADA" />
<path d="M8.62337 7.89477C8.61882 7.96214 8.62248 8.02982 8.63427 8.09631C8.64643 8.18438 8.65777 8.2677 8.62419 8.36265L8.62076 8.37218H8.61755V8.37906C8.57315 8.49279 8.46892 8.65389 8.41946 8.7274C8.30731 8.71232 8.25547 8.62875 8.20045 8.5404C8.16752 8.48024 8.12459 8.42613 8.07349 8.38038C8.04829 8.36095 8.02177 8.34328 7.99414 8.32748C8.18428 8.09106 8.41336 7.88882 8.6715 7.72946C8.64628 7.78147 8.63001 7.83735 8.62337 7.89477Z"
      fill="#DADADA" />
<path d="M11.9398 11.8308C11.9358 11.7779 11.9332 11.7223 11.9327 11.6668C11.9298 11.3759 11.916 11.2804 11.7211 11.1169C11.5711 10.9905 11.3981 10.9281 11.3428 10.7395C11.3124 10.6353 11.3116 10.5014 11.3108 10.3618C11.3108 10.3002 11.3108 10.238 11.3071 10.1767C11.3215 10.1167 11.3432 10.0587 11.3714 10.0039C11.4042 9.93253 11.4571 9.85851 11.446 9.78075C11.4368 9.71568 11.446 9.76247 11.4176 9.67494C11.3928 9.59793 11.3462 9.55488 11.291 9.51018C11.3954 9.50921 11.4993 9.52383 11.5994 9.55353C11.8464 9.62412 12.0776 9.53182 12.3225 9.5739L12.3471 9.57808C12.4049 9.58965 12.46 9.61166 12.5098 9.64315C12.5445 9.66382 12.5808 9.68151 12.6185 9.69606C12.6429 9.70472 12.6679 9.71151 12.6934 9.71621C12.7065 9.80598 12.7132 9.89657 12.7132 9.98731C12.7143 10.6808 12.4428 11.347 11.9572 11.8422L11.9398 11.8308Z"
      fill="#DADADA" />
<path d="M7.69952 10.764C7.72253 10.7719 7.74501 10.7796 7.76565 10.7875C7.85775 10.8189 7.94554 10.8617 8.02697 10.915C8.11293 10.974 8.18012 11.0325 8.22931 11.1266C8.28221 11.2274 8.32162 11.2924 8.42822 11.3483L8.45995 11.3649C8.59092 11.4329 8.68532 11.4821 8.75382 11.6146C8.79531 11.6939 8.87075 11.728 8.94343 11.76C8.98313 11.7761 9.02119 11.7957 9.05723 11.8187L9.07178 11.8288L9.0982 11.8463C9.10954 11.8823 9.13551 11.9167 9.19924 11.9725C9.23341 12.0002 9.2702 12.0248 9.309 12.0457C9.36743 12.0799 9.42273 12.1118 9.44601 12.1594C9.45631 12.1899 9.45855 12.2225 9.45235 12.2541C9.44735 12.3123 9.44123 12.3782 9.49601 12.4393C9.53384 12.4811 9.59652 12.5036 9.65711 12.5252C9.69823 12.5379 9.73763 12.5556 9.77427 12.5781C9.79628 12.5942 9.81718 12.6119 9.83665 12.631C9.29266 12.5844 8.77636 12.3711 8.358 12.0203C7.93966 11.6694 7.6397 11.1981 7.49902 10.6706C7.5543 10.7148 7.63154 10.7412 7.69952 10.764Z"
      fill="#DADADA" />
<path d="M8.12261 8.60889C8.16811 8.68195 8.21492 8.75649 8.29745 8.79164C8.2218 8.80462 8.19746 8.78373 8.11785 8.85149C8.07553 8.88745 7.98402 8.88133 7.94566 8.9223C7.88033 8.99162 7.86499 9.11199 7.7822 9.15534C7.69447 9.19945 7.60337 9.23653 7.50977 9.26616C7.60498 8.92864 7.72136 8.67635 7.93297 8.4079C7.95782 8.42203 7.98143 8.43822 8.00359 8.4563C8.05156 8.50011 8.09181 8.55173 8.12261 8.60889Z"
      fill="#DADADA" />
<path d="M11.4747 11.131L11.4924 11.1458C11.6646 11.2905 11.7111 11.3296 11.7135 11.5801C11.7135 11.6238 11.7156 11.6668 11.7185 11.7097C11.6106 11.6415 11.4977 11.5854 11.3762 11.5661C11.2416 11.5444 11.0671 11.5571 10.9298 11.5706C10.7541 11.588 10.792 11.5412 10.6306 11.4606C10.5277 11.4092 10.3905 11.45 10.3177 11.4497C10.2755 11.4503 10.2333 11.4477 10.1916 11.4421C10.1163 11.4272 10.0432 11.4033 9.97388 11.3707C9.92993 11.3524 9.94904 11.3159 9.90352 11.3016C9.88106 11.2945 9.78606 11.2995 9.75062 11.2852C9.65831 11.2476 9.54302 11.2011 9.47922 11.2125C9.44474 11.2212 9.414 11.2407 9.39146 11.2683C9.3699 11.2964 9.33856 11.3153 9.30363 11.3212C9.26371 11.3241 9.17141 11.2736 9.10813 11.24C9.09014 11.2301 9.07432 11.2217 9.06216 11.2157C9.0288 11.199 8.99664 11.1801 8.96582 11.1593C8.96582 11.1572 8.96455 11.1546 8.96373 11.1524L8.95844 11.1543C8.88583 11.1022 8.81695 11.0452 8.75241 10.9834C8.62152 10.8603 8.46443 10.7685 8.29297 10.715C8.40089 10.7001 8.49108 10.6485 8.58391 10.5949C8.66122 10.5462 8.74412 10.5071 8.83098 10.4788C8.9368 10.4475 9.05791 10.447 9.17484 10.4462C9.29864 10.4462 9.42661 10.4449 9.53847 10.4079C9.65488 10.3692 9.74241 10.2854 9.82733 10.2042C9.91672 10.1185 10.0275 10.1053 10.1535 10.0719C10.254 10.0455 10.3815 9.96113 10.5357 9.95165C10.7272 9.94024 10.9248 9.92807 11.0507 9.87994C11.1226 9.97068 11.144 10.099 11.1509 10.2357V10.2373C11.1536 10.2923 11.1541 10.3483 11.1543 10.4042C11.1543 10.5327 11.156 10.6541 11.1845 10.7514C11.2358 10.9302 11.3413 11.0188 11.4747 11.131Z"
      fill="#DADADA" />
<path d="M7.48262 10.6055C7.43455 10.4143 7.4103 10.218 7.41041 10.0209C7.40754 9.81314 7.42912 9.60577 7.47469 9.40309C7.57161 9.37451 7.66614 9.33847 7.75744 9.29512C7.83679 9.25415 7.89789 9.24064 7.95819 9.17669C7.99151 9.13953 8.02683 9.10416 8.06399 9.07088C8.21132 8.94574 8.34568 8.96268 8.4872 8.98096C8.52102 8.98544 8.55542 8.98939 8.59035 8.99178C8.63773 9.02984 8.67922 9.01268 8.71601 9.04469C8.88846 9.19304 8.99136 9.34437 9.30559 9.34437C9.53356 9.34437 9.71101 9.34676 9.89115 9.45488C9.89592 9.45809 9.9007 9.461 9.906 9.46391C9.95278 9.49249 10.0002 9.52421 10.0488 9.55861L10.0795 9.58054C10.1802 9.65248 10.2754 9.72076 10.4078 9.74217C10.453 9.74822 10.4986 9.75016 10.5442 9.748C10.6307 9.74635 10.7064 9.74479 10.772 9.81195C10.6495 9.8556 10.4588 9.86724 10.2739 9.87836C10.1184 9.88791 9.97129 9.89687 9.86839 9.92388C9.73616 9.95902 9.64072 10.05 9.54863 10.1381C9.46215 10.2209 9.38066 10.2989 9.26985 10.3356C9.15904 10.3724 9.03606 10.3722 8.91435 10.3727C8.79272 10.3732 8.6737 10.3743 8.56363 10.4063C8.47488 10.4353 8.39003 10.475 8.31104 10.5248C8.19783 10.5901 8.08938 10.6523 7.94682 10.6446C7.90582 10.6348 7.86455 10.6274 7.82303 10.6213L7.81139 10.6179V10.6197C7.70236 10.6062 7.59242 10.6014 7.48262 10.6055Z"
      fill="#DADADA" />
<path d="M6.1647 7.17427C5.90514 7.17624 5.64568 7.16335 5.3876 7.13565C4.85251 7.07244 4.57478 6.93835 4.51474 6.71247C4.4182 6.35832 4.93345 6.06049 5.32967 5.86609C6.83733 5.1308 10.1436 4.36774 12.7005 4.16514C13.4911 4.10246 14.1553 4.09849 14.624 4.15351C15.159 4.21672 15.4368 4.35081 15.4968 4.57669C15.5934 4.93084 15.0781 5.22867 14.6819 5.42307C13.1742 6.15836 9.86799 6.92142 7.31105 7.12402C6.89023 7.15761 6.50458 7.17427 6.1647 7.17427ZM13.8392 4.4344C13.5353 4.4344 13.1679 4.44841 12.7249 4.48359C10.201 4.6846 6.94551 5.43285 5.468 6.1536C4.83321 6.46332 4.82024 6.62968 4.82024 6.62968C4.84114 6.70692 5.3228 6.9632 7.28645 6.80743C9.81031 6.60747 13.0658 5.85816 14.5433 5.13742C15.1781 4.82769 15.191 4.66133 15.191 4.66133C15.1747 4.60155 14.8829 4.4344 13.8392 4.4344Z"
      fill="#DADADA" />
<path d="M6.15426 15.8848C5.8947 15.8867 5.63524 15.8739 5.37715 15.8462C4.84207 15.7829 4.56434 15.6488 4.5043 15.423C4.40643 15.0699 4.92195 14.772 5.3187 14.5787C6.82636 13.8435 10.1326 13.0804 12.6896 12.8778C13.4801 12.8151 14.1443 12.8111 14.613 12.8661C15.1481 12.9293 15.4258 13.0634 15.4871 13.2893C15.5837 13.6435 15.0684 13.9413 14.6723 14.1357C13.1646 14.871 9.85829 15.6341 7.3014 15.8367C6.87925 15.8679 6.49361 15.8848 6.15426 15.8848ZM13.8282 13.1449C13.5243 13.1449 13.1569 13.159 12.7139 13.1941C10.19 13.3941 6.93453 14.1434 5.45703 14.8641C4.82223 15.1738 4.80927 15.3402 4.80927 15.3402C4.83043 15.4174 5.3105 15.6738 7.27548 15.518C9.79934 15.3178 13.0549 14.5687 14.5324 13.8479C15.1672 13.5383 15.1801 13.3718 15.1801 13.3718C15.1637 13.3121 14.872 13.1449 13.8282 13.1449Z"
      fill="#DADADA" />
</g>
<defs>
<linearGradient id="paint0_linear_12609_2219" x1="10.0618" y1="12.6394" x2="10.0618" y2="7.33634"
                gradientUnits="userSpaceOnUse">
<stop stop-color="#603211" />
<stop offset="0.17" stop-color="#DD7D26" />
<stop offset="0.35" stop-color="#603211" />
<stop offset="0.54" stop-color="#9C3520" />
<stop offset="0.77" stop-color="#DD7D26" />
<stop offset="1" stop-color="#603211" />
</linearGradient>
<clipPath id="clip0_12609_2219">
<rect width="20" height="20" fill="white" />
</clipPath>
</defs>
</svg>
