<svg width="24" height="24" viewBox="0 0 24 24" fill="none" xmlns="http://www.w3.org/2000/svg">
<path d="M2.65126 17.1296V17.336C2.65126 17.336 10.7027 14.3562 12.268 15.1258L11.3238 15.3862C11.4065 15.3862 12.9366 15.4801 12.9366 15.4801C12.9725 15.7761 13.078 16.061 13.2456 16.3142C13.4132 16.5674 13.6387 16.7825 13.9058 16.9442C14.8274 17.5143 14.8449 17.8241 14.8449 17.8241C14.8449 17.8241 14.3666 18.0071 14.3666 18.2394C14.8114 18.1201 15.2714 18.0577 15.734 18.054C16.1513 18.068 16.5651 18.1302 16.9661 18.2394C16.9661 18.2394 16.9185 18.0047 16.2749 17.8241C15.6313 17.6434 15.0102 17.0052 14.6972 16.6509C14.5094 16.4244 14.3877 16.1562 14.3438 15.8724C14.2999 15.5886 14.3354 15.299 14.4467 15.032C14.6696 14.497 15.4485 14.199 17.0287 13.4294C18.9045 12.5214 19.3327 11.841 19.5957 11.3177C19.8586 10.7945 20.2543 9.74571 20.4722 9.25299C20.6534 8.79245 20.965 8.38686 21.3738 8.07983C21.6518 7.8804 22.919 7.43225 22.919 7.43225C22.919 7.43225 21.9523 6.66032 21.6367 6.42803C21.2423 6.07808 20.7436 5.84893 20.2067 5.77106C19.5356 5.68894 18.8544 6.10659 18.3936 6.3858C17.9328 6.66501 17.0412 7.48153 16.6806 7.71616C16.32 7.95079 15.3959 8.18542 13.9258 9.02774C12.4558 9.87007 6.62066 13.359 6.62066 13.359L8.12327 13.3731L1.37907 16.6509H2.05275L1.08105 17.3548C1.61923 17.4702 2.18412 17.3897 2.6613 17.1296H2.65126Z" fill="#111111"/>
</svg>
