<svg width="20" height="20" viewBox="0 0 20 20" fill="none" xmlns="http://www.w3.org/2000/svg">
<g clip-path="url(#clip0_5607_24758)">
<path fill-rule="evenodd" clip-rule="evenodd" d="M13.6968 3.45825C14.0704 3.45817 14.4404 3.53169 14.7855 3.67462C15.1307 3.81755 15.4443 4.02708 15.7085 4.29126C15.9727 4.55543 16.1822 4.86907 16.3252 5.21424C16.4681 5.55942 16.5416 5.92937 16.5415 6.30297C16.5414 6.67656 16.4678 7.04648 16.3247 7.39159C16.1816 7.7367 15.9719 8.05024 15.7076 8.31429L15.7073 8.31454L13.397 10.6249C13.1329 10.889 12.8194 11.0985 12.4743 11.2414C12.1292 11.3843 11.7594 11.4579 11.3859 11.4579C11.0124 11.4579 10.6426 11.3843 10.2975 11.2414C9.95246 11.0985 9.63893 10.889 9.37484 10.6249C9.08194 10.332 8.60707 10.332 8.31418 10.6249C8.02129 10.9178 8.02129 11.3927 8.31418 11.6855C8.71757 12.0889 9.19645 12.4089 9.7235 12.6272C10.2505 12.8455 10.8154 12.9579 11.3859 12.9579C11.9564 12.9579 12.5213 12.8455 13.0483 12.6272C13.5754 12.4089 14.0542 12.0889 14.4576 11.6855L16.7678 9.37545L16.768 9.3752C17.1716 8.97194 17.4918 8.49312 17.7103 7.96611C17.9288 7.43898 18.0414 6.87396 18.0415 6.30332C18.0417 5.73268 17.9294 5.1676 17.7111 4.64037C17.4927 4.11315 17.1727 3.6341 16.7692 3.23059C16.3657 2.82709 15.8866 2.50704 15.3594 2.28873C14.8322 2.07042 14.2671 1.95812 13.6964 1.95825C13.1258 1.95839 12.5608 2.07095 12.0336 2.2895C11.5066 2.50802 11.0278 2.8282 10.6245 3.23178L10.6243 3.23202L9.00729 4.84902C8.7144 5.14191 8.71439 5.61678 9.00729 5.90968C9.30018 6.20257 9.77505 6.20258 10.0679 5.90968L11.6852 4.29244L11.6854 4.29219C11.9495 4.0279 12.263 3.81821 12.6082 3.67512C12.9533 3.53203 13.3232 3.45834 13.6968 3.45825ZM7.52525 8.75863C7.87031 8.6157 8.24014 8.54214 8.61363 8.54214C8.98712 8.54214 9.35695 8.6157 9.70201 8.75863C10.0471 8.90156 10.3606 9.11105 10.6247 9.37514C10.9176 9.66804 11.3925 9.66804 11.6854 9.37514C11.9783 9.08225 11.9783 8.60737 11.6854 8.31448C11.282 7.9111 10.8031 7.59112 10.276 7.37281C9.74899 7.1545 9.1841 7.04214 8.61363 7.04214C8.04316 7.04214 7.47827 7.1545 6.95123 7.37281C6.42418 7.59112 5.94529 7.9111 5.54191 8.31448L3.23179 10.6246L3.23173 10.6246L3.23154 10.6248C2.82797 11.0281 2.50778 11.5069 2.28926 12.0339C2.0707 12.561 1.95814 13.1261 1.95801 13.6967C1.95788 14.2674 2.07017 14.8324 2.28849 15.3597C2.5068 15.8869 2.82686 16.3659 3.23036 16.7694C3.63387 17.1729 4.11292 17.493 4.64015 17.7113C5.16738 17.9296 5.73246 18.0419 6.3031 18.0418C6.87374 18.0416 7.43876 17.9291 7.96589 17.7105C8.49291 17.492 8.97173 17.1718 9.37499 16.7682L9.37524 16.768L10.9922 15.151C11.2851 14.8581 11.2851 14.3832 10.9923 14.0903C10.6994 13.7975 10.2245 13.7975 9.93159 14.0903L8.31434 15.7076L8.31409 15.7078C8.05004 15.9721 7.7365 16.1818 7.39139 16.3249C7.04627 16.468 6.67635 16.5417 6.30275 16.5418C5.92915 16.5419 5.55919 16.4683 5.21401 16.3254C4.86883 16.1825 4.55519 15.9729 4.29102 15.7088C4.02684 15.4446 3.8173 15.131 3.67437 14.7858C3.53144 14.4406 3.45792 14.0707 3.45801 13.6971C3.45809 13.3235 3.53179 12.9535 3.67488 12.6084C3.81797 12.2633 4.02766 11.9498 4.29195 11.6857L4.2922 11.6855L6.60256 9.37514C6.86666 9.11105 7.18019 8.90156 7.52525 8.75863Z" fill="#1B202C"/>
</g>
<defs>
<clipPath id="clip0_5607_24758">
<rect width="20" height="20" fill="white"/>
</clipPath>
</defs>
</svg>

