<svg width="20" height="20" viewBox="0 0 20 20" fill="none" xmlns="http://www.w3.org/2000/svg">
<g clip-path="url(#clip0_5978_78143)">
<path d="M10 19.1666C15.0627 19.1666 19.1667 15.0625 19.1667 9.99992C19.1667 4.93731 15.0627 0.833252 10 0.833252C4.93743 0.833252 0.833374 4.93731 0.833374 9.99992C0.833374 15.0625 4.93743 19.1666 10 19.1666Z" fill="black"/>
<path d="M9.96381 12.9456C11.7048 12.9456 13.1161 11.5247 13.1161 9.77198C13.1161 8.01925 11.7048 6.59839 9.96381 6.59839C8.22285 6.59839 6.81152 8.01925 6.81152 9.77198C6.81152 11.5247 8.22285 12.9456 9.96381 12.9456Z" fill="#6822FB"/>
<g filter="url(#filter0_f_5978_78143)">
<path d="M15.7336 11.4446C15.4261 12.5777 14.7951 13.5968 13.9179 14.3772C13.0407 15.1577 11.9477 15.6051 10.7865 15.7788L14.4523 11.8316C14.5863 11.6856 14.7523 11.5728 14.9373 11.5019C15.1222 11.4311 15.3211 11.4042 15.5183 11.4233L15.7336 11.4446ZM8.99889 4L5.54095 7.77133C5.38697 7.93913 5.19098 8.06277 4.97323 8.12948C4.75548 8.1962 4.52387 8.20357 4.30232 8.15084L4.26074 8.14121C4.58649 7.07817 5.20265 6.12723 6.0398 5.39555C6.87695 4.66387 7.90181 4.18053 8.99889 4Z" stroke="#C5FBFF" stroke-width="0.560201" stroke-miterlimit="10"/>
<path d="M8.99907 4C7.60279 4.22995 6.3336 4.94847 5.41793 6.02737C4.50225 7.10627 3.99964 8.47538 3.99976 9.89048V9.91604L4.67558 9.17734C4.80951 9.03139 4.9755 8.91855 5.16048 8.8477C5.34546 8.77685 5.54437 8.74993 5.74152 8.76907L6.75631 8.86926C7.052 8.89801 7.35032 8.85771 7.62778 8.75153C7.90525 8.64536 8.15427 8.47621 8.35524 8.25742L12.0083 4.27395C12.6844 4.51993 13.3103 4.88652 13.8556 5.35591L10.4285 9.09312C10.2745 9.26092 10.0785 9.38457 9.86079 9.45128C9.64304 9.51799 9.41142 9.52534 9.18987 9.47259L8.32325 9.25942C8.1017 9.20668 7.87009 9.21404 7.65234 9.28075C7.43459 9.34746 7.23859 9.4711 7.08461 9.63889L4.50502 12.4285C4.85467 13.181 5.40789 13.827 6.02293 14.3685L9.56827 10.5055C9.70222 10.3596 9.86822 10.2467 10.0532 10.1759C10.2382 10.105 10.4371 10.0781 10.6343 10.0973L11.6501 10.1974C11.9458 10.2262 12.2441 10.1859 12.5216 10.0797C12.799 9.97353 13.0481 9.80439 13.249 9.5856L15.349 7.29487C15.7178 8.06079 15.9188 8.89666 15.9384 9.74654L15.3244 10.4234C15.1704 10.5912 14.9745 10.7148 14.7567 10.7815C14.539 10.8483 14.3074 10.8556 14.0858 10.8029L13.2181 10.5951C12.9966 10.5423 12.765 10.5497 12.5472 10.6164C12.3295 10.6831 12.1335 10.8067 11.9795 10.9745L7.8553 15.4718C8.53217 15.729 9.25031 15.8605 9.97441 15.8598C10.2576 15.8601 10.5405 15.8398 10.8208 15.799V15.799C11.9764 15.6335 13.0582 15.1328 13.9321 14.3589C14.8061 13.5849 15.434 12.5717 15.738 11.4446" stroke="#C5FBFF" stroke-width="0.560201" stroke-miterlimit="10"/>
</g>
<path d="M15.734 11.4446C15.4264 12.5777 14.7955 13.5968 13.9183 14.3772C13.0411 15.1577 11.9481 15.6051 10.7869 15.7788L14.4527 11.8316C14.5866 11.6856 14.7526 11.5728 14.9376 11.5019C15.1226 11.4311 15.3215 11.4042 15.5187 11.4233L15.734 11.4446ZM8.99925 4L5.54132 7.77133C5.38734 7.93913 5.19135 8.06277 4.9736 8.12948C4.75585 8.1962 4.52424 8.20357 4.30268 8.15084L4.26111 8.14121C4.58685 7.07817 5.20302 6.12723 6.04017 5.39555C6.87732 4.66387 7.90217 4.18053 8.99925 4Z" stroke="white" stroke-width="0.560201" stroke-miterlimit="10"/>
<path d="M8.9992 4C7.60291 4.22995 6.33372 4.94847 5.41805 6.02737C4.50237 7.10627 3.99976 8.47538 3.99988 9.89048V9.91604L4.6757 9.17734C4.80963 9.03139 4.97563 8.91855 5.16061 8.8477C5.34558 8.77685 5.54449 8.74993 5.74165 8.76907L6.75643 8.86926C7.05212 8.89801 7.35044 8.85771 7.62791 8.75153C7.90537 8.64536 8.15439 8.47621 8.35536 8.25742L12.0084 4.27395C12.6845 4.51993 13.3104 4.88652 13.8557 5.35591L10.4286 9.09312C10.2747 9.26092 10.0787 9.38457 9.86091 9.45128C9.64316 9.51799 9.41154 9.52534 9.18999 9.47259L8.32337 9.25942C8.10182 9.20668 7.87021 9.21404 7.65246 9.28075C7.43471 9.34746 7.23872 9.4711 7.08473 9.63889L4.50514 12.4285C4.85479 13.181 5.40801 13.827 6.02305 14.3685L9.5684 10.5055C9.70234 10.3596 9.86834 10.2467 10.0533 10.1759C10.2383 10.105 10.4372 10.0781 10.6344 10.0973L11.6502 10.1974C11.9459 10.2262 12.2442 10.1859 12.5217 10.0797C12.7992 9.97353 13.0482 9.80439 13.2492 9.5856L15.3491 7.29487C15.7179 8.06079 15.9189 8.89666 15.9385 9.74654L15.3246 10.4234C15.1706 10.5912 14.9746 10.7148 14.7568 10.7815C14.5391 10.8483 14.3075 10.8556 14.0859 10.8029L13.2182 10.5951C12.9967 10.5423 12.7651 10.5497 12.5473 10.6164C12.3296 10.6831 12.1336 10.8067 11.9796 10.9745L7.85543 15.4718C8.53229 15.729 9.25044 15.8605 9.97453 15.8598C10.2578 15.8601 10.5406 15.8398 10.8209 15.799C11.9765 15.6335 13.0583 15.1328 13.9323 14.3589C14.8062 13.5849 15.4341 12.5717 15.7382 11.4446" stroke="white" stroke-width="0.583933" stroke-miterlimit="10"/>
</g>
<defs>
<filter id="filter0_f_5978_78143" x="1.48088" y="1.35332" width="16.9789" height="17.0595" filterUnits="userSpaceOnUse" color-interpolation-filters="sRGB">
<feFlood flood-opacity="0" result="BackgroundImageFix"/>
<feBlend mode="normal" in="SourceGraphic" in2="BackgroundImageFix" result="shape"/>
<feGaussianBlur stdDeviation="1.11936" result="effect1_foregroundBlur_5978_78143"/>
</filter>
<clipPath id="clip0_5978_78143">
<rect width="20" height="20" fill="white"/>
</clipPath>
</defs>
</svg>
