<svg width="44" height="44" viewBox="0 0 44 44" fill="none" xmlns="http://www.w3.org/2000/svg">
<rect width="44" height="44" rx="8" fill="url(#paint0_linear_5145_24902)"/>
<path d="M28.8944 15.1057C27.0659 13.2772 24.5859 12.25 22 12.25C19.4141 12.25 16.9341 13.2772 15.1056 15.1057C13.2771 16.9342 12.2499 19.4142 12.2499 22.0001C12.2499 24.586 13.2771 27.066 15.1056 28.8945C16.9341 30.723 19.4141 31.7502 22 31.7502C24.5859 31.7502 27.0659 30.723 28.8944 28.8945C30.7229 27.066 31.7501 24.586 31.7501 22.0001C31.7501 19.4142 30.7229 16.9342 28.8944 15.1057ZM27.8341 27.8342C26.6802 28.9878 25.2102 29.7735 23.6099 30.0917C22.0096 30.4099 20.3509 30.2465 18.8434 29.622C17.336 28.9975 16.0476 27.9401 15.1412 26.5834C14.2347 25.2268 13.7509 23.6318 13.7509 22.0001C13.7509 20.3685 14.2347 18.7735 15.1412 17.4168C16.0476 16.0601 17.336 15.0027 18.8434 14.3782C20.3509 13.7538 22.0096 13.5903 23.6099 13.9086C25.2102 14.2268 26.6802 15.0124 27.8341 16.1661C29.379 17.7146 30.2466 19.8127 30.2466 22.0001C30.2466 24.1875 29.379 26.2856 27.8341 27.8342ZM21.7806 21.4695C21.8504 21.5391 21.9057 21.6219 21.9434 21.7129C21.9812 21.804 22.0006 21.9016 22.0006 22.0001C22.0006 22.0987 21.9812 22.1963 21.9434 22.2873C21.9057 22.3784 21.8504 22.4611 21.7806 22.5307L18.7806 25.5307C18.7109 25.6004 18.6282 25.6557 18.5372 25.6934C18.4461 25.7311 18.3485 25.7505 18.25 25.7505C18.1515 25.7505 18.0539 25.7311 17.9628 25.6934C17.8718 25.6557 17.7891 25.6004 17.7194 25.5307C17.6497 25.4611 17.5944 25.3783 17.5567 25.2873C17.519 25.1962 17.4996 25.0987 17.4996 25.0001C17.4996 24.9016 17.519 24.804 17.5567 24.7129C17.5944 24.6219 17.6497 24.5392 17.7194 24.4695L20.1897 22.0001L17.7194 19.5307C17.5786 19.39 17.4996 19.1991 17.4996 19.0001C17.4996 18.8011 17.5786 18.6102 17.7194 18.4695C17.8601 18.3288 18.051 18.2497 18.25 18.2497C18.449 18.2497 18.6399 18.3288 18.7806 18.4695L21.7806 21.4695ZM27.0306 21.4695C27.1004 21.5391 27.1557 21.6219 27.1934 21.7129C27.2312 21.804 27.2506 21.9016 27.2506 22.0001C27.2506 22.0987 27.2312 22.1963 27.1934 22.2873C27.1557 22.3784 27.1004 22.4611 27.0306 22.5307L24.0306 25.5307C23.8899 25.6715 23.699 25.7505 23.5 25.7505C23.301 25.7505 23.1101 25.6715 22.9694 25.5307C22.8286 25.39 22.7496 25.1991 22.7496 25.0001C22.7496 24.8011 22.8286 24.6102 22.9694 24.4695L25.4397 22.0001L22.9694 19.5307C22.8286 19.39 22.7496 19.1991 22.7496 19.0001C22.7496 18.8011 22.8286 18.6102 22.9694 18.4695C23.1101 18.3288 23.301 18.2497 23.5 18.2497C23.699 18.2497 23.8899 18.3288 24.0306 18.4695L27.0306 21.4695Z" fill="#1B202C" fill-opacity="0.3"/>
<defs>
<linearGradient id="paint0_linear_5145_24902" x1="0" y1="0" x2="44" y2="44" gradientUnits="userSpaceOnUse">
<stop stop-color="#1B202C" stop-opacity="0.05"/>
<stop offset="1" stop-color="#1B202C" stop-opacity="0"/>
</linearGradient>
</defs>
</svg>

