<svg width="24" height="24" viewBox="0 0 24 24" fill="none" xmlns="http://www.w3.org/2000/svg">
<path fill-rule="evenodd" clip-rule="evenodd" d="M3.75 7.5C3.75 6.25736 4.75736 5.25 6 5.25C7.24264 5.25 8.25 6.25736 8.25 7.5C8.25 8.74264 7.24264 9.75 6 9.75C4.75736 9.75 3.75 8.74264 3.75 7.5ZM6 3.75C3.92893 3.75 2.25 5.42893 2.25 7.5C2.25 9.57107 3.92893 11.25 6 11.25C7.81422 11.25 9.32753 9.96168 9.67499 8.25H21C21.3033 8.25 21.5768 8.06727 21.6929 7.78701C21.809 7.50676 21.7448 7.18417 21.5303 6.96967L18.5303 3.96967C18.2374 3.67678 17.7626 3.67678 17.4697 3.96967C17.1768 4.26256 17.1768 4.73744 17.4697 5.03033L19.1893 6.75H9.67499C9.32753 5.03832 7.81422 3.75 6 3.75ZM3.75 16.5C3.75 15.2574 4.75736 14.25 6 14.25C7.24264 14.25 8.25 15.2574 8.25 16.5C8.25 17.7426 7.24264 18.75 6 18.75C4.75736 18.75 3.75 17.7426 3.75 16.5ZM6 12.75C3.92893 12.75 2.25 14.4289 2.25 16.5C2.25 18.5711 3.92893 20.25 6 20.25C7.81422 20.25 9.32753 18.9617 9.67499 17.25H21C21.3033 17.25 21.5768 17.0673 21.6929 16.787C21.809 16.5068 21.7448 16.1842 21.5303 15.9697L18.5303 12.9697C18.2374 12.6768 17.7626 12.6768 17.4697 12.9697C17.1768 13.2626 17.1768 13.7374 17.4697 14.0303L19.1893 15.75H9.67499C9.32753 14.0383 7.81422 12.75 6 12.75Z" fill="#1B202C"/>
</svg>
