<svg width="44" height="44" viewBox="0 0 44 44" fill="none" xmlns="http://www.w3.org/2000/svg">
<rect width="44" height="44" rx="8" fill="url(#paint0_linear_5145_24902)"/>
<path d="M13 22C13 17.0294 17.0294 13 22 13C26.9706 13 31 17.0294 31 22C31 26.9706 26.9706 31 22 31C17.0294 31 13 26.9706 13 22Z" stroke="#1B202C" stroke-opacity="0.3" stroke-width="2" stroke-linecap="round" stroke-linejoin="round" stroke-dasharray="0.5 4"/>
<path d="M19.5 18.5H22H23.5C24.0523 18.5 24.5 18.9477 24.5 19.5V21C24.5 21.5523 24.0523 22 23.5 22H20.5C19.9477 22 19.5 22.4477 19.5 23V25C19.5 25.5523 19.9477 26 20.5 26H24.5" stroke="#1B202C" stroke-opacity="0.3" stroke-width="1.5" stroke-linecap="round" stroke-linejoin="round"/>
<defs>
<linearGradient id="paint0_linear_5145_24902" x1="0" y1="0" x2="44" y2="44" gradientUnits="userSpaceOnUse">
<stop stop-color="#1B202C" stop-opacity="0.05"/>
<stop offset="1" stop-color="#1B202C" stop-opacity="0"/>
</linearGradient>
</defs>
</svg>

