<svg width="20" height="20" viewBox="0 0 20 20" fill="none" xmlns="http://www.w3.org/2000/svg">
<path fill-rule="evenodd" clip-rule="evenodd"
      d="M19 10C19 14.9705 14.9705 19 10 19C5.02944 19 1 14.9705 1 10C1 5.02944 5.02944 1 10 1C14.9705 1 19 5.02944 19 10ZM16.8738 13.8456C15.5257 16.25 12.9526 17.875 10 17.875C5.65072 17.875 2.125 14.3493 2.125 10C2.125 9.96521 2.12521 9.93054 2.12569 9.89588C2.62811 10.6685 3.46046 11.4335 4.5354 12.1158C4.51611 12.5713 4.68035 13.0331 5.02814 13.3809C5.65402 14.0068 6.64937 14.0382 7.3124 13.4752C7.82876 13.6676 8.36963 13.8409 8.93046 13.9912C12.1269 14.8476 15.1339 14.7321 16.8738 13.8456ZM7.88246 12.4859C8.31017 12.6396 8.75746 12.7801 9.22171 12.9045C11.4005 13.4883 13.4335 13.5779 14.9385 13.2974C16.5331 13.0001 17.1397 12.3882 17.2584 11.945C17.3772 11.5016 17.1579 10.6685 15.9255 9.61362C15.4116 9.17379 14.7725 8.74512 14.031 8.35304C14.0136 8.37204 13.9958 8.39071 13.9775 8.40904C13.3185 9.06813 12.25 9.06813 11.591 8.40904C11.2535 8.07149 11.0888 7.62654 11.097 7.18421C10.9917 7.15378 10.8854 7.12419 10.7782 7.09549C8.59938 6.51171 6.56636 6.4221 5.06144 6.70266C3.46677 6.99991 2.86026 7.61185 2.74148 8.05508C2.62268 8.49838 2.842 9.33154 4.07439 10.3863C4.34019 10.6138 4.63957 10.8383 4.96923 11.0564C4.98824 11.0353 5.00788 11.0146 5.02814 10.9944C5.68711 10.3355 6.7556 10.3355 7.41464 10.9944C7.82032 11.4 7.97625 11.961 7.88246 12.4859ZM17.8743 10.1043C17.226 9.10729 16.0283 8.12312 14.469 7.31254C14.4954 6.84905 14.3315 6.37664 13.9775 6.02254C13.3185 5.36357 12.25 5.36357 11.591 6.02254C11.5568 6.05667 11.5245 6.09189 11.4939 6.12808C11.3537 6.08688 11.2122 6.04712 11.0694 6.00887C7.87305 5.15242 4.86616 5.26792 3.12627 6.15431C4.47436 3.74995 7.04736 2.125 10 2.125C14.3493 2.125 17.875 5.65072 17.875 10L17.875 10.0499L17.8743 10.1043Z"
      fill="#26DB8D" />
</svg>
