<svg width="20" height="20" viewBox="0 0 20 20" fill="none" xmlns="http://www.w3.org/2000/svg">
<g clip-path="url(#clip0_10088_19845)">
<path d="M9.99996 19.165C15.0617 19.165 19.165 15.0617 19.165 9.99996C19.165 4.93827 15.0617 0.834961 9.99996 0.834961C4.93827 0.834961 0.834961 4.93827 0.834961 9.99996C0.834961 15.0617 4.93827 19.165 9.99996 19.165Z"
      fill="#CBFFA0" />
<path fill-rule="evenodd" clip-rule="evenodd"
      d="M10.0135 4.98145C9.58022 4.98145 9.15634 4.99821 8.7449 5.02986C8.39597 5.05658 8.05653 5.0948 7.72681 5.14457L7.80208 5.64327C8.11902 5.59543 8.44611 5.55856 8.78341 5.53273C9.18208 5.50206 9.59317 5.48579 10.0135 5.48579C11.8633 5.48579 13.5261 5.79743 14.7171 6.29177C15.3132 6.53918 15.779 6.82737 16.092 7.13451C16.4041 7.44081 16.5499 7.75053 16.5499 8.05145C16.5499 8.24702 16.4883 8.44631 16.3595 8.64597C15.9923 8.31256 15.4959 8.02092 14.9103 7.77771C13.6443 7.25196 11.9128 6.93262 10.0133 6.93262C9.58 6.93262 9.15609 6.94938 8.74463 6.98103L8.74481 6.98333C7.34608 7.09066 6.08821 7.37369 5.10889 7.78025C4.47647 8.04279 3.94817 8.36183 3.5741 8.72898C3.19916 9.09698 2.96509 9.52863 2.96509 10.0059C2.96509 10.3588 3.09309 10.6867 3.31137 10.9824C3.09308 11.2781 2.96509 11.6061 2.96509 11.9591C2.96509 12.4364 3.1993 12.868 3.57435 13.236C3.94854 13.6031 4.47698 13.9221 5.10948 14.1845C6.37563 14.71 8.10708 15.0291 10.0058 15.0291C10.439 15.0291 10.8629 15.0127 11.2745 14.981C11.6233 14.9538 11.9627 14.9156 12.2922 14.8664L12.2176 14.3675C11.9005 14.4149 11.5733 14.4518 11.2358 14.4781C10.8373 14.5088 10.4263 14.5247 10.0058 14.5247C8.15683 14.5247 6.494 14.2131 5.3028 13.7187C4.70663 13.4713 4.24063 13.1831 3.92755 12.876C3.61533 12.5696 3.46943 12.2599 3.46943 11.9591C3.46943 11.7633 3.53117 11.5637 3.66026 11.3639C4.02762 11.697 4.52396 11.9884 5.10948 12.2314C6.37563 12.7569 8.10708 13.0759 10.0058 13.0759C10.4391 13.0759 10.863 13.0592 11.2744 13.0275C11.6231 13.0008 11.9622 12.9633 12.2916 12.9148C13.2827 12.771 14.1749 12.5344 14.9103 12.2292C15.5427 11.9667 16.071 11.6478 16.4451 11.2806C16.82 10.9127 17.0541 10.481 17.0541 10.0037C17.0541 9.65107 16.9263 9.3233 16.7083 9.02769C16.9264 8.73206 17.0543 8.40423 17.0543 8.05145C17.0543 7.57415 16.8202 7.14252 16.4453 6.77456C16.0712 6.40744 15.5429 6.08845 14.9104 5.82596C13.6445 5.3005 11.913 4.98145 10.0135 4.98145ZM3.99039 10.9823C4.30162 11.2672 4.7453 11.5342 5.3028 11.7656C6.494 12.2599 8.15683 12.5716 10.0058 12.5716L10.0133 12.5716V12.5694C11.8631 12.5694 13.5259 12.2578 14.7169 11.7634C15.313 11.516 15.7788 11.2278 16.0918 10.9207C16.4039 10.6144 16.5498 10.3047 16.5498 10.0037C16.5498 9.80823 16.4882 9.60897 16.3595 9.40934C15.9922 9.74259 15.496 10.0341 14.9105 10.2771C13.6445 10.8027 11.913 11.1218 10.0135 11.1218V10.6175C11.8633 10.6175 13.5261 10.3058 14.7171 9.81133C15.2747 9.57983 15.7184 9.31263 16.0296 9.02762C15.7184 8.74248 15.2746 8.47512 14.7169 8.24349C13.5259 7.74887 11.8631 7.43696 10.0133 7.43696L10.0058 7.43696V7.43989C8.15607 7.43989 6.49326 7.75162 5.30227 8.24605C4.7062 8.4935 4.24034 8.78174 3.92738 9.08892C3.61528 9.39525 3.46943 9.705 3.46943 10.0059C3.46943 10.2016 3.53115 10.4011 3.66022 10.6009C4.02744 10.2677 4.52357 9.97637 5.10889 9.73337C6.37487 9.20782 8.10633 8.88867 10.0058 8.88867V9.39302C8.15607 9.39302 6.49326 9.70475 5.30227 10.1992C4.74498 10.4305 4.3015 10.6975 3.99039 10.9823Z"
      fill="black" />
</g>
<defs>
<clipPath id="clip0_10088_19845">
<rect width="20" height="20" fill="white" />
</clipPath>
</defs>
</svg>
