<svg width="20" height="20" viewBox="0 0 20 20" fill="none" xmlns="http://www.w3.org/2000/svg">
    <path d="M16.8738 14.582C15.6083 14.582 14.5825 15.6079 14.5825 16.8733C14.5825 18.1387 15.6083 19.1645 16.8738 19.1645C18.1392 19.1645 19.165 18.1387 19.165 16.8733C19.165 15.6079 18.1392 14.582 16.8738 14.582Z"
          fill="#E6007A"/>
    <path fill-rule="evenodd" clip-rule="evenodd"
          d="M4 6.5C4.96562 6.5 5.75 5.71563 5.75 4.75C5.75 3.78438 4.96562 3 4 3C3.03437 3 2.25 3.78438 2.25 4.75C2.25 5.71563 3.03437 6.5 4 6.5ZM1.5 11C1.5 10.4938 1.6875 10.0281 2 9.67812V12.3219C1.6875 11.9719 1.5 11.5063 1.5 11ZM5 11.5C5 10.1625 5.58437 8.95937 6.5125 8.1375V8.13438C5.94375 7.73438 5.25 7.5 4.5 7.5H3.5C1.56562 7.5 0 9.06563 0 11C0 12.3969 0.81875 13.6 2 14.1625V15C2 15.5531 2.44688 16 3 16H5C5.55312 16 6 15.5531 6 15V14.3281C5.375 13.5562 5 12.5719 5 11.5ZM14.4718 13.6169C15.1436 13.1206 15.9744 12.8271 16.8738 12.8271C17.6583 12.8271 18.3908 13.0505 19.0109 13.437C19.6227 12.8071 20 11.9482 20 11C20 9.06563 18.4344 7.5 16.5 7.5H15.5C14.75 7.5 14.0563 7.73438 13.4875 8.13438C14.4156 8.95937 15 10.1625 15 11.5C15 12.2654 14.8088 12.9862 14.4718 13.6169ZM16 6.5C16.9656 6.5 17.75 5.71563 17.75 4.75C17.75 3.78438 16.9656 3 16 3C15.0344 3 14.25 3.78438 14.25 4.75C14.25 5.71563 15.0344 6.5 16 6.5ZM18.5 11.0031C18.5 11.5094 18.3125 11.9719 18 12.325V9.68125C18.3125 10.0312 18.5 10.4969 18.5 11.0031ZM8 5C8 6.10313 8.89688 7 10 7C11.1031 7 12 6.10313 12 5C12 3.89688 11.1031 3 10 3C8.89688 3 8 3.89688 8 5ZM8 12.8219C7.6875 12.4688 7.5 12.0063 7.5 11.5C7.5 10.9938 7.6875 10.5313 8 10.1781V12.8219ZM12 12.825V10.1812C12.3125 10.5312 12.5 10.9969 12.5 11.5031C12.5 12.0094 12.3125 12.4719 12 12.825ZM12 14.6625C13.1812 14.1 14 12.8969 14 11.5C14 9.56563 12.4344 8 10.5 8H9.5C7.56563 8 6 9.56563 6 11.5C6 12.8969 6.81875 14.1 8 14.6625V16C8 16.5531 8.44687 17 9 17H11C11.5531 17 12 16.5531 12 16V14.6625Z"
          fill="black"/>
</svg>
