<svg width="16" height="16" viewBox="0 0 16 16" fill="none" xmlns="http://www.w3.org/2000/svg">
<path fill-rule="evenodd" clip-rule="evenodd" d="M14.62 7.99995C14.62 11.6561 11.6561 14.62 7.99995 14.62C4.34379 14.62 1.37988 11.6561 1.37988 7.99995C1.37988 4.34379 4.34379 1.37988 7.99995 1.37988C11.6561 1.37988 14.62 4.34379 14.62 7.99995ZM6.76684 6.29445C6.76684 5.92899 6.91048 5.68648 7.11506 5.52247C7.33482 5.34629 7.654 5.24096 8.00017 5.24096C8.34634 5.24096 8.66553 5.34629 8.88529 5.52247C9.08987 5.68649 9.23351 5.929 9.23351 6.29445C9.23351 6.56787 9.16563 6.72191 9.08285 6.83924C8.95673 7.01798 8.77677 7.15356 8.6115 7.29397C8.39983 7.47396 8.12369 7.71524 7.91256 8.06767C7.69404 8.43241 7.56684 8.87612 7.56684 9.44388C7.56684 9.77526 7.83547 10.0439 8.16684 10.0439C8.49821 10.0439 8.76684 9.77526 8.76684 9.44388C8.76684 9.0668 8.84797 8.84125 8.94196 8.68437C9.06816 8.47372 9.26152 8.31573 9.44684 8.15916C9.62902 8.0057 9.87413 7.79924 10.0633 7.53108C10.293 7.20552 10.4335 6.80841 10.4335 6.29445C10.4335 5.55759 10.1188 4.97336 9.63589 4.5862C9.16816 4.21122 8.57067 4.04097 8.00018 4.04096C7.42968 4.04096 6.8322 4.21122 6.36446 4.5862C5.88154 4.97335 5.56684 5.55758 5.56684 6.29445C5.56684 6.62583 5.83547 6.89445 6.16684 6.89445C6.49821 6.89445 6.76684 6.62583 6.76684 6.29445ZM8.60776 11.747C8.83643 11.5072 8.82737 11.1274 8.58754 10.8987C8.34537 10.6678 7.96069 10.6867 7.73259 10.9259C7.50392 11.1657 7.51298 11.5455 7.75281 11.7742C7.99498 12.0051 8.37966 11.9862 8.60776 11.747Z" fill="#1B202C" fill-opacity="0.3"/>
</svg>
