<svg width="44" height="44" viewBox="0 0 44 44" fill="none" xmlns="http://www.w3.org/2000/svg">
<rect width="44" height="44" rx="8" fill="url(#paint0_linear_5145_24902)"/>
<path d="M19.5147 27.0002L20.364 27.8494C20.7545 28.24 21.3876 28.24 21.7782 27.8494L22.6274 27.0002M19.5147 27.0002L15.1174 22.6029C14.7269 22.2124 14.7269 21.5792 15.1174 21.1887L23.3691 12.9369C23.7596 12.5464 24.3928 12.5464 24.7833 12.9369L30.0299 18.1835C30.4204 18.574 30.4204 19.2072 30.0299 19.5977L22.6274 27.0002M19.5147 27.0002H16.4142C16.149 27.0002 15.8946 27.1056 15.7071 27.2931L12 31.0002H32L28.2929 27.2931C28.1054 27.1056 27.851 27.0002 27.5858 27.0002H22.6274M19.618 20.6227L21.618 22.6227L25.618 18.6227" stroke="#1B202C" stroke-opacity="0.3" stroke-width="1.5" stroke-linecap="round" stroke-linejoin="round"/>
<defs>
<linearGradient id="paint0_linear_5145_24902" x1="0" y1="0" x2="44" y2="44" gradientUnits="userSpaceOnUse">
<stop stop-color="#1B202C" stop-opacity="0.05"/>
<stop offset="1" stop-color="#1B202C" stop-opacity="0"/>
</linearGradient>
</defs>
</svg>

