<svg width="20" height="20" viewBox="0 0 20 20" fill="none" xmlns="http://www.w3.org/2000/svg">
<path d="M19.4079 7.02276C19.3893 6.95743 19.3753 6.89676 19.3566 6.8361C19.3006 6.64476 19.2446 6.4581 19.1746 6.27143C18.5213 4.4281 17.2893 2.85543 15.6979 1.77743C15.5206 1.6561 15.3386 1.5441 15.1519 1.43676C15.1333 1.42276 15.1099 1.41343 15.0913 1.39943C14.9933 1.3481 14.8813 1.31543 14.7599 1.31543C14.5033 1.31543 14.2746 1.45543 14.1579 1.66543C14.1533 1.67476 14.1486 1.67943 14.1439 1.68876C14.1439 1.68876 14.1439 1.68876 14.1439 1.69343L13.7053 2.44943L12.8186 3.98476L12.0206 5.37076L10.0979 8.70276L10.0373 8.8101L9.93927 8.9781C9.90194 9.0621 9.88794 9.15076 9.88794 9.24876C9.88794 9.64543 10.2099 9.96743 10.6066 9.96743C10.6579 9.96743 10.7139 9.96276 10.7606 9.95343L10.8166 9.93943H10.8213L10.8539 9.9301L11.0266 9.88343L14.7693 8.8801L16.3093 8.46943L18.0219 8.0121L18.7779 7.81143L19.0159 7.7461C19.2539 7.6341 19.4173 7.3961 19.4173 7.1161C19.4126 7.07876 19.4126 7.05076 19.4079 7.02276ZM15.9406 7.13943L14.3959 7.55476L11.9926 8.19876L13.2293 6.05676L14.0273 4.67543L14.9139 3.1401C16.1553 4.0081 17.1213 5.2401 17.6579 6.67743L15.9406 7.13943Z"
      fill="white" />
<path d="M15.2454 11.4748C15.2454 11.5401 15.2361 11.6054 15.2221 11.6708C15.2127 11.6988 15.2034 11.7268 15.1941 11.7548C14.4521 14.0834 12.2681 15.7728 9.69207 15.7728C8.87074 15.7728 8.09141 15.6001 7.38674 15.2968C6.95741 15.1101 6.55607 14.8721 6.19207 14.5921C5.81874 14.3074 5.48274 13.9761 5.18874 13.6121C5.08607 13.4861 4.98807 13.3554 4.89941 13.2154C4.67074 12.8748 4.47474 12.5061 4.32074 12.1188C4.15274 11.6988 4.03607 11.2508 3.97541 10.7888C3.93807 10.5321 3.92407 10.2708 3.92407 10.0001C3.92407 7.02276 6.17807 4.56809 9.07607 4.26009C9.13207 4.25543 9.18807 4.24609 9.24874 4.24609C9.68274 4.25076 10.0327 4.60543 10.0327 5.03943C10.0327 5.14209 10.0141 5.24009 9.97674 5.33343L9.86474 5.52476C9.74341 5.68809 9.55674 5.80009 9.34207 5.82809C9.32341 5.82809 9.30474 5.83276 9.28607 5.83276C7.16741 6.03809 5.50607 7.83009 5.50607 10.0048C5.50607 10.1308 5.51074 10.2568 5.52007 10.3781C5.56207 10.8494 5.67874 11.2974 5.86541 11.7081C5.92607 11.8434 5.99141 11.9741 6.06607 12.1001C6.20607 12.3428 6.36941 12.5668 6.55607 12.7768C6.69141 12.9308 6.84074 13.0754 6.99941 13.2061C7.35407 13.5048 7.7554 13.7474 8.19407 13.9154C8.66074 14.0974 9.16941 14.1954 9.70141 14.1954C11.5681 14.1954 13.1501 12.9728 13.6914 11.2881C13.7007 11.2601 13.7101 11.2321 13.7194 11.1994C13.8034 10.9754 13.9901 10.7981 14.2187 10.7234C14.2467 10.7141 14.2747 10.7094 14.3027 10.7001C14.3541 10.6908 14.4101 10.6861 14.4614 10.6861C14.8907 10.6861 15.2454 11.0408 15.2454 11.4748Z"
      fill="#FFA940" />
<path d="M18.7874 10.4344C18.7828 10.5277 18.7781 10.6164 18.7734 10.7051C18.4141 15.4044 14.4848 19.1097 9.6921 19.1097C8.2641 19.1097 6.91543 18.7831 5.71143 18.1951C5.29143 17.9944 4.89476 17.7564 4.5121 17.4951C4.1341 17.2337 3.77476 16.9444 3.44343 16.6271C2.6781 15.9084 2.03876 15.0591 1.5581 14.1117C1.3761 13.7477 1.21276 13.3744 1.0821 12.9871C0.932764 12.5577 0.816097 12.1144 0.732097 11.6571C0.634097 11.1204 0.582764 10.5697 0.582764 10.0051C0.582764 4.97439 4.66143 0.900391 9.68743 0.900391C10.1728 0.900391 10.6488 0.937724 11.1154 1.01239C11.1948 1.02639 11.2694 1.03572 11.3441 1.05439C11.6614 1.16172 11.8854 1.45572 11.8854 1.80572C11.8854 1.91772 11.8621 2.02039 11.8248 2.11372C11.8248 2.11839 11.8201 2.12306 11.8201 2.12306L11.7408 2.26306C11.7408 2.26306 11.7408 2.26306 11.7408 2.26772C11.5961 2.46839 11.3628 2.59906 11.0968 2.59906C11.0874 2.59906 11.0781 2.59906 11.0688 2.59906C11.0688 2.59906 11.0688 2.59906 11.0641 2.59906C10.9941 2.58506 10.9241 2.57106 10.8494 2.56172C10.4714 2.50106 10.0841 2.47306 9.68743 2.47306C5.52476 2.47306 2.15076 5.84706 2.15076 10.0097C2.15076 10.4344 2.1881 10.8497 2.25343 11.2557C2.3281 11.7131 2.44943 12.1611 2.60343 12.5857C2.74343 12.9731 2.9161 13.3464 3.11676 13.7011C3.42943 14.2564 3.8121 14.7744 4.25543 15.2317C4.57276 15.5631 4.92743 15.8664 5.30076 16.1371C5.6741 16.4077 6.07543 16.6411 6.5001 16.8371C7.47076 17.2897 8.54876 17.5464 9.6921 17.5464C13.6728 17.5464 16.9301 14.4617 17.2101 10.5557C17.2148 10.5044 17.2194 10.4531 17.2194 10.4017C17.2661 10.1311 17.4481 9.90706 17.6908 9.80439C17.6908 9.80439 17.6908 9.80439 17.6954 9.80439L17.8914 9.75306C17.9288 9.74839 17.9661 9.74372 18.0034 9.74372C18.4094 9.72506 18.7454 10.0377 18.7874 10.4344Z"
      fill="white" />
</svg>
