<svg width="20" height="20" viewBox="0 0 20 20" fill="none" xmlns="http://www.w3.org/2000/svg">
<path d="M18.9999 14.5485C19.0007 13.6346 18.5925 12.7578 17.8647 12.1105C17.137 11.4632 16.1493 11.0983 15.1184 11.096H10.8148C10.7877 10.7405 10.7706 10.3769 10.7706 10C10.7706 9.62309 10.7536 9.26131 10.7295 8.904H15.1184C16.1403 8.88949 17.1149 8.51937 17.8318 7.8736C18.5487 7.22779 18.9505 6.35805 18.9505 5.452C18.9505 4.54595 18.5487 3.67621 17.8318 3.03042C17.1149 2.38462 16.1403 2.01454 15.1184 2L4.83255 2C3.81061 2.01454 2.83607 2.38462 2.11917 3.03042C1.40227 3.67621 1.00049 4.54595 1.00049 5.452C1.00049 6.35805 1.40227 7.22779 2.11917 7.8736C2.83607 8.51937 3.81061 8.88949 4.83255 8.904L8.87507 9C9.15631 9 9.18033 9.62309 9.18033 10C9.18033 10.3769 9.19738 10.7387 9.22145 11.096H4.83255C3.81061 11.1105 2.83607 11.4806 2.11917 12.1264C1.40227 12.7722 1.00049 13.6419 1.00049 14.548C1.00049 15.4541 1.40227 16.3238 2.11917 16.9696C2.83607 17.6154 3.81061 17.9855 4.83255 18H15.1184C16.1491 17.9977 17.1367 17.6329 17.8644 16.9858C18.5921 16.3387 19.0004 15.4622 18.9999 14.5485ZM17.4096 5.45155C17.4099 5.99089 17.1688 6.50829 16.7393 6.89023C16.3097 7.27218 15.7268 7.48747 15.1184 7.48889L10.5611 7.48889C10.396 6.47892 10.0814 5.49265 9.62555 4.55555C9.42451 4.14954 9.16717 3.76733 8.85949 3.41778H15.1184C15.7261 3.41919 16.3084 3.634 16.7379 4.01518C17.1673 4.39635 17.4088 4.91284 17.4096 5.45155ZM4.83255 7.48889C4.22302 7.48889 3.63846 7.27424 3.20746 6.89217C2.77646 6.51009 2.53432 5.99189 2.53432 5.45155C2.53432 4.91122 2.77646 4.39302 3.20746 4.01094C3.63846 3.62887 4.22303 3.41422 4.83255 3.41422H5.86435C6.77579 3.41422 7.63916 4.05422 8.17662 5.12711C8.54455 5.88309 8.80622 6.6763 8.95573 7.48889H4.83255ZM2.54134 14.5485C2.54108 14.0091 2.78216 13.4917 3.2117 13.1098C3.64124 12.7278 4.22416 12.5125 4.83255 12.5111H9.38992C9.55501 13.5211 9.86956 14.5074 10.3255 15.4445C10.5264 15.8505 10.7838 16.2327 11.0915 16.5822H4.83255C4.22486 16.5808 3.64255 16.366 3.21312 15.9848C2.78369 15.6037 2.54214 15.0871 2.54134 14.5485ZM11.7804 14.8729C11.4125 14.1169 11.1508 13.3237 11.0013 12.5111H15.1184C15.728 12.5111 16.3125 12.7258 16.7435 13.1078C17.1745 13.4899 17.4166 14.0081 17.4166 14.5485C17.4166 15.0888 17.1745 15.607 16.7435 15.9891C16.3125 16.3711 15.728 16.5858 15.1184 16.5858H14.0866C13.1791 16.5858 12.3158 15.9458 11.7804 14.8729Z"
      fill="url(#paint0_linear_10168_22376)" />
<path opacity="0.8"
      d="M18.9998 5.45155C19.0006 6.36542 18.5923 7.24222 17.8645 7.88949C17.1368 8.5368 16.1491 8.90166 15.1182 8.904H10.8144C10.7874 9.25954 10.7703 9.62309 10.7703 10C10.7703 10.3769 10.7533 10.7387 10.7292 11.096H15.1182C16.1402 11.1105 17.1147 11.4806 17.8316 12.1264C18.5485 12.7722 18.9503 13.6419 18.9503 14.548C18.9503 15.4541 18.5485 16.3238 17.8316 16.9696C17.1147 17.6154 16.1402 17.9855 15.1182 18H4.83213C3.81017 17.9855 2.83561 17.6154 2.1187 16.9696C1.40179 16.3238 1 15.4541 1 14.548C1 13.6419 1.40179 12.7722 2.1187 12.1264C2.83561 11.4806 3.81017 11.1105 4.83213 11.096L8.87473 11C9.15598 11 9.18 10.3769 9.18 10C9.18 9.62309 9.19704 9.26131 9.22111 8.904H4.83213C3.81017 8.88949 2.83561 8.51937 2.1187 7.8736C1.40179 7.22779 1 6.35805 1 5.452C1 4.54595 1.40179 3.67621 2.1187 3.03042C2.83561 2.38462 3.81017 2.01454 4.83213 2L15.1182 2C16.1489 2.00235 17.1365 2.3671 17.8642 3.01418C18.5919 3.66127 19.0003 4.53785 18.9998 5.45155ZM17.4094 14.5485C17.4097 14.0091 17.1686 13.4917 16.7391 13.1098C16.3095 12.7278 15.7266 12.5125 15.1182 12.5111H10.5607C10.3957 13.5211 10.0811 14.5074 9.62521 15.4445C9.42417 15.8505 9.16683 16.2327 8.85909 16.5822H15.1182C15.7259 16.5808 16.3082 16.366 16.7376 15.9848C17.1671 15.6037 17.4086 15.0871 17.4094 14.5485ZM4.83213 12.5111C4.22259 12.5111 3.63802 12.7258 3.20701 13.1078C2.776 13.4899 2.53386 14.0081 2.53386 14.5485C2.53386 15.0888 2.776 15.607 3.20701 15.989C3.63802 16.3711 4.22259 16.5858 4.83213 16.5858H5.86395C6.77545 16.5858 7.63877 15.9458 8.17623 14.8729C8.54415 14.1169 8.80582 13.3237 8.95539 12.5111H4.83213ZM2.54089 5.45155C2.54062 5.99089 2.7817 6.50829 3.21125 6.89023C3.6408 7.27218 4.22373 7.48747 4.83213 7.48889H9.38958C9.55467 6.47891 9.86922 5.49265 10.3251 4.55555C10.5262 4.14954 10.7835 3.76733 11.0912 3.41778H4.83213C4.22442 3.41919 3.6421 3.634 3.21267 4.01518C2.78323 4.39635 2.54168 4.91284 2.54089 5.45155ZM11.7801 5.12711C11.4121 5.88309 11.1505 6.6763 11.001 7.48889H15.1182C15.7277 7.48889 16.3123 7.27424 16.7433 6.89217C17.1743 6.51009 17.4165 5.99189 17.4165 5.45155C17.4165 4.91122 17.1743 4.39302 16.7433 4.01094C16.3123 3.62887 15.7277 3.41422 15.1182 3.41422H14.0864C13.1789 3.41422 12.3156 4.05422 11.7801 5.12711Z"
      fill="url(#paint1_linear_10168_22376)" />
<defs>
<linearGradient id="paint0_linear_10168_22376" x1="2.3415" y1="3.01333" x2="16.1655" y2="18.5652"
                gradientUnits="userSpaceOnUse">
<stop stop-color="#8E59FF" />
<stop offset="1" stop-color="#6888F9" />
</linearGradient>
<linearGradient id="paint1_linear_10168_22376" x1="2.34104" y1="16.9867" x2="16.165" y2="1.4346"
                gradientUnits="userSpaceOnUse">
<stop stop-color="#8E59FF" />
<stop offset="1" stop-color="#6888F9" />
</linearGradient>
</defs>
</svg>
