<svg width="20" height="20" viewBox="0 0 20 20" fill="none" xmlns="http://www.w3.org/2000/svg">
<path d="M17.5 6.25V7C17.8033 7 18.0768 6.81727 18.1929 6.53701C18.309 6.25676 18.2448 5.93417 18.0303 5.71967L17.5 6.25ZM15.5303 3.21967C15.2374 2.92678 14.7626 2.92678 14.4697 3.21967C14.1768 3.51256 14.1768 3.98744 14.4697 4.28033L15.5303 3.21967ZM6.75 6.25C6.75 7.2165 5.9665 8 5 8V9.5C6.79493 9.5 8.25 8.04493 8.25 6.25H6.75ZM5 8C4.0335 8 3.25 7.2165 3.25 6.25H1.75C1.75 8.04493 3.20507 9.5 5 9.5V8ZM3.25 6.25C3.25 5.2835 4.0335 4.5 5 4.5V3C3.20507 3 1.75 4.45507 1.75 6.25H3.25ZM5 4.5C5.9665 4.5 6.75 5.2835 6.75 6.25H8.25C8.25 4.45507 6.79493 3 5 3V4.5ZM7.5 7L17.5 7V5.5L7.5 5.5L7.5 7ZM18.0303 5.71967L15.5303 3.21967L14.4697 4.28033L16.9697 6.78033L18.0303 5.71967Z" fill="#E6007A"/>
<path d="M17.5 13.75V14.5C17.8033 14.5 18.0768 14.3173 18.1929 14.037C18.309 13.7568 18.2448 13.4342 18.0303 13.2197L17.5 13.75ZM15.5303 10.7197C15.2374 10.4268 14.7626 10.4268 14.4697 10.7197C14.1768 11.0126 14.1768 11.4874 14.4697 11.7803L15.5303 10.7197ZM6.75 13.75C6.75 14.7165 5.9665 15.5 5 15.5V17C6.79493 17 8.25 15.5449 8.25 13.75H6.75ZM5 15.5C4.0335 15.5 3.25 14.7165 3.25 13.75H1.75C1.75 15.5449 3.20507 17 5 17V15.5ZM3.25 13.75C3.25 12.7835 4.0335 12 5 12V10.5C3.20507 10.5 1.75 11.9551 1.75 13.75H3.25ZM5 12C5.9665 12 6.75 12.7835 6.75 13.75H8.25C8.25 11.9551 6.79493 10.5 5 10.5V12ZM18.0303 13.2197L15.5303 10.7197L14.4697 11.7803L16.9697 14.2803L18.0303 13.2197ZM7.5 14.5L17.5 14.5V13L7.5 13L7.5 14.5Z" fill="#E6007A"/>
</svg>
