<svg width="20" height="20" viewBox="0 0 20 20" fill="none" xmlns="http://www.w3.org/2000/svg">
<g clip-path="url(#clip0_8606_49969)">
<path d="M9.99996 19.165C15.0617 19.165 19.165 15.0617 19.165 9.99996C19.165 4.93827 15.0617 0.834961 9.99996 0.834961C4.93827 0.834961 0.834961 4.93827 0.834961 9.99996C0.834961 15.0617 4.93827 19.165 9.99996 19.165Z"
      fill="black" />
<path fill-rule="evenodd" clip-rule="evenodd"
      d="M14.6075 5.90309L15.8881 5.73964L16.614 7.04068L15.8015 7.95941C15.9002 8.24215 15.978 8.53183 16.0343 8.82599L17.2147 9.25253L17.1924 10.7426L16.0282 11.1324C15.9716 11.4259 15.8938 11.7149 15.7954 11.9971L16.6056 12.9582L15.8415 14.2378L14.6401 13.9933C14.4439 14.2196 14.2313 14.4311 14.004 14.6262L14.2248 15.862L12.9233 16.588L12.3091 16.0445V13.6907C12.8426 13.359 13.2985 12.9166 13.6461 12.3933C13.9936 11.87 14.2246 11.2781 14.3234 10.6577C14.4222 10.0374 14.3864 9.40302 14.2186 8.79768C14.0508 8.19233 13.7548 7.63014 13.3507 7.14918L14.608 5.90356L14.6075 5.90309ZM6.59829 7.19807C6.20468 7.68071 5.91845 8.24169 5.75868 8.84364C5.5989 9.44554 5.56924 10.0746 5.67168 10.6889C5.77413 11.3032 6.00631 11.8886 6.35277 12.4062C6.69923 12.9237 7.15201 13.3614 7.68095 13.6902V16.0064L7.00433 16.5763L5.72472 15.8122L5.96872 14.6113C5.74243 14.4152 5.53093 14.2028 5.3359 13.9756L4.09959 14.1964L3.37364 12.8949L4.1862 11.9761C4.08738 11.6932 4.00956 11.4034 3.95337 11.1091L2.77295 10.6825L2.79483 9.19246L3.95897 8.8027C4.01551 8.5092 4.09332 8.22022 4.19179 7.93799L3.38202 6.97688L4.14569 5.69727L5.33869 5.93987L6.59829 7.19807Z"
      fill="url(#paint0_linear_8606_49969)" />
<path fill-rule="evenodd" clip-rule="evenodd"
      d="M5.78864 4.10203L7.09014 3.37607L8.00842 4.18865C8.29131 4.0898 8.58108 4.01198 8.87547 3.95582L9.30201 2.77539L10.7921 2.79727L11.1814 3.96141C11.4748 4.01805 11.7638 4.09586 12.0461 4.19423L13.0067 3.38446L14.2859 4.1486L14.0419 5.34951C14.13 5.42557 14.216 5.50458 14.2999 5.58653L13.0528 6.83355C12.8425 6.63154 12.6125 6.45091 12.3665 6.29433L11.6396 5.83146V10.2044L10.8284 10.6729L10.0172 11.1413L9.20608 10.6729L8.39491 10.2044V5.83146L7.66803 6.29433C7.40381 6.46346 7.15842 6.66029 6.93601 6.88151L5.68945 5.63496C5.7919 5.53345 5.89854 5.43504 6.00936 5.33974L5.78864 4.10203Z"
      fill="white" />
</g>
<defs>
<linearGradient id="paint0_linear_8606_49969" x1="13.5465" y1="12.798" x2="7.0526" y2="6.88253"
                gradientUnits="userSpaceOnUse">
<stop stop-color="#30BCD0" />
<stop offset="1" stop-color="#CA28CC" />
</linearGradient>
<clipPath id="clip0_8606_49969">
<rect width="20" height="20" fill="white" />
</clipPath>
</defs>
</svg>
