<svg width="18" height="18" viewBox="0 0 18 18" fill="none" xmlns="http://www.w3.org/2000/svg">
<path fill-rule="evenodd" clip-rule="evenodd" d="M2.25 3.16667C2.25 2.56908 2.65776 2.25 2.97059 2.25H15.0294C15.3422 2.25 15.75 2.56908 15.75 3.16667V14.8333C15.75 15.4309 15.3422 15.75 15.0294 15.75H2.97059C2.65776 15.75 2.25 15.4309 2.25 14.8333V3.16667ZM2.97059 0.75C1.65841 0.75 0.75 1.92259 0.75 3.16667V14.8333C0.75 16.0774 1.65841 17.25 2.97059 17.25H15.0294C16.3416 17.25 17.25 16.0774 17.25 14.8333V3.16667C17.25 1.92259 16.3416 0.75 15.0294 0.75H2.97059ZM6.22222 4.91667C5.80801 4.91667 5.47222 5.25245 5.47222 5.66667C5.47222 6.08088 5.80801 6.41667 6.22222 6.41667H11.7778C12.192 6.41667 12.5278 6.08088 12.5278 5.66667C12.5278 5.25245 12.192 4.91667 11.7778 4.91667H6.22222ZM4.83333 8.25C4.41912 8.25 4.08333 8.58579 4.08333 9C4.08333 9.41421 4.41912 9.75 4.83333 9.75H13.1667C13.5809 9.75 13.9167 9.41421 13.9167 9C13.9167 8.58579 13.5809 8.25 13.1667 8.25H4.83333ZM6.22222 11.5833C5.80801 11.5833 5.47222 11.9191 5.47222 12.3333C5.47222 12.7475 5.80801 13.0833 6.22222 13.0833H11.7778C12.192 13.0833 12.5278 12.7475 12.5278 12.3333C12.5278 11.9191 12.192 11.5833 11.7778 11.5833H6.22222Z" fill="#1B202C" fill-opacity="0.6"/>
</svg>
