<svg width="24" height="24" viewBox="0 0 24 24" fill="none" xmlns="http://www.w3.org/2000/svg">
<path d="M12 23C18.0751 23 23 18.0751 23 12C23 5.92487 18.0751 1 12 1C5.92487 1 1 5.92487 1 12C1 18.0751 5.92487 23 12 23Z" fill="#E6007A"/>
<path d="M12 23C18.0751 23 23 18.0751 23 12C23 5.92487 18.0751 1 12 1C5.92487 1 1 5.92487 1 12C1 18.0751 5.92487 23 12 23Z" fill="url(#paint0_linear_4726_22964)"/>
<path fill-rule="evenodd" clip-rule="evenodd" d="M1.02692 12.774C1.03393 12.8748 1.04229 12.9752 1.052 13.0753C1.06299 13.1886 1.07571 13.3015 1.09012 13.4138C1.22925 14.4982 1.52628 15.5332 1.95742 16.495C1.93643 16.3803 1.91304 16.2674 1.88917 16.1576C1.8401 15.9247 1.76661 15.6499 1.68656 15.3505C1.52421 14.7434 1.33488 14.0353 1.26752 13.3716C1.37951 13.346 1.4919 13.3221 1.60463 13.2999C3.78453 15.2895 5.93641 17.3096 8.06014 19.36C7.78539 20.2101 7.49496 21.0552 7.18895 21.8949C7.29318 21.9456 7.39833 21.9948 7.50437 22.0424C7.79688 21.2434 8.0755 20.4393 8.34008 19.6306C8.75207 20.0293 9.16299 20.4292 9.57284 20.8302C10.3072 21.5492 11.0383 22.2717 11.7659 22.9976C11.8438 22.9992 11.9219 23 12.0001 23C12.0911 23 12.1817 22.9989 12.2721 22.9967C11.0126 21.7388 9.74253 20.491 8.46226 19.2537C8.88555 17.9359 9.2716 16.6062 9.61971 15.2673C10.3846 17.3988 11.7717 19.2212 14.0868 19.9818C15.7555 20.5308 17.5699 20.4952 19.2948 20.2335C19.4345 20.1097 19.571 19.9823 19.7041 19.8517C18.9164 19.9778 18.1266 20.0522 17.3446 20.0701C15.5132 20.1113 13.5937 19.752 12.1497 18.5499C11.0211 17.6131 10.2951 16.3048 9.84306 14.9173C9.87422 14.9302 9.90545 14.9429 9.93677 14.9555C11.4571 15.5624 13.0009 15.3797 14.3099 14.3839C15.1336 13.7568 15.733 12.9913 16.2178 12.1535C17.2864 12.1607 18.355 12.1471 19.4229 12.1127C19.0472 13.0271 18.7024 14.023 19.1936 14.8848C19.4105 15.261 19.7228 15.5791 20.026 15.8879C20.0837 15.9466 20.141 16.0049 20.1973 16.0633C20.6375 16.521 21.0778 16.974 21.5347 17.4139C21.4536 17.575 21.3714 17.7357 21.2883 17.8958C21.3833 17.7465 21.4747 17.5948 21.5626 17.4407C21.6237 17.3335 21.6831 17.2251 21.7407 17.1157C21.7741 17.0523 21.8069 16.9885 21.839 16.9243C21.9727 16.6577 22.0959 16.3849 22.208 16.1065C22.278 15.9327 22.3436 15.7568 22.4049 15.5788C22.3401 15.7242 22.2745 15.8692 22.2081 16.0139C22.211 14.6511 22.3151 13.292 22.5506 11.9519C22.7004 11.9413 22.8501 11.9304 22.9998 11.919C22.999 11.8031 22.9964 11.6878 22.992 11.5728C22.8665 11.5823 22.741 11.5915 22.6155 11.6004C22.6931 11.1996 22.7827 10.8007 22.8852 10.4041C22.8447 10.1258 22.7939 9.85095 22.733 9.57985C22.531 10.2526 22.3662 10.9356 22.2354 11.6264C21.4753 11.6766 20.7144 11.7162 19.9531 11.7452C20.6163 9.88639 21.2112 7.98094 21.2294 6.01265C21.1137 5.83464 20.9929 5.66019 20.8674 5.48949C20.8854 5.84946 20.8828 6.2093 20.8606 6.56463C20.7608 8.13203 20.3324 9.65816 19.8157 11.1313C19.746 11.3319 19.6602 11.5421 19.57 11.7589C18.5176 11.794 17.4646 11.8089 16.4118 11.8035C16.8295 11.0177 17.1634 10.1787 17.498 9.33774C17.9959 8.08652 18.4956 6.83097 19.2757 5.73969C19.3547 5.62926 19.4365 5.52289 19.5209 5.42027C19.9296 5.39084 20.3383 5.36034 20.747 5.32886C20.6611 5.21635 20.573 5.10554 20.4829 4.99651C20.2746 5.01237 20.0663 5.02797 19.858 5.04329C19.9762 4.92153 20.0983 4.80548 20.2239 4.69449C20.1516 4.61306 20.078 4.53271 20.0032 4.45347C19.9857 4.46963 19.9682 4.4859 19.9508 4.50228C19.7586 4.68297 19.5795 4.87481 19.4119 5.07567C17.0698 5.24341 14.7238 5.37566 12.3763 5.4615C12.3664 5.09582 12.3196 4.73924 12.226 4.40211C12.1141 4.00333 11.9193 3.68426 11.6668 3.43809C11.7396 2.62697 11.7991 1.81451 11.845 1.00111C11.7252 1.00277 11.6058 1.00634 11.4869 1.0118C11.446 1.73315 11.3943 2.4538 11.332 3.17346C11.0861 3.01679 10.8075 2.90884 10.5108 2.84567C10.5229 2.81448 10.535 2.78333 10.5472 2.75223C10.7805 2.1612 11.0442 1.58426 11.3338 1.0199C11.1967 1.02808 11.0604 1.03878 10.9247 1.05194C10.6436 1.6203 10.3894 2.20132 10.1626 2.79256C9.94507 2.77179 9.72131 2.77255 9.49653 2.79347C8.23308 2.91238 7.02771 3.45618 5.8665 3.98006C5.75367 4.03096 5.64127 4.08167 5.52926 4.13179C5.44258 3.85301 5.3588 3.57323 5.27762 3.29259C5.17449 3.37232 5.07282 3.45385 4.97266 3.53712C5.0456 3.78485 5.1207 4.03194 5.19813 4.27833C4.62093 4.53018 4.04576 4.78812 3.47261 5.051C3.34408 5.20853 3.21983 5.36969 3.10004 5.5343C3.06529 5.58204 3.03092 5.63008 2.99693 5.67841C2.95053 5.74437 2.90483 5.81087 2.85985 5.87788C3.82465 5.90255 4.78981 5.91688 5.75508 5.92165C6.02132 6.6506 6.31206 7.37216 6.63203 8.08488C6.97835 8.86269 7.3599 9.62281 7.78253 10.3594C8.00377 10.7492 8.26319 11.1633 8.65432 11.3794C7.23615 11.2252 5.82261 11.0368 4.4048 10.8478C4.22963 10.8244 4.05439 10.801 3.87907 10.7777C3.0162 10.6658 2.06527 10.6717 1.42546 11.3611C1.21287 11.5877 1.07891 11.8555 1.00101 12.1419C1.00154 12.1839 1.00231 12.226 1.00331 12.268C1.00737 12.4376 1.01526 12.6063 1.02692 12.774ZM1.24276 12.9702C1.2431 12.9899 1.24359 13.0097 1.24422 13.0296C1.26125 13.0257 1.27828 13.0218 1.29532 13.018C1.2778 13.0021 1.26028 12.9861 1.24276 12.9702ZM1.72992 12.9293C1.57524 12.7881 1.42042 12.647 1.26547 12.5061C1.36213 11.7378 1.77719 11.1547 2.83423 11.0724C3.31429 11.0326 3.8027 11.1143 4.27835 11.1939C4.36684 11.2087 4.45489 11.2235 4.54236 11.2373C5.18804 11.3375 5.83373 11.4259 6.47941 11.5084C7.2797 11.611 8.08211 11.7009 8.88663 11.778C8.95924 12.6038 9.09418 13.4408 9.30656 14.252C9.17135 14.1884 9.03691 14.1243 8.9028 14.0604C8.02504 13.642 7.16165 13.2304 6.1918 13.0051C4.74368 12.672 3.212 12.6562 1.72992 12.9293ZM2.04999 13.2219C4.11849 15.1155 6.16246 17.036 8.18109 18.9823C8.62795 17.5735 9.03188 16.1513 9.39237 14.7184C9.15517 14.6079 8.9209 14.4911 8.68671 14.3744C8.26156 14.1625 7.83668 13.9507 7.39511 13.777C6.6203 13.4706 5.80438 13.2702 4.9826 13.1701C4.01009 13.0526 3.02041 13.0724 2.04999 13.2219ZM9.57704 13.9676C9.74371 13.2741 9.90026 12.5783 10.0466 11.8803C9.77018 11.858 9.49401 11.8343 9.21808 11.8091C9.28988 12.5378 9.40846 13.2595 9.57704 13.9676ZM9.63943 11.4804C9.7996 11.4958 9.95984 11.5107 10.1202 11.525C10.1417 11.4198 10.163 11.3146 10.184 11.2093C10.0159 11.3324 9.83448 11.4266 9.63943 11.4804ZM10.6327 10.7841C10.5831 11.0416 10.5321 11.2989 10.4797 11.5559C10.8499 11.5868 11.2206 11.6144 11.5921 11.638C13.0924 11.7334 14.5958 11.788 16.0996 11.8013C16.5844 10.9334 16.9593 9.98502 17.3289 9.05012C17.5149 8.57954 17.6996 8.11238 17.8962 7.66063C18.2333 6.88944 18.6228 6.12875 19.1205 5.44875C17.9791 5.52899 16.8373 5.60084 15.6952 5.66309C14.5893 5.72275 13.4824 5.77325 12.3749 5.81344C12.3378 6.90476 12.008 8.04655 11.639 8.97465C11.426 9.50781 11.096 10.2399 10.6327 10.7841ZM11.9923 5.82691C11.9763 6.24984 11.9175 6.67273 11.8445 7.05371C11.7036 7.79026 11.4805 8.51504 11.1753 9.19856C11.0645 9.4488 10.9357 9.7258 10.7808 9.9919C11.0302 8.61653 11.2403 7.23376 11.4109 5.84577C11.6047 5.83981 11.7985 5.83352 11.9923 5.82691ZM11.995 5.47504C11.9816 4.91723 11.8784 4.37991 11.618 3.96136C11.5685 4.47246 11.5136 4.98298 11.4534 5.49283C11.634 5.48718 11.8145 5.48125 11.995 5.47504ZM11.0925 5.50375C11.1687 4.86343 11.2364 4.22206 11.2957 3.57986C11.0657 3.37957 10.768 3.23651 10.387 3.17336C10.1048 3.94068 9.86577 4.73243 9.67459 5.53918C10.1473 5.52939 10.6199 5.51755 11.0925 5.50375ZM9.32354 5.54608C9.51059 4.73029 9.7478 3.92594 10.0335 3.13865C8.80341 3.08671 7.57302 3.63317 6.44238 4.13531C6.25015 4.22069 6.06079 4.30478 5.87482 4.38444C5.79681 4.418 5.71887 4.45167 5.64098 4.48544C5.75788 4.84966 5.88 5.2121 6.00804 5.57248C7.11311 5.57576 8.21836 5.56659 9.32354 5.54608ZM6.13472 5.92304C7.17183 5.92548 8.20903 5.91699 9.246 5.89853C8.88826 7.5961 8.74713 9.33933 8.83765 11.0781C8.40976 10.8485 8.12397 10.2884 7.89361 9.83693C7.85307 9.75747 7.81424 9.68137 7.77666 9.61103C7.39511 8.89215 7.04292 8.14971 6.72008 7.40136C6.51193 6.91315 6.31743 6.42014 6.13472 5.92304ZM9.16772 11.1798C9.05887 9.41632 9.21602 7.6231 9.59426 5.89195C10.0795 5.88227 10.5646 5.87043 11.0496 5.85652C10.8503 7.46487 10.5976 9.06638 10.2921 10.6577C10.07 10.8875 9.81003 11.0665 9.5024 11.149C9.38326 11.1808 9.27196 11.1897 9.16772 11.1798ZM5.62903 5.57087C5.51857 5.25839 5.41244 4.94461 5.31029 4.62963C4.63545 4.92546 3.96484 5.22903 3.2969 5.5388C4.07411 5.55599 4.85151 5.56654 5.62903 5.57087ZM15.8954 12.1507C14.0935 12.1314 12.2919 12.0528 10.4944 11.915C10.4653 11.9128 10.4361 11.9106 10.407 11.9084C10.29 12.4679 10.1666 13.026 10.0366 13.5825C9.96564 13.8844 9.89281 14.1858 9.81807 14.4868C11.1708 15.0778 12.5273 15.1596 13.8168 14.3427C14.7127 13.7755 15.3686 13.0116 15.8954 12.1507ZM19.8261 12.0987C19.7574 12.2887 19.6884 12.4782 19.6195 12.6672C19.5949 12.7347 19.5703 12.8022 19.5458 12.8696C19.3638 13.3704 19.1936 13.9007 19.3755 14.431C19.493 14.7788 19.7335 15.0497 19.9742 15.3149C20.3675 15.7451 20.7785 16.1634 21.1893 16.5759C21.3584 16.7446 21.5291 16.9124 21.7017 17.0784C21.7469 16.9867 21.7917 16.8949 21.8362 16.8029C21.8011 15.1747 21.8999 13.557 22.1719 11.9778C21.3907 12.0293 20.6086 12.0696 19.8261 12.0987Z" fill="#E6007A"/>
<path d="M8.08889 16.1748H10.7419L11.5877 13.1077C11.7043 12.6848 12.299 12.6851 12.4153 13.1081L13.2581 16.1748H15.906L17.9363 8.33206H15.4503L14.8155 11.4445C14.7233 11.8965 14.0875 11.909 13.9779 11.461L13.2126 8.33206H10.7874L10.0419 11.4804C9.93543 11.9299 9.2983 11.9212 9.20395 11.4689L8.98006 10.3956C8.72921 9.19301 7.67724 8.33206 6.45865 8.33206H6.06372L8.08889 16.1748Z" fill="white"/>
<defs>
<linearGradient id="paint0_linear_4726_22964" x1="1.52272" y1="11.3714" x2="37.2083" y2="11.3982" gradientUnits="userSpaceOnUse">
<stop stop-color="#F79420" stop-opacity="0.92"/>
<stop offset="1" stop-color="#C4C4C4" stop-opacity="0"/>
</linearGradient>
</defs>
</svg>
