<svg width="16" height="16" viewBox="0 0 16 16" fill="none" xmlns="http://www.w3.org/2000/svg">
    <path
            d="M8 0C3.58172 0 0 3.58172 0 8C0 12.4182 3.58172 16 8 16C12.4182 16 16 12.4182 16 8C16 3.58172 12.4182 0 8 0Z"
            fill="#52CC8A"/>
    <path fill-rule="evenodd" clip-rule="evenodd"
          d="M11.6816 5.29255C11.9219 5.53287 11.9219 5.92251 11.6816 6.16283L6.98311 10.8613C6.8677 10.9767 6.71117 11.0416 6.54796 11.0416C6.38475 11.0416 6.22823 10.9767 6.11282 10.8613L4.09919 8.84768C3.85886 8.60735 3.85886 8.21771 4.09919 7.97739C4.33951 7.73707 4.72915 7.73707 4.96947 7.97739L6.54796 9.55588L10.8113 5.29255C11.0516 5.05222 11.4413 5.05222 11.6816 5.29255Z"
          fill="white"/>
</svg>
