<svg width="20" height="20" viewBox="0 0 20 20" fill="none" xmlns="http://www.w3.org/2000/svg">
    <path d="M13.8947 10.9379L14.8714 11.4264L17.4631 9.74225L15.2551 7.60039C14.7806 7.93666 14.0886 7.74874 13.8518 7.21191L12.6748 7.48228L13.0531 9.64662C13.6976 9.66706 14.132 10.3501 13.8947 10.9379Z" fill="#BBBBBB"/>
    <path d="M17.688 6.06111L14.3263 4.35645H12.3516L14.1379 6.08934C14.2967 5.96667 14.4958 5.89369 14.712 5.89369C15.1285 5.89369 15.4816 6.16448 15.6051 6.53957L17.688 6.06111Z" fill="#DEDEDE"/>
    <path d="M15.3057 11.4585L17.3104 11.6409L18.5319 10.7797L17.6567 9.93069L15.3057 11.4585Z" fill="#D0D0D0"/>
    <path d="M19.3043 8.54579L17.917 6.27832L15.6513 6.79875C15.6591 7.01431 15.592 7.22091 15.4734 7.38444L17.7271 9.57071L19.3043 8.54579Z" fill="#D0D0D0"/>
    <path d="M13.5784 12.6533L14.6893 11.6309L13.7623 11.1673C13.6605 11.2969 13.5255 11.399 13.37 11.4609L13.5784 12.6533Z" fill="#D7D7D7"/>
    <path d="M18.7235 10.5377L19.2479 8.89763L17.9214 9.75961L18.7235 10.5377Z" fill="#D7D7D7"/>
    <path d="M13.9286 6.31456L12.1729 4.61133L12.6294 7.22335L13.7805 6.95893C13.7504 6.73276 13.808 6.49621 13.9286 6.31456Z" fill="#D7D7D7"/>
    <path d="M9.43154 8.22782L12.3747 7.55176L12.748 9.68746C12.5248 9.75555 12.3368 9.90446 12.2183 10.1001L9.36133 8.6713C9.41225 8.53383 9.43748 8.38154 9.43154 8.22782Z" fill="#D0D0D0"/>
    <path d="M11.7985 4.25332L10.1471 3.66406L8.81543 7.25481C9.0943 7.40031 9.3059 7.65709 9.3913 7.96625L12.3295 7.29134L11.7985 4.25332Z" fill="#DEDEDE"/>
    <path d="M5.38965 16.4702L6.30838 16.7115L7.72118 15.0802L7.08766 12.9151C6.967 12.9312 6.83899 12.9267 6.72103 12.9026L5.38965 16.4702Z" fill="#BBBBBB"/>
    <path d="M7.47335 10.874L8.02384 9.38965C8.17047 9.42388 8.33244 9.42873 8.48211 9.4029L9.73953 12.3507L8.02963 11.9446C8.07428 11.5138 7.85252 11.0855 7.47335 10.874Z" fill="#BBBBBB"/>
    <path d="M5.15156 14.7732L5.50746 15.1491L6.39238 12.7779C6.0173 12.5603 5.80292 12.1286 5.85442 11.6992L4.77539 11.4429L5.15156 14.7732Z" fill="#D0D0D0"/>
    <path d="M7.99447 14.7646L9.83124 12.6438L7.9707 12.2018C7.87424 12.4695 7.67639 12.6888 7.42349 12.8132L7.99447 14.7646Z" fill="#D0D0D0"/>
    <path d="M13.2818 12.7425L13.0692 11.5256C12.4448 11.5561 11.9551 10.9382 12.1145 10.3429L9.24182 8.90625C9.13481 9.06756 8.98808 9.20024 8.81558 9.29033L10.1642 12.452L10.4413 12.5179L13.2818 12.7425Z" fill="#D0D0D0"/>
    <path d="M5.04394 7.51953L7.1452 8.15225C7.09918 8.59206 7.31787 9.03089 7.6983 9.25827L7.1432 10.7551C6.63115 10.6597 6.1034 10.9533 5.91781 11.4433L4.74458 11.1646L4.38965 8.02232C4.6752 7.9605 4.91374 7.77246 5.04394 7.51953Z" fill="#D0D0D0"/>
    <path d="M3.84281 7.98242C3.90481 8.00583 3.96985 8.02305 4.03718 8.03331L4.38114 11.0785L2.42871 10.6147L3.84281 7.98242Z" fill="#D0D0D0"/>
    <path d="M2.29785 12.2237L3.23702 13.9403L4.76775 14.5007L4.41259 11.3564L2.2997 10.8545L2.29785 12.2237Z" fill="#D0D0D0"/>
    <path d="M1.83182 6.5526L0.634766 8.31338L1.13503 10.5612H2.05823L3.54151 7.80012C3.30922 7.59339 3.18933 7.28012 3.22314 6.97156L1.83182 6.5526Z" fill="#DEDEDE"/>
    <path d="M6.06413 3.84668L7.57358 7.37367C7.40493 7.50731 7.27474 7.68739 7.20233 7.89458L5.13079 7.2708C5.20514 6.90358 5.05391 6.51461 4.74923 6.29435L6.06413 3.84668Z" fill="#DEDEDE"/>
    <path d="M5.62917 3.91417L2.01074 6.33103L3.28775 6.71555C3.46818 6.26961 3.96974 6.02138 4.43157 6.14348L5.62917 3.91417Z" fill="#D7D7D7"/>
    <path d="M9.79542 3.60256L8.48252 7.14275C8.28296 7.10822 8.06641 7.12948 7.88136 7.19918L6.3421 3.60254L9.79542 3.60256Z" fill="#D7D7D7"/>
</svg>
