<svg width="20" height="20" viewBox="0 0 20 20" fill="none" xmlns="http://www.w3.org/2000/svg">
    <path fill-rule="evenodd" clip-rule="evenodd" d="M9.99967 19.1663C15.0623 19.1663 19.1663 15.0623 19.1663 9.99967C19.1663 4.93707 15.0623 0.833008 9.99967 0.833008C4.93707 0.833008 0.833008 4.93707 0.833008 9.99967C0.833008 15.0623 4.93707 19.1663 9.99967 19.1663ZM4.699 14.1552H6.78776V5.46599H4.699V14.1552ZM8.85506 5.46599V14.1552H11.7137C12.4656 14.1513 13.1459 13.9722 13.7546 13.6181C14.3673 13.2601 14.8408 12.7667 15.1751 12.1381C15.5132 11.5055 15.6823 10.7913 15.6823 9.99564V9.59579C15.6783 8.80801 15.5033 8.09784 15.1571 7.46521C14.815 6.82866 14.3375 6.3373 13.7248 5.99116C13.1121 5.64105 12.4218 5.46599 11.654 5.46599H8.85506ZM10.9498 12.5439V7.08327H11.654C12.2706 7.08327 12.7401 7.29612 13.0624 7.72188C13.3847 8.14758 13.5458 8.78014 13.5458 9.61962V9.99564C13.5458 10.8391 13.3847 11.4756 13.0624 11.9054C12.7401 12.3311 12.2786 12.5439 11.6778 12.5439H10.9498Z" fill="#E2E2E2"/>
</svg>
