<svg width="16" height="16" viewBox="0 0 16 16" fill="none" xmlns="http://www.w3.org/2000/svg">
    <path d="M8 0C3.58172 0 0 3.58172 0 8C0 12.4182 3.58172 16 8 16C12.4182 16 16 12.4182 16 8C16 3.58172 12.4182 0 8 0Z" fill="var(--fillSub, #EEEEEE)"/>
    <path fill-rule="evenodd" clip-rule="evenodd" d="M10.707 4.45121C10.5185 4.37313 10.3164 4.33296 10.1123 4.33301C9.90817 4.33306 9.70608 4.37331 9.51755 4.45148C9.32902 4.52966 9.15773 4.64421 9.01348 4.78859L8.08919 5.71288C7.89393 5.90814 7.57735 5.90814 7.38209 5.71288C7.18682 5.51762 7.18682 5.20103 7.38209 5.00577L8.30604 4.08181C8.5431 3.84458 8.82474 3.65619 9.13454 3.52774C9.44442 3.39926 9.77658 3.33309 10.112 3.33301C10.4475 3.33293 10.7797 3.39895 11.0896 3.52728C11.3996 3.65562 11.6812 3.84377 11.9184 4.08097C12.1556 4.31818 12.3437 4.59979 12.4721 4.90973C12.6004 5.21967 12.6664 5.55186 12.6663 5.88731C12.6663 6.22277 12.6001 6.55493 12.4716 6.8648C12.3432 7.17461 12.1549 7.45608 11.9177 7.69314L10.5975 9.01332C10.3604 9.25045 10.0789 9.43855 9.76904 9.56689C9.45921 9.69523 9.12714 9.76128 8.79178 9.76128C8.45642 9.76128 8.12435 9.69523 7.81452 9.56689C7.50469 9.43855 7.22317 9.25045 6.98603 9.01332C6.79077 8.81805 6.79077 8.50147 6.98603 8.30621C7.1813 8.11095 7.49788 8.11095 7.69314 8.30621C7.83742 8.45048 8.0087 8.56493 8.1972 8.64301C8.3857 8.72109 8.58774 8.76128 8.79178 8.76128C8.99582 8.76128 9.19785 8.72109 9.38636 8.64301C9.57486 8.56493 9.74614 8.45048 9.89042 8.30621L11.2106 6.98603C11.355 6.84178 11.4697 6.67033 11.5479 6.4818C11.626 6.29326 11.6663 6.09118 11.6663 5.88708C11.6664 5.68298 11.6262 5.48088 11.5481 5.29231C11.4701 5.10374 11.3556 4.9324 11.2113 4.78808C11.067 4.64376 10.8956 4.52929 10.707 4.45121ZM7.20757 7.23807C7.00354 7.23807 6.8015 7.27826 6.61299 7.35634C6.42449 7.43442 6.25321 7.54887 6.10893 7.69314L4.78876 9.01332C4.64437 9.15757 4.52966 9.32902 4.45148 9.51755C4.37331 9.70608 4.33306 9.90817 4.33301 10.1123C4.33296 10.3164 4.37313 10.5185 4.45121 10.707C4.52929 10.8956 4.64376 11.067 4.78808 11.2113C4.9324 11.3556 5.10374 11.4701 5.29231 11.5481C5.48088 11.6262 5.68298 11.6664 5.88708 11.6663C6.09118 11.6663 6.29327 11.626 6.4818 11.5479C6.67033 11.4697 6.84162 11.3551 6.98587 11.2108L7.91016 10.2865C8.10542 10.0912 8.422 10.0912 8.61727 10.2865C8.81253 10.4817 8.81253 10.7983 8.61727 10.9936L7.69331 11.9175C7.45625 12.1548 7.17461 12.3432 6.86481 12.4716C6.55493 12.6001 6.22277 12.6663 5.88731 12.6663C5.55186 12.6664 5.21967 12.6004 4.90973 12.4721C4.59979 12.3437 4.31818 12.1556 4.08097 11.9184C3.84377 11.6812 3.65562 11.3996 3.52728 11.0896C3.39895 10.7797 3.33293 10.4475 3.33301 10.112C3.33309 9.77658 3.39926 9.44442 3.52774 9.13454C3.65622 8.82467 3.8445 8.54314 4.08181 8.30604L5.40182 6.98603C5.63896 6.7489 5.92048 6.5608 6.23031 6.43246C6.54014 6.30412 6.87221 6.23807 7.20757 6.23807C7.54293 6.23807 7.875 6.30412 8.18483 6.43246C8.49467 6.56079 8.77618 6.7489 9.01332 6.98603C9.20858 7.1813 9.20858 7.49788 9.01332 7.69314C8.81806 7.8884 8.50147 7.8884 8.30621 7.69314C8.16194 7.54887 7.99066 7.43442 7.80215 7.35634C7.61365 7.27826 7.41161 7.23807 7.20757 7.23807Z" fill="var(--fontPrimary, #111111)" fill-opacity="0.2"/>
</svg>
