<svg width="20" height="20" viewBox="0 0 20 20" fill="none" xmlns="http://www.w3.org/2000/svg">
    <path d="M9.08301 1.75C9.58927 1.24374 10.4101 1.24374 10.9163 1.75C11.4226 2.25626 11.4226 3.07707 10.9163 3.58333L4.80523 9.69444C4.63648 9.8632 4.63648 10.1368 4.80523 10.3056L6.02745 11.5278C6.19621 11.6965 6.46981 11.6965 6.63856 11.5278L12.7497 5.41667C13.2559 4.9104 14.0767 4.9104 14.583 5.41667L18.333 9.16667C18.7932 9.6269 18.7932 10.3731 18.333 10.8333L10.9163 18.25C10.4101 18.7563 9.58927 18.7563 9.08301 18.25C8.57675 17.7437 8.57675 16.9229 9.08301 16.4167L15.1941 10.3056C15.3629 10.1368 15.3629 9.8632 15.1941 9.69444L13.9719 8.47222C13.8031 8.30347 13.5295 8.30347 13.3608 8.47222L7.24968 14.5833C6.74341 15.0896 5.9226 15.0896 5.41634 14.5833L1.66634 10.8333C1.2061 10.3731 1.2061 9.6269 1.66634 9.16667L9.08301 1.75Z" fill="#EEEEEE"/>
    <path d="M3.58301 9.08333C4.08927 9.58959 4.08927 10.4104 3.58301 10.9167C3.07675 11.4229 2.25594 11.4229 1.74967 10.9167C1.24341 10.4104 1.24341 9.58959 1.74967 9.08333C2.25594 8.57707 3.07675 8.57707 3.58301 9.08333Z" fill="#BBBBBB"/>
    <path d="M10.9163 1.75C11.4226 2.25626 11.4226 3.07707 10.9163 3.58333C10.4101 4.08959 9.58927 4.08959 9.08301 3.58333C8.57675 3.07707 8.57675 2.25626 9.08301 1.75C9.58927 1.24374 10.4101 1.24374 10.9163 1.75Z" fill="#BBBBBB"/>
    <path d="M14.583 5.41667C15.0893 5.92293 15.0893 6.74374 14.583 7.25C14.0767 7.75626 13.2559 7.75626 12.7497 7.25C12.2434 6.74374 12.2434 5.92293 12.7497 5.41667C13.2559 4.9104 14.0767 4.9104 14.583 5.41667Z" fill="#BBBBBB"/>
    <path d="M10.9163 9.08333C11.4226 9.58959 11.4226 10.4104 10.9163 10.9167C10.4101 11.4229 9.58927 11.4229 9.08301 10.9167C8.57675 10.4104 8.57675 9.58959 9.08301 9.08333C9.58927 8.57707 10.4101 8.57707 10.9163 9.08333Z" fill="#BBBBBB"/>
    <path d="M7.24968 5.41667C7.75594 5.92293 7.75594 6.74374 7.24968 7.25C6.74341 7.75626 5.9226 7.75626 5.41634 7.25C4.91008 6.74374 4.91008 5.92293 5.41634 5.41667C5.9226 4.9104 6.74341 4.9104 7.24968 5.41667Z" fill="#BBBBBB"/>
    <path d="M7.24968 12.75C7.75594 13.2563 7.75594 14.0771 7.24968 14.5833C6.74341 15.0896 5.9226 15.0896 5.41634 14.5833C4.91008 14.0771 4.91008 13.2563 5.41634 12.75C5.9226 12.2437 6.74341 12.2437 7.24968 12.75Z" fill="#BBBBBB"/>
    <path d="M10.9163 16.4167C11.4226 16.9229 11.4226 17.7437 10.9163 18.25C10.4101 18.7563 9.58927 18.7563 9.08301 18.25C8.57675 17.7437 8.57675 16.9229 9.08301 16.4167C9.58927 15.9104 10.4101 15.9104 10.9163 16.4167Z" fill="#BBBBBB"/>
    <path d="M14.583 12.75C15.0893 13.2563 15.0893 14.0771 14.583 14.5833C14.0767 15.0896 13.2559 15.0896 12.7497 14.5833C12.2434 14.0771 12.2434 13.2563 12.7497 12.75C13.2559 12.2437 14.0767 12.2437 14.583 12.75Z" fill="#BBBBBB"/>
    <path d="M18.2497 9.08333C18.7559 9.58959 18.7559 10.4104 18.2497 10.9167C17.7434 11.4229 16.9226 11.4229 16.4163 10.9167C15.9101 10.4104 15.9101 9.58959 16.4163 9.08333C16.9226 8.57707 17.7434 8.57707 18.2497 9.08333Z" fill="#BBBBBB"/>
</svg>
