<svg width="25" height="24" viewBox="0 0 25 24" fill="none" xmlns="http://www.w3.org/2000/svg">
<path fill-rule="evenodd" clip-rule="evenodd" d="M9.45621 5.19487C9.45621 3.48725 10.8854 2.1416 12.5999 2.1416C14.3144 2.1416 15.7437 3.48724 15.7437 5.19487C15.7437 6.90247 14.3144 8.24814 12.5999 8.24814C10.8854 8.24814 9.45621 6.90246 9.45621 5.19487ZM12.5999 3.3916C11.5323 3.3916 10.7062 4.2203 10.7062 5.19487C10.7062 6.16942 11.5323 6.99814 12.5999 6.99814C13.6675 6.99814 14.4937 6.16941 14.4937 5.19487C14.4937 4.2203 13.6675 3.3916 12.5999 3.3916ZM12.52 11.165C10.368 11.165 8.77002 12.8338 8.77002 14.9091V16.2202C8.77002 16.5654 8.4902 16.8452 8.14502 16.8452C7.79984 16.8452 7.52002 16.5654 7.52002 16.2202V14.9091C7.52002 12.1584 9.66278 9.91504 12.52 9.91504C15.3476 9.91504 17.68 12.1292 17.68 14.9091V16.2202C17.68 16.5654 17.4002 16.8452 17.055 16.8452C16.7098 16.8452 16.43 16.5654 16.43 16.2202V14.9091C16.43 12.8631 14.7016 11.165 12.52 11.165ZM11.709 18.892C11.465 18.648 11.0692 18.648 10.8251 18.892C10.5811 19.1361 10.5811 19.5318 10.8251 19.7759L11.0433 19.9941C8.9727 19.865 7.13839 19.4834 5.7555 18.9456C4.89315 18.6102 4.23793 18.2263 3.80896 17.8319C3.39379 17.4501 3.23498 17.1033 3.22555 16.8064C3.28558 16.2824 3.58427 15.8148 4.03586 15.5401C4.33078 15.3607 4.42446 14.9763 4.24509 14.6813C4.06573 14.3864 3.68125 14.2927 3.38633 14.4721C2.58903 14.957 2.06708 15.7895 1.97795 16.7184C1.97605 16.7383 1.9751 16.7582 1.9751 16.7781C1.9751 17.5491 2.37928 18.2154 2.96289 18.752C3.54596 19.2881 4.35517 19.7422 5.30244 20.1106C6.86574 20.7186 8.89133 21.1264 11.1317 21.2515L10.8251 21.558C10.5811 21.8021 10.5811 22.1978 10.8251 22.4419C11.0692 22.686 11.465 22.686 11.709 22.4419L13.0345 21.1165C13.152 21.0028 13.2251 20.8435 13.2251 20.6671C13.2251 20.6671 13.2251 20.667 13.2251 20.667C13.2251 20.6539 13.2247 20.6408 13.2239 20.6278C13.2204 20.5726 13.2097 20.5177 13.1916 20.4648C13.1618 20.3772 13.1119 20.2949 13.042 20.225L11.709 18.892ZM20.9548 14.6813C21.1341 14.3864 21.5186 14.2927 21.8135 14.4721C22.6108 14.957 23.1328 15.7895 23.2219 16.7184C23.2238 16.7383 23.2248 16.7582 23.2248 16.7781C23.2248 17.9506 22.3067 18.8706 21.147 19.5244C19.9506 20.1989 18.3023 20.7091 16.4183 21.0036C16.0773 21.0569 15.7576 20.8237 15.7043 20.4826C15.651 20.1416 15.8842 19.8219 16.2252 19.7686C18.0193 19.4881 19.5099 19.0123 20.5331 18.4355C21.5716 17.8501 21.9591 17.2656 21.9743 16.8062C21.9142 16.2823 21.6156 15.8147 21.164 15.5401C20.8691 15.3607 20.7754 14.9763 20.9548 14.6813Z" fill="#1B202C" fill-opacity="0.3"/>
</svg>
