<svg width="25" height="24" viewBox="0 0 25 24" fill="none" xmlns="http://www.w3.org/2000/svg">
<path fill-rule="evenodd" clip-rule="evenodd" d="M4.75162 5.19487C4.75162 3.48725 6.18085 2.1416 7.89534 2.1416C9.6098 2.1416 11.0391 3.48724 11.0391 5.19487C11.0391 6.90247 9.6098 8.24814 7.89534 8.24814C6.18085 8.24814 4.75162 6.90246 4.75162 5.19487ZM7.89534 3.3916C6.82772 3.3916 6.00162 4.2203 6.00162 5.19487C6.00162 6.16942 6.82773 6.99814 7.89534 6.99814C8.96293 6.99814 9.78906 6.16941 9.78906 5.19487C9.78906 4.2203 8.96294 3.3916 7.89534 3.3916ZM4.36931 11.1628C4.13632 11.1628 3.98682 11.3392 3.98682 11.5091V16.8513C3.98682 18.8987 5.71506 20.5971 7.89552 20.5971C8.64303 20.5971 9.33878 20.3966 9.93008 20.0503C10.2279 19.8759 10.6108 19.9759 10.7852 20.2738C10.9597 20.5717 10.8596 20.9545 10.5618 21.129C9.78231 21.5854 8.86903 21.8471 7.89552 21.8471C5.06819 21.8471 2.73682 19.6318 2.73682 16.8513V11.5091C2.73682 10.6061 3.48945 9.91277 4.36931 9.91277H12.4292C12.7744 9.91277 13.0542 10.1926 13.0542 10.5378C13.0542 10.883 12.7744 11.1628 12.4292 11.1628H4.36931ZM22.1177 13.5755C22.3618 13.3314 22.3618 12.9357 22.1177 12.6916C21.8736 12.4475 21.4779 12.4475 21.2338 12.6916L16.8359 17.0895L15.3317 15.5853C15.0876 15.3412 14.6919 15.3412 14.4478 15.5853C14.2038 15.8294 14.2038 16.2251 14.4478 16.4692L16.394 18.4153C16.6381 18.6594 17.0338 18.6594 17.2779 18.4153L22.1177 13.5755ZM16.7138 10.0935C16.9579 9.84938 17.3536 9.84938 17.5977 10.0935L18.5119 11.0077C18.756 11.2518 18.756 11.6475 18.5119 11.8916L17.5969 12.8066C17.3529 13.0507 16.9571 13.0507 16.7131 12.8066C16.5421 12.6356 16.4909 12.3903 16.5594 12.1747C14.4269 12.3962 12.7642 14.199 12.7642 16.3901C12.7642 18.7309 14.6617 20.6284 17.0024 20.6284C19.3432 20.6284 21.2407 18.7309 21.2407 16.3901C21.2407 16.045 21.5205 15.7651 21.8657 15.7651C22.2109 15.7651 22.4907 16.045 22.4907 16.3901C22.4907 19.4212 20.0335 21.8784 17.0024 21.8784C13.9713 21.8784 11.5142 19.4212 11.5142 16.3901C11.5142 13.475 13.787 11.0907 16.6573 10.9125C16.4715 10.6676 16.4903 10.317 16.7138 10.0935Z" fill="#1B202C" fill-opacity="0.3"/>
</svg>
