<svg width="25" height="24" viewBox="0 0 25 24" fill="none" xmlns="http://www.w3.org/2000/svg">
<path fill-rule="evenodd" clip-rule="evenodd" d="M7.89511 2.1416C6.18062 2.1416 4.75138 3.48725 4.75138 5.19487C4.75138 6.90246 6.18061 8.24814 7.89511 8.24814C9.60957 8.24814 11.0388 6.90247 11.0388 5.19487C11.0388 3.48724 9.60956 2.1416 7.89511 2.1416ZM6.00138 5.19487C6.00138 4.2203 6.82749 3.3916 7.89511 3.3916C8.9627 3.3916 9.78883 4.2203 9.78883 5.19487C9.78883 6.16941 8.9627 6.99814 7.89511 6.99814C6.82749 6.99814 6.00138 6.16942 6.00138 5.19487ZM3.98486 14.9091C3.98486 12.863 5.71327 11.165 7.89486 11.165C8.77547 11.165 9.5847 11.4431 10.2359 11.91C10.5164 12.1112 10.9068 12.0469 11.108 11.7664C11.3092 11.4859 11.2448 11.0954 10.9643 10.8942C10.105 10.278 9.04197 9.915 7.89486 9.915C5.06723 9.915 2.73486 12.1292 2.73486 14.9091V20.2491C2.73486 21.1522 3.48804 21.845 4.36764 21.845H9.89486C10.24 21.845 10.5199 21.5652 10.5199 21.22C10.5199 20.8748 10.24 20.595 9.89486 20.595H4.36764C4.13408 20.595 3.98486 20.4184 3.98486 20.2491L3.98486 14.9091ZM16.6001 12.625C14.1839 12.625 12.2251 14.5838 12.2251 17C12.2251 19.4162 14.1839 21.375 16.6001 21.375C19.0163 21.375 20.9751 19.4162 20.9751 17C20.9751 14.5838 19.0163 12.625 16.6001 12.625ZM10.9751 17C10.9751 13.8934 13.4935 11.375 16.6001 11.375C19.7067 11.375 22.2251 13.8934 22.2251 17C22.2251 20.1066 19.7067 22.625 16.6001 22.625C13.4935 22.625 10.9751 20.1066 10.9751 17ZM17.1001 14.5C17.1001 14.2239 16.8762 14 16.6001 14C16.324 14 16.1001 14.2239 16.1001 14.5V16.5H14.1001C13.824 16.5 13.6001 16.7239 13.6001 17C13.6001 17.2761 13.824 17.5 14.1001 17.5H16.1001V19.5C16.1001 19.7761 16.324 20 16.6001 20C16.8762 20 17.1001 19.7761 17.1001 19.5V17.5H19.1001C19.3762 17.5 19.6001 17.2761 19.6001 17C19.6001 16.7239 19.3762 16.5 19.1001 16.5H17.1001V14.5Z" fill="#1B202C" fill-opacity="0.3"/>
</svg>
