<svg width="20" height="20" viewBox="0 0 20 20" fill="none" xmlns="http://www.w3.org/2000/svg">
<g clip-path="url(#clip0_5607_24763)">
<path d="M18.7821 5.70553C18.5708 4.94077 17.9521 4.33779 17.1674 4.13189C15.7339 3.74951 9.99959 3.74951 9.99959 3.74951C9.99959 3.74951 4.26532 3.74951 2.83175 4.11718C2.06215 4.32308 1.42836 4.94077 1.2171 5.70553C0.839844 7.10268 0.839844 9.99994 0.839844 9.99994C0.839844 9.99994 0.839844 12.9119 1.2171 14.2943C1.42836 15.0591 2.04706 15.6621 2.83175 15.868C4.28041 16.2504 9.99959 16.2504 9.99959 16.2504C9.99959 16.2504 15.7339 16.2504 17.1674 15.8827C17.9521 15.6768 18.5708 15.0738 18.7821 14.3091C19.1593 12.9119 19.1593 10.0146 19.1593 10.0146C19.1593 10.0146 19.1744 7.10268 18.7821 5.70553Z" fill="#FF0000"/>
<path d="M8.17383 12.6768L12.9423 10.0001L8.17383 7.32349V12.6768Z" fill="white"/>
</g>
<defs>
<clipPath id="clip0_5607_24763">
<rect width="20" height="20" fill="white"/>
</clipPath>
</defs>
</svg>

