<svg width="20" height="20" viewBox="0 0 20 20" fill="none" xmlns="http://www.w3.org/2000/svg">
<g clip-path="url(#clip0_5607_24760)">
<path fill-rule="evenodd" clip-rule="evenodd" d="M17.3764 6.23312C17.383 6.39803 17.3852 6.56289 17.3852 6.7278C17.3852 11.7278 13.7741 17.5 7.17076 17.5C5.14233 17.5 3.25618 16.8703 1.66699 15.7983C1.94791 15.8283 2.23321 15.8509 2.52288 15.8509C4.20473 15.8509 5.75378 15.2435 6.98252 14.2241C5.41157 14.2016 4.08507 13.0996 3.62758 11.6004C3.8472 11.6453 4.07338 11.6679 4.30468 11.6679C4.63083 11.6679 4.9475 11.623 5.25104 11.533C3.60713 11.1882 2.36892 9.65899 2.36892 7.82241C2.36892 7.79992 2.36892 7.79238 2.36892 7.77739C2.85341 8.05475 3.40794 8.22707 3.99677 8.24956C3.03217 7.56741 2.39809 6.40552 2.39809 5.09367C2.39809 4.40402 2.57467 3.75181 2.8855 3.1896C4.65564 5.48345 7.30211 6.99022 10.2857 7.14764C10.2244 6.87028 10.193 6.578 10.193 6.28564C10.193 4.19419 11.8004 2.5 13.7836 2.5C14.8161 2.5 15.7485 2.95734 16.403 3.69197C17.2224 3.52705 17.9901 3.21223 18.6847 2.77745C18.4154 3.66201 17.847 4.40398 17.1042 4.86875C17.831 4.77879 18.5242 4.57655 19.167 4.2767C18.6847 5.03382 18.0776 5.70088 17.3764 6.23312Z" fill="#00A2F5"/>
</g>
<defs>
<clipPath id="clip0_5607_24760">
<rect width="20" height="20" fill="white"/>
</clipPath>
</defs>
</svg>

