<svg width="24" height="24" viewBox="0 0 24 24" fill="none" xmlns="http://www.w3.org/2000/svg">
    <g clip-path="url(#clip0_9563_16150)">
        <path d="M13.4093 12.0001C13.4093 15.5899 10.6314 18.5 7.20477 18.5C3.77817 18.5 1 15.5893 1 12.0001C1 8.41097 3.77796 5.5 7.20477 5.5C10.6316 5.5 13.4093 8.41031 13.4093 12.0001ZM20.2159 12.0001C20.2159 15.3791 18.827 18.1195 17.1135 18.1195C15.4001 18.1195 14.0112 15.3791 14.0112 12.0001C14.0112 8.62109 15.3999 5.88076 17.1133 5.88076C18.8267 5.88076 20.2159 8.62021 20.2159 12.0001ZM23 12.0001C23 15.0269 22.5116 17.4821 21.9089 17.4821C21.3062 17.4821 20.818 15.0275 20.818 12.0001C20.818 8.97268 21.3064 6.51814 21.9089 6.51814C22.5114 6.51814 23 8.97246 23 12.0001Z"
              fill="white"/>
    </g>
    <defs>
        <clipPath id="clip0_9563_16150">
            <rect width="24" height="24" fill="white"/>
        </clipPath>
    </defs>
</svg>
