<svg width="20" height="20" viewBox="0 0 20 20" fill="none" xmlns="http://www.w3.org/2000/svg">
<g clip-path="url(#clip0_5607_24767)">
<path d="M18.0018 14.3314H16.1797C16.2596 13.9583 16.3076 13.5527 16.3076 13.1471V12.2386C16.1477 9.6268 14.2617 7.89097 11.5126 7.89097H8.37992C7.78854 7.8423 7.43691 7.38807 7.43691 6.82027C7.43691 6.22004 7.83649 5.70091 8.50778 5.70091H16.2756C17.0268 5.70091 17.6342 5.08445 17.6342 4.32198V2.31037C17.6342 2.18059 17.5383 2.08325 17.4104 2.08325H8.50778C5.75868 2.08325 3.87267 3.81908 3.71284 6.43093V7.11228C3.72882 7.37185 3.76079 7.61518 3.80873 7.85853H1.66699C2.11452 10.0486 3.88865 11.46 6.36604 11.46H11.193C11.8642 11.46 12.6155 11.7682 12.6155 12.774C12.6155 13.7798 11.8642 14.3152 11.161 14.3152H5.2632C4.51199 14.3152 3.90463 14.9316 3.90463 15.6941V17.6895C3.90463 17.8193 4.00053 17.9166 4.1284 17.9166H13.3027C15.8857 17.9166 17.8165 16.5444 18.3337 14.3314H18.0018Z" fill="#EB3089"/>
</g>
<defs>
<clipPath id="clip0_5607_24767">
<rect width="20" height="20" fill="white"/>
</clipPath>
</defs>
</svg>

