<svg width="20" height="20" viewBox="0 0 20 20" fill="none" xmlns="http://www.w3.org/2000/svg">
<g clip-path="url(#clip0_5607_24762)">
<path fill-rule="evenodd" clip-rule="evenodd" d="M19.1663 9.99992C19.1663 15.0625 15.0623 19.1666 9.99967 19.1666C4.93707 19.1666 0.833008 15.0625 0.833008 9.99992C0.833008 4.93731 4.93707 0.833252 9.99967 0.833252C15.0623 0.833252 19.1663 4.93731 19.1663 9.99992ZM9.96845 2.78812C8.09527 2.78812 6.57677 4.30662 6.57677 6.17979V8.3798C6.57677 10.253 8.09527 11.7715 9.96845 11.7715C10.2313 11.7715 10.4873 11.7415 10.733 11.6849C10.8806 11.651 10.922 11.4688 10.8125 11.3642L10.7941 11.3467L8.84021 9.48047C8.53722 9.18616 8.349 8.7744 8.349 8.31869V6.2409C8.349 5.3465 9.07403 4.62146 9.96845 4.62146C10.8628 4.62146 11.5879 5.3465 11.5879 6.2409V6.94436C11.5879 7.07936 11.6973 7.18881 11.8323 7.18881H13.1157C13.2507 7.18881 13.3601 7.07936 13.3601 6.94436V6.17979C13.3601 4.30662 11.8416 2.78812 9.96845 2.78812ZM13.3608 13.636C13.3608 15.5092 11.8423 17.0277 9.96912 17.0277C8.09594 17.0277 6.57745 15.5092 6.57745 13.636V12.8721C6.57745 12.7371 6.6869 12.6277 6.8219 12.6277H8.10523C8.24022 12.6277 8.34968 12.7371 8.34968 12.8721V13.5749C8.34968 14.4693 9.0747 15.1944 9.96912 15.1944C10.8635 15.1944 11.5886 14.4693 11.5886 13.5749V11.4971C11.5886 11.0414 11.4003 10.6296 11.0973 10.3354L9.14345 8.46915L9.12505 8.45161C9.01554 8.34699 9.05698 8.16487 9.20456 8.1309C9.45029 8.07431 9.70622 8.04436 9.96912 8.04436C11.8423 8.04436 13.3608 9.56285 13.3608 11.436V13.636Z" fill="url(#paint0_linear_5607_24762)"/>
</g>
<defs>
<linearGradient id="paint0_linear_5607_24762" x1="9.99967" y1="0.833252" x2="9.99967" y2="19.1666" gradientUnits="userSpaceOnUse">
<stop stop-color="#F50083"/>
<stop offset="1" stop-color="#720497"/>
</linearGradient>
<clipPath id="clip0_5607_24762">
<rect width="20" height="20" fill="white"/>
</clipPath>
</defs>
</svg>

