<svg width="20" height="20" viewBox="0 0 20 20" fill="none" xmlns="http://www.w3.org/2000/svg">
<g clip-path="url(#clip0_5607_24770)">
<path d="M11.1741 10C11.1741 12.9915 8.85914 15.4166 6.00365 15.4166C3.14815 15.4166 0.833008 12.991 0.833008 10C0.833008 7.00906 3.14797 4.58325 6.00365 4.58325C8.85932 4.58325 11.1741 7.00851 11.1741 10ZM16.8463 10C16.8463 12.8159 15.6888 15.0995 14.261 15.0995C12.8331 15.0995 11.6756 12.8159 11.6756 10C11.6756 7.18416 12.833 4.90055 14.2608 4.90055C15.6886 4.90055 16.8463 7.18343 16.8463 10ZM19.1663 10C19.1663 12.5223 18.7593 14.5683 18.2571 14.5683C17.7548 14.5683 17.348 12.5229 17.348 10C17.348 7.47715 17.755 5.4317 18.2571 5.4317C18.7591 5.4317 19.1663 7.47697 19.1663 10Z" fill="#1B202C"/>
</g>
<defs>
<clipPath id="clip0_5607_24770">
<rect width="20" height="20" fill="white"/>
</clipPath>
</defs>
</svg>

