<svg width="20" height="20" viewBox="0 0 20 20" fill="none" xmlns="http://www.w3.org/2000/svg">
<g clip-path="url(#clip0_5607_24768)">
<path d="M9.00226 15.0013C9.3147 15.0013 9.59589 15.2609 9.59589 15.6179C9.59589 15.9424 9.34594 16.2344 9.00226 16.2344C8.68983 16.2344 8.40863 15.9748 8.40863 15.6179C8.40863 15.2609 8.68983 15.0013 9.00226 15.0013ZM18.1879 11.2371C17.8754 11.2371 17.5942 10.9775 17.5942 10.6206C17.5942 10.2961 17.8442 10.004 18.1879 10.004C18.5003 10.004 18.7815 10.2636 18.7815 10.6206C18.7815 10.9451 18.5003 11.2371 18.1879 11.2371ZM18.1879 8.73848C17.1881 8.73848 16.3757 9.58218 16.3757 10.6206C16.3757 10.8153 16.407 11.01 16.4695 11.2047L10.502 14.5146C10.1583 13.9954 9.59589 13.7033 9.00226 13.7033C8.3149 13.7033 7.69003 14.1252 7.3776 14.7417L2.0037 11.8212C1.44132 11.4967 1.00391 10.5557 1.06639 9.64708C1.09764 9.19278 1.25385 8.83583 1.47256 8.70603C1.62878 8.60868 1.785 8.64113 2.0037 8.73848L2.03494 8.77093C3.47215 9.54973 8.12744 12.0808 8.3149 12.1782C8.62734 12.308 8.78356 12.3729 9.3147 12.1133L18.9377 6.92127C19.0939 6.85637 19.2502 6.72657 19.2502 6.49942C19.2502 6.20737 18.969 6.07757 18.969 6.07757C18.4066 5.81797 17.563 5.39612 16.7507 5.00672C15.001 4.16302 13.0014 3.18951 12.1266 2.70276C11.3768 2.28091 10.7519 2.63786 10.6582 2.70276L10.4395 2.80011C6.47153 4.87692 1.22261 7.57028 0.910176 7.76498C0.379035 8.08948 0.0353555 8.77093 0.00411193 9.61463C-0.0583752 10.9451 0.59774 12.3404 1.53505 12.8272L7.22138 15.8775C7.34635 16.7861 8.12744 17.5 9.00226 17.5C10.0021 17.5 10.7831 16.6887 10.8144 15.6503L17.0631 12.1457C17.3755 12.4053 17.7817 12.5351 18.1879 12.5351C19.1877 12.5351 20 11.6914 20 10.653C20 9.58218 19.1877 8.73848 18.1879 8.73848Z" fill="#4285FD"/>
</g>
<defs>
<clipPath id="clip0_5607_24768">
<rect width="20" height="20" fill="white"/>
</clipPath>
</defs>
</svg>

