<svg width="20" height="20" viewBox="0 0 20 20" fill="none" xmlns="http://www.w3.org/2000/svg">
<path d="M7.24159 14.9597C7.24159 15.0269 7.1643 15.0806 7.06686 15.0806C6.95597 15.0907 6.87869 15.037 6.87869 14.9597C6.87869 14.8925 6.95597 14.8387 7.05342 14.8387C7.15422 14.8286 7.24159 14.8824 7.24159 14.9597ZM6.19656 14.8085C6.17304 14.8757 6.24024 14.953 6.34105 14.9731C6.42842 15.0067 6.52922 14.9731 6.54938 14.9059C6.56955 14.8387 6.5057 14.7614 6.4049 14.7312C6.31753 14.7077 6.22008 14.7413 6.19656 14.8085ZM7.68178 14.7513C7.58433 14.7749 7.51713 14.8387 7.52721 14.916C7.53729 14.9832 7.62465 15.0269 7.72546 15.0034C7.82291 14.9798 7.89011 14.916 7.88003 14.8488C7.86995 14.7849 7.77922 14.7413 7.68178 14.7513ZM9.8928 1.875C5.23218 1.875 1.66699 5.41331 1.66699 10.0739C1.66699 13.8004 4.01242 16.9892 7.36256 18.1116C7.79266 18.1888 7.94387 17.9234 7.94387 17.705C7.94387 17.4966 7.93379 16.3474 7.93379 15.6418C7.93379 15.6418 5.58164 16.1458 5.08769 14.6405C5.08769 14.6405 4.70463 13.6626 4.15355 13.4106C4.15355 13.4106 3.38406 12.8831 4.20731 12.8931C4.20731 12.8931 5.04401 12.9604 5.50436 13.7601C6.24024 15.0571 7.47344 14.6841 7.95395 14.4624C8.03124 13.9247 8.24965 13.5517 8.49159 13.33C6.61323 13.1216 4.71807 12.8495 4.71807 9.61694C4.71807 8.69288 4.97344 8.22917 5.51108 7.63777C5.42371 7.41935 5.13809 6.51882 5.59844 5.35618C6.30073 5.13777 7.91699 6.26344 7.91699 6.26344C8.58903 6.07527 9.31148 5.97782 10.0272 5.97782C10.7429 5.97782 11.4654 6.07527 12.1374 6.26344C12.1374 6.26344 13.7537 5.13441 14.456 5.35618C14.9163 6.52218 14.6307 7.41935 14.5433 7.63777C15.081 8.23253 15.4103 8.69624 15.4103 9.61694C15.4103 12.8595 13.4311 13.1183 11.5527 13.33C11.8619 13.5954 12.124 14.0995 12.124 14.8891C12.124 16.0215 12.1139 17.4227 12.1139 17.6983C12.1139 17.9167 12.2685 18.1821 12.6952 18.1048C16.0554 16.9892 18.3337 13.8004 18.3337 10.0739C18.3337 5.41331 14.5534 1.875 9.8928 1.875ZM4.93312 13.4644C4.88944 13.498 4.89952 13.5753 4.95664 13.6391C5.01041 13.6929 5.08769 13.7164 5.13137 13.6727C5.17506 13.6391 5.16498 13.5618 5.10785 13.498C5.05409 13.4442 4.9768 13.4207 4.93312 13.4644ZM4.57022 13.1922C4.5467 13.2359 4.5803 13.2897 4.6475 13.3233C4.70127 13.3569 4.76847 13.3468 4.79199 13.2997C4.81551 13.256 4.78191 13.2023 4.71471 13.1687C4.6475 13.1485 4.59374 13.1586 4.57022 13.1922ZM5.65893 14.3884C5.60516 14.4321 5.62533 14.5329 5.70261 14.5968C5.7799 14.6741 5.87734 14.6841 5.92102 14.6304C5.96471 14.5867 5.94455 14.4859 5.87734 14.422C5.80342 14.3448 5.70261 14.3347 5.65893 14.3884ZM5.27586 13.8945C5.2221 13.9281 5.2221 14.0155 5.27586 14.0927C5.32963 14.17 5.42035 14.2036 5.46404 14.17C5.5178 14.1263 5.5178 14.039 5.46404 13.9617C5.41699 13.8844 5.32963 13.8508 5.27586 13.8945Z" fill="#1B202C"/>
</svg>

