<svg width="20" height="20" viewBox="0 0 20 20" fill="none" xmlns="http://www.w3.org/2000/svg">
<g clip-path="url(#clip0_5607_24769)">
<path d="M7.54767 2.51227C7.39753 2.24747 7.11274 2.08325 6.80367 2.08325C6.4946 2.08325 6.20982 2.24747 6.05967 2.51227L0.498602 12.4007C0.240094 12.9085 0.627856 13.4792 1.21002 13.4792H4.96154V17.2182C4.96154 17.5993 5.28415 17.9166 5.67191 17.9166H7.87028C8.25909 17.9166 8.5817 17.5993 8.5817 17.2192V13.4792H7.54767C7.1295 13.484 6.77126 13.1869 6.707 12.7818C6.707 12.6551 6.707 12.5284 6.7711 12.4007L9.87529 6.88584L7.54767 2.51227Z" fill="#39E09B"/>
<path d="M12.4543 2.51232C12.6046 2.24804 12.8891 2.08423 13.1978 2.08423C13.5065 2.08423 13.7909 2.24804 13.9412 2.51232L19.5023 12.4007C19.7608 12.9086 19.3731 13.4792 18.7909 13.4792H15.1056V17.2183C15.1056 17.5994 14.7819 17.9166 14.3931 17.9166H12.0655C11.674 17.9132 11.3575 17.603 11.3541 17.2193V13.4792H12.3891C12.8073 13.484 13.1656 13.1869 13.2298 12.7819C13.2298 12.6552 13.2298 12.5285 13.1647 12.4007L10.0615 6.88692L12.4543 2.51232Z" fill="#28BF7B"/>
</g>
<defs>
<clipPath id="clip0_5607_24769">
<rect width="20" height="20" fill="white"/>
</clipPath>
</defs>
</svg>

