<svg width="20" height="20" viewBox="0 0 20 20" fill="none" xmlns="http://www.w3.org/2000/svg">
<g clip-path="url(#clip0_5607_24764)">
<path d="M16.3757 4.10674C15.1805 3.54953 13.9112 3.14341 12.5864 2.91675C12.4196 3.20953 12.2343 3.60619 12.1046 3.91786C10.6954 3.71008 9.2964 3.71008 7.90666 3.91786C7.77695 3.60619 7.58238 3.20953 7.42487 2.91675C6.09076 3.14341 4.82147 3.54953 3.63465 4.10674C1.23506 7.71451 0.586521 11.2373 0.910791 14.7128C2.50434 15.8934 4.04232 16.6112 5.55341 17.0834C5.92401 16.5734 6.25755 16.0256 6.54476 15.4495C5.99813 15.2417 5.4793 14.9867 4.979 14.6845C5.1087 14.5901 5.23842 14.4862 5.35886 14.3823C8.37919 15.7895 11.6506 15.7895 14.6339 14.3823C14.7636 14.4862 14.884 14.5901 15.0137 14.6845C14.5134 14.9867 13.9946 15.2417 13.448 15.4495C13.7352 16.0256 14.0687 16.5734 14.4393 17.0834C15.9495 16.6112 17.4967 15.8934 19.0819 14.7128C19.4803 10.6895 18.451 7.1951 16.3757 4.10674ZM6.96167 12.5689C6.0537 12.5689 5.31252 11.7284 5.31252 10.699C5.31252 9.66954 6.03517 8.82895 6.96167 8.82895C7.87887 8.82895 8.6293 9.66954 8.61077 10.699C8.61077 11.7284 7.87887 12.5689 6.96167 12.5689ZM13.0496 12.5689C12.1416 12.5689 11.3995 11.7284 11.3995 10.699C11.3995 9.66954 12.1231 8.82895 13.0496 8.82895C13.9668 8.82895 14.7172 9.66954 14.6987 10.699C14.6987 11.7284 13.9761 12.5689 13.0496 12.5689Z" fill="#5765F2"/>
</g>
<defs>
<clipPath id="clip0_5607_24764">
<rect width="20" height="20" fill="white"/>
</clipPath>
</defs>
</svg>

