<svg width="20" height="20" viewBox="0 0 20 20" fill="none" xmlns="http://www.w3.org/2000/svg">
<g clip-path="url(#clip0_5607_24766)">
<path fill-rule="evenodd" clip-rule="evenodd" d="M4.16634 2.08325C3.01575 2.08325 2.08301 3.01599 2.08301 4.16659C2.08301 5.31718 3.01575 6.24992 4.16634 6.24992C5.31693 6.24992 6.24967 5.31718 6.24967 4.16659C6.24967 3.01599 5.31693 2.08325 4.16634 2.08325ZM4.16634 7.91658C3.01575 7.91658 2.08301 8.84933 2.08301 9.99992C2.08301 11.1505 3.01575 12.0833 4.16634 12.0833C5.31693 12.0833 6.24967 11.1505 6.24967 9.99992C6.24967 8.84933 5.31693 7.91658 4.16634 7.91658ZM2.08301 15.8333C2.08301 14.6827 3.01575 13.7499 4.16634 13.7499C5.31693 13.7499 6.24967 14.6827 6.24967 15.8333C6.24967 16.9838 5.31693 17.9166 4.16634 17.9166C3.01575 17.9166 2.08301 16.9838 2.08301 15.8333ZM9.99967 2.08325C8.84908 2.08325 7.91634 3.01599 7.91634 4.16659C7.91634 5.31718 8.84908 6.24992 9.99967 6.24992C11.1503 6.24992 12.083 5.31718 12.083 4.16659C12.083 3.01599 11.1503 2.08325 9.99967 2.08325ZM9.99967 13.7499C8.84908 13.7499 7.91634 14.6827 7.91634 15.8333C7.91634 16.9838 8.84908 17.9166 9.99967 17.9166C11.1503 17.9166 12.083 16.9838 12.083 15.8333C12.083 14.6827 11.1503 13.7499 9.99967 13.7499ZM13.7497 4.16659C13.7497 3.01599 14.6824 2.08325 15.833 2.08325C16.9836 2.08325 17.9163 3.01599 17.9163 4.16659C17.9163 5.31718 16.9836 6.24992 15.833 6.24992C14.6824 6.24992 13.7497 5.31718 13.7497 4.16659ZM15.833 7.91658C14.6824 7.91658 13.7497 8.84933 13.7497 9.99992C13.7497 11.1505 14.6824 12.0833 15.833 12.0833C16.9836 12.0833 17.9163 11.1505 17.9163 9.99992C17.9163 8.84933 16.9836 7.91658 15.833 7.91658Z" fill="url(#paint0_linear_5607_24766)"/>
<path d="M9.9996 7.64307L12.3566 10.0001L9.9996 12.3571L7.64258 10.0001L9.9996 7.64307Z" fill="#1B202C"/>
<path d="M15.8361 13.5005L18.1931 15.8575L15.8361 18.2145L13.4791 15.8575L15.8361 13.5005Z" fill="#1B202C"/>
</g>
<defs>
<linearGradient id="paint0_linear_5607_24766" x1="17.9163" y1="2.08325" x2="2.08301" y2="17.9166" gradientUnits="userSpaceOnUse">
<stop stop-color="#79E0E8"/>
<stop offset="0.240823" stop-color="#BA946A"/>
<stop offset="0.501558" stop-color="#D39DC1"/>
<stop offset="0.690859" stop-color="#6787D1"/>
<stop offset="0.906947" stop-color="#B37DBA"/>
</linearGradient>
<clipPath id="clip0_5607_24766">
<rect width="20" height="20" fill="white"/>
</clipPath>
</defs>
</svg>

