<svg width="20" height="20" viewBox="0 0 20 20" fill="none" xmlns="http://www.w3.org/2000/svg">
<g clip-path="url(#clip0_5607_24761)">
<path fill-rule="evenodd" clip-rule="evenodd" d="M7.43349 1.93325C7.43349 1.32574 7.92597 0.833252 8.53349 0.833252C12.5836 0.833252 15.8668 4.1165 15.8668 8.16659C15.8668 8.7741 15.3743 9.26659 14.7668 9.26659C14.1593 9.26659 13.6668 8.7741 13.6668 8.16659C13.6668 5.33151 11.3686 3.03325 8.53349 3.03325C7.92597 3.03325 7.43349 2.54076 7.43349 1.93325Z" fill="#0DBD8C"/>
<path fill-rule="evenodd" clip-rule="evenodd" d="M12.5659 18.0666C12.5659 18.6741 12.0734 19.1666 11.4659 19.1666C7.41579 19.1666 4.13253 15.8834 4.13253 11.8333C4.13253 11.2257 4.62502 10.7333 5.23253 10.7333C5.84004 10.7333 6.33253 11.2257 6.33253 11.8333C6.33253 14.6683 8.63082 16.9666 11.4659 16.9666C12.0734 16.9666 12.5659 17.4591 12.5659 18.0666Z" fill="#0DBD8C"/>
<path fill-rule="evenodd" clip-rule="evenodd" d="M1.93301 12.5666C1.3255 12.5666 0.833008 12.0741 0.833008 11.4666C0.833008 7.41652 4.11625 4.13328 8.16634 4.13328C8.77385 4.13328 9.26634 4.62578 9.26634 5.23329C9.26634 5.84081 8.77385 6.33329 8.16634 6.33329C5.3313 6.33329 3.03301 8.63155 3.03301 11.4666C3.03301 12.0741 2.54052 12.5666 1.93301 12.5666Z" fill="#0DBD8C"/>
<path fill-rule="evenodd" clip-rule="evenodd" d="M18.0663 7.43321C18.6739 7.43321 19.1663 7.9257 19.1663 8.53321C19.1663 12.5833 15.8831 15.8666 11.833 15.8666C11.2255 15.8666 10.733 15.3741 10.733 14.7666C10.733 14.159 11.2255 13.6666 11.833 13.6666C14.6681 13.6666 16.9663 11.3683 16.9663 8.53321C16.9663 7.9257 17.4588 7.43321 18.0663 7.43321Z" fill="#0DBD8C"/>
</g>
<defs>
<clipPath id="clip0_5607_24761">
<rect width="20" height="20" fill="white"/>
</clipPath>
</defs>
</svg>

