<svg width="20" height="20" viewBox="0 0 20 20" fill="none" xmlns="http://www.w3.org/2000/svg">
<path fill-rule="evenodd" clip-rule="evenodd" d="M4.5 2.58203C2.98122 2.58203 1.75 3.81325 1.75 5.33203V14.6654C1.75 16.1841 2.98122 17.4154 4.5 17.4154H15.5C17.0188 17.4154 18.25 16.1842 18.25 14.6654V5.33203C18.25 3.81325 17.0188 2.58203 15.5 2.58203H4.5ZM3.25 5.33203C3.25 4.64167 3.80964 4.08203 4.5 4.08203H15.5C16.1904 4.08203 16.75 4.64168 16.75 5.33203V14.6654C16.75 15.3557 16.1904 15.9154 15.5 15.9154H4.5C3.80964 15.9154 3.25 15.3557 3.25 14.6654V5.33203ZM8.17389 7.11127C7.88099 6.81838 7.40612 6.81838 7.11323 7.11127C6.82033 7.40416 6.82033 7.87904 7.11322 8.17193L8.93991 9.99862L7.11323 11.8253C6.82033 12.1182 6.82033 12.5931 7.11322 12.886C7.40612 13.1788 7.88099 13.1789 8.17388 12.886L10.0006 11.0593L11.8272 12.886C12.1201 13.1789 12.595 13.1789 12.8879 12.886C13.1808 12.5931 13.1808 12.1182 12.8879 11.8253L11.0612 9.99862L12.8879 8.17193C13.1808 7.87903 13.1808 7.40416 12.8879 7.11127C12.595 6.81838 12.1201 6.81838 11.8272 7.11127L10.0006 8.93796L8.17389 7.11127Z" fill="#EE4444"/>
</svg>
