<svg width="20" height="20" viewBox="0 0 20 20" fill="none" xmlns="http://www.w3.org/2000/svg">
<path fill-rule="evenodd" clip-rule="evenodd" d="M15.2527 4.12478C15.5027 4.04088 15.7778 4.08197 15.9924 4.23526C16.2064 4.38815 16.3343 4.63418 16.3366 4.89712V8.29859C16.3366 8.7128 16.6724 9.04859 17.0866 9.04859C17.5008 9.04859 17.8366 8.7128 17.8366 8.29859V4.89436H17.8366L17.8366 4.88959C17.8319 4.14489 17.4703 3.44763 16.8643 3.01472C16.2588 2.58217 15.4828 2.46597 14.7772 2.70214L14.7755 2.70272L3.75798 6.34661L3.75671 6.34702C2.80921 6.65759 2.16729 7.54042 2.16407 8.53762H2.16406V8.54005V10.6243V10.6259C2.16623 11.624 2.80835 12.5081 3.75671 12.8189L3.75798 12.8194L5.97787 13.5536C5.93799 13.7541 5.91716 13.9587 5.91603 14.1645H5.91597L5.91603 14.1737C5.92749 15.8433 7.20182 17.2328 8.86422 17.3883C9.27663 17.4269 9.64223 17.1239 9.68081 16.7114C9.71939 16.299 9.41633 15.9334 9.00392 15.8949C8.11008 15.8112 7.42453 15.0653 7.41604 14.1681C7.41641 14.1224 7.4186 14.0768 7.42259 14.0314L8.31959 14.3281C8.71285 14.4581 9.13709 14.2448 9.26716 13.8515C9.39723 13.4582 9.18386 13.034 8.7906 12.9039L4.22669 11.3945L4.22438 11.3937C3.89097 11.2846 3.66512 10.9741 3.66406 10.6233V8.54145C3.66563 8.19117 3.89137 7.8812 4.22437 7.77226L4.22668 7.7715L15.2496 4.12581L15.2527 4.12478ZM16.8206 10.9907C16.6621 11.3734 16.2234 11.5552 15.8407 11.3967C14.7516 10.9458 13.4531 11.1642 12.5698 12.0475C11.3982 13.2191 11.3982 15.1186 12.5698 16.2901C13.7414 17.4617 15.6409 17.4617 16.8125 16.2901C17.3344 15.7682 17.6232 15.1038 17.6805 14.4218C17.7152 14.0091 18.0779 13.7026 18.4907 13.7372C18.9034 13.7719 19.2099 14.1346 19.1753 14.5474C19.0894 15.5693 18.6549 16.569 17.8731 17.3508C16.1158 19.1082 13.2665 19.1082 11.5092 17.3508C9.75179 15.5934 9.75179 12.7442 11.5091 10.9868C12.8362 9.65974 14.7846 9.33589 16.4146 10.0109C16.7973 10.1693 16.979 10.608 16.8206 10.9907ZM18.2193 12.7491C18.5122 12.4562 18.5122 11.9813 18.2193 11.6884C17.9264 11.3955 17.4515 11.3955 17.1586 11.6884L14.5296 14.3175L13.6377 13.4851C13.3349 13.2025 12.8603 13.2188 12.5777 13.5217C12.2951 13.8245 12.3114 14.2991 12.6142 14.5817L14.0358 15.9085C14.3312 16.1842 14.7921 16.1763 15.0779 15.8905L18.2193 12.7491Z" fill="#52CC8A"/>
</svg>
