<svg width="20" height="20" viewBox="0 0 20 20" fill="none" xmlns="http://www.w3.org/2000/svg">
<path fill-rule="evenodd" clip-rule="evenodd" d="M15.9924 4.23526C15.7778 4.08197 15.5027 4.04088 15.2527 4.12478L15.2496 4.12581L4.22668 7.7715L4.22437 7.77226C3.89137 7.8812 3.66563 8.19117 3.66406 8.54145V10.6233C3.66512 10.9741 3.89097 11.2846 4.22438 11.3937L4.22669 11.3945L8.7906 12.9039C9.18386 13.034 9.39723 13.4582 9.26716 13.8515C9.13709 14.2448 8.71285 14.4581 8.31959 14.3281L7.42259 14.0314C7.4186 14.0768 7.41641 14.1224 7.41604 14.1681C7.42453 15.0653 8.11008 15.8112 9.00392 15.8949C9.41633 15.9334 9.71939 16.299 9.68081 16.7114C9.64223 17.1239 9.27663 17.4269 8.86422 17.3883C7.20182 17.2328 5.92749 15.8433 5.91603 14.1737L5.91597 14.1645H5.91603C5.91716 13.9587 5.93799 13.7541 5.97787 13.5536L3.75798 12.8194L3.75671 12.8189C2.80835 12.5081 2.16623 11.624 2.16406 10.6259V10.6243V8.54005V8.53762H2.16407C2.16729 7.54042 2.80921 6.65759 3.75671 6.34702L3.75798 6.34661L14.7755 2.70272L14.7772 2.70214C15.4828 2.46597 16.2588 2.58217 16.8643 3.01472C17.4703 3.44763 17.8319 4.14489 17.8366 4.88959L17.8366 4.89436H17.8366V8.29859C17.8366 8.7128 17.5008 9.04859 17.0866 9.04859C16.6724 9.04859 16.3366 8.7128 16.3366 8.29859V4.89712C16.3343 4.63418 16.2064 4.38815 15.9924 4.23526ZM14.7012 11.166C16.358 11.166 17.7012 12.5092 17.7012 14.166C17.7012 15.8229 16.358 17.166 14.7012 17.166C13.0443 17.166 11.7012 15.8229 11.7012 14.166C11.7012 12.5092 13.0443 11.166 14.7012 11.166ZM19.2012 14.166C19.2012 11.6807 17.1865 9.66602 14.7012 9.66602C12.2159 9.66602 10.2012 11.6807 10.2012 14.166C10.2012 16.6513 12.2159 18.666 14.7012 18.666C17.1865 18.666 19.2012 16.6513 19.2012 14.166ZM16 14.916C16.4142 14.916 16.75 14.5802 16.75 14.166C16.75 13.7518 16.4142 13.416 16 13.416H14.7012H13.5C13.0858 13.416 12.75 13.7518 12.75 14.166C12.75 14.5802 13.0858 14.916 13.5 14.916H14.7012H16Z" fill="#FFBB37"/>
</svg>
