<svg width="20" height="20" viewBox="0 0 20 20" fill="none" xmlns="http://www.w3.org/2000/svg">
<path fill-rule="evenodd" clip-rule="evenodd" d="M7.16667 3.45833C7.16667 1.89353 8.4352 0.625 10 0.625C11.5648 0.625 12.8333 1.89352 12.8333 3.45833C12.8333 5.02312 11.5648 6.29167 10 6.29167C8.43519 6.29167 7.16667 5.02312 7.16667 3.45833ZM10 2.125C9.26362 2.125 8.66667 2.72195 8.66667 3.45833C8.66667 4.1947 9.26363 4.79167 10 4.79167C10.7364 4.79167 11.3333 4.19469 11.3333 3.45833C11.3333 2.72196 10.7364 2.125 10 2.125ZM16.1755 10.043C16.1755 8.52418 14.9442 7.29297 13.4255 7.29297L6.57487 7.29297C5.05609 7.29297 3.82487 8.52419 3.82487 10.043V10.9177H1.66699C1.25278 10.9177 0.916992 11.2534 0.916992 11.6677C0.916992 12.0819 1.25278 12.4177 1.66699 12.4177H18.3337C18.7479 12.4177 19.0837 12.0819 19.0837 11.6677C19.0837 11.2534 18.7479 10.9177 18.3337 10.9177H16.1755V10.043ZM14.6755 10.9177H5.32487L5.32487 10.043C5.32487 9.35261 5.88452 8.79297 6.57487 8.79297L13.4255 8.79297C14.1158 8.79297 14.6755 9.35261 14.6755 10.043V10.9177ZM10.7502 14.1677C10.7502 13.7534 10.4145 13.4177 10.0002 13.4177C9.58604 13.4177 9.25025 13.7534 9.25025 14.1677L9.25024 15.0843L7.50025 15.0843C7.08603 15.0843 6.75025 15.4201 6.75025 15.8343C6.75024 16.2485 7.08603 16.5843 7.50025 16.5843L9.25024 16.5843L9.25024 17.501C9.25024 17.9152 9.58603 18.251 10.0002 18.251C10.4145 18.251 10.7502 17.9152 10.7502 17.501L10.7502 16.5843H12.5002C12.9145 16.5843 13.2502 16.2485 13.2502 15.8343C13.2502 15.4201 12.9145 15.0843 12.5002 15.0843H10.7502L10.7502 14.1677Z" fill="#E6007A"/>
</svg>
