<svg width="20" height="20" viewBox="0 0 20 20" fill="none" xmlns="http://www.w3.org/2000/svg">
<path fill-rule="evenodd" clip-rule="evenodd" d="M4.5 2.58301C2.98122 2.58301 1.75 3.81422 1.75 5.33301V14.6663C1.75 16.1851 2.98122 17.4163 4.5 17.4163H15.5C17.0188 17.4163 18.25 16.1851 18.25 14.6663V5.33301C18.25 3.81422 17.0188 2.58301 15.5 2.58301H4.5ZM3.25 5.33301C3.25 4.64265 3.80964 4.08301 4.5 4.08301H15.5C16.1904 4.08301 16.75 4.64265 16.75 5.33301V14.6663C16.75 15.3567 16.1904 15.9163 15.5 15.9163H4.5C3.80964 15.9163 3.25 15.3567 3.25 14.6663V5.33301ZM8.17389 7.11225C7.88099 6.81936 7.40612 6.81935 7.11323 7.11225C6.82033 7.40514 6.82033 7.88001 7.11322 8.17291L8.93991 9.9996L7.11323 11.8263C6.82033 12.1192 6.82033 12.594 7.11322 12.8869C7.40612 13.1798 7.88099 13.1798 8.17388 12.8869L10.0006 11.0603L11.8272 12.8869C12.1201 13.1798 12.595 13.1798 12.8879 12.8869C13.1808 12.594 13.1808 12.1192 12.8879 11.8263L11.0612 9.9996L12.8879 8.17291C13.1808 7.88001 13.1808 7.40514 12.8879 7.11225C12.595 6.81935 12.1201 6.81936 11.8272 7.11225L10.0006 8.93894L8.17389 7.11225Z" fill="#EE4444"/>
</svg>
