<svg width="20" height="20" viewBox="0 0 20 20" fill="none" xmlns="http://www.w3.org/2000/svg">
<path fill-rule="evenodd" clip-rule="evenodd" d="M2.7251 4.77148C2.7251 3.2527 3.95631 2.02148 5.4751 2.02148H14.5254C16.0442 2.02148 17.2754 3.2527 17.2754 4.77148V10.8965L17.2753 10.917H18.3337C18.7479 10.917 19.0837 11.2528 19.0837 11.667C19.0837 12.0812 18.7479 12.417 18.3337 12.417H1.66699C1.25278 12.417 0.916992 12.0812 0.916992 11.667C0.916992 11.2528 1.25278 10.917 1.66699 10.917H2.72517L2.7251 10.8965V4.77148ZM4.22526 10.917H15.7752L15.7754 10.8965V4.77148C15.7754 4.08113 15.2157 3.52148 14.5254 3.52148H5.4751C4.78474 3.52148 4.2251 4.08113 4.2251 4.77148V10.8965L4.22526 10.917ZM10.0002 13.417C10.4145 13.417 10.7502 13.7528 10.7502 14.167L10.7502 15.0837H12.5002C12.9145 15.0837 13.2502 15.4195 13.2502 15.8337C13.2502 16.2479 12.9145 16.5837 12.5002 16.5837H10.7502L10.7502 17.5003C10.7502 17.9145 10.4145 18.2503 10.0002 18.2503C9.58603 18.2503 9.25024 17.9145 9.25024 17.5003L9.25024 16.5837L7.50025 16.5837C7.08603 16.5837 6.75024 16.2479 6.75025 15.8337C6.75025 15.4194 7.08603 15.0837 7.50025 15.0837L9.25024 15.0837L9.25025 14.167C9.25025 13.7528 9.58604 13.417 10.0002 13.417ZM9.99967 4.36589C8.6649 4.36589 7.5835 5.44729 7.5835 6.78207C7.5835 7.19628 7.91928 7.53207 8.3335 7.53207C8.74771 7.53207 9.0835 7.19628 9.0835 6.78207C9.0835 6.27572 9.49332 5.86589 9.99967 5.86589C10.506 5.86589 10.9159 6.27572 10.9159 6.78207C10.9159 6.94381 10.871 7.04601 10.8058 7.13392C10.7282 7.23859 10.6072 7.3412 10.4232 7.46527C9.9533 7.78109 9.24967 8.34584 9.24967 9.42046V9.62873C9.24967 10.0429 9.58546 10.3787 9.99967 10.3787C10.4139 10.3787 10.7497 10.0429 10.7497 9.62873V9.42046C10.7497 9.25147 10.7967 9.14396 10.865 9.0519C10.9458 8.94299 11.0713 8.83701 11.2602 8.71004L11.2611 8.70942C11.7202 8.4 12.4159 7.84272 12.4159 6.78207C12.4159 5.44729 11.3344 4.36589 9.99967 4.36589Z" fill="#3765DC"/>
</svg>
