<svg width="20" height="20" viewBox="0 0 20 20" fill="none" xmlns="http://www.w3.org/2000/svg">
<path fill-rule="evenodd" clip-rule="evenodd" d="M5.4751 2.02148C3.95631 2.02148 2.7251 3.2527 2.7251 4.77148V10.8965L2.72517 10.917H1.66699C1.25278 10.917 0.916992 11.2528 0.916992 11.667C0.916992 12.0812 1.25278 12.417 1.66699 12.417H18.3337C18.7479 12.417 19.0837 12.0812 19.0837 11.667C19.0837 11.2528 18.7479 10.917 18.3337 10.917H17.2753L17.2754 10.8965V4.77148C17.2754 3.2527 16.0442 2.02148 14.5254 2.02148H5.4751ZM15.7752 10.917H4.22526L4.2251 10.8965V4.77148C4.2251 4.08113 4.78474 3.52148 5.4751 3.52148H14.5254C15.2157 3.52148 15.7754 4.08113 15.7754 4.77148V10.8965L15.7752 10.917ZM10.7502 14.167C10.7502 13.7528 10.4145 13.417 10.0002 13.417C9.58604 13.417 9.25025 13.7528 9.25025 14.167L9.25024 15.0837L7.50025 15.0837C7.08603 15.0837 6.75025 15.4194 6.75025 15.8337C6.75024 16.2479 7.08603 16.5837 7.50025 16.5837L9.25024 16.5837L9.25024 17.5003C9.25024 17.9145 9.58603 18.2503 10.0002 18.2503C10.4145 18.2503 10.7502 17.9145 10.7502 17.5003L10.7502 16.5837H12.5002C12.9145 16.5837 13.2502 16.2479 13.2502 15.8337C13.2502 15.4195 12.9145 15.0837 12.5002 15.0837H10.7502L10.7502 14.167ZM5.69971 5.96289C5.69971 5.54868 6.03549 5.21289 6.44971 5.21289H13.5506C13.9649 5.21289 14.3006 5.54868 14.3006 5.96289C14.3006 6.3771 13.9649 6.71289 13.5506 6.71289H6.44971C6.03549 6.71289 5.69971 6.3771 5.69971 5.96289ZM6.44971 8.08398C6.03549 8.08398 5.69971 8.41977 5.69971 8.83398C5.69971 9.2482 6.03549 9.58398 6.44971 9.58398H10C10.4142 9.58398 10.75 9.2482 10.75 8.83398C10.75 8.41977 10.4142 8.08398 10 8.08398H6.44971Z" fill="#3765DC"/>
</svg>
