<svg width="20" height="20" viewBox="0 0 20 20" fill="none" xmlns="http://www.w3.org/2000/svg">
<path fill-rule="evenodd" clip-rule="evenodd" d="M15.2527 4.12478C15.5027 4.04088 15.7778 4.08197 15.9924 4.23525C16.2064 4.38815 16.3343 4.63418 16.3366 4.89712V14.2688C16.3343 14.5318 16.2064 14.7778 15.9924 14.9307C15.7778 15.084 15.5027 15.1251 15.2527 15.0412L15.2496 15.0402L4.22669 11.3945L4.22438 11.3937C3.89097 11.2846 3.66512 10.9741 3.66406 10.6233V8.54145C3.66563 8.19117 3.89137 7.8812 4.22437 7.77226L4.22438 7.77226L4.22668 7.7715L15.2496 4.12581L15.2527 4.12478ZM16.8643 3.01472C16.2588 2.58215 15.4827 2.46596 14.7771 2.70216L14.7755 2.70272L3.75798 6.34661L3.75671 6.34702C2.80921 6.65759 2.16729 7.54042 2.16407 8.53762H2.16406V8.54005V10.6243V10.6259C2.16623 11.624 2.80835 12.5081 3.75672 12.8189L3.75798 12.8194L5.97696 13.5533C5.93703 13.7539 5.91618 13.9586 5.91505 14.1645H5.91499L5.91506 14.1737C5.92651 15.8433 7.20085 17.2328 8.86324 17.3883C10.2388 17.517 11.51 16.7661 12.0895 15.5749L14.7755 16.4632L14.7771 16.4638C15.4827 16.7 16.2588 16.5838 16.8643 16.1512C17.4703 15.7183 17.8319 15.0211 17.8366 14.2764H17.8366V14.2716V4.89436H17.8366L17.8366 4.88959C17.8319 4.14488 17.4703 3.44763 16.8643 3.01472ZM10.6409 15.0958L7.42164 14.0311C7.41763 14.0765 7.41543 14.1223 7.41506 14.1681C7.42355 15.0653 8.1091 15.8112 9.00294 15.8949C9.67285 15.9575 10.2968 15.6329 10.6409 15.0958Z" fill="#1FABE8"/>
</svg>
