<svg width="20" height="20" viewBox="0 0 20 20" fill="none" xmlns="http://www.w3.org/2000/svg">
<path fill-rule="evenodd" clip-rule="evenodd" d="M1.75 5.33301C1.75 3.81422 2.98122 2.58301 4.5 2.58301H15.5C17.0188 2.58301 18.25 3.81422 18.25 5.33301V14.6663C18.25 16.1851 17.0188 17.4163 15.5 17.4163H4.5C2.98122 17.4163 1.75 16.1851 1.75 14.6663V5.33301ZM4.5 4.08301C3.80964 4.08301 3.25 4.64265 3.25 5.33301V14.6663C3.25 15.3567 3.80964 15.9163 4.5 15.9163H15.5C16.1904 15.9163 16.75 15.3567 16.75 14.6663V5.33301C16.75 4.64265 16.1904 4.08301 15.5 4.08301H4.5ZM5.08325 6.66699C5.08325 6.25278 5.41904 5.91699 5.83325 5.91699H14.1666C14.5808 5.91699 14.9166 6.25278 14.9166 6.66699C14.9166 7.08121 14.5808 7.41699 14.1666 7.41699H5.83325C5.41904 7.41699 5.08325 7.08121 5.08325 6.66699ZM5.83325 9.25C5.41904 9.25 5.08325 9.58579 5.08325 10C5.08325 10.4142 5.41904 10.75 5.83325 10.75H9.99992C10.4141 10.75 10.7499 10.4142 10.7499 10C10.7499 9.58579 10.4141 9.25 9.99992 9.25H5.83325Z" fill="#1FABE8"/>
</svg>
