<svg width="20" height="20" viewBox="0 0 20 20" fill="none" xmlns="http://www.w3.org/2000/svg">
<path fill-rule="evenodd" clip-rule="evenodd" d="M4.5 2.58301C2.98122 2.58301 1.75 3.81422 1.75 5.33301V14.6663C1.75 16.1851 2.98122 17.4163 4.5 17.4163H15.5C17.0188 17.4163 18.25 16.1851 18.25 14.6663V5.33301C18.25 3.81422 17.0188 2.58301 15.5 2.58301H4.5ZM3.25 5.33301C3.25 4.64265 3.80964 4.08301 4.5 4.08301H15.5C16.1904 4.08301 16.75 4.64265 16.75 5.33301V14.6663C16.75 15.3567 16.1904 15.9163 15.5 15.9163H4.5C3.80964 15.9163 3.25 15.3567 3.25 14.6663V5.33301ZM10.7499 7.08301C10.7499 6.6688 10.4141 6.33301 9.99992 6.33301C9.58571 6.33301 9.24992 6.66879 9.24992 7.08301L9.24992 9.24968L7.08325 9.24968C6.66904 9.24968 6.33325 9.58546 6.33325 9.99967C6.33325 10.4139 6.66904 10.7497 7.08325 10.7497L9.24992 10.7497V12.9163C9.24992 13.3306 9.5857 13.6663 9.99992 13.6663C10.4141 13.6663 10.7499 13.3306 10.7499 12.9163V10.7497L12.9166 10.7497C13.3308 10.7497 13.6666 10.4139 13.6666 9.99967C13.6666 9.58545 13.3308 9.24967 12.9166 9.24967L10.7499 9.24968L10.7499 7.08301Z" fill="#E6007A"/>
</svg>
