<svg width="24" height="24" viewBox="0 0 24 24" fill="none" xmlns="http://www.w3.org/2000/svg">
<path d="M12.0001 22C16.3919 22 20 18.7371 20 14.5491C20 12.1531 19.4668 10.5 17.9632 7.71395C16.8001 9.5 15.5734 10.2311 15.2001 10.5C14.1334 7 13.0667 5 10.4 2C8 8.36364 4 9.57396 4 14.5491C4 18.7371 7.60818 22 12.0001 22Z" stroke="#EE4444" stroke-width="1.5" stroke-linejoin="round"/>
<path d="M12 22C14.196 22 16 20.3686 16 18.2745C16 17.0765 15.7334 16.25 14.9816 14.857C14.4 15.75 13.7867 16.1156 13.6 16.25C13.0667 14.5 12.5334 13.5 11.2 12C10 15.1818 8 15.787 8 18.2745C8 20.3686 9.80409 22 12 22Z" stroke="#EE4444" stroke-width="1.5" stroke-linejoin="round"/>
</svg>
