<svg width="24" height="24" viewBox="0 0 24 24" fill="none" xmlns="http://www.w3.org/2000/svg">
<path d="M6 12L9.5 12M9.5 12L13 12M9.5 12L9.5 8.5M9.5 12L9.5 15.5" stroke="#F22279" stroke-width="1.5" stroke-linecap="round" stroke-linejoin="round"/>
<path d="M11 12L14.5 12M14.5 12L18 12M14.5 12L14.5 8.5M14.5 12L14.5 15.5" stroke="#F22279" stroke-width="1.5" stroke-linecap="round" stroke-linejoin="round"/>
<path d="M19 4H5C3.89543 4 3 4.89543 3 6V18C3 19.1046 3.89543 20 5 20H19C20.1046 20 21 19.1046 21 18V6C21 4.89543 20.1046 4 19 4Z" stroke="#F22279" stroke-width="1.5" stroke-linecap="round" stroke-linejoin="round"/>
</svg>
