<svg width="24" height="24" viewBox="0 0 24 24" fill="none" xmlns="http://www.w3.org/2000/svg">
<path fill-rule="evenodd" clip-rule="evenodd" d="M12 1.25C12.4142 1.25 12.75 1.58579 12.75 2V5.18934L14.4697 3.46968C14.7626 3.17678 15.2374 3.17678 15.5303 3.46968C15.8232 3.76257 15.8232 4.23744 15.5303 4.53034L12.75 7.31066V8.32502C14.2194 8.62328 15.3767 9.78065 15.675 11.25H16.6893L19.4697 8.46967C19.7626 8.17678 20.2374 8.17678 20.5303 8.46967C20.8232 8.76256 20.8232 9.23744 20.5303 9.53033L18.8107 11.25H22C22.4142 11.25 22.75 11.5858 22.75 12C22.75 12.4142 22.4142 12.75 22 12.75H18.8107L20.5303 14.4697C20.8232 14.7626 20.8232 15.2374 20.5303 15.5303C20.2374 15.8232 19.7626 15.8232 19.4697 15.5303L16.6893 12.75H15.675C15.3767 14.2193 14.2194 15.3767 12.75 15.675V16.6893L15.5303 19.4697C15.8232 19.7626 15.8232 20.2374 15.5303 20.5303C15.2374 20.8232 14.7626 20.8232 14.4697 20.5303L12.75 18.8107L12.75 22C12.75 22.4142 12.4142 22.75 12 22.75C11.5858 22.75 11.25 22.4142 11.25 22L11.25 18.8107L9.53034 20.5303C9.23744 20.8232 8.76257 20.8232 8.46968 20.5303C8.17678 20.2374 8.17678 19.7626 8.46968 19.4697L11.25 16.6893V15.675C9.78065 15.3767 8.62328 14.2193 8.32501 12.75H7.31066L4.53033 15.5303C4.23744 15.8232 3.76256 15.8232 3.46967 15.5303C3.17678 15.2374 3.17678 14.7626 3.46967 14.4697L5.18934 12.75H2C1.58579 12.75 1.25 12.4142 1.25 12C1.25 11.5858 1.58579 11.25 2 11.25H5.18934L3.46967 9.53033C3.17678 9.23744 3.17678 8.76256 3.46967 8.46967C3.76256 8.17678 4.23744 8.17678 4.53033 8.46967L7.31066 11.25H8.32501C8.62328 9.78065 9.78066 8.62327 11.25 8.32501V7.31066L8.46968 4.53033C8.17678 4.23744 8.17678 3.76256 8.46968 3.46967C8.76257 3.17678 9.23744 3.17678 9.53034 3.46967L11.25 5.18934V2C11.25 1.58579 11.5858 1.25 12 1.25ZM9.75 12C9.75 10.7574 10.7574 9.75 12 9.75C13.2426 9.75 14.25 10.7574 14.25 12C14.25 13.2426 13.2426 14.25 12 14.25C10.7574 14.25 9.75 13.2426 9.75 12Z" fill="#265DEB"/>
</svg>
