<svg width="24" height="24" viewBox="0 0 20 20" fill="none" xmlns="http://www.w3.org/2000/svg">
<path d="M18.3046 10.3516L10.1484 2.19536C10.0759 2.12275 9.9867 2.0691 9.8886 2.03912C9.7905 2.00915 9.68653 2.00378 9.58587 2.02349L3.28118 3.2813L2.02337 9.58599C2.00366 9.68665 2.00902 9.79062 2.039 9.88872C2.06897 9.98682 2.12263 10.076 2.19524 10.1485L6.01848 13.9717" stroke="#1FABE8" stroke-width="1.5" stroke-linecap="round" stroke-linejoin="round"/>
<path d="M6.5625 7.5C7.08027 7.5 7.5 7.08027 7.5 6.5625C7.5 6.04473 7.08027 5.625 6.5625 5.625C6.04473 5.625 5.625 6.04473 5.625 6.5625C5.625 7.08027 6.04473 7.5 6.5625 7.5Z" fill="#1FABE8"/>
<path d="M8.69141 16.9703V12.8997L10.8705 16.9703V12.8997M14.7117 12.8997H12.8759V14.935M12.8759 16.9703V14.935M12.8759 14.935H14.5523M16.5019 12.8997H17.6164M17.6164 12.8997H18.7097M17.6164 12.8997V16.9703" stroke="#1FABE8" stroke-width="1.25" stroke-linecap="round" stroke-linejoin="round"/>
</svg>
