<svg width="24" height="24" viewBox="0 0 20 20" fill="none" xmlns="http://www.w3.org/2000/svg">
<path fill-rule="evenodd" clip-rule="evenodd" d="M4.5 2.58301C2.98122 2.58301 1.75 3.81422 1.75 5.33301V14.6663C1.75 16.1851 2.98122 17.4163 4.5 17.4163H15.5C17.0188 17.4163 18.25 16.1851 18.25 14.6663V5.33301C18.25 3.81422 17.0188 2.58301 15.5 2.58301H4.5ZM3.25 5.33301C3.25 4.64265 3.80964 4.08301 4.5 4.08301H15.5C16.1904 4.08301 16.75 4.64265 16.75 5.33301V14.6663C16.75 15.3567 16.1904 15.9163 15.5 15.9163H4.5C3.80964 15.9163 3.25 15.3567 3.25 14.6663V5.33301ZM5.76467 7.66982C5.6294 7.41713 5.3396 7.28884 5.0616 7.35856C4.7836 7.42829 4.58866 7.67817 4.58866 7.96479V12.0354C4.58866 12.3806 4.86848 12.6604 5.21366 12.6604C5.55884 12.6604 5.83866 12.3806 5.83866 12.0354V10.4566L6.84175 12.3304C6.97702 12.5831 7.26682 12.7114 7.54482 12.6416C7.82282 12.5719 8.01777 12.322 8.01777 12.0354V7.96479C8.01777 7.61961 7.73794 7.33979 7.39277 7.33979C7.04759 7.33979 6.76777 7.61961 6.76777 7.96479V9.54362L5.76467 7.66982ZM9.39815 7.33979C9.05297 7.33979 8.77315 7.61961 8.77315 7.96479V10.0001V12.0354C8.77315 12.3806 9.05297 12.6604 9.39815 12.6604C9.74333 12.6604 10.0231 12.3806 10.0231 12.0354V10.6251H11.0745C11.4197 10.6251 11.6995 10.3453 11.6995 10.0001C11.6995 9.65493 11.4197 9.3751 11.0745 9.3751H10.0231V8.58979H11.2339C11.5791 8.58979 11.8589 8.30996 11.8589 7.96479C11.8589 7.61961 11.5791 7.33979 11.2339 7.33979H9.39815ZM13.0241 7.33979C12.679 7.33979 12.3991 7.61961 12.3991 7.96479C12.3991 8.30996 12.679 8.58979 13.0241 8.58979H13.5137V12.0354C13.5137 12.3806 13.7935 12.6604 14.1387 12.6604C14.4839 12.6604 14.7637 12.3806 14.7637 12.0354V8.58979H15.232C15.5771 8.58979 15.857 8.30996 15.857 7.96479C15.857 7.61961 15.5771 7.33979 15.232 7.33979H14.1387H13.0241Z" fill="#1FABE8"/>
</svg>
