<svg width="24" height="24" viewBox="0 0 24 24" fill="none" xmlns="http://www.w3.org/2000/svg">
<path d="M8 7.5C9.38069 7.5 10.5 6.38069 10.5 5C10.5 3.61929 9.38069 2.5 8 2.5C6.61929 2.5 5.5 3.61929 5.5 5C5.5 6.38069 6.61929 7.5 8 7.5Z" stroke="#F22279" stroke-width="1.5" stroke-linecap="round" stroke-linejoin="round"/>
<path d="M12.5 10.5H4.5C3.94772 10.5 3.5 10.9477 3.5 11.5V17C3.5 19.4853 5.51472 21.5 8 21.5V21.5C10.4853 21.5 12.5 19.4853 12.5 17V17" stroke="#F22279" stroke-width="1.5" stroke-linecap="round" stroke-linejoin="round"/>
<path d="M8 14L21 14L18 17" stroke="#F22279" stroke-width="1.5" stroke-linecap="round" stroke-linejoin="round"/>
<path d="M8 10.5L21 10.5L18 7.5" stroke="#F22279" stroke-width="1.5" stroke-linecap="round" stroke-linejoin="round"/>
</svg>
