<svg width="480" height="480" viewBox="0 0 480 480" fill="none" xmlns="http://www.w3.org/2000/svg">
<rect width="480" height="480" fill="#F8F8F8"/>
<path d="M220.643 211.364H211.46V238.807H211.076L192.241 211.364H184.144V255H193.37V227.536H193.69L212.674 255H220.643V211.364ZM228.265 255H237.491V236.974H255.24V229.368H237.491V218.97H257.157V211.364H228.265V255ZM261.701 218.97H275.06V255H284.18V218.97H297.539V211.364H261.701V218.97Z" fill="#DDDDDD"/>
<path d="M190.814 265.419V272.179C190.814 273.6 189.82 274.623 188.206 274.623C186.597 274.623 185.599 273.6 185.599 272.179V265.419H184V272.307C184 274.505 185.666 276.065 188.206 276.065C190.747 276.065 192.418 274.505 192.418 272.307V265.419H190.814Z" fill="#DDDDDD"/>
<path d="M197.726 271.228C197.726 269.975 198.502 269.259 199.578 269.259C200.628 269.259 201.265 269.939 201.265 271.08V275.891H202.811V270.896C202.811 268.953 201.73 267.935 200.106 267.935C198.91 267.935 198.129 268.482 197.762 269.316H197.664V268.037H196.179V275.891H197.726V271.228Z" fill="#DDDDDD"/>
<path d="M206.447 275.891H207.994V271.095C207.994 270.067 208.796 269.326 209.893 269.326C210.214 269.326 210.576 269.382 210.7 269.418V267.955C210.545 267.935 210.239 267.92 210.043 267.92C209.112 267.92 208.315 268.441 208.025 269.285H207.942V268.037H206.447V275.891Z" fill="#DDDDDD"/>
<path d="M216.74 276.05C218.473 276.05 219.699 275.206 220.051 273.928L218.587 273.667C218.308 274.408 217.635 274.787 216.756 274.787C215.431 274.787 214.541 273.938 214.5 272.424H220.15V271.882C220.15 269.045 218.432 267.935 216.631 267.935C214.417 267.935 212.958 269.602 212.958 272.015C212.958 274.454 214.396 276.05 216.74 276.05ZM214.505 271.279C214.567 270.164 215.385 269.198 216.642 269.198C217.842 269.198 218.628 270.077 218.634 271.279H214.505Z" fill="#DDDDDD"/>
<path d="M226.774 276.05C228.652 276.05 229.868 274.935 230.039 273.406H228.533C228.337 274.255 227.669 274.756 226.785 274.756C225.476 274.756 224.632 273.677 224.632 271.964C224.632 270.282 225.491 269.224 226.785 269.224C227.768 269.224 228.368 269.837 228.533 270.573H230.039C229.873 268.988 228.564 267.935 226.759 267.935C224.519 267.935 223.07 269.602 223.07 272C223.07 274.367 224.467 276.05 226.774 276.05Z" fill="#DDDDDD"/>
<path d="M236.602 276.05C238.842 276.05 240.306 274.429 240.306 272C240.306 269.556 238.842 267.935 236.602 267.935C234.361 267.935 232.897 269.556 232.897 272C232.897 274.429 234.361 276.05 236.602 276.05ZM236.607 274.766C235.143 274.766 234.46 273.503 234.46 271.995C234.46 270.492 235.143 269.213 236.607 269.213C238.061 269.213 238.744 270.492 238.744 271.995C238.744 273.503 238.061 274.766 236.607 274.766Z" fill="#DDDDDD"/>
<path d="M246.926 279C248.949 279 250.511 278.085 250.511 276.065V268.037H248.995V269.31H248.881C248.607 268.825 248.059 267.935 246.579 267.935C244.659 267.935 243.247 269.433 243.247 271.934C243.247 274.439 244.691 275.774 246.569 275.774C248.028 275.774 248.592 274.961 248.871 274.459H248.969V276.004C248.969 277.236 248.116 277.768 246.941 277.768C245.653 277.768 245.151 277.129 244.877 276.679L243.547 277.221C243.966 278.182 245.027 279 246.926 279ZM246.91 274.505C245.529 274.505 244.81 273.457 244.81 271.913C244.81 270.405 245.513 269.234 246.91 269.234C248.26 269.234 248.985 270.323 248.985 271.913C248.985 273.534 248.245 274.505 246.91 274.505Z" fill="#DDDDDD"/>
<path d="M255.694 271.228C255.694 269.975 256.47 269.259 257.546 269.259C258.596 269.259 259.232 269.939 259.232 271.08V275.891H260.779V270.896C260.779 268.953 259.698 267.935 258.073 267.935C256.878 267.935 256.097 268.482 255.73 269.316H255.631V268.037H254.147V275.891H255.694V271.228Z" fill="#DDDDDD"/>
<path d="M264.415 275.891H265.962V268.037H264.415V275.891ZM265.196 266.825C265.729 266.825 266.174 266.416 266.174 265.915C266.174 265.414 265.729 265 265.196 265C264.658 265 264.218 265.414 264.218 265.915C264.218 266.416 264.658 266.825 265.196 266.825Z" fill="#DDDDDD"/>
<path d="M269.438 275.891H275.818V274.562H271.534V274.49L275.673 269.152V268.037H269.578V269.367H273.743V269.438L269.438 274.843V275.891Z" fill="#DDDDDD"/>
<path d="M282.401 276.05C284.134 276.05 285.36 275.206 285.712 273.928L284.248 273.667C283.969 274.408 283.296 274.787 282.417 274.787C281.092 274.787 280.202 273.938 280.161 272.424H285.811V271.882C285.811 269.045 284.093 267.935 282.292 267.935C280.078 267.935 278.619 269.602 278.619 272.015C278.619 274.454 280.057 276.05 282.401 276.05ZM280.166 271.279C280.228 270.164 281.046 269.198 282.303 269.198C283.503 269.198 284.289 270.077 284.295 271.279H280.166Z" fill="#DDDDDD"/>
<path d="M292.063 276.045C293.511 276.045 294.081 275.17 294.36 274.669H294.489V275.891H296V265.419H294.453V269.31H294.36C294.081 268.825 293.553 267.935 292.073 267.935C290.154 267.935 288.741 269.433 288.741 271.98C288.741 274.521 290.133 276.045 292.063 276.045ZM292.404 274.741C291.023 274.741 290.304 273.539 290.304 271.964C290.304 270.405 291.007 269.234 292.404 269.234C293.755 269.234 294.479 270.323 294.479 271.964C294.479 273.616 293.739 274.741 292.404 274.741Z" fill="#DDDDDD"/>
</svg>
