<svg width="118" height="20" viewBox="0 0 118 20" fill="none" xmlns="http://www.w3.org/2000/svg">
<path d="M22.8994 10L18.3772 7.5L23.8038 4.5L31.2653 8.625V11.375L23.8038 15.5L18.3772 12.5L22.8994 10Z" fill="#1B202C" />
<path d="M12.9507 12.5L8.42857 10L12.9507 7.5L7.52415 4.5L0.0626526 8.625V11.375L7.52415 15.5L12.9507 12.5Z" fill="#1B202C" />
<path d="M15.664 15L20.1861 17.5L15.664 20L11.1418 17.5L15.664 15Z" fill="#1B202C" />
<path d="M20.1861 2.5L15.664 0L11.1418 2.5L15.664 5L20.1861 2.5Z" fill="#1B202C" />
<path d="M44.9277 14.12C44.0338 14.12 43.2276 13.936 42.5092 13.568C41.7907 13.192 41.2269 12.676 40.8175 12.02C40.4082 11.356 40.2035 10.616 40.2035 9.79998C40.2035 8.98398 40.4082 8.24798 40.8175 7.59198C41.2269 6.92798 41.7907 6.41198 42.5092 6.04398C43.2276 5.66798 44.0338 5.47998 44.9277 5.47998C45.8215 5.47998 46.6277 5.66798 47.3461 6.04398C48.0646 6.41198 48.6285 6.92398 49.0378 7.57998C49.4472 8.23598 49.6518 8.97598 49.6518 9.79998C49.6518 10.624 49.4472 11.364 49.0378 12.02C48.6285 12.676 48.0646 13.192 47.3461 13.568C46.6277 13.936 45.8215 14.12 44.9277 14.12ZM44.9277 12.752C45.5124 12.752 46.0387 12.628 46.5066 12.38C46.9744 12.124 47.342 11.772 47.6093 11.324C47.8766 10.868 48.0103 10.36 48.0103 9.79998C48.0103 9.23998 47.8766 8.73598 47.6093 8.28798C47.342 7.83198 46.9744 7.47998 46.5066 7.23198C46.0387 6.97598 45.5124 6.84798 44.9277 6.84798C44.3429 6.84798 43.8166 6.97598 43.3488 7.23198C42.8809 7.47998 42.5134 7.83198 42.246 8.28798C41.9787 8.73598 41.845 9.23998 41.845 9.79998C41.845 10.36 41.9787 10.868 42.246 11.324C42.5134 11.772 42.8809 12.124 43.3488 12.38C43.8166 12.628 44.3429 12.752 44.9277 12.752Z" fill="#1B202C" />
<path d="M54.6867 7.51998C55.3384 7.51998 55.919 7.65598 56.4286 7.92798C56.9465 8.19998 57.3517 8.58398 57.6441 9.07998C57.9364 9.57598 58.0826 10.148 58.0826 10.796C58.0826 11.444 57.9364 12.02 57.6441 12.524C57.3517 13.02 56.9465 13.404 56.4286 13.676C55.919 13.948 55.3384 14.084 54.6867 14.084C53.7845 14.084 53.0703 13.796 52.544 13.22V16.328H50.9776V7.59198H52.4688V8.43198C52.7277 8.12798 53.0452 7.89998 53.4211 7.74798C53.8054 7.59598 54.2273 7.51998 54.6867 7.51998ZM54.5113 12.8C55.0877 12.8 55.5597 12.616 55.9273 12.248C56.3032 11.88 56.4912 11.396 56.4912 10.796C56.4912 10.196 56.3032 9.71198 55.9273 9.34398C55.5597 8.97598 55.0877 8.79198 54.5113 8.79198C54.1354 8.79198 53.7971 8.87598 53.4963 9.04398C53.1956 9.20398 52.9575 9.43598 52.782 9.73998C52.6066 10.044 52.5189 10.396 52.5189 10.796C52.5189 11.196 52.6066 11.548 52.782 11.852C52.9575 12.156 53.1956 12.392 53.4963 12.56C53.7971 12.72 54.1354 12.8 54.5113 12.8Z" fill="#1B202C" />
<path d="M65.6081 10.832C65.6081 10.936 65.5997 11.084 65.583 11.276H60.3325C60.4244 11.748 60.6625 12.124 61.0468 12.404C61.4394 12.676 61.924 12.812 62.5004 12.812C63.2355 12.812 63.8412 12.58 64.3174 12.116L65.157 13.04C64.8562 13.384 64.4761 13.644 64.0166 13.82C63.5572 13.996 63.0392 14.084 62.4628 14.084C61.7277 14.084 61.0802 13.944 60.5205 13.664C59.9608 13.384 59.5264 12.996 59.2173 12.5C58.9165 11.996 58.7662 11.428 58.7662 10.796C58.7662 10.172 58.9124 9.61198 59.2048 9.11598C59.5055 8.61198 59.919 8.21998 60.4453 7.93998C60.9716 7.65998 61.5648 7.51998 62.2247 7.51998C62.8763 7.51998 63.4569 7.65998 63.9665 7.93998C64.4845 8.21198 64.8855 8.59998 65.1695 9.10398C65.4619 9.59998 65.6081 10.176 65.6081 10.832ZM62.2247 8.71998C61.7235 8.71998 61.2974 8.86398 60.9466 9.15198C60.604 9.43198 60.3952 9.80798 60.32 10.28H64.1169C64.0501 9.81598 63.8454 9.43998 63.5029 9.15198C63.1604 8.86398 62.7343 8.71998 62.2247 8.71998Z" fill="#1B202C" />
<path d="M70.6589 7.51998C71.5027 7.51998 72.1794 7.75598 72.689 8.22798C73.1986 8.69998 73.4533 9.39998 73.4533 10.328V14H71.887V10.52C71.887 9.95998 71.7491 9.53998 71.4735 9.25998C71.1978 8.97198 70.8051 8.82798 70.2955 8.82798C69.7191 8.82798 69.2638 8.99598 68.9297 9.33198C68.5955 9.65998 68.4284 10.136 68.4284 10.76V14H66.8621V7.59198H68.3532V8.41998C68.6122 8.12398 68.938 7.89998 69.3307 7.74798C69.7233 7.59598 70.1661 7.51998 70.6589 7.51998Z" fill="#1B202C" />
<path d="M78.0594 14.12C77.3827 14.12 76.7269 14.028 76.092 13.844C75.4655 13.66 74.9684 13.416 74.6008 13.112L75.1647 11.9C75.5239 12.172 75.9625 12.396 76.4805 12.572C77.0068 12.74 77.5331 12.824 78.0594 12.824C78.711 12.824 79.1955 12.724 79.513 12.524C79.8388 12.324 80.0017 12.06 80.0017 11.732C80.0017 11.492 79.9098 11.296 79.726 11.144C79.5505 10.984 79.325 10.86 79.0493 10.772C78.7736 10.684 78.3977 10.584 77.9215 10.472C77.2532 10.32 76.7102 10.168 76.2925 10.016C75.8832 9.86398 75.5281 9.62798 75.2274 9.30798C74.935 8.97998 74.7888 8.53998 74.7888 7.98798C74.7888 7.52398 74.9183 7.10398 75.1772 6.72798C75.4446 6.34398 75.8414 6.03998 76.3677 5.81598C76.9023 5.59198 77.5539 5.47998 78.3225 5.47998C78.8572 5.47998 79.3835 5.54398 79.9014 5.67198C80.4194 5.79998 80.8663 5.98398 81.2422 6.22398L80.7285 7.43598C80.3442 7.21998 79.9432 7.05598 79.5255 6.94398C79.1078 6.83198 78.7026 6.77598 78.31 6.77598C77.6667 6.77598 77.1864 6.87998 76.8689 7.08798C76.5598 7.29598 76.4053 7.57198 76.4053 7.91598C76.4053 8.15598 76.493 8.35198 76.6684 8.50398C76.8522 8.65598 77.0819 8.77598 77.3576 8.86398C77.6333 8.95198 78.0092 9.05198 78.4854 9.16398C79.137 9.30798 79.6717 9.45998 80.0894 9.61998C80.5071 9.77198 80.8621 10.008 81.1545 10.328C81.4553 10.648 81.6056 11.08 81.6056 11.624C81.6056 12.088 81.472 12.508 81.2046 12.884C80.9457 13.26 80.5488 13.56 80.0142 13.784C79.4795 14.008 78.8279 14.12 78.0594 14.12Z" fill="#1B202C" />
<path d="M89.3611 7.59198V16.328H87.7948V13.22C87.2685 13.796 86.5542 14.084 85.652 14.084C85.0003 14.084 84.4156 13.948 83.8976 13.676C83.388 13.404 82.987 13.02 82.6946 12.524C82.4106 12.028 82.2686 11.452 82.2686 10.796C82.2686 10.148 82.4148 9.57598 82.7072 9.07998C82.9996 8.58398 83.4006 8.19998 83.9101 7.92798C84.4197 7.65598 85.0003 7.51998 85.652 7.51998C86.1114 7.51998 86.5291 7.59598 86.9051 7.74798C87.2893 7.89998 87.611 8.12798 87.8699 8.43198V7.59198H89.3611ZM85.8274 12.8C86.4038 12.8 86.88 12.616 87.2559 12.248C87.6318 11.88 87.8198 11.396 87.8198 10.796C87.8198 10.196 87.6318 9.71198 87.2559 9.34398C86.88 8.97598 86.4038 8.79198 85.8274 8.79198C85.251 8.79198 84.7748 8.97598 84.3989 9.34398C84.0313 9.71198 83.8475 10.196 83.8475 10.796C83.8475 11.396 84.0313 11.88 84.3989 12.248C84.7748 12.616 85.251 12.8 85.8274 12.8Z" fill="#1B202C" />
<path d="M97.6384 7.59198V14H96.1472V13.184C95.8966 13.472 95.5833 13.696 95.2074 13.856C94.8315 14.008 94.4263 14.084 93.9919 14.084C93.098 14.084 92.3921 13.848 91.8742 13.376C91.3646 12.896 91.1098 12.188 91.1098 11.252V7.59198H92.6762V11.048C92.6762 11.624 92.8098 12.056 93.0771 12.344C93.3528 12.624 93.7413 12.764 94.2425 12.764C94.8022 12.764 95.245 12.6 95.5708 12.272C95.905 11.936 96.072 11.456 96.072 10.832V7.59198H97.6384Z" fill="#1B202C" />
<path d="M101.995 7.51998C102.981 7.51998 103.733 7.74798 104.251 8.20398C104.777 8.65198 105.04 9.33198 105.04 10.244V14H103.561V13.22C103.369 13.5 103.094 13.716 102.734 13.868C102.383 14.012 101.957 14.084 101.456 14.084C100.955 14.084 100.516 14.004 100.14 13.844C99.7645 13.676 99.4721 13.448 99.2632 13.16C99.0627 12.864 98.9625 12.532 98.9625 12.164C98.9625 11.588 99.1839 11.128 99.6266 10.784C100.078 10.432 100.784 10.256 101.744 10.256H103.474V10.16C103.474 9.71198 103.332 9.36798 103.048 9.12798C102.772 8.88798 102.358 8.76798 101.807 8.76798C101.431 8.76798 101.059 8.82398 100.692 8.93598C100.333 9.04798 100.028 9.20398 99.777 9.40398L99.163 8.31198C99.5139 8.05598 99.9357 7.85998 100.429 7.72398C100.921 7.58798 101.444 7.51998 101.995 7.51998ZM101.782 12.992C102.175 12.992 102.521 12.908 102.822 12.74C103.131 12.564 103.348 12.316 103.474 11.996V11.252H101.857C100.955 11.252 100.504 11.536 100.504 12.104C100.504 12.376 100.617 12.592 100.842 12.752C101.068 12.912 101.381 12.992 101.782 12.992Z" fill="#1B202C" />
<path d="M108.291 8.52798C108.742 7.85598 109.536 7.51998 110.672 7.51998V8.94798C110.538 8.92398 110.417 8.91198 110.308 8.91198C109.698 8.91198 109.222 9.08398 108.88 9.42798C108.537 9.76398 108.366 10.252 108.366 10.892V14H106.8V7.59198H108.291V8.52798Z" fill="#1B202C" />
<path d="M117.979 10.832C117.979 10.936 117.971 11.084 117.954 11.276H112.704C112.796 11.748 113.034 12.124 113.418 12.404C113.811 12.676 114.295 12.812 114.872 12.812C115.607 12.812 116.212 12.58 116.689 12.116L117.528 13.04C117.227 13.384 116.847 13.644 116.388 13.82C115.928 13.996 115.41 14.084 114.834 14.084C114.099 14.084 113.451 13.944 112.892 13.664C112.332 13.384 111.898 12.996 111.588 12.5C111.288 11.996 111.137 11.428 111.137 10.796C111.137 10.172 111.284 9.61198 111.576 9.11598C111.877 8.61198 112.29 8.21998 112.816 7.93998C113.343 7.65998 113.936 7.51998 114.596 7.51998C115.247 7.51998 115.828 7.65998 116.338 7.93998C116.856 8.21198 117.257 8.59998 117.541 9.10398C117.833 9.59998 117.979 10.176 117.979 10.832ZM114.596 8.71998C114.095 8.71998 113.669 8.86398 113.318 9.15198C112.975 9.43198 112.766 9.80798 112.691 10.28H116.488C116.421 9.81598 116.217 9.43998 115.874 9.15198C115.531 8.86398 115.105 8.71998 114.596 8.71998Z" fill="#1B202C" />
</svg>
