<svg width="16" height="16" viewBox="0 0 16 16" fill="none" xmlns="http://www.w3.org/2000/svg">
<path fill-rule="evenodd" clip-rule="evenodd" d="M9.5 3H10V3.5C10 3.63261 10.0527 3.75979 10.1464 3.85355C10.2402 3.94732 10.3674 4 10.5 4C10.6326 4 10.7598 3.94732 10.8536 3.85355C10.9473 3.75979 11 3.63261 11 3.5V3H11.5C11.6326 3 11.7598 2.94732 11.8536 2.85355C11.9473 2.75979 12 2.63261 12 2.5C12 2.36739 11.9473 2.24021 11.8536 2.14645C11.7598 2.05268 11.6326 2 11.5 2H11V1.5C11 1.36739 10.9473 1.24021 10.8536 1.14645C10.7598 1.05268 10.6326 1 10.5 1C10.3674 1 10.2402 1.05268 10.1464 1.14645C10.0527 1.24021 10 1.36739 10 1.5V2H9.5C9.36739 2 9.24021 2.05268 9.14645 2.14645C9.05268 2.24021 9 2.36739 9 2.5C9 2.63261 9.05268 2.75979 9.14645 2.85355C9.24021 2.94732 9.36739 3 9.5 3ZM15 5H14V4C14 3.86739 13.9473 3.74021 13.8536 3.64645C13.7598 3.55268 13.6326 3.5 13.5 3.5C13.3674 3.5 13.2402 3.55268 13.1464 3.64645C13.0527 3.74021 13 3.86739 13 4V5H12C11.8674 5 11.7402 5.05268 11.6464 5.14645C11.5527 5.24021 11.5 5.36739 11.5 5.5C11.5 5.63261 11.5527 5.75979 11.6464 5.85355C11.7402 5.94732 11.8674 6 12 6H13V7C13 7.13261 13.0527 7.25979 13.1464 7.35355C13.2402 7.44732 13.3674 7.5 13.5 7.5C13.6326 7.5 13.7598 7.44732 13.8536 7.35355C13.9473 7.25979 14 7.13261 14 7V6H15C15.1326 6 15.2598 5.94732 15.3536 5.85355C15.4473 5.75979 15.5 5.63261 15.5 5.5C15.5 5.36739 15.4473 5.24021 15.3536 5.14645C15.2598 5.05268 15.1326 5 15 5ZM13.3937 9.06225L13.5312 9.03725C13.6382 9.0365 13.7427 9.06925 13.8302 9.13089C13.9176 9.19253 13.9835 9.27999 14.0187 9.381C14.0499 9.47858 14.0499 9.58342 14.0187 9.681C13.7253 10.7324 13.1616 11.6887 12.3837 12.4546C11.6059 13.2204 10.641 13.7692 9.58513 14.0463C8.52925 14.3234 7.41923 14.3191 6.36554 14.0338C5.31185 13.7485 4.35125 13.1923 3.57936 12.4204C2.80747 11.6485 2.25121 10.6879 1.96595 9.6342C1.68069 8.58051 1.67638 7.47049 1.95345 6.41462C2.23052 5.35875 2.7793 4.39386 3.54518 3.61599C4.31105 2.83813 5.2673 2.27443 6.31874 1.981C6.42531 1.94784 6.54004 1.95225 6.64374 1.9935C6.74103 2.03263 6.82355 2.10136 6.87963 2.18997C6.93571 2.27858 6.96251 2.38257 6.95624 2.48725C6.95608 2.52551 6.94975 2.5635 6.93749 2.59975C6.68954 3.49472 6.68342 4.43944 6.91976 5.33755C7.1561 6.23566 7.62644 7.055 8.2828 7.712C8.93916 8.36899 9.75805 8.84013 10.6559 9.07733C11.5538 9.31454 12.4985 9.30934 13.3937 9.06225Z" fill="white" fill-opacity="0.55"/>
</svg>
