<svg width="20" height="20" viewBox="0 0 20 20" fill="none" xmlns="http://www.w3.org/2000/svg">
<path fill-rule="evenodd" clip-rule="evenodd" d="M11.8751 3.75H12.5001V4.375C12.5001 4.54076 12.5659 4.69973 12.6831 4.81694C12.8003 4.93415 12.9593 5 13.1251 5C13.2908 5 13.4498 4.93415 13.567 4.81694C13.6842 4.69973 13.7501 4.54076 13.7501 4.375V3.75H14.3751C14.5408 3.75 14.6998 3.68415 14.817 3.56694C14.9342 3.44973 15.0001 3.29076 15.0001 3.125C15.0001 2.95924 14.9342 2.80027 14.817 2.68306C14.6998 2.56585 14.5408 2.5 14.3751 2.5H13.7501V1.875C13.7501 1.70924 13.6842 1.55027 13.567 1.43306C13.4498 1.31585 13.2908 1.25 13.1251 1.25C12.9593 1.25 12.8003 1.31585 12.6831 1.43306C12.5659 1.55027 12.5001 1.70924 12.5001 1.875V2.5H11.8751C11.7093 2.5 11.5503 2.56585 11.4331 2.68306C11.3159 2.80027 11.2501 2.95924 11.2501 3.125C11.2501 3.29076 11.3159 3.44973 11.4331 3.56694C11.5503 3.68415 11.7093 3.75 11.8751 3.75ZM18.7501 6.25H17.5001V5C17.5001 4.83424 17.4342 4.67527 17.317 4.55806C17.1998 4.44085 17.0408 4.375 16.8751 4.375C16.7093 4.375 16.5503 4.44085 16.4331 4.55806C16.3159 4.67527 16.2501 4.83424 16.2501 5V6.25H15.0001C14.8343 6.25 14.6753 6.31585 14.5581 6.43306C14.4409 6.55027 14.3751 6.70924 14.3751 6.875C14.3751 7.04076 14.4409 7.19973 14.5581 7.31694C14.6753 7.43415 14.8343 7.5 15.0001 7.5H16.2501V8.75C16.2501 8.91576 16.3159 9.07473 16.4331 9.19194C16.5503 9.30915 16.7093 9.375 16.8751 9.375C17.0408 9.375 17.1998 9.30915 17.317 9.19194C17.4342 9.07473 17.5001 8.91576 17.5001 8.75V7.5H18.7501C18.9158 7.5 19.0748 7.43415 19.192 7.31694C19.3092 7.19973 19.3751 7.04076 19.3751 6.875C19.3751 6.70924 19.3092 6.55027 19.192 6.43306C19.0748 6.31585 18.9158 6.25 18.7501 6.25ZM16.7422 11.3278L16.9141 11.2966C17.0478 11.2956 17.1785 11.3366 17.2878 11.4136C17.397 11.4907 17.4795 11.6 17.5235 11.7262C17.5624 11.8482 17.5624 11.9793 17.5235 12.1012C17.1567 13.4155 16.4521 14.6109 15.4797 15.5682C14.5074 16.5255 13.3013 17.2115 11.9815 17.5579C10.6616 17.9042 9.2741 17.8988 7.95699 17.5422C6.63988 17.1857 5.43913 16.4903 4.47426 15.5255C3.5094 14.5606 2.81407 13.3599 2.4575 12.0428C2.10092 10.7256 2.09554 9.33811 2.44187 8.01827C2.78821 6.69843 3.47419 5.49232 4.43153 4.51999C5.38888 3.54767 6.58419 2.84304 7.89849 2.47625C8.0317 2.4348 8.17511 2.44031 8.30474 2.49187C8.42635 2.54079 8.5295 2.62671 8.5996 2.73746C8.6697 2.84822 8.7032 2.97822 8.69537 3.10906C8.69516 3.15689 8.68724 3.20437 8.67193 3.24968C8.36198 4.3684 8.35433 5.5493 8.64976 6.67194C8.94518 7.79457 9.53311 8.81875 10.3536 9.64C11.174 10.4612 12.1976 11.0502 13.32 11.3467C14.4423 11.6432 15.6232 11.6367 16.7422 11.3278Z" fill="#1B202C" fill-opacity="0.3"/>
</svg>
