<svg width="20" height="20" viewBox="0 0 20 20" fill="none" xmlns="http://www.w3.org/2000/svg">
<g clip-path="url(#clip0_5825_3868)">
<path fill-rule="evenodd" clip-rule="evenodd" d="M10 3.4375C10.1658 3.4375 10.3247 3.37165 10.4419 3.25444C10.5592 3.13723 10.625 2.97826 10.625 2.8125V1.25C10.625 1.08424 10.5592 0.925268 10.4419 0.808058C10.3247 0.690848 10.1658 0.625 10 0.625C9.83424 0.625 9.67527 0.690848 9.55806 0.808058C9.44085 0.925268 9.375 1.08424 9.375 1.25V2.8125C9.375 2.97826 9.44085 3.13723 9.55806 3.25444C9.67527 3.37165 9.83424 3.4375 10 3.4375ZM10 15.3125C12.934 15.3125 15.3125 12.934 15.3125 10C15.3125 7.06599 12.934 4.6875 10 4.6875C7.06599 4.6875 4.6875 7.06599 4.6875 10C4.6875 12.934 7.06599 15.3125 10 15.3125ZM4.91796 5.53889C4.75308 5.53889 4.5947 5.47453 4.47656 5.35952L3.36718 4.25796C3.2989 4.20192 3.24311 4.13221 3.2034 4.05331C3.16368 3.97441 3.14093 3.88807 3.1366 3.79984C3.13226 3.71162 3.14645 3.62346 3.17824 3.54105C3.21003 3.45864 3.25872 3.38379 3.32118 3.32133C3.38364 3.25887 3.45848 3.21018 3.5409 3.17839C3.62331 3.1466 3.71146 3.13242 3.79969 3.13675C3.88791 3.14108 3.97425 3.16384 4.05315 3.20355C4.13206 3.24326 4.20177 3.29905 4.25781 3.36733L5.35937 4.47671C5.47625 4.59388 5.54189 4.75262 5.54189 4.91812C5.54189 5.08361 5.47625 5.24235 5.35937 5.35952C5.24122 5.47453 5.08285 5.53889 4.91796 5.53889ZM3.4375 10C3.4375 9.83424 3.37165 9.67527 3.25444 9.55806C3.13723 9.44085 2.97826 9.375 2.8125 9.375H1.25C1.08424 9.375 0.925268 9.44085 0.808058 9.55806C0.690848 9.67527 0.625 9.83424 0.625 10C0.625 10.1658 0.690848 10.3247 0.808058 10.4419C0.925268 10.5592 1.08424 10.625 1.25 10.625H2.8125C2.97826 10.625 3.13723 10.5592 3.25444 10.4419C3.37165 10.3247 3.4375 10.1658 3.4375 10ZM3.36725 15.7422L4.47663 14.6406C4.59552 14.5329 4.75128 14.475 4.91167 14.4789C5.07206 14.4829 5.22478 14.5484 5.33823 14.6618C5.45167 14.7753 5.51715 14.928 5.5211 15.0884C5.52505 15.2488 5.46717 15.4045 5.35944 15.5234L4.25788 16.6328C4.13791 16.7475 3.97853 16.8118 3.81257 16.8125C3.64691 16.8102 3.48808 16.7461 3.36725 16.6328C3.24989 16.5143 3.18405 16.3543 3.18405 16.1875C3.18405 16.0207 3.24989 15.8607 3.36725 15.7422ZM10 16.5625C9.83424 16.5625 9.67527 16.6283 9.55806 16.7456C9.44085 16.8628 9.375 17.0217 9.375 17.1875V18.75C9.375 18.9158 9.44085 19.0747 9.55806 19.1919C9.67527 19.3092 9.83424 19.375 10 19.375C10.1658 19.375 10.3247 19.3092 10.4419 19.1919C10.5592 19.0747 10.625 18.9158 10.625 18.75V17.1875C10.625 17.0217 10.5592 16.8628 10.4419 16.7456C10.3247 16.6283 10.1658 16.5625 10 16.5625ZM15.0884 14.4789C15.2488 14.475 15.4045 14.5329 15.5234 14.6406L16.6328 15.7422C16.7502 15.8607 16.816 16.0207 16.816 16.1875C16.816 16.3543 16.7502 16.5143 16.6328 16.6328C16.512 16.7461 16.3531 16.8102 16.1875 16.8125C16.0215 16.8118 15.8621 16.7475 15.7422 16.6328L14.6406 15.5234C14.5329 15.4045 14.475 15.2488 14.4789 15.0884C14.4829 14.928 14.5484 14.7753 14.6618 14.6618C14.7753 14.5484 14.928 14.4829 15.0884 14.4789ZM18.75 9.375H17.1875C17.0217 9.375 16.8628 9.44085 16.7456 9.55806C16.6283 9.67527 16.5625 9.83424 16.5625 10C16.5625 10.1658 16.6283 10.3247 16.7456 10.4419C16.8628 10.5592 17.0217 10.625 17.1875 10.625H18.75C18.9158 10.625 19.0747 10.5592 19.1919 10.4419C19.3092 10.3247 19.375 10.1658 19.375 10C19.375 9.83424 19.3092 9.67527 19.1919 9.55806C19.0747 9.44085 18.9158 9.375 18.75 9.375ZM15.3229 5.49374C15.2478 5.5246 15.1672 5.54012 15.086 5.53941C15.0035 5.54118 14.9214 5.52616 14.8449 5.49527C14.7683 5.46439 14.6989 5.41827 14.6407 5.35972C14.5238 5.24255 14.4582 5.08381 14.4582 4.91831C14.4582 4.75281 14.5238 4.59407 14.6407 4.47691L15.7422 3.36753C15.8637 3.26787 16.0178 3.21693 16.1748 3.22464C16.3317 3.23235 16.4801 3.29814 16.5912 3.40922C16.7023 3.52031 16.7681 3.66874 16.7758 3.82565C16.7835 3.98256 16.7325 4.13672 16.6329 4.25816L15.5235 5.35972C15.4662 5.41731 15.398 5.46288 15.3229 5.49374Z" fill="white" fill-opacity="0.25"/>
</g>
<defs>
<clipPath id="clip0_5825_3868">
<rect width="20" height="20" fill="white"/>
</clipPath>
</defs>
</svg>
