<svg width="16" height="16" viewBox="0 0 16 16" fill="none" xmlns="http://www.w3.org/2000/svg">
<g clip-path="url(#clip0_5798_7963)">
<path fill-rule="evenodd" clip-rule="evenodd" d="M8 2.75C8.13261 2.75 8.25979 2.69732 8.35355 2.60355C8.44732 2.50979 8.5 2.38261 8.5 2.25V1C8.5 0.867392 8.44732 0.740215 8.35355 0.646447C8.25979 0.552678 8.13261 0.5 8 0.5C7.86739 0.5 7.74021 0.552678 7.64645 0.646447C7.55268 0.740215 7.5 0.867392 7.5 1V2.25C7.5 2.38261 7.55268 2.50979 7.64645 2.60355C7.74021 2.69732 7.86739 2.75 8 2.75ZM8 12.25C10.3472 12.25 12.25 10.3472 12.25 8C12.25 5.65279 10.3472 3.75 8 3.75C5.65279 3.75 3.75 5.65279 3.75 8C3.75 10.3472 5.65279 12.25 8 12.25ZM3.93437 4.43111C3.80246 4.43111 3.67576 4.37963 3.58124 4.28762L2.69374 3.40637C2.63912 3.36154 2.59449 3.30577 2.56272 3.24265C2.53095 3.17953 2.51274 3.11045 2.50928 3.03987C2.50581 2.96929 2.51716 2.89877 2.54259 2.83284C2.56802 2.76691 2.60698 2.70703 2.65694 2.65707C2.70691 2.6071 2.76679 2.56815 2.83272 2.54271C2.89865 2.51728 2.96917 2.50593 3.03975 2.5094C3.11033 2.51287 3.1794 2.53107 3.24252 2.56284C3.30564 2.59461 3.36141 2.63924 3.40624 2.69387L4.28749 3.58137C4.381 3.6751 4.43351 3.80209 4.43351 3.93449C4.43351 4.06689 4.381 4.19388 4.28749 4.28762C4.19298 4.37963 4.06628 4.43111 3.93437 4.43111ZM2.75 8C2.75 7.86739 2.69732 7.74021 2.60355 7.64645C2.50979 7.55268 2.38261 7.5 2.25 7.5H1C0.867392 7.5 0.740215 7.55268 0.646447 7.64645C0.552678 7.74021 0.5 7.86739 0.5 8C0.5 8.13261 0.552678 8.25979 0.646447 8.35355C0.740215 8.44732 0.867392 8.5 1 8.5H2.25C2.38261 8.5 2.50979 8.44732 2.60355 8.35355C2.69732 8.25979 2.75 8.13261 2.75 8ZM2.6938 12.5937L3.5813 11.7125C3.67642 11.6263 3.80103 11.58 3.92934 11.5832C4.05765 11.5863 4.17983 11.6387 4.27058 11.7295C4.36134 11.8202 4.41372 11.9424 4.41688 12.0707C4.42004 12.199 4.37373 12.3236 4.28755 12.4187L3.4063 13.3062C3.31033 13.398 3.18282 13.4494 3.05005 13.45C2.91753 13.4482 2.79046 13.3969 2.6938 13.3062C2.59991 13.2114 2.54724 13.0834 2.54724 12.95C2.54724 12.8166 2.59991 12.6885 2.6938 12.5937ZM8 13.25C7.86739 13.25 7.74021 13.3027 7.64645 13.3964C7.55268 13.4902 7.5 13.6174 7.5 13.75V15C7.5 15.1326 7.55268 15.2598 7.64645 15.3536C7.74021 15.4473 7.86739 15.5 8 15.5C8.13261 15.5 8.25979 15.4473 8.35355 15.3536C8.44732 15.2598 8.5 15.1326 8.5 15V13.75C8.5 13.6174 8.44732 13.4902 8.35355 13.3964C8.25979 13.3027 8.13261 13.25 8 13.25ZM12.0707 11.5832C12.199 11.58 12.3236 11.6263 12.4187 11.7125L13.3062 12.5937C13.4001 12.6885 13.4528 12.8166 13.4528 12.95C13.4528 13.0834 13.4001 13.2114 13.3062 13.3062C13.2096 13.3969 13.0825 13.4482 12.95 13.45C12.8172 13.4494 12.6897 13.398 12.5937 13.3062L11.7125 12.4187C11.6263 12.3236 11.58 12.199 11.5832 12.0707C11.5863 11.9424 11.6387 11.8202 11.7295 11.7295C11.8202 11.6387 11.9424 11.5863 12.0707 11.5832ZM15 7.5H13.75C13.6174 7.5 13.4902 7.55268 13.3964 7.64645C13.3027 7.74021 13.25 7.86739 13.25 8C13.25 8.13261 13.3027 8.25979 13.3964 8.35355C13.4902 8.44732 13.6174 8.5 13.75 8.5H15C15.1326 8.5 15.2598 8.44732 15.3536 8.35355C15.4473 8.25979 15.5 8.13261 15.5 8C15.5 7.86739 15.4473 7.74021 15.3536 7.64645C15.2598 7.55268 15.1326 7.5 15 7.5ZM12.2583 4.39499C12.1982 4.41968 12.1338 4.4321 12.0688 4.43152C12.0028 4.43294 11.9372 4.42093 11.8759 4.39622C11.8147 4.37151 11.7591 4.33461 11.7125 4.28777C11.619 4.19404 11.5665 4.06705 11.5665 3.93465C11.5665 3.80225 11.619 3.67526 11.7125 3.58152L12.5938 2.69402C12.6909 2.61429 12.8143 2.57355 12.9398 2.57971C13.0653 2.58588 13.1841 2.63851 13.2729 2.72738C13.3618 2.81625 13.4144 2.93499 13.4206 3.06052C13.4268 3.18604 13.386 3.30938 13.3063 3.40652L12.4188 4.28777C12.373 4.33385 12.3184 4.3703 12.2583 4.39499Z" fill="#1B202C" fill-opacity="0.6"/>
</g>
<defs>
<clipPath id="clip0_5798_7963">
<rect width="16" height="16" fill="white"/>
</clipPath>
</defs>
</svg>
