<svg xmlns="http://www.w3.org/2000/svg" width="24" height="24" viewBox="0 0 24 24" fill="none">
    <path fill-rule="evenodd" clip-rule="evenodd" d="M20.8513 7.47974C20.8592 7.67764 20.8618 7.87546 20.8618 8.07336C20.8618 14.0734 16.5286 21 8.60452 21C6.1704 21 3.90702 20.2444 2 18.958C2.3371 18.994 2.67946 19.021 3.02706 19.021C5.04528 19.021 6.90415 18.2923 8.37863 17.0689C6.4935 17.0419 4.90169 15.7195 4.3527 13.9204C4.61625 13.9744 4.88767 14.0015 5.16523 14.0015C5.55661 14.0015 5.93661 13.9476 6.30085 13.8396C4.32816 13.4258 2.84232 11.5908 2.84232 9.38689C2.84232 9.35991 2.84232 9.35086 2.84232 9.33287C3.4237 9.6657 4.08914 9.87249 4.79573 9.89948C3.63821 9.08089 2.87732 7.68662 2.87732 6.11241C2.87732 5.28482 3.08921 4.50218 3.46221 3.82752C5.58637 6.58014 8.76214 8.38826 12.3424 8.57717C12.2689 8.24433 12.2312 7.8936 12.2312 7.54277C12.2312 5.03303 14.1601 3 16.5399 3C17.7789 3 18.8979 3.5488 19.6833 4.43036C20.6665 4.23246 21.5877 3.85468 22.4212 3.33294C22.0981 4.39441 21.416 5.28478 20.5247 5.8425C21.3968 5.73455 22.2286 5.49186 23 5.13204C22.4212 6.04058 21.6927 6.84106 20.8513 7.47974Z" fill="#111111" fill-opacity="0.2"/>
</svg>
