<svg width="109" height="20" viewBox="0 0 109 20" fill="none" xmlns="http://www.w3.org/2000/svg">
<path d="M27.8105 1.9014H38.3651V5.34259H31.941V8.8283H37.5786V12.2695H31.941V18.2549H27.8129V1.89917L27.8105 1.9014Z" fill="#3798D4"/>
<path d="M40.543 1.90125H44.6711V18.2569H40.543V1.90125Z" fill="#3798D4"/>
<path d="M51.4435 8.50095V18.2569H47.3154V1.90125H51.281L58.7955 11.6795V1.90125H62.9236V18.2569H58.9815L51.4435 8.50095Z" fill="#3798D4"/>
<path d="M67.979 5.40922H64.6846V1.90125H75.4016V5.40922H72.1072V18.2569H67.979V5.40922Z" fill="#3798D4"/>
<path d="M81.3373 12.995H81.2902V18.2569H77.1621V1.90125H81.9873C85.861 1.90125 89.5488 3.10767 89.5488 7.44811C89.5488 9.85873 87.8556 11.4614 85.6986 12.2938L90.2435 18.2569H85.3029L81.3373 12.995ZM81.2926 5.3647V9.92551H82.3593C84.1914 9.92551 85.4678 9.04851 85.4678 7.51266C85.4678 6.08811 84.3775 5.3647 82.3122 5.3647H81.2926Z" fill="#3798D4"/>
<path d="M103.234 15.8241H96.3219L95.3941 18.2569H91.1035L97.8079 1.90125H101.891L108.596 18.2569H104.166L103.238 15.8241H103.234ZM102.073 12.7546L99.8001 6.76922L97.5041 12.7546H102.073Z" fill="#3798D4"/>
<path d="M13.7347 6.17299C12.5902 5.09121 10.7275 5.09121 9.58304 6.17299L8.22192 7.45954L6.19908 5.54751L8.90484 2.98999L7.49897 1.64111L3.37793 5.53639L4.07968 6.2086L4.07262 6.21528L6.80664 8.79951L6.60647 8.98871C5.462 10.0705 5.462 11.8311 6.60647 12.9129C7.17871 13.4538 7.92991 13.7254 8.68112 13.7254C9.43233 13.7254 10.1835 13.4538 10.7558 12.9129L13.7347 10.0972C14.8792 9.01542 14.8792 7.25476 13.7347 6.17299ZM12.3194 8.75722L10.9583 10.0438L10.6969 9.7967C10.306 9.42721 9.67253 9.42721 9.27926 9.7967C8.88835 10.1662 8.88835 10.765 9.27926 11.1367L9.54065 11.3837L9.34049 11.5729C8.97784 11.9157 8.38676 11.9157 8.02175 11.5729C7.6591 11.2302 7.6591 10.6715 8.02175 10.3265L11.0007 7.51073C11.182 7.33934 11.4222 7.25253 11.66 7.25253C11.8979 7.25253 12.1381 7.33934 12.3194 7.51073C12.6821 7.85352 12.6821 8.41443 12.3194 8.75722Z" fill="#3798D4"/>
<path d="M13.0586 12.0966L11.6416 13.436L14.0144 15.6789L15.4315 14.3395L13.0586 12.0966Z" fill="#3798D4"/>
<path d="M20.2096 7.82449L12.8836 0.899808C11.6143 -0.299936 9.54904 -0.299936 8.27976 0.899808L8.22795 0.948777L9.63382 2.29765L9.69504 2.23978C9.93995 2.00829 10.2602 1.89477 10.5805 1.89477C10.9007 1.89477 11.221 2.01052 11.4659 2.23978L18.7919 9.16446C19.0274 9.38705 19.1593 9.68532 19.1593 10.0014C19.1593 10.3175 19.0298 10.6135 18.7919 10.8383L11.4659 17.763C11.2304 17.9856 10.9149 18.1102 10.5805 18.1102C10.2461 18.1102 9.93289 17.9878 9.69504 17.763L2.36901 10.8383C2.13352 10.6157 2.00165 10.3175 2.00165 10.0014C2.00165 9.68532 2.13117 9.38927 2.36901 9.16446L4.04569 7.57964L2.63982 6.23077L0.953727 7.82449C0.339104 8.40544 0 9.17782 0 9.99916C0 10.8205 0.339104 11.5929 0.953727 12.1738L8.27976 19.0985C8.89439 19.6795 9.71153 20 10.5805 20C11.4494 20 12.2666 19.6795 12.8812 19.0985L20.2072 12.1738C20.8219 11.5929 21.161 10.8205 21.161 9.99916C21.161 9.17782 20.8219 8.40544 20.2072 7.82449H20.2096Z" fill="#3798D4"/>
</svg>
