<svg width="107" height="20" viewBox="0 0 107 20" fill="none" xmlns="http://www.w3.org/2000/svg">
<path d="M22.7549 0.962495C22.6233 0.398596 22.1274 -3.54801e-07 21.5548 -3.54801e-07H1.82767C1.14682 -3.54801e-07 0.594727 0.559722 0.594727 1.25002V18.7501C0.594727 19.1834 0.816664 19.5862 1.17968 19.8139C1.37832 19.9375 1.60301 20 1.82767 20C2.01671 20 2.20441 19.9571 2.37976 19.868L17.1751 12.3681C17.6861 12.1084 17.9546 11.5264 17.8231 10.9625C17.6916 10.3986 17.1956 10 16.623 10H7.04988L22.1054 2.36807C22.6165 2.10832 22.885 1.52639 22.7534 0.962495H22.7549Z" fill="#242527"/>
<path d="M27.7197 5.27081e-05H35.9462V1.76392H29.7857V5.45703H35.9462V7.2209H29.7857V12.4932H27.7197V5.27081e-05Z" fill="#242527"/>
<path d="M36.9062 3.56391H38.7542V5.10702C39.1529 4.05982 39.9681 3.49035 41.219 3.43473V5.41952C39.6421 5.36398 38.8996 6.17231 38.8996 7.90005V12.4932H36.9062V3.56391Z" fill="#242527"/>
<path d="M48.5122 6.8347C48.186 5.67783 47.2792 4.96116 46.0655 4.96116C44.8517 4.96116 43.8913 5.69585 43.4926 6.8347H48.5122ZM41.4639 8.02918C41.4639 5.36532 43.3845 3.43615 46.012 3.43615C48.893 3.43615 50.415 5.53054 50.415 8.12084H43.294C43.3297 9.82917 44.4543 11.0236 46.1572 11.0236C47.245 11.0236 48.1148 10.4542 48.4765 9.55418H50.289C49.745 11.3542 48.3684 12.6222 46.049 12.6222C43.3488 12.6222 41.4639 10.7487 41.4639 8.02918Z" fill="#242527"/>
<path d="M55.5992 10.9125C57.1582 10.9125 58.2815 9.70002 58.2815 8.00979C58.2815 6.31949 57.1582 5.14311 55.5992 5.14311C54.0402 5.14311 52.9717 6.31949 52.9717 8.00979C52.9717 9.70002 54.0223 10.9125 55.5992 10.9125ZM55.147 12.6209C52.7374 12.6209 51.0332 10.7292 51.0332 8.02781C51.0332 5.32644 52.7552 3.4347 55.147 3.4347C56.6335 3.4347 57.7568 4.13335 58.4267 5.30833V3.56257H60.2747V15.7987H58.2815V10.9486C57.6294 11.9959 56.5417 12.6209 55.147 12.6209Z" fill="#242527"/>
<path d="M61.7432 9.09445V3.56382H63.7363V8.98329C63.7363 10.1778 64.3707 10.875 65.4407 10.875C66.5105 10.875 67.1435 10.1764 67.1435 8.98329V3.56382H69.1188V9.09305C69.1188 11.2236 67.6695 12.6208 65.4407 12.6208C63.2116 12.6208 61.7432 11.225 61.7432 9.09305V9.09445Z" fill="#242527"/>
<path d="M77.1539 6.8347C76.8279 5.67783 75.921 4.96116 74.7072 4.96116C73.4934 4.96116 72.5332 5.69585 72.1345 6.8347H77.1539ZM70.1055 8.02918C70.1055 5.36532 72.0262 3.43615 74.6537 3.43615C77.5347 3.43615 79.0567 5.53054 79.0567 8.12084H71.9358C71.9713 9.82917 73.0962 11.0236 74.799 11.0236C75.8867 11.0236 76.7567 10.4542 77.1183 9.55418H78.9307C78.3869 11.3542 77.01 12.6222 74.6907 12.6222C71.9906 12.6222 70.1055 10.7487 70.1055 8.02918Z" fill="#242527"/>
<path d="M80.1084 3.56385H81.9564V4.88612C82.5002 3.94861 83.3878 3.43467 84.5289 3.43467C86.3048 3.43467 87.4647 4.77635 87.4647 6.85141V12.4917H85.4718V7.21945C85.4718 5.93339 84.9827 5.12498 83.9318 5.12498C82.7718 5.12498 82.1015 6.02497 82.1015 7.31111V12.4917H80.1084V3.56385Z" fill="#242527"/>
<path d="M88.4424 8.02918C88.4424 5.3292 90.3805 3.43615 93.1172 3.43615C95.5821 3.43615 97.2318 4.92364 97.5398 7.16531H95.6017C95.3838 5.97083 94.441 5.182 93.1189 5.182C91.5068 5.182 90.3641 6.35837 90.3641 8.01116C90.3641 9.66387 91.5052 10.8778 93.1189 10.8778C94.4778 10.8778 95.3846 10.125 95.6017 8.87503H97.5398C97.2687 11.1708 95.5649 12.6222 93.1172 12.6222C90.3821 12.6222 88.4424 10.7306 88.4424 8.02918Z" fill="#242527"/>
<path d="M100.698 9.84732L97.2182 3.56391H99.339L101.766 8.00982L104.394 3.56391H106.478L99.2841 15.8H97.2002L100.698 9.84732Z" fill="#242527"/>
</svg>
