<svg width="125" height="20" viewBox="0 0 125 20" fill="none" xmlns="http://www.w3.org/2000/svg">
<path d="M13.286 7.9835C12.7678 5.3017 10.6122 3.58948 6.88136 3.58948C3.04687 3.58948 0.435267 5.46674 0.44563 8.39608C0.435267 10.7066 1.86543 12.2331 4.92266 12.8623L7.6379 13.4296C9.09915 13.7494 9.78314 14.3373 9.78314 15.2347C9.78314 16.3177 8.6017 17.1325 6.81918 17.1325C5.09884 17.1325 3.97958 16.3899 3.65831 14.9665L0 15.3172C0.466357 18.2259 2.92251 19.9484 6.82954 19.9484C10.8091 19.9484 13.6176 17.8958 13.628 14.8943C13.6176 12.6354 12.1564 11.2532 9.15097 10.6034L6.43573 10.0258C4.81903 9.66477 4.17649 9.10779 4.18685 8.18979C4.17649 7.11707 5.36829 6.37442 6.93318 6.37442C8.66388 6.37442 9.57587 7.31305 9.86605 8.35482L13.286 7.9835Z" fill="black"/>
<path d="M23.6975 3.79577H20.5574V0H16.8058V3.79577H14.5465V6.68386H16.8058V15.4925C16.7851 18.4734 18.9614 19.9381 21.7803 19.8556C22.8477 19.8247 23.5835 19.6184 23.9877 19.4843L23.3555 16.5652C23.1482 16.6168 22.7233 16.7096 22.257 16.7096C21.3139 16.7096 20.5574 16.3796 20.5574 14.8736V6.68386H23.6975V3.79577Z" fill="black"/>
<path d="M30.4429 19.9587C32.9405 19.9587 34.4329 18.7932 35.1169 17.4626H35.2412V19.639H38.8477V9.03559C38.8477 4.84786 35.4174 3.58948 32.3809 3.58948C29.0335 3.58948 26.4634 5.07478 25.6343 7.96287L29.1371 8.45797C29.5102 7.37494 30.5673 6.44662 32.4016 6.44662C34.1427 6.44662 35.0961 7.33368 35.0961 8.89118V8.95307C35.0961 10.0258 33.9665 10.0774 31.158 10.3765C28.0697 10.7066 25.1161 11.6245 25.1161 15.1934C25.1161 18.3084 27.4064 19.9587 30.4429 19.9587ZM31.4171 17.2151C29.8522 17.2151 28.733 16.5034 28.733 15.1315C28.733 13.6978 29.9869 13.0995 31.6658 12.8623C32.6504 12.7282 34.6194 12.4807 35.1065 12.0887V13.9556C35.1065 15.7194 33.6763 17.2151 31.4171 17.2151Z" fill="black"/>
<path d="M49.5961 3.79577H46.4559V0H42.7043V3.79577H40.4451V6.68386H42.7043V15.4925C42.6836 18.4734 44.8599 19.9381 47.6788 19.8556C48.7463 19.8247 49.4821 19.6184 49.8862 19.4843L49.2541 16.5652C49.0468 16.6168 48.6219 16.7096 48.1555 16.7096C47.2125 16.7096 46.4559 16.3796 46.4559 14.8736V6.68386H49.5961V3.79577Z" fill="black"/>
<path d="M58.637 19.9484C62.3471 19.9484 64.8966 18.1434 65.5598 15.3894L62.057 14.9974C61.5491 16.3383 60.3055 17.0397 58.6888 17.0397C56.2638 17.0397 54.6574 15.4513 54.6263 12.7385H65.7153V11.5936C65.7153 6.03404 62.3575 3.58948 58.4401 3.58948C53.8802 3.58948 50.9058 6.92109 50.9058 11.8102C50.9058 16.7818 53.8387 19.9484 58.637 19.9484ZM54.6367 10.2218C54.7507 8.2001 56.2534 6.4982 58.4919 6.4982C60.6475 6.4982 62.0984 8.06601 62.1191 10.2218H54.6367Z" fill="black"/>
<path d="M79.1192 7.27179C78.342 4.98195 76.6424 3.57916 73.7302 3.57916C70.5175 3.57916 68.1858 5.40485 68.1858 8.01444C68.1858 10.1392 69.4812 11.5833 72.2482 12.2434L74.8495 12.8623C76.6009 13.2749 77.4404 14.1723 77.4404 15.4409C77.4404 17.0913 75.8547 18.3187 73.409 18.3187C71.2326 18.3187 69.875 17.3388 69.4294 15.4616L67.6572 15.8948C68.2169 18.5353 70.3206 19.9691 73.44 19.9691C76.9429 19.9691 79.3472 18.0505 79.3472 15.3584C79.3472 13.2439 78.0103 11.8308 75.3469 11.181L72.9426 10.5931C70.9632 10.098 70.0408 9.30377 70.0408 7.93192C70.0408 6.32285 71.585 5.19856 73.7302 5.19856C75.8755 5.19856 76.9325 6.32285 77.43 7.74626L79.1192 7.27179Z" fill="black"/>
<path d="M88.6317 19.9691C91.948 19.9691 94.2798 17.8855 94.7047 15.0181H92.8393C92.4144 17.0397 90.7459 18.2878 88.6317 18.2878C85.5123 18.2878 83.45 15.5854 83.45 11.7277C83.45 7.89066 85.5745 5.25013 88.6317 5.25013C90.9013 5.25013 92.4351 6.70449 92.8289 8.49923H94.6944C94.2591 5.55957 91.7926 3.57916 88.6006 3.57916C84.4345 3.57916 81.5949 7.02424 81.5949 11.7896C81.5949 16.5137 84.3516 19.9691 88.6317 19.9691Z" fill="black"/>
<path d="M102.132 20C104.785 20 106.401 18.5353 107.065 17.1325H107.179V19.639H109.023V8.88087C109.023 4.63125 105.811 3.57916 103.375 3.57916C100.94 3.57916 98.4318 4.53842 97.354 7.12739L99.1054 7.75658C99.6858 6.39505 101.126 5.2295 103.427 5.2295C105.842 5.2295 107.179 6.54977 107.179 8.71583V9.08716C107.179 10.2837 105.686 10.3043 103.012 10.6343C99.4163 11.0779 96.898 12.0784 96.898 15.214C96.898 18.2671 99.2401 20 102.132 20ZM102.38 18.3187C100.297 18.3187 98.7427 17.2151 98.7427 15.2965C98.7427 13.378 100.318 12.5735 103.012 12.2434C104.318 12.0887 106.64 11.7999 107.179 11.2739V13.5637C107.179 16.163 105.324 18.3187 102.38 18.3187Z" fill="black"/>
<path d="M114.802 9.73698C114.802 6.97267 116.626 5.27076 119.134 5.27076C121.58 5.27076 123.155 6.90046 123.155 9.48943V19.639H125V9.37597C125 5.62145 122.813 3.58948 119.601 3.58948C117.269 3.58948 115.662 4.6622 114.916 6.28159H114.75V3.79577H112.958V19.639H114.802V9.73698Z" fill="black"/>
</svg>
