<svg width="20" height="20" viewBox="0 0 20 20" fill="none" xmlns="http://www.w3.org/2000/svg">
<path d="M1.64844 14.784L9.99521 19.6032L18.342 14.784V5.14544L9.99521 0.326172L1.64844 5.14544V14.784Z" fill="#F2F2F2"/>
<path d="M9.1405 1.47852L3.07916 4.97621C3.08909 5.08529 3.08909 5.19504 3.07916 5.30412L9.13057 8.80181C9.37938 8.61785 9.68065 8.51858 9.99009 8.51858C10.2995 8.51858 10.6008 8.61785 10.8496 8.80181L16.901 5.30412C16.8911 5.19504 16.8911 5.08529 16.901 4.97621L10.8595 1.47852C10.6107 1.66247 10.3095 1.76175 10 1.76175C9.69059 1.76175 9.38932 1.66247 9.1405 1.47852ZM17.4873 6.26797L11.4259 9.80541C11.4588 10.1122 11.3938 10.4216 11.2404 10.6892C11.0869 10.9569 10.8527 11.1693 10.5714 11.2959L10.5813 18.2515C10.6793 18.2948 10.7726 18.3481 10.8595 18.4105L16.9109 14.9128C16.8781 14.606 16.943 14.2967 17.0965 14.029C17.25 13.7613 17.4841 13.549 17.7655 13.4223V6.42696C17.6686 6.38154 17.5756 6.32837 17.4873 6.26797ZM2.50284 6.30772C2.41585 6.3702 2.3226 6.42348 2.22461 6.4667V13.4621C2.50941 13.5843 2.74678 13.7957 2.90092 14.0646C3.05506 14.3334 3.11762 14.6451 3.07916 14.9526L9.13057 18.4503C9.21756 18.3878 9.3108 18.3345 9.40879 18.2913V11.2959C9.12399 11.1737 8.88662 10.9623 8.73248 10.6934C8.57834 10.4246 8.51578 10.1129 8.55424 9.80541L2.50284 6.30772Z" fill="#FCFCFC"/>
<path d="M9.99521 1.37113L17.4576 5.68363V14.2987L9.99521 18.6112L2.5328 14.2987V5.67369L9.99521 1.37113ZM9.99521 0.347656L1.64844 5.16692V14.8055L9.99521 19.6247L18.342 14.8055V5.16692L9.99521 0.347656V0.347656Z" fill="#F2F2F2"/>
<path d="M10.0543 11.6046H9.93506C9.73004 11.6051 9.52694 11.5651 9.33743 11.4869C9.14792 11.4087 8.97573 11.2938 8.83076 11.1488C8.6858 11.0039 8.5709 10.8317 8.49269 10.6422C8.41447 10.4526 8.37448 10.2495 8.37501 10.0445V9.92529C8.37448 9.72027 8.41447 9.51718 8.49269 9.32766C8.5709 9.13815 8.6858 8.96597 8.83076 8.821C8.97573 8.67603 9.14792 8.56114 9.33743 8.48292C9.52694 8.40471 9.73004 8.36472 9.93506 8.36524H10.0543C10.2593 8.36472 10.4624 8.40471 10.6519 8.48292C10.8414 8.56114 11.0136 8.67603 11.1586 8.821C11.3036 8.96597 11.4184 9.13815 11.4967 9.32766C11.5749 9.51718 11.6149 9.72027 11.6143 9.92529V10.0445C11.6149 10.2495 11.5749 10.4526 11.4967 10.6422C11.4184 10.8317 11.3036 11.0039 11.1586 11.1488C11.0136 11.2938 10.8414 11.4087 10.6519 11.4869C10.4624 11.5651 10.2593 11.6051 10.0543 11.6046Z" fill="#F2F2F2"/>
<path d="M10.0548 18.0137H9.93554C9.65838 18.0128 9.38603 18.0861 9.14668 18.2259C8.90734 18.3656 8.7097 18.5668 8.57422 18.8086L9.99516 19.6234L11.4161 18.8086C11.2806 18.5668 11.083 18.3656 10.8436 18.2259C10.6043 18.0861 10.3319 18.0128 10.0548 18.0137V18.0137Z" fill="#F2F2F2"/>
<path d="M18.3521 13.1934H18.2925C18.0875 13.1928 17.8844 13.2328 17.6949 13.311C17.5054 13.3893 17.3332 13.5042 17.1882 13.6491C17.0432 13.7941 16.9283 13.9663 16.8501 14.1558C16.7719 14.3453 16.7319 14.5484 16.7324 14.7534V14.8727C16.731 15.1375 16.7996 15.398 16.9312 15.6278L18.3521 14.8031V13.1934V13.1934Z" fill="#F2F2F2"/>
<path d="M16.9312 4.34961C16.8007 4.57991 16.7322 4.84011 16.7324 5.10479V5.22403C16.7319 5.42905 16.7719 5.63215 16.8501 5.82166C16.9283 6.01117 17.0432 6.18336 17.1882 6.32832C17.3332 6.47329 17.5053 6.58819 17.6949 6.6664C17.8844 6.74461 18.0875 6.78461 18.2925 6.78408H18.3521V5.16441L16.9312 4.34961Z" fill="#F2F2F2"/>
<path d="M9.99516 0.345703L8.57422 1.16051C8.70906 1.4036 8.90629 1.60633 9.14557 1.74781C9.38486 1.88929 9.65755 1.96439 9.93554 1.96537H10.0548C10.3319 1.96621 10.6043 1.89295 10.8436 1.75319C11.083 1.61343 11.2806 1.41224 11.4161 1.17044L9.99516 0.345703Z" fill="#F2F2F2"/>
<path d="M3.06938 4.33984L1.64844 5.16458V6.78425H1.70806C1.91307 6.78478 2.11617 6.74479 2.30568 6.66657C2.49519 6.58836 2.66738 6.47346 2.81235 6.3285C2.95732 6.18353 3.07221 6.01134 3.15042 5.82183C3.22864 5.63232 3.26863 5.42922 3.26811 5.2242V5.10496C3.26474 4.8376 3.19655 4.57505 3.06938 4.33984V4.33984Z" fill="#F2F2F2"/>
<path d="M1.70806 13.1934H1.64844V14.8031L3.06938 15.6278C3.19982 15.3975 3.26829 15.1373 3.26811 14.8727V14.7534C3.26863 14.5484 3.22864 14.3453 3.15042 14.1558C3.07221 13.9663 2.95732 13.7941 2.81235 13.6491C2.66738 13.5042 2.49519 13.3893 2.30568 13.311C2.11617 13.2328 1.91307 13.1928 1.70806 13.1934V13.1934Z" fill="#F2F2F2"/>
<path d="M9.99521 19.6728V10.0243L1.64844 5.20508V14.8535L9.99521 19.6728Z" fill="black" fill-opacity="0.06"/>
<path d="M18.3526 14.7635V5.125L10.0059 9.94427V19.5927L18.3526 14.7635Z" fill="black" fill-opacity="0.02"/>
</svg>
