<svg width="20" height="20" viewBox="0 0 20 20" fill="none" xmlns="http://www.w3.org/2000/svg">
<path fill-rule="evenodd" clip-rule="evenodd" d="M3.8335 4.16634C3.8335 2.60153 5.10202 1.33301 6.66683 1.33301C8.23161 1.33301 9.50016 2.60153 9.50016 4.16634C9.50016 5.73113 8.23162 6.99967 6.66683 6.99967C5.10202 6.99967 3.8335 5.73112 3.8335 4.16634ZM6.66683 2.83301C5.93045 2.83301 5.3335 3.42996 5.3335 4.16634C5.3335 4.90271 5.93045 5.49967 6.66683 5.49967C7.40319 5.49967 8.00016 4.9027 8.00016 4.16634C8.00016 3.42997 7.40319 2.83301 6.66683 2.83301ZM3.75033 9.5C3.7043 9.5 3.66699 9.53731 3.66699 9.58333V14.1667C3.66699 15.8235 5.01014 17.1667 6.66699 17.1667C7.2376 17.1667 7.76887 17.0081 8.22173 16.733C8.57575 16.518 9.03706 16.6306 9.25211 16.9846C9.46715 17.3387 9.35449 17.8 9.00048 18.015C8.31953 18.4286 7.51991 18.6667 6.66699 18.6667C4.18171 18.6667 2.16699 16.6519 2.16699 14.1667V9.58333C2.16699 8.70888 2.87587 8 3.75033 8H10.417C10.8312 8 11.167 8.33579 11.167 8.75C11.167 9.16421 10.8312 9.5 10.417 9.5H3.75033ZM11.8723 11.941C12.7385 11.0748 14.0487 10.923 15.0705 11.4856L11.4169 15.1392C10.8542 14.1174 11.0061 12.8073 11.8723 11.941ZM12.4776 16.1999L16.1312 12.5463C16.6938 13.5681 16.542 14.8783 15.6758 15.7445C14.8095 16.6107 13.4994 16.7625 12.4776 16.1999ZM16.7364 10.8804C15.1003 9.2443 12.4477 9.2443 10.8116 10.8804C9.17555 12.5165 9.17555 15.1691 10.8116 16.8052C12.4477 18.4412 15.1003 18.4412 16.7364 16.8052C18.3725 15.1691 18.3725 12.5165 16.7364 10.8804Z" fill="#EE4444"/>
</svg>
