<svg width="20" height="20" viewBox="0 0 20 20" fill="none" xmlns="http://www.w3.org/2000/svg">
<path fill-rule="evenodd" clip-rule="evenodd" d="M3.8335 4.16634C3.8335 2.60153 5.10202 1.33301 6.66683 1.33301C8.23161 1.33301 9.50016 2.60153 9.50016 4.16634C9.50016 5.73113 8.23162 6.99967 6.66683 6.99967C5.10202 6.99967 3.8335 5.73112 3.8335 4.16634ZM6.66683 2.83301C5.93045 2.83301 5.3335 3.42996 5.3335 4.16634C5.3335 4.90271 5.93045 5.49967 6.66683 5.49967C7.40319 5.49967 8.00016 4.9027 8.00016 4.16634C8.00016 3.42997 7.40319 2.83301 6.66683 2.83301ZM6.66699 9.5C5.01014 9.5 3.66699 10.8431 3.66699 12.5L3.66699 17.0833C3.66699 17.1294 3.7043 17.1667 3.75033 17.1667H7.69561C8.10982 17.1667 8.44561 17.5025 8.44561 17.9167C8.44561 18.3309 8.10982 18.6667 7.69561 18.6667H3.75033C2.87587 18.6667 2.16699 17.9578 2.16699 17.0833V12.5C2.16699 10.0147 4.18171 8 6.66699 8C8.4108 8 9.92163 8.99206 10.6682 10.4391C10.8284 10.7495 10.9536 11.0812 11.0385 11.4287C11.1368 11.831 10.8904 12.2369 10.488 12.3353C10.0856 12.4336 9.67971 12.1871 9.58138 11.7847C9.52496 11.5539 9.44177 11.3335 9.33517 11.1269C8.83584 10.159 7.82775 9.5 6.66699 9.5ZM15.5704 10.384C15.2775 10.0911 14.8026 10.0911 14.5097 10.384L9.7476 15.1456C9.60694 15.2863 9.52791 15.4771 9.52791 15.676L9.52783 17.9168C9.52783 18.1157 9.60684 18.3065 9.7475 18.4471C9.88816 18.5878 10.0789 18.6668 10.2779 18.6668L12.5187 18.6667C12.7176 18.6667 12.9083 18.5877 13.049 18.4471L17.8111 13.6854C17.9517 13.5448 18.0308 13.354 18.0308 13.1551C18.0308 12.9562 17.9517 12.7654 17.8111 12.6247L15.5704 10.384ZM11.0279 17.1668L11.0279 15.9867L15.04 11.975L16.2201 13.155L12.208 17.1667L11.0279 17.1668Z" fill="#1FABE8"/>
</svg>
