<svg width="20" height="20" viewBox="0 0 20 20" fill="none" xmlns="http://www.w3.org/2000/svg">
<path fill-rule="evenodd" clip-rule="evenodd" d="M10.0002 3.25C6.73248 3.25 4.0835 5.89898 4.0835 9.16667C4.0835 9.77601 4.17561 10.3638 4.34667 10.917H7.26115C6.93774 10.4118 6.75024 9.81131 6.75024 9.16699C6.75024 7.37207 8.20532 5.91699 10.0002 5.91699C11.7952 5.91699 13.2502 7.37207 13.2502 9.16699C13.2502 9.81131 13.0627 10.4118 12.7393 10.917H15.6537C15.8247 10.3638 15.9168 9.77601 15.9168 9.16667C15.9168 5.89898 13.2678 3.25 10.0002 3.25ZM11.7502 9.16699C11.7502 10.1335 10.9667 10.917 10.0002 10.917C9.03375 10.917 8.25024 10.1335 8.25024 9.16699C8.25024 8.20049 9.03375 7.41699 10.0002 7.41699C10.9667 7.41699 11.7502 8.20049 11.7502 9.16699ZM17.2091 10.917C17.3449 10.3558 17.4168 9.76962 17.4168 9.16667C17.4168 5.07055 14.0963 1.75 10.0002 1.75C5.90405 1.75 2.5835 5.07055 2.5835 9.16667C2.5835 9.76962 2.65545 10.3558 2.79123 10.917H1.66699C1.25278 10.917 0.916992 11.2528 0.916992 11.667C0.916992 12.0812 1.25278 12.417 1.66699 12.417H18.3337C18.7479 12.417 19.0837 12.0812 19.0837 11.667C19.0837 11.2528 18.7479 10.917 18.3337 10.917H17.2091ZM10.7502 14.167C10.7502 13.7528 10.4145 13.417 10.0002 13.417C9.58604 13.417 9.25025 13.7528 9.25025 14.167L9.25024 15.0837L7.50025 15.0837C7.08603 15.0837 6.75025 15.4194 6.75025 15.8337C6.75024 16.2479 7.08603 16.5837 7.50025 16.5837L9.25024 16.5837L9.25024 17.5003C9.25024 17.9145 9.58603 18.2503 10.0002 18.2503C10.4145 18.2503 10.7502 17.9145 10.7502 17.5003L10.7502 16.5837H12.5002C12.9145 16.5837 13.2502 16.2479 13.2502 15.8337C13.2502 15.4195 12.9145 15.0837 12.5002 15.0837H10.7502L10.7502 14.167Z" fill="#1FABE8"/>
</svg>
