<svg width="20" height="20" viewBox="0 0 20 20" fill="none" xmlns="http://www.w3.org/2000/svg">
<path fill-rule="evenodd" clip-rule="evenodd" d="M6.66683 1.33301C5.10202 1.33301 3.8335 2.60153 3.8335 4.16634C3.8335 5.73112 5.10202 6.99967 6.66683 6.99967C8.23162 6.99967 9.50016 5.73113 9.50016 4.16634C9.50016 2.60153 8.23161 1.33301 6.66683 1.33301ZM5.3335 4.16634C5.3335 3.42996 5.93045 2.83301 6.66683 2.83301C7.40319 2.83301 8.00016 3.42997 8.00016 4.16634C8.00016 4.9027 7.40319 5.49967 6.66683 5.49967C5.93045 5.49967 5.3335 4.90271 5.3335 4.16634ZM9.58366 18.667C10.4581 18.667 11.167 17.9581 11.167 17.0837V12.5003C11.167 10.015 9.15227 8.00033 6.66699 8.00032C4.18171 8.00032 2.16699 10.015 2.16699 12.5003V17.0837C2.16699 17.9581 2.87587 18.667 3.75033 18.667H9.58366ZM3.66699 12.5003C3.66699 10.8435 5.01014 9.50033 6.66699 9.50033C8.32385 9.50033 9.66699 10.8435 9.66699 12.5003L9.66699 17.0837C9.66699 17.1297 9.62968 17.167 9.58366 17.167L3.75033 17.167C3.7043 17.167 3.66699 17.1297 3.66699 17.0837L3.66699 12.5003Z" fill="#1FABE8"/>
<path fill-rule="evenodd" clip-rule="evenodd" d="M13.7502 2.16699C12.4155 2.16699 11.3335 3.24897 11.3335 4.58366C11.3335 5.91833 12.4155 7.00033 13.7502 7.00033C15.0848 7.00033 16.1668 5.91833 16.1668 4.58366C16.1668 3.24897 15.0848 2.16699 13.7502 2.16699ZM12.8335 4.58366C12.8335 4.0774 13.2439 3.66699 13.7502 3.66699C14.2564 3.66699 14.6668 4.0774 14.6668 4.58366C14.6668 5.0899 14.2564 5.50033 13.7502 5.50033C13.2439 5.50033 12.8335 5.08991 12.8335 4.58366ZM16.3259 17.8333L11.9686 17.8333C12.043 17.5965 12.0831 17.3444 12.0831 17.083V16.3333L16.3259 16.3333C16.3274 16.3333 16.3281 16.3332 16.3282 16.3332L16.3286 16.333C16.329 16.3329 16.33 16.3323 16.3313 16.3311L16.3325 16.3297L16.3332 16.3285L16.3333 16.3281C16.3334 16.328 16.3335 16.3273 16.3335 16.3258L16.3335 12.0833C16.3335 10.6566 15.1769 9.5 13.7502 9.5C12.9175 9.5 12.1768 9.89398 11.7044 10.5057C11.5086 10.0114 11.2421 9.5528 10.9175 9.14232C11.6517 8.43498 12.6501 8 13.7502 8C16.0053 8 17.8335 9.82817 17.8335 12.0833L17.8335 16.3258C17.8335 17.1584 17.1585 17.8333 16.3259 17.8333Z" fill="#1FABE8"/>
</svg>
