<svg width="24" height="24" viewBox="0 0 24 24" fill="none" xmlns="http://www.w3.org/2000/svg">
<g clip-path="url(#clip0_11793_22877)">
<path d="M12 24C18.6274 24 24 18.6274 24 12C24 5.37258 18.6274 0 12 0C5.37258 0 0 5.37258 0 12C0 18.6274 5.37258 24 12 24Z" fill="#F4F4F4"/>
<path d="M12 17C14.7614 17 17 14.7614 17 12C17 9.23858 14.7614 7 12 7C9.23858 7 7 9.23858 7 12C7 14.7614 9.23858 17 12 17Z" fill="#DDDDDD"/>
<path d="M19 14C16.2386 14 14 16.2386 14 19C14 21.7614 16.2386 24 19 24C21.7614 24 24 21.7614 24 19C24 16.2386 21.7614 14 19 14Z" fill="#EE4444"/>
<path fill-rule="evenodd" clip-rule="evenodd" d="M16.9768 23.5738C16.5806 23.3983 16.2115 23.1728 15.8774 22.9053L18.9494 19.8334L17.2828 18.1667L21.0232 14.4263C21.4194 14.6018 21.7885 14.8273 22.1225 15.0947L19.0505 18.1667L20.7172 19.8334L16.9768 23.5738Z" fill="white"/>
</g>
<defs>
<clipPath id="clip0_11793_22877">
<rect width="24" height="24" fill="white"/>
</clipPath>
</defs>
</svg>
