<svg width="24" height="24" viewBox="0 0 24 24" fill="none" xmlns="http://www.w3.org/2000/svg">
<g clip-path="url(#clip0_11966_1325)">
<path d="M24 12C24 5.37258 18.6274 0 12 0C5.37258 0 0 5.37258 0 12C0 18.6274 5.37258 24 12 24C18.6274 24 24 18.6274 24 12Z" fill="#1F1E1E"/>
<path d="M9.07008 4.9729C7.84532 6.38708 7.00781 8.6631 6.87524 11.2731H10.8159C10.9476 9.41379 11.5592 8.13165 12.0001 7.58886C10.9902 6.02867 9.66845 5.27055 9.07008 4.9729Z" fill="url(#paint0_linear_11966_1325)"/>
<path d="M13.1842 11.2731H17.1249C16.9022 6.89147 14.6936 3.44995 12 3.44995C10.911 3.44995 9.90135 4.01295 9.07007 4.97281C9.66634 5.2694 10.9894 6.02738 12 7.58884C12.9917 9.12108 13.1523 10.6076 13.1842 11.2731Z" fill="url(#paint1_linear_11966_1325)"/>
<path d="M9.07008 19.027C7.84532 17.6129 7.00781 15.3368 6.87524 12.7268H10.8159C10.9476 14.5861 11.5592 15.8683 12.0001 16.4111C10.9902 17.9713 9.66845 18.7294 9.07008 19.027Z" fill="url(#paint2_linear_11966_1325)"/>
<path d="M13.1842 12.7268H17.1249C16.9022 17.1084 14.6936 20.55 12 20.55C10.911 20.55 9.90135 19.987 9.07007 19.0271C9.66634 18.7305 10.9894 17.9725 12 16.4111C12.9917 14.8788 13.1523 13.3922 13.1842 12.7268Z" fill="url(#paint3_linear_11966_1325)"/>
</g>
<defs>
<linearGradient id="paint0_linear_11966_1325" x1="8.0616" y1="10.8199" x2="10.9684" y2="6.59916" gradientUnits="userSpaceOnUse">
<stop offset="0.1511" stop-color="#146BB5"/>
<stop offset="0.2679" stop-color="#1566AE"/>
<stop offset="0.4349" stop-color="#155CA0"/>
<stop offset="0.6321" stop-color="#144C8B"/>
<stop offset="0.8507" stop-color="#0E356F"/>
<stop offset="1" stop-color="#06235B"/>
</linearGradient>
<linearGradient id="paint1_linear_11966_1325" x1="15.4817" y1="6.65859" x2="10.8842" y2="9.10231" gradientUnits="userSpaceOnUse">
<stop stop-color="#7EC8EF"/>
<stop offset="1" stop-color="#405EAB"/>
</linearGradient>
<linearGradient id="paint2_linear_11966_1325" x1="8.0616" y1="13.18" x2="10.9684" y2="17.4008" gradientUnits="userSpaceOnUse">
<stop offset="0.1511" stop-color="#152E52"/>
<stop offset="0.3877" stop-color="#142C4F"/>
<stop offset="0.7252" stop-color="#122645"/>
<stop offset="1" stop-color="#0F1F3B"/>
</linearGradient>
<linearGradient id="paint3_linear_11966_1325" x1="15.4817" y1="17.3413" x2="10.8842" y2="14.8976" gradientUnits="userSpaceOnUse">
<stop stop-color="#1B4F76"/>
<stop offset="1" stop-color="#142553"/>
</linearGradient>
<clipPath id="clip0_11966_1325">
<rect width="24" height="24" fill="white"/>
</clipPath>
</defs>
</svg>
