<svg width="24" height="24" viewBox="0 0 24 24" fill="none" xmlns="http://www.w3.org/2000/svg">
<g clip-path="url(#clip0_11966_1340)">
<path d="M12 24C18.6274 24 24 18.6274 24 12C24 5.37258 18.6274 0 12 0C5.37258 0 0 5.37258 0 12C0 18.6274 5.37258 24 12 24Z" fill="#E6007A"/>
<path d="M12 7.06678C13.6944 7.06678 15.0679 6.2683 15.0679 5.28333C15.0679 4.29836 13.6944 3.49988 12 3.49988C10.3056 3.49988 8.93199 4.29836 8.93199 5.28333C8.93199 6.2683 10.3056 7.06678 12 7.06678Z" fill="white"/>
<path d="M12 20.4999C13.6944 20.4999 15.0679 19.7014 15.0679 18.7164C15.0679 17.7315 13.6944 16.933 12 16.933C10.3056 16.933 8.93199 17.7315 8.93199 18.7164C8.93199 19.7014 10.3056 20.4999 12 20.4999Z" fill="white"/>
<path d="M7.72385 9.5334C8.57105 8.06739 8.56568 6.47972 7.71187 5.98723C6.85805 5.49475 5.47911 6.28394 4.63191 7.74995C3.78471 9.21595 3.79008 10.8036 4.6439 11.2961C5.49771 11.7886 6.87666 10.9994 7.72385 9.5334Z" fill="white"/>
<path d="M19.3681 16.2499C20.2153 14.7839 20.2099 13.1963 19.3561 12.7038C18.5023 12.2113 17.1233 13.0005 16.2762 14.4665C15.429 15.9325 15.4343 17.5202 16.2881 18.0126C17.142 18.5051 18.5209 17.7159 19.3681 16.2499Z" fill="white"/>
<path d="M7.71186 18.0126C8.56568 17.5201 8.57104 15.9324 7.72385 14.4664C6.87665 13.0004 5.49771 12.2112 4.64389 12.7037C3.79007 13.1962 3.78471 14.7838 4.6319 16.2498C5.4791 17.7158 6.85804 18.505 7.71186 18.0126Z" fill="white"/>
<path d="M19.356 11.2962C20.2099 10.8037 20.2152 9.216 19.368 7.75C18.5208 6.28399 17.1419 5.4948 16.2881 5.98729C15.4343 6.47977 15.4289 8.06745 16.2761 9.53345C17.1233 10.9995 18.5022 11.7886 19.356 11.2962Z" fill="white"/>
</g>
<defs>
<clipPath id="clip0_11966_1340">
<rect width="24" height="24" fill="white"/>
</clipPath>
</defs>
</svg>
