<svg width="24" height="24" viewBox="0 0 24 24" fill="none" xmlns="http://www.w3.org/2000/svg">
<path d="M19.5565 7.65991L15.7737 9.84372L19.5565 12.0367L23.3302 9.84372L19.5565 7.65991Z" fill="#C9EEFF"/>
<path d="M4.44339 7.65991L0.669678 9.84372L4.44339 12.0367L8.22624 9.84372L4.44339 7.65991Z" fill="#C9EEFF"/>
<path d="M8.22607 18.5605V22.9008L11.9998 20.7169V16.3767L8.22607 18.5605Z" fill="#5178E5"/>
<path d="M8.22621 9.87106V14.2113L4.44336 12.0275V7.68726L8.22621 9.87106Z" fill="#59A8FE"/>
<path d="M8.22621 14.2112V18.5423L4.44336 16.3676V12.0273L8.22621 14.2112Z" fill="#59A8FE"/>
<path d="M4.44339 12.0276V16.3678L0.669678 14.184V9.84375L4.44339 12.0276Z" fill="#59A8FE"/>
<path d="M11.9998 16.3768V20.717L8.22607 18.5424V14.2021L11.9998 16.3768Z" fill="#59A8FE"/>
<path d="M15.7734 9.85275V14.193L11.9998 12.0091V7.66895L15.7734 9.85275Z" fill="#59A8FE"/>
<path d="M8.22621 5.48509V9.82529L4.44336 7.64149V3.30127L8.22621 5.48509Z" fill="#59A8FE"/>
<path d="M15.7734 18.5424V22.8826L11.9998 20.7079V16.3677L15.7734 18.5424Z" fill="#59A8FE"/>
<path d="M8.22621 18.5424V22.8826L4.44336 20.7079V16.3677L8.22621 18.5424Z" fill="#59A8FE"/>
<path d="M15.7737 9.85275V14.193L19.5565 12.0091V7.66895L15.7737 9.85275Z" fill="#5176E5"/>
<path d="M15.7737 5.48509V9.82529L19.5565 7.64149V3.30127L15.7737 5.48509Z" fill="#5176E5"/>
<path d="M8.22607 9.85275V14.193L11.9998 12.0091V7.66895L8.22607 9.85275Z" fill="#5178E5"/>
<path d="M15.7737 14.1931V18.5333L19.5565 16.3495V12.0093L15.7737 14.1931Z" fill="#5176E5"/>
<path d="M19.5564 12.0276V16.3678L23.3301 14.184V9.84375L19.5564 12.0276Z" fill="#5176E5"/>
<path d="M11.9998 16.3678V20.708L15.7734 18.5334V14.1931L11.9998 16.3678Z" fill="#5176E5"/>
<path d="M15.7737 18.5332V22.8734L19.5565 20.6896V16.3494L15.7737 18.5332Z" fill="#5176E5"/>
<path d="M8.22621 5.49414L4.44336 7.67799L8.22621 9.87092L11.9999 7.67799L8.22621 5.49414Z" fill="#C9EEFF"/>
<path d="M11.9998 3.30127L8.22607 5.49422L11.9998 7.67803L15.7734 5.49422L11.9998 3.30127Z" fill="#C9EEFF"/>
<path d="M11.9998 12.0093L8.22607 14.1931L11.9998 16.3769L15.7734 14.1931L11.9998 12.0093Z" fill="#C9EEFF"/>
<path d="M15.7734 1.11743L11.9998 3.30124L15.7734 5.49419L19.5563 3.30124L15.7734 1.11743Z" fill="#C9EEFF"/>
<path d="M8.22621 1.11743L4.44336 3.30124L8.22621 5.49419L11.9999 3.30124L8.22621 1.11743Z" fill="#C9EEFF"/>
<path d="M15.7734 5.4668L11.9998 7.65973L15.7734 9.84354L19.5563 7.65973L15.7734 5.4668Z" fill="#C9EEFF"/>
<path fill-rule="evenodd" clip-rule="evenodd" d="M8.16751 1.01573C8.20389 0.994734 8.24872 0.994757 8.28507 1.01579L11.9999 3.16556L15.7148 1.01579C15.7512 0.994757 15.796 0.994734 15.8324 1.01573L19.6152 3.19955C19.6516 3.22053 19.674 3.2593 19.674 3.30127V7.59203L23.389 9.7419C23.4253 9.76291 23.4476 9.80164 23.4476 9.84359V14.1838C23.4476 14.2257 23.4253 14.2645 23.389 14.2854L19.674 16.4353V20.7078C19.674 20.7499 19.6515 20.7887 19.615 20.8096L15.8322 22.9843C15.7959 23.0052 15.7513 23.0052 15.715 22.9843L11.9999 20.8434L8.28487 22.9843C8.24864 23.0052 8.20397 23.0052 8.1677 22.9843L4.38487 20.8096C4.34842 20.7887 4.32595 20.7499 4.32595 20.7078V16.4353L0.61087 14.2854C0.574588 14.2645 0.552246 14.2257 0.552246 14.1838V9.84359C0.552246 9.80164 0.574588 9.76291 0.61087 9.7419L4.32595 7.59203V3.30127C4.32595 3.2593 4.34834 3.22053 4.38468 3.19955L8.16751 1.01573ZM4.56084 3.36908V7.65974C4.56084 7.70169 4.53852 7.74041 4.50221 7.76143L0.78715 9.9113V14.1161L4.50221 16.2659C4.53852 16.287 4.56084 16.3257 4.56084 16.3676V20.6399L8.22617 22.747L11.9413 20.6061C11.9776 20.5851 12.0223 20.5851 12.0586 20.6061L15.7737 22.747L19.439 20.6399V16.3676C19.439 16.3257 19.4614 16.287 19.4977 16.2659L23.2128 14.1161V9.9113L19.4977 7.76143C19.4614 7.74041 19.439 7.70169 19.439 7.65974V3.36908L15.7737 1.25311L12.0588 3.40292C12.0224 3.42398 11.9775 3.42398 11.9411 3.40292L8.22617 1.25311L4.56084 3.36908Z" fill="#001423"/>
<path fill-rule="evenodd" clip-rule="evenodd" d="M0.56838 9.78417C0.601174 9.72819 0.673129 9.70941 0.729096 9.74223L4.50281 11.9534C4.55879 11.9862 4.57754 12.0582 4.54476 12.1141C4.51197 12.1701 4.44 12.1889 4.38405 12.1561L0.610338 9.94487C0.554371 9.91208 0.535586 9.84012 0.56838 9.78417Z" fill="white"/>
<path fill-rule="evenodd" clip-rule="evenodd" d="M8.22609 18.4431C8.29096 18.4431 8.34353 18.4957 8.34353 18.5606V22.8825C8.34353 22.9474 8.29096 23 8.22609 23C8.16121 23 8.10864 22.9474 8.10864 22.8825V18.5606C8.10864 18.4957 8.16121 18.4431 8.22609 18.4431Z" fill="white"/>
<path fill-rule="evenodd" clip-rule="evenodd" d="M8.10864 18.5608V14.2114H8.34353V18.5608H8.10864Z" fill="#001423"/>
<path fill-rule="evenodd" clip-rule="evenodd" d="M4.32593 16.3678V7.65991H4.56084V16.3678H4.32593Z" fill="#001423"/>
<path fill-rule="evenodd" clip-rule="evenodd" d="M15.8909 14.1931V18.5425H15.656V14.1931H15.8909Z" fill="#001423"/>
<path fill-rule="evenodd" clip-rule="evenodd" d="M15.7735 18.4248C15.8383 18.4248 15.8909 18.4774 15.8909 18.5422V22.8824C15.8909 22.9473 15.8383 22.9999 15.7735 22.9999C15.7086 22.9999 15.656 22.9473 15.656 22.8824V18.5422C15.656 18.4774 15.7086 18.4248 15.7735 18.4248Z" fill="white"/>
<path fill-rule="evenodd" clip-rule="evenodd" d="M23.4315 9.76612C23.4643 9.82206 23.4455 9.89403 23.3895 9.92681L19.6158 12.138C19.5598 12.1708 19.4879 12.1521 19.4551 12.0961C19.4223 12.0401 19.4411 11.9682 19.497 11.9354L23.2708 9.72413C23.3267 9.69135 23.3987 9.71014 23.4315 9.76612Z" fill="white"/>
<path fill-rule="evenodd" clip-rule="evenodd" d="M19.6577 3.24204C19.6905 3.29804 19.6716 3.36998 19.6156 3.40271L15.8327 5.61393C15.7768 5.64667 15.7048 5.62781 15.6721 5.57183C15.6393 5.51581 15.6582 5.44388 15.7142 5.41113L19.4971 3.19991C19.5531 3.16717 19.625 3.18604 19.6577 3.24204Z" fill="white"/>
<path fill-rule="evenodd" clip-rule="evenodd" d="M4.342 3.24204C4.37473 3.18604 4.44667 3.16717 4.50265 3.19991L8.2855 5.41113C8.34152 5.44388 8.36039 5.51581 8.32764 5.57183C8.2949 5.62781 8.22297 5.64667 8.16699 5.61393L4.38413 3.40271C4.32812 3.36998 4.30926 3.29804 4.342 3.24204Z" fill="white"/>
<path fill-rule="evenodd" clip-rule="evenodd" d="M19.6739 7.76953V16.4682H19.439V7.76953H19.6739Z" fill="#001423"/>
<path fill-rule="evenodd" clip-rule="evenodd" d="M8.16752 14.304L4.3938 12.1293L4.51109 11.9258L8.28481 14.1005L8.16752 14.304Z" fill="#001423"/>
<path fill-rule="evenodd" clip-rule="evenodd" d="M11.9411 20.8461L4.38452 16.4694L4.50226 16.2661L12.0588 20.6429L11.9411 20.8461Z" fill="#001423"/>
<path fill-rule="evenodd" clip-rule="evenodd" d="M11.877 20.6429L19.4244 16.2661L19.5422 16.4693L11.9948 20.8461L11.877 20.6429Z" fill="#001423"/>
<path fill-rule="evenodd" clip-rule="evenodd" d="M15.7153 14.091L19.4982 11.9346L19.6145 12.1386L15.8317 14.295L15.7153 14.091Z" fill="#001423"/>
<path fill-rule="evenodd" clip-rule="evenodd" d="M11.9431 7.56597L15.8448 5.4187L15.958 5.62449L12.0564 7.77175L11.9431 7.56597Z" fill="#001423"/>
<path fill-rule="evenodd" clip-rule="evenodd" d="M19.7444 7.90783L11.9412 3.40315L12.0586 3.19971L19.8618 7.70438L19.7444 7.90783Z" fill="#001423"/>
<path fill-rule="evenodd" clip-rule="evenodd" d="M8.28491 5.38354L12.0586 7.56735C12.0949 7.58836 12.1172 7.62709 12.1172 7.66904V11.9054L15.7689 14.046L15.6501 14.2487L11.9404 12.074C11.9044 12.0529 11.8823 12.0144 11.8823 11.9727V7.73675L8.16724 5.58688L8.28491 5.38354Z" fill="#001423"/>
<path fill-rule="evenodd" clip-rule="evenodd" d="M4.38452 7.55808L11.9411 3.19043L12.0586 3.3938L4.50205 7.76145L4.38452 7.55808Z" fill="#001423"/>
<path fill-rule="evenodd" clip-rule="evenodd" d="M8.13989 14.0549L11.941 11.8528L12.0588 12.056L8.25764 14.2581L8.13989 14.0549Z" fill="#001423"/>
<path fill-rule="evenodd" clip-rule="evenodd" d="M4.342 7.60041C4.37473 7.54443 4.44667 7.52557 4.50265 7.55831L8.2855 9.76954C8.32155 9.79059 8.34371 9.8292 8.34371 9.87092V14.1341L12.0586 16.2749C12.095 16.2959 12.1174 16.3347 12.1174 16.3767V20.7077C12.1174 20.7726 12.0648 20.8252 12 20.8252C11.9351 20.8252 11.8825 20.7726 11.8825 20.7077V16.4446L8.1676 14.3038C8.13121 14.2828 8.10878 14.244 8.10878 14.202V9.93832L4.38413 7.76111C4.32812 7.72836 4.30926 7.65643 4.342 7.60041Z" fill="white"/>
<path fill-rule="evenodd" clip-rule="evenodd" d="M19.6578 7.60041C19.6905 7.65643 19.6716 7.72836 19.6156 7.76111L15.891 9.93832V14.202C15.891 14.244 15.8685 14.2828 15.8321 14.3038L12.0585 16.4784C12.0023 16.5108 11.9304 16.4915 11.898 16.4353C11.8656 16.3791 11.885 16.3073 11.9412 16.2749L15.656 14.1341V9.87092C15.656 9.8292 15.6782 9.79059 15.7142 9.76954L19.4971 7.55831C19.5531 7.52557 19.625 7.54443 19.6578 7.60041Z" fill="white"/>
<path fill-rule="evenodd" clip-rule="evenodd" d="M11.9408 7.57669C11.9773 7.55549 12.0224 7.55549 12.0588 7.57669L15.8326 9.76963C15.8886 9.80222 15.9077 9.87411 15.8751 9.93021C15.8425 9.98626 15.7706 10.0053 15.7145 9.97273L11.9998 7.81407L8.28514 9.97273C8.22904 10.0053 8.15715 9.98626 8.12456 9.93021C8.09197 9.87411 8.11102 9.80222 8.16712 9.76963L11.9408 7.57669Z" fill="white"/>
</svg>
