<svg width="24" height="24" viewBox="0 0 24 24" fill="none" xmlns="http://www.w3.org/2000/svg">
<g clip-path="url(#clip0_11793_24007)">
<path d="M24 12C24 5.37258 18.6274 0 12 0C5.37258 0 0 5.37258 0 12C0 18.6274 5.37258 24 12 24C18.6274 24 24 18.6274 24 12Z" fill="#233445"/>
<path d="M12.8497 2.96095C12.3084 2.64843 11.6415 2.64844 11.1002 2.96095L4.62815 6.69761C4.08686 7.01012 3.75342 7.58767 3.75342 8.21269V15.686C3.75342 16.311 4.08686 16.8886 4.62815 17.2011L10.5038 20.5934C11.4051 21.1138 12.5316 20.4633 12.5316 19.4227V17.196C12.5316 16.8886 12.2824 16.6394 11.975 16.6394C11.6675 16.6394 11.4183 16.8886 11.4183 17.196V19.4227C11.4183 19.6063 11.2195 19.7211 11.0605 19.6293L5.18479 16.237C4.98796 16.1233 4.86671 15.9133 4.86671 15.686V8.21269C4.86671 7.98541 4.98796 7.77539 5.18479 7.66175L11.6569 3.92508C11.8537 3.81144 12.0962 3.81144 12.2931 3.92508L18.7652 7.66175C18.962 7.77539 19.0832 7.98541 19.0832 8.21269V15.686C19.0832 15.9133 18.962 16.1233 18.7652 16.237L13.6129 19.2116C13.3466 19.3653 13.2554 19.7058 13.4091 19.972C13.5628 20.2383 13.9033 20.3295 14.1695 20.1758L19.3218 17.2011C19.8631 16.8886 20.1965 16.311 20.1965 15.686V8.21269C20.1965 7.58767 19.8631 7.01012 19.3218 6.69761L12.8497 2.96095Z" fill="white"/>
<path d="M12.5316 5.7744C12.5316 5.46697 12.2824 5.21775 11.975 5.21775C11.6675 5.21775 11.4183 5.46697 11.4183 5.7744V7.52402C11.4183 7.83144 11.6675 8.08066 11.975 8.08066C12.2824 8.08066 12.5316 7.83144 12.5316 7.52402V5.7744Z" fill="white"/>
<path d="M10.6414 9.09081C11.0013 8.9804 11.4359 8.92671 11.9435 8.92769C12.5743 8.92891 13.0989 9.02636 13.5134 9.22472C13.9256 9.42198 14.234 9.69332 14.4335 10.0402C14.6381 10.3786 14.7391 10.7653 14.7382 11.1978C14.7381 11.2734 14.6767 11.3345 14.6012 11.3343L13.7614 11.3327C13.649 11.3325 13.558 11.2412 13.5583 11.1288C13.5587 10.8795 13.5045 10.6795 13.401 10.5237L13.4003 10.5226C13.2987 10.3639 13.1291 10.2424 12.8808 10.1631L12.8792 10.1626C12.6303 10.0771 12.2872 10.0321 11.8459 10.0313C11.4615 10.0305 11.1542 10.0615 10.9215 10.1222C10.6949 10.183 10.5399 10.2719 10.4458 10.3822L10.4445 10.3838C10.3519 10.4869 10.302 10.6255 10.3017 10.8076C10.3014 10.9746 10.3369 11.1044 10.4021 11.2026C10.4677 11.3014 10.5713 11.3851 10.7193 11.4507C10.8725 11.5122 11.0705 11.5716 11.3146 11.6285L12.8673 11.8983C13.2988 11.9765 13.6609 12.0939 13.9501 12.2524C14.2463 12.4111 14.4708 12.6149 14.6189 12.8651C14.7666 13.1147 14.8389 13.4028 14.8383 13.7268C14.8377 14.0673 14.74 14.3873 14.547 14.6854C14.3517 14.9872 14.0482 15.2277 13.6432 15.4097L13.6422 15.4101C13.2339 15.587 12.7097 15.6725 12.0736 15.6713C11.4368 15.6701 10.8948 15.5791 10.4502 15.395C10.0126 15.2111 9.67791 14.95 9.45207 14.6098C9.22694 14.264 9.11572 13.8596 9.1166 13.4009C9.11675 13.3253 9.1781 13.2642 9.25364 13.2643L10.0743 13.2659C10.2025 13.2662 10.3063 13.3703 10.306 13.4986C10.3056 13.7407 10.3595 13.9375 10.4629 14.0935C10.5641 14.2399 10.7371 14.3591 10.9933 14.4452C11.2493 14.5248 11.6088 14.5667 12.0757 14.5676C12.4795 14.5684 12.7968 14.5405 13.0299 14.4859C13.263 14.4249 13.416 14.3362 13.5029 14.228C13.5982 14.1108 13.6482 13.9636 13.6486 13.7818C13.6491 13.5196 13.567 13.3438 13.4157 13.2353C13.2523 13.1181 12.9772 13.0184 12.5803 12.9419L11.0143 12.681C10.6528 12.6093 10.3284 12.5049 10.0418 12.3675L10.0405 12.3668C9.75039 12.2211 9.52047 12.0279 9.3534 11.7863L9.35197 11.7842C9.18957 11.5328 9.11126 11.224 9.11196 10.8625C9.11242 10.6213 9.16656 10.3844 9.27321 10.1523C9.38114 9.91736 9.5487 9.70798 9.77331 9.52373C10.0001 9.33774 10.2904 9.19413 10.6414 9.09081Z" fill="white"/>
</g>
<defs>
<clipPath id="clip0_11793_24007">
<rect width="24" height="24" fill="white"/>
</clipPath>
</defs>
</svg>
