<svg width="24" height="24" viewBox="0 0 24 24" fill="none" xmlns="http://www.w3.org/2000/svg">
<g clip-path="url(#clip0_11793_22974)">
<path d="M12 24C18.6274 24 24 18.6274 24 12C24 5.37258 18.6274 0 12 0C5.37258 0 0 5.37258 0 12C0 18.6274 5.37258 24 12 24Z" fill="#7777ED"/>
<path d="M12.3503 3.5625V9.79923L17.6216 12.1547L12.3503 3.5625Z" fill="white" fill-opacity="0.602"/>
<path d="M12.3501 3.5625L7.07812 12.1547L12.3501 9.79923V3.5625Z" fill="white"/>
<path d="M12.3503 16.1962V20.434L17.6252 13.1362L12.3503 16.1962Z" fill="white" fill-opacity="0.602"/>
<path d="M12.3501 20.434V16.1955L7.07812 13.1362L12.3501 20.434Z" fill="white"/>
<path d="M12.3503 15.2154L17.6216 12.1547L12.3503 9.80066V15.2154Z" fill="white" fill-opacity="0.2"/>
<path d="M7.07812 12.1547L12.3501 15.2154V9.80066L7.07812 12.1547Z" fill="white" fill-opacity="0.602"/>
</g>
<defs>
<clipPath id="clip0_11793_22974">
<rect width="24" height="24" fill="white"/>
</clipPath>
</defs>
</svg>
