<svg width="24" height="24" viewBox="0 0 24 24" fill="none" xmlns="http://www.w3.org/2000/svg">
<g clip-path="url(#clip0_11967_1447)">
<path d="M24 12C24 5.37258 18.6274 0 12 0C5.37258 0 0 5.37258 0 12C0 18.6274 5.37258 24 12 24C18.6274 24 24 18.6274 24 12Z" fill="#958FDC"/>
<path d="M18.1758 15.2962C18.1783 14.9608 19.4576 14.9751 19.4489 14.6615C19.4426 14.4198 18.876 14.4254 19.0541 13.9138C19.3164 13.1517 19.4589 12.3333 19.4589 11.4819C19.4589 7.34957 16.1081 4 11.977 4C7.84469 4 4.49512 7.34957 4.49512 11.4819C4.49427 12.3287 4.63749 13.1694 4.91866 13.9681C5.02486 14.3073 4.49637 14.4404 4.49637 14.6428C4.49637 14.9601 5.60956 14.9177 5.60956 15.2862C5.60956 15.6086 4.50949 15.7073 4.50949 16.0321C4.50949 16.48 6.94639 16.3238 6.977 16.7093C7.00137 17.0072 6.13992 17.0247 6.1343 17.3427C6.12618 17.8499 9.46076 17.6838 9.46076 18.0217C9.46076 18.2772 7.94402 18.1848 7.94402 18.4865C7.94402 18.7882 9.94052 18.98 12.1407 18.98C14.3408 18.98 15.8594 18.7351 15.8594 18.4703C15.8594 18.206 14.4426 18.261 14.472 18.0217C14.5232 17.6051 17.6666 17.8181 17.6666 17.3364C17.6666 17.0822 16.8021 17.0229 16.8296 16.7492C16.8695 16.3619 19.4589 16.42 19.4589 16.0184C19.4589 15.7029 18.1764 15.6248 18.1776 15.2975L18.1758 15.2962ZM16.1705 14.3242C16.1018 14.5797 16.8902 14.6178 16.8902 14.8846C16.8902 15.2088 14.4864 15.0795 14.5101 15.5086C14.5251 15.7785 16.218 15.8241 16.1855 16.1064C16.1393 16.515 13.5643 16.3113 13.5387 16.7024C13.52 16.9897 14.7956 16.9991 14.7981 17.2609C14.8006 17.4814 13.7961 17.6013 11.8746 17.6013C9.68377 17.6013 8.61993 17.4832 8.7405 17.2371C8.85356 17.0072 10.7926 17.0497 10.7732 16.688C10.7532 16.327 7.32995 16.4338 7.22625 16.0833C7.14067 15.7922 8.35131 15.7323 8.34382 15.4555C8.3357 15.1738 6.79272 15.2375 6.75899 14.8964C6.73712 14.6715 7.56546 14.6865 7.52985 14.4042C7.50361 14.1993 7.16129 14.228 6.95889 13.8045C6.56872 12.9622 6.39697 12.0352 6.45948 11.109C6.52199 10.1829 6.81675 9.28738 7.31657 8.50517C7.81638 7.72295 8.50515 7.07921 9.31933 6.63335C10.1335 6.18749 11.0469 5.95386 11.9751 5.95402C12.8851 5.9538 13.7811 6.17826 14.5835 6.60747C15.3859 7.03668 16.0699 7.65737 16.5748 8.41443C17.0798 9.17149 17.3899 10.0415 17.4779 10.9472C17.5658 11.853 17.4287 12.7664 17.0788 13.6064C16.8196 14.1949 16.2355 14.0768 16.1687 14.3248H16.1699L16.1705 14.3242Z" fill="#2B1D3C"/>
</g>
<defs>
<clipPath id="clip0_11967_1447">
<rect width="24" height="24" fill="white"/>
</clipPath>
</defs>
</svg>
