<svg width="24" height="24" viewBox="0 0 24 24" fill="none" xmlns="http://www.w3.org/2000/svg">
<g clip-path="url(#clip0_11967_1438)">
<path d="M24 12C24 5.37258 18.6274 0 12 0C5.37258 0 0 5.37258 0 12C0 18.6274 5.37258 24 12 24C18.6274 24 24 18.6274 24 12Z" fill="#E53E76"/>
<path d="M18.51 13.0604C18.6885 12.8821 18.9183 12.6526 19.1464 12.425C19.6553 11.917 19.6556 11.093 19.1467 10.5848L18.6076 10.0464C16.6776 11.9741 13.7894 12.3614 11.474 11.2086C13.0389 11.4976 14.6607 11.2725 16.0978 10.5008C17.0592 9.9844 17.2418 8.68212 16.4699 7.91124L13.2875 4.73265C12.5764 4.02238 11.4236 4.02238 10.7127 4.73265L7.28248 8.15877C9.54153 7.20016 12.2552 7.64458 14.0925 9.49233C11.2896 8.13345 7.81724 8.61557 5.48997 10.9398C5.31145 11.1181 5.08142 11.3479 4.85327 11.5757C4.34467 12.084 4.34494 12.9074 4.85327 13.4154L5.39208 13.9535C7.32212 12.0258 10.2103 11.6385 12.5257 12.7913C10.9608 12.5023 9.33899 12.7274 7.90192 13.4992C6.94054 14.0155 6.75797 15.3178 7.52977 16.0887L10.7122 19.2673C11.4233 19.9775 12.5761 19.9775 13.287 19.2673L16.7172 15.8411C14.4582 16.7997 11.7445 16.3553 9.90695 14.5076C12.7099 15.8665 16.1822 15.3843 18.5095 13.0601L18.51 13.0604Z" fill="white"/>
</g>
<defs>
<clipPath id="clip0_11967_1438">
<rect width="24" height="24" fill="white"/>
</clipPath>
</defs>
</svg>
