<svg width="24" height="24" viewBox="0 0 24 24" fill="none" xmlns="http://www.w3.org/2000/svg">
<g clip-path="url(#clip0_11793_23892)">
<path d="M24 12C24 5.37258 18.6274 0 12 0C5.37258 0 0 5.37258 0 12C0 18.6274 5.37258 24 12 24C18.6274 24 24 18.6274 24 12Z" fill="#16202A"/>
<path d="M8.18204 6.51196H5.25006C4.80336 6.51196 4.82773 6.89369 4.88458 7.03176C4.94955 7.18607 7.71097 11.2307 7.75158 11.2957C7.78407 11.3526 8.04397 11.7912 8.04397 12.0754C8.04397 12.3597 7.97087 16.0632 7.97087 16.9729C7.97087 17.8825 8.25514 17.3871 8.62062 17.0054C9.09169 16.5181 12.6734 12.717 12.8034 12.6033C12.9333 12.4815 13.112 12.4734 13.2257 12.6358C13.3475 12.7983 15.8897 16.4856 16.1577 16.8511C16.3688 17.1353 16.5232 17.1353 16.6937 17.1353H19.6176C19.9587 17.1353 20.1617 16.9323 19.9993 16.6155C19.8369 16.2988 17.0998 12.4815 16.9292 12.2135C16.7668 11.9373 16.6775 11.9211 16.4907 11.9211H14.0135C13.7374 11.9211 13.6724 11.7262 13.7861 11.6043C14.0135 11.3607 17.7902 7.31602 18.0095 7.09673C18.2369 6.86932 18.0825 6.52008 17.7171 6.52008H13.8673C13.5749 6.52008 13.4044 6.56882 13.2663 6.70689C13.1607 6.81247 8.70996 11.515 8.6125 11.6043C8.51504 11.7018 8.43382 11.6774 8.43382 11.5313V6.86932C8.43382 6.70689 8.40133 6.51196 8.17392 6.51196H8.18204Z" fill="#D83D81"/>
</g>
<defs>
<clipPath id="clip0_11793_23892">
<rect width="24" height="24" fill="white"/>
</clipPath>
</defs>
</svg>
