<svg width="24" height="24" viewBox="0 0 24 24" fill="none" xmlns="http://www.w3.org/2000/svg">
<g clip-path="url(#clip0_11793_22940)">
<path d="M12 24C18.6274 24 24 18.6274 24 12C24 5.37258 18.6274 0 12 0C5.37258 0 0 5.37258 0 12C0 18.6274 5.37258 24 12 24Z" fill="url(#paint0_linear_11793_22940)"/>
<path d="M12 22.4747C17.785 22.4747 22.4747 17.785 22.4747 12C22.4747 6.21504 17.785 1.52539 12 1.52539C6.21504 1.52539 1.52539 6.21504 1.52539 12C1.52539 17.785 6.21504 22.4747 12 22.4747Z" fill="#D7FF5E"/>
<path d="M8.04907 12.827V14.5751C8.04907 15.8844 9.11039 16.9457 10.4197 16.9457H15.9511V16.6823C15.9511 15.373 14.8898 14.3117 13.5805 14.3117H10.4197C9.37713 14.3117 8.47607 13.7056 8.04907 12.827Z" fill="#25143B"/>
<path d="M10.6831 14.0483V8.78027C10.6831 7.47099 9.62176 6.40967 8.31247 6.40967H8.04907V11.6777C8.04907 12.987 9.11039 14.0483 10.4197 14.0483H10.6831Z" fill="#25143B"/>
</g>
<defs>
<linearGradient id="paint0_linear_11793_22940" x1="-0.438574" y1="0.214812" x2="23.784" y2="23.7827" gradientUnits="userSpaceOnUse">
<stop offset="0.15" stop-color="#DAF460"/>
<stop offset="0.4" stop-color="#EA9067"/>
<stop offset="0.8" stop-color="#51327B"/>
</linearGradient>
<clipPath id="clip0_11793_22940">
<rect width="24" height="24" fill="white"/>
</clipPath>
</defs>
</svg>
