<svg width="24" height="24" viewBox="0 0 24 24" fill="none" xmlns="http://www.w3.org/2000/svg">
<g clip-path="url(#clip0_11793_22899)">
<path d="M12 24C18.6274 24 24 18.6274 24 12C24 5.37258 18.6274 0 12 0C5.37258 0 0 5.37258 0 12C0 18.6274 5.37258 24 12 24Z" fill="#F1305A"/>
<path d="M4.76489 9.59966C4.76489 5.431 8.00419 2.05164 12.0001 2.05164C15.9959 2.05164 19.2352 5.431 19.2352 9.59966V14.4003C19.2352 16.6497 18.2921 18.6693 16.7958 20.0521V9.59966C16.7958 6.83653 14.6487 4.59656 12.0001 4.59656C9.35145 4.59656 7.20434 6.83653 7.20434 9.59966V20.0521C5.70806 18.6693 4.76489 16.6497 4.76489 14.4003V9.59966Z" fill="white"/>
<path d="M7.20434 20.0521C8.48101 21.232 10.1603 21.9483 12.0001 21.9483C13.8398 21.9483 15.5191 21.232 16.7958 20.0521H7.20434Z" fill="white"/>
<path d="M14.9939 9.59966C13.3405 9.59966 12.0001 8.2013 12.0001 6.47634C12.0001 8.2013 10.6597 9.59966 9.0062 9.59966C10.6597 9.59966 12.0001 10.998 12.0001 12.723C12.0001 10.998 13.3405 9.59966 14.9939 9.59966Z" fill="white"/>
</g>
<defs>
<clipPath id="clip0_11793_22899">
<rect width="24" height="24" fill="white"/>
</clipPath>
</defs>
</svg>
