<svg width="24" height="24" viewBox="0 0 24 24" fill="none" xmlns="http://www.w3.org/2000/svg">
<g clip-path="url(#clip0_11967_1598)">
<path d="M24 12C24 5.37258 18.6274 0 12 0C5.37258 0 0 5.37258 0 12C0 18.6274 5.37258 24 12 24C18.6274 24 24 18.6274 24 12Z" fill="#C9FF9F"/>
<path fill-rule="evenodd" clip-rule="evenodd" d="M12.0046 5.77734C11.4841 5.77734 10.9749 5.79811 10.4806 5.83731C10.0614 5.87041 9.65369 5.91775 9.25758 5.97939L9.34801 6.59708C9.72875 6.53783 10.1217 6.49217 10.5269 6.46017C11.0058 6.42219 11.4996 6.40203 12.0046 6.40203C14.2267 6.40203 16.2243 6.78803 17.655 7.40033C18.3711 7.70676 18.9307 8.06373 19.3067 8.44416C19.6816 8.82354 19.8568 9.20716 19.8568 9.57989C19.8568 9.82212 19.7828 10.069 19.6281 10.3163C19.1869 9.90329 18.5906 9.54206 17.8871 9.24082C16.3663 8.58962 14.2862 8.19408 12.0044 8.19408C11.4838 8.19408 10.9746 8.21485 10.4803 8.25405L10.4805 8.25689C8.80022 8.38984 7.28915 8.74041 6.1127 9.24397C5.35297 9.56916 4.71832 9.96432 4.26895 10.4191C3.81855 10.8749 3.53735 11.4095 3.53735 12.0007C3.53735 12.4378 3.69113 12.844 3.95335 13.2102C3.69111 13.5765 3.53735 13.9827 3.53735 14.4199C3.53735 15.0111 3.81871 15.5457 4.26925 16.0015C4.71877 16.4562 5.35358 16.8513 6.11341 17.1764C7.63442 17.8272 9.7144 18.2224 11.9953 18.2224C12.5157 18.2224 13.025 18.2021 13.5194 18.1629C13.9384 18.1292 14.3461 18.0819 14.7419 18.0209L14.6524 17.4031C14.2714 17.4617 13.8783 17.5074 13.473 17.54C12.9942 17.578 12.5005 17.5977 11.9953 17.5977C9.77416 17.5977 7.77662 17.2117 6.34564 16.5994C5.62947 16.293 5.06966 15.936 4.69355 15.5556C4.31848 15.1762 4.14322 14.7926 4.14322 14.4199C4.14322 14.1774 4.21738 13.9302 4.37247 13.6827C4.81376 14.0953 5.41002 14.4563 6.11341 14.7572C7.63442 15.4081 9.7144 15.8033 11.9953 15.8033C12.5159 15.8033 13.0251 15.7825 13.5193 15.7433C13.9381 15.7102 14.3455 15.6637 14.7412 15.6037C15.9319 15.4255 17.0037 15.1326 17.887 14.7545C18.6468 14.4294 19.2814 14.0343 19.7308 13.5796C20.1812 13.1238 20.4624 12.5892 20.4624 11.998C20.4624 11.5612 20.3089 11.1552 20.047 10.7891C20.309 10.4229 20.4626 10.0168 20.4626 9.57989C20.4626 8.98869 20.1814 8.45408 19.731 7.99831C19.2816 7.54359 18.647 7.14849 17.8873 6.82336C16.3664 6.17252 14.2864 5.77734 12.0046 5.77734ZM4.76904 13.2101C5.14293 13.5629 5.67591 13.8937 6.34564 14.1803C7.77662 14.7926 9.77416 15.1786 11.9953 15.1786L12.0044 15.1786V15.1759C14.2265 15.1759 16.224 14.7899 17.6548 14.1776C18.3708 13.8711 18.9305 13.5142 19.3064 13.1337C19.6814 12.7544 19.8566 12.3707 19.8566 11.998C19.8566 11.7558 19.7826 11.509 19.628 11.2618C19.1868 11.6745 18.5906 12.0356 17.8873 12.3366C16.3665 12.9876 14.2864 13.3829 12.0046 13.3829V12.7582C14.2267 12.7582 16.2242 12.3721 17.655 11.7597C18.3249 11.4729 18.8579 11.142 19.2316 10.789C18.8579 10.4358 18.3248 10.1046 17.6547 9.81774C16.224 9.20511 14.2264 8.81877 12.0044 8.81877L11.9953 8.81877V8.8224C9.77326 8.8224 7.77573 9.20851 6.34499 9.82092C5.62895 10.1274 5.06931 10.4844 4.69335 10.8649C4.31842 11.2443 4.14322 11.628 4.14322 12.0007C4.14322 12.2431 4.21737 12.4901 4.37241 12.7376C4.81355 12.325 5.40955 11.9641 6.1127 11.6631C7.6335 11.0122 9.7135 10.6169 11.9953 10.6169V11.2416C9.77326 11.2416 7.77573 11.6277 6.34499 12.2401C5.67553 12.5266 5.14278 12.8574 4.76904 13.2101Z" fill="#283118"/>
</g>
<defs>
<clipPath id="clip0_11967_1598">
<rect width="24" height="24" fill="white"/>
</clipPath>
</defs>
</svg>
