<svg width="24" height="24" viewBox="0 0 24 24" fill="none" xmlns="http://www.w3.org/2000/svg">
<g clip-path="url(#clip0_11793_23952)">
<path d="M17.5062 2.1107C16.8887 2.72827 16.3229 3.39761 15.8199 4.11132L15.6609 4.05955C14.7438 3.76001 13.7934 3.57511 12.8357 3.51224C12.5472 3.49006 11.4711 3.49006 11.1198 3.51224C10.0585 3.58251 9.2449 3.74152 8.3204 4.06325C8.28342 4.07804 8.25014 4.08913 8.21685 4.10023C7.69544 3.39021 7.11485 2.72457 6.4751 2.1144C9.54444 0.542753 13.1352 0.354155 16.3487 1.59298C16.6927 1.72241 17.0292 1.87403 17.3583 2.03674L17.5062 2.1107Z" fill="#F00500"/>
<path d="M23.2309 16.1371C22.7649 17.4647 22.066 18.6961 21.16 19.7685C20.6681 20.3454 20.1245 20.8742 19.5402 21.355C18.172 22.457 16.5745 23.2447 14.8697 23.6588C12.9837 24.1137 11.0164 24.1137 9.13039 23.6588C7.42191 23.2447 5.82808 22.457 4.45982 21.355C3.87554 20.8742 3.33193 20.3454 2.84009 19.7685C0.233007 16.6881 -0.558364 12.4576 0.769217 8.64497C1.02068 7.93865 1.33501 7.25822 1.71221 6.61107C1.88601 6.31523 2.1005 5.98241 2.20404 5.84559C2.55905 7.37286 2.99541 8.71523 3.15812 9.19967C3.14703 9.22556 3.13224 9.25514 3.11744 9.28103C2.25581 11.0265 1.78986 12.7091 1.67893 14.4989C1.67893 14.5211 1.67523 14.547 1.67523 14.5692C1.64564 15.1054 1.66043 15.3605 1.74919 15.6971C2.02654 16.751 2.88077 17.9122 4.21945 19.0511C6.41236 20.9149 9.38555 22.261 11.6376 22.4163C13.9859 22.5753 17.4509 21.2034 19.7584 19.1991C20.1208 18.8773 20.461 18.5371 20.7791 18.1747C21.0084 17.9085 21.3486 17.4499 21.3227 17.4499C21.3153 17.4499 21.3227 17.4425 21.3375 17.4351C21.3486 17.4277 21.3597 17.4166 21.3523 17.4092C21.3486 17.4055 21.356 17.3944 21.3671 17.3907C21.3782 17.387 21.3855 17.3796 21.3819 17.3722C21.3782 17.3648 21.3819 17.3575 21.3966 17.3538C21.4077 17.3501 21.4114 17.339 21.4077 17.3316C21.404 17.3242 21.4077 17.3168 21.4151 17.3168C21.4225 17.3168 21.4299 17.3057 21.4299 17.2983C21.4299 17.2909 21.4373 17.2798 21.4447 17.2798C21.4521 17.2798 21.4595 17.2724 21.4595 17.265C21.4706 17.2354 21.4891 17.2058 21.5076 17.1799C21.5631 17.0949 21.7849 16.6992 21.8145 16.6326C22.0253 16.1556 22.1584 15.7303 22.2213 15.3051C22.2509 15.1017 22.2694 14.7282 22.2546 14.6394C22.2509 14.6246 22.2509 14.5987 22.2472 14.5581C22.2398 14.4841 22.2361 14.3732 22.2287 14.2622C22.2213 14.0958 22.2065 13.8628 22.1954 13.7482C22.0364 12.0693 21.6074 10.6974 20.7939 9.24405C20.7606 9.18858 20.731 9.13311 20.7125 9.08873C20.7051 9.07764 20.7014 9.06654 20.6977 9.05915C20.8124 8.71523 21.282 7.27671 21.6555 5.6311L21.6629 5.6385L21.7184 5.71246C21.8145 5.84189 22.0697 6.22648 22.1843 6.41138C22.7057 7.26192 23.1125 8.17533 23.401 9.12941C24.0703 11.4259 24.0148 13.8739 23.2309 16.1371Z" fill="#F00500"/>
<path d="M18.4308 11.7181C18.4197 11.7773 18.2459 11.9548 18.0721 12.0842C17.5618 12.4577 16.6484 12.8054 15.7202 12.9718C15.1914 13.0679 14.6626 13.0827 14.5035 13.005C14.4 12.9533 14.3852 12.9126 14.4222 12.7795C14.4999 12.5021 14.7513 12.1989 15.1433 11.9141C15.343 11.7699 16.1529 11.2781 16.5301 11.071C17.1513 10.7308 17.6542 10.5274 17.9945 10.4793C18.1017 10.4645 18.2311 10.4608 18.2718 10.4793C18.3384 10.5052 18.4123 10.7012 18.4419 10.9379C18.4567 11.0636 18.4493 11.6183 18.4308 11.7181Z" fill="black"/>
<path d="M9.71823 12.9421C9.69604 12.9865 9.5851 13.0346 9.45937 13.053C9.33364 13.0715 8.94905 13.0604 8.73087 13.0346C7.94689 12.931 7.11484 12.6906 6.50837 12.3948C6.16815 12.2284 5.92408 12.062 5.74288 11.8808L5.63934 11.7735L5.62824 11.633C5.60975 11.3889 5.61345 11.0044 5.64304 10.8675C5.66153 10.7529 5.7022 10.642 5.75767 10.5421C5.78726 10.5051 5.78726 10.5051 5.92039 10.5051C6.0831 10.5051 6.21992 10.531 6.4418 10.6013C6.89666 10.7418 7.57339 11.082 8.39805 11.5775C9.07848 11.9843 9.33364 12.184 9.52963 12.4577C9.66276 12.6278 9.75151 12.8681 9.71823 12.9421Z" fill="black"/>
<path d="M14.9547 18.0899C14.9547 18.1009 14.9104 18.2784 14.8549 18.4892C14.7994 18.7 14.7551 18.8701 14.7551 18.8775C14.7144 18.8812 14.6774 18.8849 14.6367 18.8812H14.5184L14.3557 19.2658C14.2669 19.4766 14.1856 19.6726 14.1745 19.7022L14.1523 19.754L14.0746 19.6282L13.997 19.5025V18.4781L13.9674 18.4855C13.9045 18.5003 13.4571 18.5595 13.2611 18.578C12.4512 18.6593 11.6376 18.6409 10.8315 18.5262C10.702 18.5077 10.5911 18.4929 10.5874 18.4966C10.5837 18.5003 10.5874 18.737 10.5948 19.0291L10.6059 19.5543L10.543 19.6504C10.5098 19.7022 10.4765 19.7466 10.4765 19.7503C10.4654 19.7613 10.4284 19.7022 10.3433 19.5321C10.2509 19.3546 10.1843 19.166 10.1363 18.97L10.1104 18.8627L9.99573 18.8701L9.88109 18.8812L9.8515 18.7444C9.83671 18.6704 9.81822 18.5558 9.81083 18.4929L9.79974 18.3746L9.70358 18.2895C9.64811 18.2415 9.59265 18.1934 9.58155 18.186C9.56306 18.1712 9.55566 18.1453 9.55566 18.1231V18.0788L10.0179 18.0825L10.4802 18.0862L10.495 18.1342L10.5097 18.1823L10.6688 18.1897C10.7575 18.1934 11.0386 18.2008 11.29 18.2082L11.7523 18.2193L11.8706 18.0344L11.9926 17.8495H12.148L12.1443 17.4649L12.1406 17.0803L11.9372 16.9915C11.2826 16.7031 10.898 16.374 10.7538 15.9746C10.7242 15.8932 10.7242 15.8637 10.7168 15.4939C10.7131 15.1278 10.7131 15.0945 10.739 15.0131C10.7908 14.8282 10.935 14.684 11.1199 14.6359C11.1828 14.6174 11.3492 14.6174 12.2219 14.6174L13.25 14.6211L13.3646 14.6766C13.5014 14.7432 13.5643 14.7912 13.642 14.8948C13.7307 15.0131 13.7566 15.1056 13.7566 15.3311C13.7566 15.6529 13.7344 15.9302 13.7011 16.0412C13.653 16.1928 13.5791 16.337 13.4866 16.4664C13.3017 16.7031 12.9652 16.9398 12.6583 17.047L12.5695 17.0803L12.5732 17.4686L12.5769 17.8569L12.6583 17.8643L12.7396 17.8717L12.8506 18.0381L12.9578 18.2045H13.4534C13.727 18.2045 13.9674 18.2082 13.9896 18.2119C14.0265 18.2193 14.0339 18.2156 14.0709 18.1527L14.1153 18.0862H14.5406C14.8586 18.0714 14.9547 18.0788 14.9547 18.0899Z" fill="black"/>
<path d="M13.0022 19.151C12.932 19.1917 12.8839 19.2102 12.8728 19.2028C12.8617 19.1991 12.8099 19.1547 12.7545 19.114L12.6546 19.0327L12.5511 19.1436C12.3255 19.3877 12.3181 19.3988 12.2515 19.4025C12.148 19.4136 12.1258 19.3951 12.0001 19.2065C11.9335 19.1103 11.8817 19.029 11.8817 19.029C11.8817 19.029 11.8337 19.0216 11.7782 19.0179L11.6747 19.0068L11.6266 19.1066L11.5785 19.2065L11.4935 19.1806C11.4269 19.1584 11.3603 19.1325 11.2975 19.1029L11.1865 19.0475V18.8367L12.1702 18.8404L13.1539 18.8441L13.1576 18.9439C13.1613 19.0622 13.165 19.0585 13.0022 19.151Z" fill="black"/>
<path d="M22.2472 14.6395C22.2435 14.6247 22.2435 14.5988 22.2398 14.5581C21.3523 14.462 18.8191 14.4028 16.4672 16.3443C16.4672 16.3443 15.7091 12.8682 12.159 12.8682C8.60897 12.8682 7.29248 16.3443 7.29248 16.3443C5.30296 14.2031 2.6404 14.3585 1.67892 14.499C1.67892 14.5212 1.67522 14.5471 1.67522 14.5692C1.64564 15.1055 1.66043 15.3606 1.74918 15.6971C2.02653 16.7511 2.88077 17.9122 4.21945 19.0512C6.41236 20.915 9.38555 22.2611 11.6376 22.4164C13.9859 22.5754 17.4509 21.2034 19.7584 19.1991C20.1208 18.8774 20.461 18.5372 20.7791 18.1748C21.0084 17.9085 21.3486 17.45 21.3227 17.45C21.3153 17.45 21.3227 17.4426 21.3375 17.4352C21.3486 17.4278 21.3597 17.4167 21.3523 17.4093C21.3486 17.4056 21.356 17.3945 21.3671 17.3908C21.3782 17.3871 21.3855 17.3797 21.3819 17.3723C21.3782 17.3649 21.3819 17.3575 21.3966 17.3538C21.4077 17.3501 21.4114 17.339 21.4077 17.3316C21.404 17.3243 21.4077 17.3169 21.4151 17.3169C21.4225 17.3169 21.4299 17.3058 21.4299 17.2984C21.4299 17.291 21.4373 17.2799 21.4447 17.2799C21.4521 17.2799 21.4595 17.2725 21.4595 17.2651C21.4706 17.2355 21.4891 17.2059 21.5076 17.18C21.5631 17.095 21.7849 16.6993 21.8145 16.6327C22.0253 16.1557 22.1584 15.7304 22.2213 15.3051C22.2435 15.1018 22.262 14.7283 22.2472 14.6395ZM13.0022 19.1511C12.9319 19.1917 12.8839 19.2102 12.8728 19.2028C12.8617 19.1991 12.8099 19.1548 12.7544 19.1141L12.6546 19.0327L12.551 19.1437C12.3255 19.3877 12.3181 19.3988 12.2515 19.4025C12.148 19.4136 12.1258 19.3951 12 19.2065C11.9335 19.1104 11.8817 19.029 11.8817 19.029C11.8817 19.029 11.8336 19.0216 11.7782 19.0179L11.6746 19.0068L11.6265 19.1067L11.5785 19.2065L11.4934 19.1806C11.4268 19.1585 11.3603 19.1326 11.2974 19.103L11.1865 19.0475V18.8367L12.1701 18.8404L13.1538 18.8441L13.1575 18.944C13.1612 19.0623 13.1649 19.0586 13.0022 19.1511ZM14.8512 18.4854C14.7957 18.6962 14.7513 18.8663 14.7513 18.8737C14.7107 18.8774 14.6737 18.8811 14.633 18.8774H14.5147L14.3557 19.2657C14.2669 19.4765 14.1855 19.6725 14.1745 19.7021L14.1523 19.7538L14.0746 19.6281L13.997 19.5024V18.478L13.9674 18.4854C13.9045 18.5002 13.457 18.5594 13.261 18.5779C12.4512 18.6592 11.6376 18.6407 10.8315 18.5261C10.702 18.5076 10.5911 18.4928 10.5874 18.4965C10.5837 18.5002 10.5874 18.7369 10.5948 19.029L10.6059 19.5541L10.543 19.6503C10.5097 19.7021 10.4765 19.7464 10.4765 19.7501C10.4654 19.7612 10.4284 19.7021 10.3433 19.532C10.2509 19.3545 10.1843 19.1659 10.1362 18.9699L10.1104 18.8626L9.99572 18.87L9.88108 18.8811L9.85149 18.7443C9.8367 18.6703 9.81821 18.5557 9.81082 18.4928L9.79973 18.3745L9.70357 18.2894C9.6481 18.2414 9.59264 18.1933 9.58154 18.1859C9.56305 18.1711 9.55565 18.1452 9.55565 18.123V18.0786L10.0179 18.0823L10.4802 18.086L10.4949 18.1341L10.5097 18.1822L10.6688 18.1896C10.7575 18.1933 11.0386 18.2007 11.29 18.2081L11.7523 18.2192L11.8706 18.0343L11.9926 17.8494H12.148L12.1443 17.4648L12.1406 17.0802L11.9372 16.9914C11.2826 16.703 10.898 16.3739 10.7538 15.9745C10.7242 15.8931 10.7242 15.8635 10.7168 15.4937C10.7131 15.1276 10.7131 15.0944 10.739 15.013C10.7908 14.8281 10.935 14.6839 11.1199 14.6358C11.1828 14.6173 11.3492 14.6173 12.2219 14.6173L13.25 14.621L13.3646 14.6765C13.5014 14.743 13.5643 14.7911 13.6419 14.8947C13.7307 15.013 13.7566 15.1055 13.7566 15.331C13.7566 15.6528 13.7344 15.9301 13.7011 16.041C13.653 16.1927 13.5791 16.3369 13.4866 16.4663C13.3017 16.703 12.9652 16.9397 12.6583 17.0469L12.5695 17.0802L12.5732 17.4685L12.5769 17.8568L12.6583 17.8642L12.7396 17.8716L12.8506 18.038L12.9578 18.2044H13.4533C13.727 18.2044 13.9674 18.2081 13.9896 18.2118C14.0265 18.2192 14.0339 18.2155 14.0709 18.1526L14.1153 18.086H14.5406C14.8697 18.086 14.9658 18.0897 14.9658 18.1008C14.9547 18.0971 14.9067 18.2783 14.8512 18.4854Z" fill="white"/>
<path d="M22.2175 14.2624C22.2101 14.096 22.1953 13.863 22.1842 13.7483C22.0252 12.0694 21.5962 10.6975 20.7826 9.24418C20.7494 9.18871 20.7198 9.13324 20.7013 9.08886C20.6939 9.07777 20.6902 9.06668 20.6865 9.05928C20.8011 8.71537 21.2708 7.27684 21.6443 5.63124C22.1509 3.39764 22.4726 0.78686 21.489 0.00288468C21.489 0.00288468 19.7879 -0.122847 17.5099 2.11074C16.8923 2.72831 16.3265 3.39765 15.8236 4.11136L15.6646 4.05959C14.7475 3.76005 13.7971 3.57515 12.8393 3.51228C12.5509 3.4901 11.4748 3.4901 11.1235 3.51228C10.0621 3.58255 9.24858 3.74156 8.32408 4.06328C8.2871 4.07808 8.25382 4.08917 8.22054 4.10026C7.69912 3.39025 7.11854 2.72461 6.47878 2.11444C4.10837 -0.130243 2.34442 -0.000813542 2.34442 -0.000813542C1.30159 0.809048 1.6566 3.53817 2.1965 5.84572C2.55151 7.37299 2.98787 8.71536 3.15059 9.1998C3.13949 9.22569 3.1247 9.25527 3.10991 9.28116C2.24828 11.0266 1.78233 12.7092 1.67139 14.499C2.63656 14.3585 5.29542 14.1995 7.28864 16.3443C7.28864 16.3443 8.60513 12.8682 12.1552 12.8682C15.7053 12.8682 16.4634 16.3443 16.4634 16.3443C18.8153 14.4029 21.3484 14.4658 22.2359 14.5582C22.2322 14.4842 22.2249 14.3733 22.2175 14.2624ZM3.84951 7.80566C3.84951 7.80566 2.46646 4.34803 2.82146 2.3733C2.88063 2.04048 2.99157 1.74834 3.16538 1.52646C3.16538 1.52646 4.73333 1.68177 7.26276 4.49225C7.26276 4.49225 6.78202 4.72523 6.13857 5.22076C6.13857 5.22076 6.13487 5.22446 6.13117 5.22446C5.43225 5.76066 4.53734 6.61121 3.84951 7.80566ZM9.71823 12.9422C9.69604 12.9866 9.5851 13.0346 9.45937 13.0531C9.33364 13.0716 8.94905 13.0605 8.73086 13.0346C7.94689 12.9311 7.11484 12.6907 6.50837 12.3949C6.16815 12.2285 5.92408 12.0621 5.74288 11.8808L5.63934 11.7736L5.62824 11.6331C5.60975 11.389 5.61345 11.0044 5.64304 10.8676C5.66153 10.753 5.7022 10.642 5.75767 10.5422C5.78726 10.5052 5.78726 10.5052 5.92039 10.5052C6.0831 10.5052 6.21992 10.5311 6.4418 10.6013C6.89666 10.7419 7.57339 11.0821 8.39804 11.5776C9.07848 11.9844 9.33364 12.1841 9.52963 12.4577C9.66276 12.6278 9.75151 12.8682 9.71823 12.9422ZM18.4307 11.7181C18.4196 11.7773 18.2458 11.9548 18.072 12.0842C17.5617 12.4577 16.6483 12.8053 15.7201 12.9718C15.1913 13.0679 14.6624 13.0827 14.5034 13.005C14.3999 12.9533 14.3851 12.9126 14.4221 12.7795C14.4997 12.5021 14.7512 12.1989 15.1432 11.9141C15.3429 11.7699 16.1527 11.2781 16.5299 11.071C17.1512 10.7308 17.6541 10.5274 17.9943 10.4793C18.1016 10.4645 18.231 10.4608 18.2717 10.4793C18.3383 10.5052 18.4122 10.7012 18.4418 10.9379C18.4566 11.0636 18.4492 11.6183 18.4307 11.7181ZM17.8168 5.22076L17.8094 5.21706C17.1882 4.72153 16.7222 4.48855 16.7222 4.48855C19.1666 1.67808 20.6791 1.52276 20.6791 1.52276C20.8455 1.74834 20.9527 2.03678 21.0119 2.3696C21.3558 4.34433 20.0208 7.80566 20.0208 7.80566C19.4624 6.8109 18.7118 5.93077 17.8168 5.22076Z" fill="#FFA409"/>
<path d="M21.0158 2.36955C20.7273 2.33257 19.3628 2.32517 17.817 5.2207L17.8096 5.217C17.1884 4.72147 16.7224 4.4885 16.7224 4.4885C19.1668 1.67802 20.6793 1.52271 20.6793 1.52271C20.8494 1.74828 20.9566 2.03673 21.0158 2.36955Z" fill="#FF9300"/>
<path d="M20.0246 7.80571C19.4625 6.80725 18.7155 5.93082 17.8169 5.22081C19.3627 2.32527 20.7235 2.33267 21.0157 2.36965C21.3596 4.34808 20.0246 7.80571 20.0246 7.80571Z" fill="#FF8300"/>
<path d="M21.0711 2.38072C21.0526 2.37702 21.0341 2.37333 21.0156 2.36963L21.0711 2.38072Z" fill="#FF8300"/>
<path d="M7.26286 4.4885C7.26286 4.4885 6.78213 4.72147 6.13867 5.217C6.13867 5.217 6.13497 5.2207 6.13128 5.2207C4.53004 2.32147 3.12111 2.33257 2.81787 2.36955C2.87704 2.03673 2.98798 1.74458 3.16179 1.52271C3.16548 1.52271 4.73343 1.67802 7.26286 4.4885Z" fill="#FF9300"/>
<path d="M6.13486 5.22081C5.43224 5.76071 4.53733 6.60755 3.8495 7.80571C3.8495 7.80571 2.46645 4.34808 2.82146 2.36965C3.12099 2.33267 4.53363 2.32527 6.13486 5.22081Z" fill="#FF8300"/>
<path d="M2.82162 2.36963C2.80313 2.37333 2.78094 2.37702 2.76245 2.38072L2.82162 2.36963Z" fill="#FF8300"/>
<path d="M16.2824 9.72486C16.2824 9.72486 15.099 9.79882 15.2469 8.87432C15.3948 7.94983 16.3193 7.83889 16.5782 7.87587C16.8371 7.91285 17.8725 8.28265 17.6876 9.05922C17.5027 9.8358 17.2438 9.68788 17.0959 9.72486C16.948 9.76184 16.2824 9.72486 16.2824 9.72486Z" fill="white"/>
<path d="M7.55507 9.72486C7.55507 9.72486 6.37171 9.79882 6.51963 8.87432C6.66755 7.94983 7.59205 7.83889 7.85091 7.87587C8.10977 7.91285 9.14521 8.28265 8.96031 9.05922C8.77541 9.8358 8.51655 9.68788 8.36863 9.72486C8.22071 9.76184 7.55507 9.72486 7.55507 9.72486Z" fill="white"/>
</g>
<defs>
<clipPath id="clip0_11793_23952">
<rect width="24" height="24" fill="white"/>
</clipPath>
</defs>
</svg>
