<svg width="24" height="24" viewBox="0 0 24 24" fill="none" xmlns="http://www.w3.org/2000/svg">
<g clip-path="url(#clip0_11966_1385)">
<path d="M24 12C24 5.37258 18.6274 0 12 0C5.37258 0 0 5.37258 0 12C0 18.6274 5.37258 24 12 24C18.6274 24 24 18.6274 24 12Z" fill="url(#paint0_radial_11966_1385)"/>
<path d="M7.45434 15.166H5.79517C5.93061 17.7564 8.09767 20.0081 11.9409 20.0081C15.7672 20.0081 18.2052 17.9087 18.2052 15.1999C18.2052 10.053 10.4341 10.3408 10.4341 7.3611C10.4341 6.5315 11.0605 5.54954 12.5165 5.54954C14.1419 5.54954 16.055 6.81932 16.1904 8.44466H17.8327C17.6634 5.82043 15.1069 3.99194 11.8563 3.99194C8.48708 3.99194 5.94754 5.95587 5.94754 8.73243C5.94754 14.0317 13.7186 13.3375 13.7186 16.6051C13.7186 17.6209 13.0921 18.4674 11.5176 18.4674C9.55371 18.4674 7.57288 17.0961 7.45434 15.166ZM8.84264 7.7505C8.84264 11.7799 16.546 10.9842 16.546 15.2845C16.546 16.5712 15.6995 17.7055 14.6836 17.9934C15.0391 17.6548 15.3101 16.9098 15.3101 16.1988C15.3101 12.2201 7.5898 12.7619 7.5898 8.68168C7.5898 7.31029 8.47016 6.20983 9.57063 5.87122C9.1474 6.37913 8.84264 7.03942 8.84264 7.7505Z" fill="white"/>
</g>
<defs>
<radialGradient id="paint0_radial_11966_1385" cx="0" cy="0" r="1" gradientUnits="userSpaceOnUse" gradientTransform="translate(12 37.3801) rotate(-90) scale(37.3801)">
<stop stop-color="#FFEF79"/>
<stop offset="1" stop-color="#00C2A1"/>
</radialGradient>
<clipPath id="clip0_11966_1385">
<rect width="24" height="24" fill="white"/>
</clipPath>
</defs>
</svg>
