<svg width="24" height="24" viewBox="0 0 24 24" fill="none" xmlns="http://www.w3.org/2000/svg">
<g clip-path="url(#clip0_11793_23917)">
<path d="M11.975 23.95C18.5887 23.95 23.95 18.5887 23.95 11.975C23.95 5.36138 18.5887 0 11.975 0C5.36138 0 0 5.36138 0 11.975C0 18.5887 5.36138 23.95 11.975 23.95Z" fill="#1D2229"/>
<path d="M9.92706 10.8521H7.92188V12.8572H9.92706V10.8521Z" fill="white"/>
<path d="M7.9217 8.84692H5.9165V10.8521L7.92172 10.8521L7.9217 8.84692Z" fill="white"/>
<path d="M5.91632 10.8521H3.91113V12.8572H5.91632V10.8521Z" fill="white"/>
<path d="M7.92172 12.8573L5.9165 12.8572V14.8624H7.9217L7.92172 12.8573Z" fill="white"/>
<path d="M19.3203 9.27867C19.1789 7.80395 17.9061 7.30892 16.2984 7.16755V6.2229H15.0537V7.11365C14.7266 7.11365 14.3922 7.11992 14.0596 7.1262V6.22217H12.8156V7.16643C12.5461 7.1716 10.8905 7.17013 10.8905 7.17013L10.8868 8.26758L11.9256 8.2735V15.4662H10.8871L10.8779 16.5482C11.1795 16.5482 12.5217 16.5541 12.8126 16.556V17.4885H14.0566V16.5781C14.3977 16.5855 14.7285 16.5884 15.0511 16.5881V17.4888H16.2962V16.5604C18.3896 16.4412 19.8554 15.9144 20.0374 13.9491C20.1851 12.3662 19.4409 11.6604 18.2526 11.3732C18.9748 11.0041 19.4263 10.3577 19.3209 9.2783L19.3203 9.27867ZM17.5761 13.7021C17.5761 15.2485 14.9289 15.0716 14.0843 15.072V12.3307C14.9285 12.3307 17.5746 12.0897 17.5749 13.7021H17.5761ZM16.9983 9.83423C16.9983 11.241 14.7894 11.076 14.0861 11.076V8.58948C14.7905 8.58985 16.9991 8.36688 16.9983 9.83423Z" fill="white"/>
</g>
<defs>
<clipPath id="clip0_11793_23917">
<rect width="24" height="24" fill="white"/>
</clipPath>
</defs>
</svg>
