<svg width="24" height="24" viewBox="0 0 24 24" fill="none" xmlns="http://www.w3.org/2000/svg">
<g clip-path="url(#clip0_11966_1407)">
<path d="M24 12C24 5.37258 18.6274 0 12 0C5.37258 0 0 5.37258 0 12C0 18.6274 5.37258 24 12 24C18.6274 24 24 18.6274 24 12Z" fill="black"/>
<path d="M6.96289 9.8667V17.1294C6.96269 17.2182 6.98644 17.3055 7.03174 17.3824C7.07704 17.4593 7.1423 17.523 7.22083 17.5672C7.96467 17.9863 10.1325 19.2087 11.3244 19.878C11.424 19.9346 11.5783 20.0274 11.65 19.9923C12.0484 19.7969 12.4387 19.5594 12.8639 19.3191C12.7524 19.2438 12.6946 19.1999 12.6309 19.1637C11.1857 18.341 9.74078 17.5183 8.29625 16.6956V15.23L9.45034 15.8837C10.9287 16.7194 12.4075 17.5538 13.8866 18.3869C13.9961 18.4485 14.1593 18.5472 14.238 18.5101C14.6702 18.302 15.0844 18.0567 15.5614 17.7928L8.29226 13.6549V12.2029C8.92159 12.5566 9.54795 12.9143 10.1773 13.2689C12.3381 14.4884 14.4986 15.7081 16.6588 16.9281C16.7235 16.9655 16.7973 16.9852 16.8724 16.9852C16.9475 16.9852 17.0212 16.9655 17.086 16.9281C17.4623 16.7093 17.8411 16.4936 18.2221 16.2813L16.6986 15.4107L6.96289 9.8667Z" fill="url(#paint0_linear_11966_1407)"/>
<path d="M19.1547 7.86899C18.1798 7.34666 17.2131 6.81288 16.2444 6.28198L14.7196 5.44702L13.3825 6.17619C14.8551 6.97684 16.3282 7.7762 17.8014 8.57431C17.8868 8.60911 17.9588 8.66799 18.0074 8.7429C18.0559 8.81781 18.0788 8.90508 18.0729 8.99275C18.0729 9.35371 18.0729 9.71461 18.0729 10.0755L18.0608 10.0689C17.3251 9.67616 15.0495 8.50283 14.3189 8.1025C13.5884 7.70218 12.8315 7.28851 12.0878 6.88151L10.669 7.65548C12.6277 8.72015 16.0102 10.4911 18.077 11.6101C18.077 12.0879 18.0786 12.5645 18.082 13.0398C18.0579 13.0234 18.033 13.0081 18.0073 12.9941C15.1949 11.4623 10.8426 9.15572 8.03418 7.61448L9.31475 6.91583L10.7386 6.13996L12.0262 5.43654L13.3654 4.70546L12.2462 4.0945C12.1544 4.04494 12.0101 3.97537 11.9435 4.00873C11.7245 4.11453 11.5106 4.22796 11.2926 4.34615L6.51542 6.94727L6.45694 6.97587L6.24299 7.09597L4.83023 7.86517C4.75384 7.89771 4.69008 7.95188 4.64777 8.0202C4.60546 8.08851 4.5867 8.16759 4.59411 8.24643C4.60151 10.7659 4.60317 13.2851 4.59914 15.8039C4.59198 15.8878 4.61246 15.9716 4.65782 16.044C4.70318 16.1164 4.77115 16.1737 4.8524 16.2081C5.21972 16.3987 5.58503 16.6008 5.94932 16.8V15.1339C5.94269 15.0916 5.9393 15.0489 5.93922 15.0062C5.95133 12.9226 5.95034 10.839 5.95135 8.7554L6.60629 8.39797C9.05542 9.73237 12.2806 11.4481 15.1626 12.9893L15.1848 13.0007C16.0547 13.4678 16.8932 13.9186 17.6702 14.3351L19.3858 15.2559C19.3858 12.929 19.3925 10.602 19.4059 8.27503C19.4131 8.19119 19.3928 8.10728 19.3479 8.03467C19.303 7.96205 19.2355 7.90423 19.1547 7.86899Z" fill="url(#paint1_linear_11966_1407)"/>
</g>
<defs>
<linearGradient id="paint0_linear_11966_1407" x1="6.96409" y1="14.9383" x2="18.2172" y2="14.9383" gradientUnits="userSpaceOnUse">
<stop stop-color="#B000FD"/>
<stop offset="0.0001" stop-color="#B000FD"/>
<stop offset="0.98" stop-color="#30DAFF"/>
</linearGradient>
<linearGradient id="paint1_linear_11966_1407" x1="4.59411" y1="10.4063" x2="19.4009" y2="10.4063" gradientUnits="userSpaceOnUse">
<stop stop-color="#B000FD"/>
<stop offset="0.0001" stop-color="#B000FD"/>
<stop offset="0.98" stop-color="#30DAFF"/>
</linearGradient>
<clipPath id="clip0_11966_1407">
<rect width="24" height="24" fill="white"/>
</clipPath>
</defs>
</svg>
