<svg width="24" height="24" viewBox="0 0 24 24" fill="none" xmlns="http://www.w3.org/2000/svg">
<g clip-path="url(#clip0_11793_23991)">
<path d="M12 24C18.6278 24 24 18.6278 24 12C24 5.37225 18.6278 0 12 0C5.37225 0 0 5.37225 0 12C0 18.6278 5.37225 24 12 24Z" fill="#0098EA"/>
<path d="M16.0973 6.69751H7.9021C6.39535 6.69751 5.4406 8.32276 6.19885 9.63751L11.2561 18.4035C11.5861 18.9758 12.4133 18.9758 12.7433 18.4035L17.8021 9.63676C18.5596 8.32501 17.6041 6.69751 16.0981 6.69751H16.0973ZM11.2523 15.774L10.1506 13.6425L7.4926 8.88901C7.45221 8.81801 7.43128 8.73761 7.4319 8.65593C7.43253 8.57425 7.45469 8.49419 7.49615 8.42381C7.53762 8.35344 7.59691 8.29525 7.66806 8.25512C7.7392 8.21499 7.81967 8.19434 7.90135 8.19526H11.2501V15.7755L11.2516 15.774H11.2523ZM16.5046 8.88826L13.8481 13.6433L12.7463 15.774V8.19376H16.0966C16.4641 8.19376 16.6801 8.58376 16.5046 8.88826Z" fill="white"/>
</g>
<defs>
<clipPath id="clip0_11793_23991">
<rect width="24" height="24" fill="white"/>
</clipPath>
</defs>
</svg>
