<svg width="24" height="24" viewBox="0 0 24 24" fill="none" xmlns="http://www.w3.org/2000/svg">
<g clip-path="url(#clip0_11793_22902)">
<path d="M12 24C18.6274 24 24 18.6274 24 12C24 5.37258 18.6274 0 12 0C5.37258 0 0 5.37258 0 12C0 18.6274 5.37258 24 12 24Z" fill="#2B75C6"/>
<path d="M9.35089 4.19024C9.67107 4.08316 9.98899 4.32975 9.98899 4.66527V5.17963C9.98899 5.40581 9.83977 5.60377 9.6264 5.68288C7.04833 6.63872 5.21247 9.10648 5.21247 12.0001C5.21247 14.8937 7.04833 17.3614 9.62641 18.3173C9.83977 18.3964 9.98899 18.5943 9.98899 18.8205V19.3349C9.98899 19.6704 9.67107 19.917 9.35089 19.8099C6.06823 18.7121 3.7041 15.6303 3.7041 12.0001C3.7041 8.36989 6.06823 5.28807 9.35089 4.19024Z" fill="white"/>
<path d="M14.3739 18.3173C14.1605 18.3964 14.0113 18.5943 14.0113 18.8205V19.3349C14.0113 19.6704 14.3292 19.917 14.6494 19.8099C17.9321 18.7121 20.2962 15.6303 20.2962 12.0001C20.2962 8.36989 17.9321 5.28807 14.6494 4.19024C14.3292 4.08316 14.0113 4.32975 14.0113 4.66527V5.17963C14.0113 5.40581 14.1605 5.60377 14.3739 5.68288C16.952 6.63872 18.7878 9.10648 18.7878 12.0001C18.7878 14.8937 16.952 17.3614 14.3739 18.3173Z" fill="white"/>
<path d="M11.4225 7.05021C11.4225 6.91232 11.5351 6.80055 11.6739 6.80055H12.3778C12.5166 6.80055 12.6292 6.91232 12.6292 7.05021V8.01159C12.9901 8.05525 13.3219 8.14732 13.6247 8.28779C14.064 8.48804 14.4042 8.77233 14.6455 9.14064C14.846 9.44233 14.9644 9.77761 15.0007 10.1465C15.0142 10.2837 14.9002 10.3958 14.7613 10.3958H13.6438C13.505 10.3958 13.3957 10.2831 13.372 10.1472C13.33 9.90711 13.2234 9.71283 13.0521 9.56439C12.8253 9.36414 12.5066 9.26401 12.0962 9.26401C11.7001 9.26401 11.3922 9.34804 11.1726 9.51611C10.9529 9.6806 10.8431 9.89873 10.8431 10.1705C10.8431 10.4244 10.9709 10.6372 11.2266 10.8088C11.4858 10.9804 11.8657 11.1414 12.3662 11.2915C12.4322 11.3112 12.4969 11.3305 12.5604 11.3493L12.5637 11.3503C13.3856 11.5942 13.9986 11.7762 14.3892 12.1541C14.8104 12.5618 15.0127 13.2315 15.0127 13.8394C15.0127 14.5152 14.7553 15.0462 14.2404 15.4324C13.8214 15.7438 13.2844 15.9285 12.6293 15.9864L12.6292 16.9287C12.6292 17.0666 12.5166 17.1783 12.3778 17.1783H11.6738C11.535 17.1783 11.4224 17.0665 11.4224 16.9287V15.9478C11.0997 15.8946 10.795 15.805 10.5082 15.6792C10.0113 15.4575 9.63147 15.1553 9.36862 14.7727C9.15299 14.4544 9.02704 14.0942 8.99075 13.6918C8.97837 13.5545 9.09229 13.4424 9.23114 13.4424H10.3541C10.4929 13.4424 10.6029 13.555 10.6215 13.6916C10.7161 14.3873 11.2293 14.7351 12.161 14.7351C12.5462 14.7351 12.8469 14.6582 13.063 14.5045C13.279 14.3471 13.387 14.129 13.387 13.8501C13.387 13.5461 13.2873 13.1518 13.0713 12.9909C12.9426 12.8929 12.7495 12.8498 12.4956 12.7932C12.3234 12.7548 12.1233 12.7101 11.8963 12.6379C11.3346 12.4555 10.8899 12.2767 10.5623 12.1015C9.66928 11.6223 9.22279 10.9769 9.22279 10.1651C9.22279 9.74318 9.34161 9.36771 9.57926 9.03873C9.82051 8.70617 10.1644 8.44692 10.6109 8.26097C10.8643 8.15628 11.1348 8.08105 11.4225 8.03531V7.05021Z" fill="white"/>
</g>
<defs>
<clipPath id="clip0_11793_22902">
<rect width="24" height="24" fill="white"/>
</clipPath>
</defs>
</svg>
