<svg width="24" height="24" viewBox="0 0 24 24" fill="none" xmlns="http://www.w3.org/2000/svg">
<g clip-path="url(#clip0_11967_1611)">
<path d="M12 24C18.6274 24 24 18.6274 24 12C24 5.37258 18.6274 0 12 0C5.37258 0 0 5.37258 0 12C0 18.6274 5.37258 24 12 24Z" fill="white"/>
<path d="M12.0001 7.93745C13.3955 7.93745 14.5266 7.27988 14.5266 6.46873C14.5266 5.65757 13.3955 5 12.0001 5C10.6047 5 9.4735 5.65757 9.4735 6.46873C9.4735 7.27988 10.6047 7.93745 12.0001 7.93745Z" fill="#E6007A"/>
<path d="M12.0001 19C13.3955 19 14.5266 18.3424 14.5266 17.5313C14.5266 16.7201 13.3955 16.0625 12.0001 16.0625C10.6047 16.0625 9.4735 16.7201 9.4735 17.5313C9.4735 18.3424 10.6047 19 12.0001 19Z" fill="#E6007A"/>
<path d="M8.47857 9.96878C9.17626 8.76148 9.17184 7.45399 8.4687 7.04841C7.76555 6.64283 6.62995 7.29276 5.93226 8.50006C5.23457 9.70735 5.23899 11.0148 5.94213 11.4204C6.64528 11.826 7.78088 11.1761 8.47857 9.96878Z" fill="#E6007A"/>
<path d="M18.0679 15.5C18.7656 14.2927 18.7612 12.9852 18.0581 12.5797C17.3549 12.1741 16.2193 12.824 15.5216 14.0313C14.8239 15.2386 14.8284 16.5461 15.5315 16.9517C16.2347 17.3573 17.3703 16.7073 18.0679 15.5Z" fill="#E6007A"/>
<path d="M8.46869 16.9516C9.17183 16.546 9.17625 15.2385 8.47856 14.0312C7.78087 12.8239 6.64527 12.174 5.94213 12.5796C5.23898 12.9852 5.23457 14.2927 5.93226 15.5C6.62995 16.7073 7.76555 17.3572 8.46869 16.9516Z" fill="#E6007A"/>
<path d="M18.058 11.4205C18.7612 11.0149 18.7656 9.7074 18.0679 8.5001C17.3702 7.2928 16.2346 6.64288 15.5315 7.04845C14.8283 7.45403 14.8239 8.76153 15.5216 9.96882C16.2193 11.1761 17.3549 11.826 18.058 11.4205Z" fill="#E6007A"/>
<path d="M22.8305 17.1737C23.5802 15.6071 24 13.8526 24 12C24 5.37258 18.6274 0 12 0C5.37258 0 0 5.37258 0 12C0 18.6274 5.37258 24 12 24C13.8526 24 15.6071 23.5802 17.1737 22.8305C16.8088 22.4662 16.514 22.0318 16.3111 21.5492C14.9963 22.1437 13.5368 22.4747 12 22.4747C6.21504 22.4747 1.52539 17.785 1.52539 12C1.52539 6.21504 6.21504 1.52539 12 1.52539C17.785 1.52539 22.4747 6.21504 22.4747 12C22.4747 13.5368 22.1437 14.9963 21.5492 16.3111C22.0318 16.514 22.4662 16.8088 22.8305 17.1737Z" fill="url(#paint0_linear_11967_1611)"/>
<path d="M20 23C21.6569 23 23 21.6569 23 20C23 18.3431 21.6569 17 20 17C18.3431 17 17 18.3431 17 20C17 21.6569 18.3431 23 20 23Z" fill="url(#paint1_linear_11967_1611)"/>
<path d="M18.3472 19.1001L20.0001 21.4388L21.6531 19.1001H20.6502L20.0001 20.1045L19.3502 19.1001H18.3472Z" fill="white"/>
</g>
<defs>
<linearGradient id="paint0_linear_11967_1611" x1="12" y1="0" x2="12" y2="24" gradientUnits="userSpaceOnUse">
<stop stop-color="#7AEDCF"/>
<stop offset="0.201333" stop-color="#68CEFA"/>
<stop offset="0.403244" stop-color="#689CF8"/>
<stop offset="0.602076" stop-color="#AC57C0"/>
<stop offset="0.801867" stop-color="#E65659"/>
<stop offset="1" stop-color="#F2C241"/>
</linearGradient>
<linearGradient id="paint1_linear_11967_1611" x1="20" y1="17" x2="20" y2="23" gradientUnits="userSpaceOnUse">
<stop stop-color="#7AEDCF"/>
<stop offset="0.201333" stop-color="#68CEFA"/>
<stop offset="0.403244" stop-color="#689CF8"/>
<stop offset="0.602076" stop-color="#AC57C0"/>
<stop offset="0.801867" stop-color="#E65659"/>
<stop offset="1" stop-color="#F2C241"/>
</linearGradient>
<clipPath id="clip0_11967_1611">
<rect width="24" height="24" fill="white"/>
</clipPath>
</defs>
</svg>
