<svg width="24" height="24" viewBox="0 0 24 24" fill="none" xmlns="http://www.w3.org/2000/svg">
<g clip-path="url(#clip0_11793_22919)">
<path d="M12 24C18.6274 24 24 18.6274 24 12C24 5.37258 18.6274 0 12 0C5.37258 0 0 5.37258 0 12C0 18.6274 5.37258 24 12 24Z" fill="white"/>
<path d="M19.5696 5.03671L18.9111 5.69516C20.4834 7.41481 21.3553 9.66056 21.3553 11.9906C21.3553 14.3207 20.4834 16.5665 18.9111 18.2861L19.5696 18.9446C21.3174 17.0479 22.2877 14.563 22.2877 11.9838C22.2877 9.4046 21.3174 6.91977 19.5696 5.02307V5.03671Z" fill="#5A5564"/>
<path d="M5.71104 5.09399C7.4306 3.52152 9.67638 2.64949 12.0065 2.64949C14.3367 2.64949 16.5824 3.52152 18.302 5.09399L18.9605 4.43554C17.0636 2.68682 14.5782 1.71594 11.9983 1.71594C9.41838 1.71594 6.93295 2.68682 5.03613 4.43554L5.71104 5.09399Z" fill="#5A5564"/>
<path d="M5.09412 18.2954C3.5234 16.5763 2.65245 14.3319 2.65245 12.0032C2.65245 9.67462 3.5234 7.43018 5.09412 5.71106L4.43567 5.05261C2.68694 6.94943 1.71606 9.43486 1.71606 12.0148C1.71606 14.5947 2.68694 17.0801 4.43567 18.9769L5.09412 18.2954Z" fill="#5A5564"/>
<path d="M18.2955 18.9017C16.576 20.4742 14.3302 21.3462 12.0001 21.3462C9.66993 21.3462 7.42415 20.4742 5.70459 18.9017L5.04614 19.5602C6.94296 21.3089 9.42839 22.2798 12.0083 22.2798C14.5882 22.2798 17.0736 21.3089 18.9705 19.5602L18.2955 18.9017Z" fill="#5A5564"/>
<path d="M16.1601 9.80106C16.0284 8.42631 14.8432 7.9668 13.342 7.82571V5.93079H12.1812V7.78902H11.2551V5.93079H10.1043V7.83747H7.75267V9.07723C7.75267 9.07723 8.60912 9.06171 8.59595 9.07723C8.75029 9.06038 8.90516 9.10404 9.02796 9.19904C9.15077 9.29404 9.23194 9.43296 9.2544 9.58659V14.8071C9.24716 14.9164 9.19681 15.0183 9.11443 15.0905C9.03205 15.1626 8.92439 15.1991 8.81512 15.1919C8.83064 15.205 7.97184 15.1919 7.97184 15.1919L7.7522 16.5779H10.0826V18.5152H11.2406V16.6061H12.1676V18.5062H13.3297V16.5911C15.2891 16.4721 16.6554 15.9891 16.8266 14.1548C16.9648 12.6789 16.2706 12.0196 15.1616 11.7562C15.8375 11.4223 16.2547 10.8071 16.1601 9.80106ZM14.5328 13.9262C14.5328 15.3673 12.0641 15.2027 11.2777 15.2027V12.646C12.066 12.6479 14.5328 12.4217 14.5328 13.9262ZM13.9966 10.3241C13.9966 11.641 11.9362 11.4815 11.2815 11.4815V9.15766C11.9362 9.15766 13.9966 8.95119 13.9966 10.3241Z" fill="#F09242"/>
<path d="M11.9979 24C5.37059 23.9986 0 18.6247 0 11.9979C0 5.37106 5.37483 0 12.0021 0C18.6294 0 23.9986 5.372 24 11.9979C24.0014 18.6238 18.6294 23.9986 12.0021 24H11.9979ZM11.9979 0.935938C5.89077 0.940642 0.945345 5.895 0.949107 12.0021C0.95287 18.1092 5.90817 23.0547 12.0153 23.0509C18.1224 23.0471 23.0617 18.0994 23.0641 11.9984C23.0664 5.89735 18.1177 0.940642 12.0111 0.935938H11.9979Z" fill="#282138"/>
</g>
<defs>
<clipPath id="clip0_11793_22919">
<rect width="24" height="24" fill="white"/>
</clipPath>
</defs>
</svg>
