<svg width="24" height="24" viewBox="0 0 24 24" fill="none" xmlns="http://www.w3.org/2000/svg">
<g clip-path="url(#clip0_11793_22888)">
<path d="M17.0439 21.2172C17.0439 22.1762 15.712 23.255 13.6067 23.6519C12.7474 23.6519 12.3286 23.6519 10.9758 23.6519C6.25916 23.6519 2.43555 22.5619 2.43555 21.2172C2.43555 19.8725 6.25916 18.7825 10.9758 18.7825C15.6925 18.7825 17.0439 19.8725 17.0439 21.2172Z" fill="black"/>
<path d="M23.3039 11.516C23.3039 17.4553 18.0436 23.3042 12.0681 23.3042C6.09254 23.3042 0 17.0417 0 11.1023C0 5.16297 4.84411 0.348145 10.8196 0.348145C16.7952 0.348145 23.3039 5.5766 23.3039 11.516Z" fill="#F61F7D"/>
<path fill-rule="evenodd" clip-rule="evenodd" d="M19.1167 18.8782C21.0143 16.8493 22.1942 14.165 22.1942 11.516C22.1942 8.959 20.7847 6.45105 18.5779 4.54594C16.3731 2.6426 13.5018 1.45892 10.8196 1.45892C5.44963 1.45892 1.10971 5.78379 1.10971 11.1023C1.10971 13.7072 2.4605 16.4922 4.58401 18.6513C6.70752 20.8103 9.45571 22.1934 12.0681 22.1934C14.6893 22.1934 17.22 20.9061 19.1167 18.8782ZM12.0681 23.3042C18.0436 23.3042 23.3039 17.4553 23.3039 11.516C23.3039 5.5766 16.7952 0.348145 10.8196 0.348145C4.84411 0.348145 0 5.16297 0 11.1023C0 17.0417 6.09254 23.3042 12.0681 23.3042Z" fill="black"/>
<path d="M23.9995 12.6956C23.9995 18.7466 19.0942 23.6519 13.0432 23.6519C6.99221 23.6519 2.08691 18.7466 2.08691 12.6956C2.08691 6.64455 6.99221 1.73926 13.0432 1.73926C19.0942 1.73926 23.9995 6.64455 23.9995 12.6956Z" fill="white"/>
<path fill-rule="evenodd" clip-rule="evenodd" d="M13.0432 22.5377C18.4789 22.5377 22.8853 18.1312 22.8853 12.6956C22.8853 7.25991 18.4789 2.85346 13.0432 2.85346C7.60757 2.85346 3.20112 7.25991 3.20112 12.6956C3.20112 18.1312 7.60757 22.5377 13.0432 22.5377ZM13.0432 23.6519C19.0942 23.6519 23.9995 18.7466 23.9995 12.6956C23.9995 6.64455 19.0942 1.73926 13.0432 1.73926C6.99221 1.73926 2.08691 6.64455 2.08691 12.6956C2.08691 18.7466 6.99221 23.6519 13.0432 23.6519Z" fill="black"/>
<path fill-rule="evenodd" clip-rule="evenodd" d="M2.71899 11.1305L0.347656 9.2258L1.1067 8.3479L3.47803 10.2526L2.71899 11.1305Z" fill="black"/>
<path d="M5.56445 10.4348H6.56955L6.88697 13.475L7.29033 10.4412H8.0772L8.50043 13.4557L8.82442 10.4348H9.81633L9.17488 15.6521H8.14336L7.68709 12.5024L7.25725 15.6521H6.21247L5.56445 10.4348Z" fill="black"/>
<path d="M10.7246 10.4348H13.1316V11.2206H11.9082V12.5153H12.8406V13.314H11.9082V14.8727H13.1448V15.6521H10.7246V10.4348Z" fill="black"/>
<path d="M14.5026 11.2915H13.6826V10.4348H16.5062V11.2915H15.6928V15.6521H14.5026V11.2915Z" fill="black"/>
<path d="M17.3213 10.4348H18.5049V12.5475H19.3315V10.4348H20.5217V15.6521H19.3315V13.3719H18.5049V15.6521H17.3213V10.4348Z" fill="black"/>
</g>
<defs>
<clipPath id="clip0_11793_22888">
<rect width="24" height="24" fill="white"/>
</clipPath>
</defs>
</svg>
