<svg width="24" height="24" viewBox="0 0 24 24" fill="none" xmlns="http://www.w3.org/2000/svg">
<g clip-path="url(#clip0_11793_22906)">
<path d="M24 12C24 5.37258 18.6274 0 12 0C5.37258 0 0 5.37258 0 12C0 18.6274 5.37258 24 12 24C18.6274 24 24 18.6274 24 12Z" fill="#00A3FF"/>
<path opacity="0.6" d="M16.4302 10.7832L16.5512 10.9687C17.9149 13.0607 17.6103 15.8005 15.8189 17.5558C14.765 18.5885 13.3837 19.1048 12.0024 19.105C12.0024 19.105 12.0024 19.105 16.4302 10.7832Z" fill="white"/>
<path opacity="0.2" d="M12.0017 13.3124L16.4295 10.7832C12.0017 19.105 12.0017 19.105 12.0017 19.105C12.0017 17.2925 12.0017 15.2158 12.0017 13.3124Z" fill="white"/>
<path d="M7.56993 10.7832L7.449 10.9687C6.08526 13.0607 6.38982 15.8005 8.18127 17.5558C9.23517 18.5885 10.6164 19.1048 11.9977 19.105C11.9977 19.105 11.9977 19.105 7.56993 10.7832Z" fill="white"/>
<path opacity="0.6" d="M11.9964 13.3124L7.5686 10.7832C11.9964 19.105 11.9964 19.105 11.9964 19.105C11.9964 17.2925 11.9964 15.2158 11.9964 13.3124Z" fill="white"/>
<path opacity="0.2" d="M12.0034 7.66211V12.0243L15.8175 9.84461L12.0034 7.66211Z" fill="white"/>
<path opacity="0.6" d="M12.0024 7.66211L8.18555 9.84458L12.0024 12.0243V7.66211Z" fill="white"/>
<path d="M12.0024 3.99365L8.18555 9.84608L12.0024 7.65749V3.99365Z" fill="white"/>
<path opacity="0.6" d="M12.0034 7.65668L15.8204 9.84533L12.0034 3.98999V7.65668Z" fill="white"/>
</g>
<defs>
<clipPath id="clip0_11793_22906">
<rect width="24" height="24" fill="white"/>
</clipPath>
</defs>
</svg>
