<svg width="20" height="20" viewBox="0 0 20 20" fill="none" xmlns="http://www.w3.org/2000/svg">
<path fill-rule="evenodd" clip-rule="evenodd" d="M3.8335 4.16634C3.8335 2.60153 5.10202 1.33301 6.66683 1.33301C8.23161 1.33301 9.50016 2.60153 9.50016 4.16634C9.50016 5.73113 8.23162 6.99967 6.66683 6.99967C5.10202 6.99967 3.8335 5.73112 3.8335 4.16634ZM6.66683 2.83301C5.93045 2.83301 5.3335 3.42996 5.3335 4.16634C5.3335 4.90271 5.93045 5.49967 6.66683 5.49967C7.40319 5.49967 8.00016 4.9027 8.00016 4.16634C8.00016 3.42997 7.40319 2.83301 6.66683 2.83301ZM3.75033 9.5C3.7043 9.5 3.66699 9.53731 3.66699 9.58333V14.1667C3.66699 15.8235 5.01014 17.1667 6.66699 17.1667C7.2376 17.1667 7.76887 17.0081 8.22173 16.733C8.57575 16.518 9.03706 16.6306 9.25211 16.9846C9.46715 17.3387 9.35449 17.8 9.00048 18.015C8.31953 18.4286 7.51991 18.6667 6.66699 18.6667C4.18171 18.6667 2.16699 16.6519 2.16699 14.1667V9.58333C2.16699 8.70888 2.87587 8 3.75033 8H10.417C10.8312 8 11.167 8.33579 11.167 8.75C11.167 9.16421 10.8312 9.5 10.417 9.5H3.75033ZM11.653 10.6601C11.3601 10.3672 10.8852 10.3672 10.5923 10.6601C10.2994 10.953 10.2994 11.4279 10.5923 11.7208L12.7136 13.8421L10.5923 15.9634C10.2994 16.2563 10.2994 16.7312 10.5923 17.0241C10.8852 17.317 11.3601 17.317 11.653 17.0241L13.7743 14.9027L15.8956 17.0241C16.1885 17.317 16.6634 17.317 16.9563 17.0241C17.2492 16.7312 17.2492 16.2563 16.9563 15.9634L14.835 13.8421L16.9563 11.7208C17.2492 11.4279 17.2492 10.953 16.9563 10.6601C16.6634 10.3672 16.1885 10.3672 15.8956 10.6601L13.7743 12.7814L11.653 10.6601Z" fill="#FFBB37"/>
</svg>
