<svg width="20" height="20" viewBox="0 0 20 20" fill="none" xmlns="http://www.w3.org/2000/svg">
<path fill-rule="evenodd" clip-rule="evenodd" d="M6.07939 1.55566C4.53206 1.55566 3.23045 2.77181 3.23045 4.32922C3.23045 5.88661 4.53205 7.10278 6.07939 7.10278C7.6267 7.10278 8.92833 5.88661 8.92833 4.32922C8.92833 2.7718 7.6267 1.55566 6.07939 1.55566ZM4.73045 4.32922C4.73045 3.65147 5.3083 3.05566 6.07939 3.05566C6.85046 3.05566 7.42833 3.65148 7.42833 4.32922C7.42833 5.00695 6.85046 5.60278 6.07939 5.60278C5.30831 5.60278 4.73045 5.00695 4.73045 4.32922ZM3.05145 9.59106C3.05145 9.58364 3.0534 9.57263 3.0679 9.55865C3.08289 9.54421 3.10725 9.53164 3.14103 9.53164H9.85762C10.2718 9.53164 10.6076 9.19585 10.6076 8.78164C10.6076 8.36743 10.2718 8.03164 9.85762 8.03164H3.14103C2.28922 8.03164 1.55145 8.7042 1.55145 9.59106V14.0429C1.55145 16.4944 3.60484 18.4353 6.07954 18.4353C6.93223 18.4353 7.73318 18.206 8.41722 17.8054C8.77465 17.5961 8.89472 17.1366 8.68539 16.7792C8.47607 16.4218 8.01663 16.3017 7.6592 16.511C7.20094 16.7794 6.66103 16.9353 6.07954 16.9353C4.38108 16.9353 3.05145 15.6147 3.05145 14.0429V9.59106ZM13.669 10.3559C11.845 10.3559 10.3663 11.8346 10.3663 13.6586C10.3663 15.4827 11.845 16.9613 13.669 16.9613C15.4931 16.9613 16.9718 15.4827 16.9718 13.6586C16.9718 13.2444 17.3076 12.9086 17.7218 12.9086C18.136 12.9086 18.4718 13.2444 18.4718 13.6586C18.4718 16.3111 16.3215 18.4613 13.669 18.4613C11.0166 18.4613 8.86631 16.3111 8.86631 13.6586C8.86631 11.0061 11.0166 8.85588 13.669 8.85588C14.4487 8.85588 15.187 9.04222 15.8398 9.37348C16.2092 9.56091 16.3567 10.0123 16.1693 10.3817C15.9818 10.7511 15.5304 10.8986 15.1611 10.7111C14.7138 10.4841 14.2075 10.3559 13.669 10.3559ZM18.0934 11.4751C18.3863 11.1822 18.3863 10.7073 18.0934 10.4145C17.8005 10.1216 17.3257 10.1216 17.0328 10.4145L13.5299 13.9173L12.4384 12.8259C12.1455 12.533 11.6706 12.533 11.3778 12.8259C11.0849 13.1187 11.0849 13.5936 11.3778 13.8865L12.9996 15.5083C13.2924 15.8012 13.7673 15.8012 14.0602 15.5083L18.0934 11.4751Z" fill="#1B202C"/>
</svg>
