<svg width="20" height="20" viewBox="0 0 20 20" fill="none" xmlns="http://www.w3.org/2000/svg">
<path fill-rule="evenodd" clip-rule="evenodd" d="M3.8335 4.16634C3.8335 2.60153 5.10202 1.33301 6.66683 1.33301C8.23161 1.33301 9.50016 2.60153 9.50016 4.16634C9.50016 5.73113 8.23162 6.99967 6.66683 6.99967C5.10202 6.99967 3.8335 5.73112 3.8335 4.16634ZM6.66683 2.83301C5.93045 2.83301 5.3335 3.42996 5.3335 4.16634C5.3335 4.90271 5.93045 5.49967 6.66683 5.49967C7.40319 5.49967 8.00016 4.9027 8.00016 4.16634C8.00016 3.42997 7.40319 2.83301 6.66683 2.83301ZM3.75033 9.5C3.7043 9.5 3.66699 9.53731 3.66699 9.58333V14.1667C3.66699 15.8235 5.01014 17.1667 6.66699 17.1667C7.2376 17.1667 7.76887 17.0081 8.22173 16.733C8.57575 16.518 9.03706 16.6306 9.25211 16.9846C9.46715 17.3387 9.35449 17.8 9.00048 18.015C8.31953 18.4286 7.51991 18.6667 6.66699 18.6667C4.18171 18.6667 2.16699 16.6519 2.16699 14.1667V9.58333C2.16699 8.70888 2.87587 8 3.75033 8H10.417C10.8312 8 11.167 8.33579 11.167 8.75C11.167 9.16421 10.8312 9.5 10.417 9.5H3.75033ZM11.7042 10.4736C10.7377 10.4736 9.95422 11.2571 9.95422 12.2236V16.9269C9.95422 17.8934 10.7377 18.6769 11.7042 18.6769H17.1995C18.166 18.6769 18.9495 17.8934 18.9495 16.927V12.2236C18.9495 11.2571 18.166 10.4736 17.1995 10.4736H11.7042ZM11.4542 12.2236C11.4542 12.0856 11.5662 11.9736 11.7042 11.9736H17.1995C17.3376 11.9736 17.4495 12.0856 17.4495 12.2236V16.927C17.4495 17.065 17.3376 17.1769 17.1995 17.1769H11.7042C11.5662 17.1769 11.4542 17.065 11.4542 16.9269V12.2236ZM13.2632 12.8701C12.849 12.8701 12.5132 13.2059 12.5132 13.6201C12.5132 14.0343 12.849 14.3701 13.2632 14.3701H15.6404C16.0546 14.3701 16.3904 14.0343 16.3904 13.6201C16.3904 13.2059 16.0546 12.8701 15.6404 12.8701H13.2632ZM12.5132 15.7178C12.5132 15.3036 12.849 14.9678 13.2632 14.9678H14.4518C14.866 14.9678 15.2018 15.3036 15.2018 15.7178C15.2018 16.132 14.866 16.4678 14.4518 16.4678H13.2632C12.849 16.4678 12.5132 16.132 12.5132 15.7178Z" fill="#1B202C"/>
</svg>
