<svg width="20" height="20" viewBox="0 0 20 20" fill="none" xmlns="http://www.w3.org/2000/svg">
<path fill-rule="evenodd" clip-rule="evenodd" d="M3.23051 4.32922C3.23051 2.77181 4.53212 1.55566 6.07945 1.55566C7.62676 1.55566 8.92839 2.7718 8.92839 4.32922C8.92839 5.88661 7.62676 7.10278 6.07945 7.10278C4.53211 7.10278 3.23051 5.88661 3.23051 4.32922ZM6.07945 3.05566C5.30836 3.05566 4.73051 3.65147 4.73051 4.32922C4.73051 5.00695 5.30837 5.60278 6.07945 5.60278C6.85052 5.60278 7.42839 5.00695 7.42839 4.32922C7.42839 3.65148 6.85052 3.05566 6.07945 3.05566ZM3.06797 9.55865C3.05346 9.57263 3.05151 9.58364 3.05151 9.59106V14.0429C3.05151 15.6147 4.38114 16.9353 6.0796 16.9353C6.49381 16.9353 6.8296 17.2711 6.8296 17.6853C6.8296 18.0995 6.49381 18.4353 6.0796 18.4353C3.6049 18.4353 1.55151 16.4944 1.55151 14.0429V9.59106C1.55151 8.7042 2.28928 8.03164 3.14109 8.03164H9.85768C10.2719 8.03164 10.6077 8.36743 10.6077 8.78164C10.6077 9.19586 10.2719 9.53164 9.85768 9.53164H3.14109C3.10731 9.53164 3.08295 9.54421 3.06797 9.55865ZM14.5757 8.40429C14.5743 8.40489 14.5722 8.40591 14.5692 8.40892L11.8058 11.1724C11.8028 11.1754 11.8017 11.1774 11.8011 11.1789C11.8003 11.1808 11.7997 11.1837 11.7997 11.1871C11.7997 11.1905 11.8003 11.1933 11.8011 11.1953C11.8017 11.1968 11.8028 11.1988 11.8058 11.2018L13.0267 12.4227C13.0297 12.4258 13.0317 12.4268 13.0332 12.4274C13.0352 12.4282 13.038 12.4288 13.0414 12.4288C13.0449 12.4288 13.0477 12.4282 13.0496 12.4274C13.0511 12.4268 13.0531 12.4258 13.0561 12.4227L15.8196 9.65931C15.8226 9.65629 15.8236 9.65426 15.8242 9.6528C15.825 9.65084 15.8257 9.64802 15.8257 9.64458C15.8257 9.64114 15.825 9.63832 15.8242 9.63636C15.8236 9.6349 15.8226 9.63286 15.8196 9.62985L14.5987 8.40892C14.5956 8.40591 14.5936 8.40489 14.5921 8.40429C14.5902 8.4035 14.5874 8.40282 14.5839 8.40282C14.5805 8.40282 14.5777 8.4035 14.5757 8.40429ZM13.5085 7.34826C14.1025 6.75434 15.0654 6.75434 15.6593 7.34826L16.8802 8.56919C17.4742 9.16311 17.4742 10.126 16.8802 10.72L16.033 11.5672L18.9731 14.5074C19.266 14.8003 19.266 15.2752 18.9731 15.568C18.6802 15.8609 18.2053 15.8609 17.9124 15.568L14.9723 12.6279L14.1168 13.4834C13.5229 14.0773 12.5599 14.0773 11.966 13.4834L10.7451 12.2625C10.1512 11.6686 10.1512 10.7056 10.7451 10.1117L13.5085 7.34826ZM8.53365 15.7761C8.53365 15.0858 9.09329 14.5261 9.78365 14.5261H14.7814C15.4718 14.5261 16.0315 15.0858 16.0315 15.7761V16.9449H16.249C16.6632 16.9449 16.999 17.2807 16.999 17.6949C16.999 18.1091 16.6632 18.4449 16.249 18.4449H15.2814H9.28365H8.31614C7.90193 18.4449 7.56614 18.1091 7.56614 17.6949C7.56614 17.2807 7.90193 16.9449 8.31614 16.9449H8.53365V15.7761ZM10.0336 16.9449H14.5314V16.0261H10.0336V16.9449Z" fill="#1B202C"/>
</svg>
