<svg width="20" height="20" viewBox="0 0 20 20" fill="none" xmlns="http://www.w3.org/2000/svg">
<path fill-rule="evenodd" clip-rule="evenodd" d="M3.23042 4.32922C3.23042 2.77181 4.53202 1.55566 6.07936 1.55566C7.62666 1.55566 8.92829 2.7718 8.92829 4.32922C8.92829 5.88661 7.62667 7.10278 6.07936 7.10278C4.53202 7.10278 3.23042 5.88661 3.23042 4.32922ZM6.07936 3.05566C5.30827 3.05566 4.73042 3.65147 4.73042 4.32922C4.73042 5.00695 5.30827 5.60278 6.07936 5.60278C6.85042 5.60278 7.42829 5.00695 7.42829 4.32922C7.42829 3.65148 6.85043 3.05566 6.07936 3.05566ZM6.07915 9.5335C4.3796 9.5335 3.04999 10.8539 3.04999 12.4244L3.04999 16.8744C3.04999 16.8816 3.05182 16.8924 3.06632 16.9064C3.08131 16.9208 3.10579 16.9335 3.1398 16.9335H6.91249C7.3267 16.9335 7.66249 17.2693 7.66249 17.6835C7.66249 18.0977 7.3267 18.4335 6.91249 18.4335H3.1398C2.28836 18.4335 1.54999 17.7616 1.54999 16.8744V12.4244C1.54999 9.97327 3.60436 8.0335 6.07915 8.0335C7.53699 8.0335 8.84129 8.70271 9.6719 9.75031C9.92925 10.0749 9.87475 10.5466 9.55018 10.804C9.22561 11.0613 8.75387 11.0068 8.49653 10.6822C7.9461 9.98802 7.07208 9.5335 6.07915 9.5335ZM16.0801 9.49293C15.9011 9.41881 15.7092 9.38069 15.5155 9.38073C15.3218 9.38078 15.1299 9.41899 14.951 9.4932C14.772 9.5674 14.6094 9.67614 14.4725 9.81319L14.4722 9.81344L13.4711 10.8146C13.1782 11.1075 12.7033 11.1075 12.4104 10.8146C12.1175 10.5217 12.1175 10.0468 12.4104 9.75391L13.4113 8.75302L13.4116 8.75278C13.6877 8.47644 14.0156 8.2572 14.3764 8.10758C14.7374 7.95791 15.1244 7.88082 15.5151 7.88073C15.9059 7.88064 16.2929 7.95754 16.6539 8.10705C17.015 8.25655 17.3431 8.47572 17.6194 8.75204C17.8957 9.02836 18.1149 9.35642 18.2644 9.71747C18.4139 10.0785 18.4908 10.4655 18.4907 10.8563C18.4906 11.2471 18.4135 11.634 18.2639 11.995C18.1142 12.3558 17.895 12.6837 17.6186 12.9598L17.6184 12.9601L16.1884 14.39C15.9122 14.6663 15.5843 14.8854 15.2233 15.0349C14.8624 15.1844 14.4756 15.2613 14.0849 15.2613C13.6942 15.2613 13.3074 15.1844 12.9465 15.0349C12.5855 14.8854 12.2576 14.6663 11.9814 14.39C11.6885 14.0971 11.6885 13.6223 11.9814 13.3294C12.2742 13.0365 12.7491 13.0365 13.042 13.3294C13.179 13.4663 13.3416 13.575 13.5205 13.6491C13.6994 13.7232 13.8912 13.7613 14.0849 13.7613C14.2786 13.7613 14.4704 13.7232 14.6493 13.6491C14.8283 13.575 14.9908 13.4663 15.1278 13.3294L16.558 11.8992L16.5582 11.8989C16.6953 11.762 16.804 11.5994 16.8782 11.4205C16.9524 11.2415 16.9907 11.0497 16.9907 10.8559C16.9907 10.6622 16.9526 10.4703 16.8785 10.2913C16.8044 10.1123 16.6957 9.9497 16.5587 9.81271C16.4217 9.67571 16.2591 9.56705 16.0801 9.49293ZM12.3694 12.5287C12.1757 12.5287 11.984 12.5668 11.805 12.6409C11.6261 12.7151 11.4635 12.8237 11.3265 12.9607L9.89634 14.3908L9.89609 14.3911C9.75904 14.528 9.6503 14.6906 9.5761 14.8696C9.50189 15.0485 9.46368 15.2404 9.46363 15.4341C9.46359 15.6278 9.50171 15.8197 9.57583 15.9987C9.64995 16.1777 9.75861 16.3403 9.89561 16.4773C10.0326 16.6143 10.1952 16.723 10.3742 16.7971C10.5532 16.8712 10.7451 16.9093 10.9388 16.9093C11.1326 16.9092 11.3244 16.871 11.5034 16.7968C11.6823 16.7226 11.8449 16.6139 11.9819 16.4768L11.9821 16.4766L12.9833 15.4755C13.2761 15.1826 13.751 15.1826 14.0439 15.4755C14.3368 15.7684 14.3368 16.2432 14.0439 16.5361L13.043 17.537L13.0428 17.5372C12.7666 17.8136 12.4388 18.0328 12.0779 18.1824C11.7169 18.3321 11.33 18.4092 10.9392 18.4093C10.5484 18.4094 10.1614 18.3325 9.80039 18.183C9.43933 18.0335 9.11128 17.8143 8.83495 17.538C8.55863 17.2617 8.33945 16.9336 8.18995 16.5725C8.04044 16.2115 7.96354 15.8245 7.96363 15.4338C7.96372 15.043 8.04081 14.656 8.19048 14.2951C8.34011 13.9342 8.55935 13.6063 8.83568 13.3302L8.83573 13.3301L8.83593 13.3299L10.2659 11.9C10.5421 11.6237 10.8701 11.4046 11.231 11.2551C11.5919 11.1056 11.9788 11.0287 12.3694 11.0287C12.7601 11.0287 13.1469 11.1056 13.5079 11.2551C13.8688 11.4046 14.1967 11.6237 14.473 11.9C14.7659 12.1929 14.7659 12.6678 14.473 12.9606C14.1801 13.2535 13.7052 13.2535 13.4123 12.9607C13.2754 12.8237 13.1128 12.7151 12.9338 12.6409C12.7549 12.5668 12.5631 12.5287 12.3694 12.5287Z" fill="#1B202C"/>
</svg>
