<svg width="25" height="24" viewBox="0 0 25 24" fill="none" xmlns="http://www.w3.org/2000/svg">
<path fill-rule="evenodd" clip-rule="evenodd" d="M7.89534 2.1416C6.18085 2.1416 4.75162 3.48725 4.75162 5.19487C4.75162 6.90246 6.18085 8.24814 7.89534 8.24814C9.6098 8.24814 11.0391 6.90247 11.0391 5.19487C11.0391 3.48724 9.6098 2.1416 7.89534 2.1416ZM6.00162 5.19487C6.00162 4.2203 6.82772 3.3916 7.89534 3.3916C8.96294 3.3916 9.78906 4.2203 9.78906 5.19487C9.78906 6.16941 8.96293 6.99814 7.89534 6.99814C6.82773 6.99814 6.00162 6.16942 6.00162 5.19487ZM3.98682 11.5091C3.98682 11.3392 4.13632 11.1628 4.36931 11.1628H12.4292C12.7744 11.1628 13.0542 10.883 13.0542 10.5378C13.0542 10.1926 12.7744 9.91277 12.4292 9.91277H4.36931C3.48945 9.91277 2.73682 10.6061 2.73682 11.5091V16.8513C2.73682 19.6318 5.06819 21.8471 7.89552 21.8471C8.86903 21.8471 9.78231 21.5854 10.5618 21.129C10.8596 20.9545 10.9597 20.5717 10.7852 20.2738C10.6108 19.9759 10.2279 19.8759 9.93008 20.0503C9.33878 20.3966 8.64303 20.5971 7.89552 20.5971C5.71506 20.5971 3.98682 18.8987 3.98682 16.8513V11.5091ZM17.0029 12.1519C14.6622 12.1519 12.7646 14.0494 12.7646 16.3901C12.7646 18.7309 14.6622 20.6284 17.0029 20.6284C19.3437 20.6284 21.2412 18.7309 21.2412 16.3901C21.2412 16.045 21.521 15.7651 21.8662 15.7651C22.2114 15.7651 22.4912 16.045 22.4912 16.3901C22.4912 19.4212 20.034 21.8784 17.0029 21.8784C13.9718 21.8784 11.5146 19.4212 11.5146 16.3901C11.5146 13.359 13.9718 10.9019 17.0029 10.9019C17.8943 10.9019 18.7377 11.1148 19.4834 11.4932C19.7912 11.6494 19.9141 12.0256 19.7579 12.3334C19.6018 12.6412 19.2256 12.7641 18.9178 12.6079C18.3433 12.3164 17.6933 12.1519 17.0029 12.1519ZM22.1177 13.5755C22.3618 13.3314 22.3618 12.9357 22.1177 12.6916C21.8736 12.4475 21.4779 12.4475 21.2338 12.6916L16.8359 17.0895L15.3317 15.5853C15.0876 15.3412 14.6919 15.3412 14.4478 15.5853C14.2038 15.8294 14.2038 16.2251 14.4478 16.4692L16.394 18.4153C16.6381 18.6594 17.0338 18.6594 17.2779 18.4153L22.1177 13.5755Z" fill="#1B202C" fill-opacity="0.3"/>
</svg>
