<svg width="44" height="44" viewBox="0 0 44 44" fill="none" xmlns="http://www.w3.org/2000/svg">
<g clip-path="url(#clip0_11841_95506)">
<rect width="44" height="44" rx="8" fill="url(#paint0_linear_11841_95506)"/>
<path fill-rule="evenodd" clip-rule="evenodd" d="M27.3947 14.8128C27.3827 14.8298 27.3701 14.8462 27.357 14.862C27.2066 15.0684 27.1179 15.3226 27.1179 15.5975C27.1179 16.2883 27.6779 16.8484 28.3688 16.8484C29.0596 16.8484 29.6196 16.2883 29.6196 15.5975C29.6196 14.9067 29.0596 14.3467 28.3688 14.3467C27.9751 14.3467 27.6239 14.5285 27.3947 14.8128ZM25.6179 15.5975C25.6179 15.2713 25.6747 14.9584 25.7789 14.6681C22.5432 12.9796 18.5428 13.5946 15.9636 16.2532C13.2218 19.0793 12.8369 23.4405 15.0411 26.7031C17.2454 29.9658 21.4351 31.2363 25.0803 29.7474C28.7254 28.2585 30.8275 24.418 30.1172 20.5452C30.0425 20.1377 30.3122 19.7469 30.7196 19.6722C31.127 19.5974 31.5178 19.8671 31.5926 20.2746C32.431 24.8458 29.9499 29.3787 25.6475 31.136C21.3451 32.8934 16.3999 31.3938 13.7982 27.5429C11.1965 23.6919 11.6509 18.5444 14.8869 15.2087C17.982 12.0184 22.8109 11.3213 26.6624 13.4398C27.1313 13.0684 27.7242 12.8467 28.3688 12.8467C29.888 12.8467 31.1196 14.0783 31.1196 15.5975C31.1196 17.1168 29.888 18.3484 28.3688 18.3484C26.8495 18.3484 25.6179 17.1168 25.6179 15.5975ZM24.7808 19.9638C25.0736 19.6709 25.5485 19.6709 25.8414 19.9638L27.328 21.4504C27.6209 21.7433 27.6209 22.218 27.3282 22.5109L25.8246 24.0156C25.5318 24.3085 25.0569 24.3087 24.7639 24.0159C24.4709 23.7231 24.4708 23.2482 24.7636 22.9552L25.7372 21.981L24.7808 21.0245C24.4879 20.7316 24.4879 20.2567 24.7808 19.9638ZM19.2187 19.9751C19.5116 20.268 19.5116 20.7428 19.2187 21.0357L18.2625 21.992L19.2357 22.9653C19.5286 23.2582 19.5286 23.7331 19.2357 24.026C18.9429 24.3189 18.468 24.3189 18.1751 24.026L16.6715 22.5223C16.3786 22.2294 16.3786 21.7546 16.6715 21.4617L18.1581 19.9751C18.451 19.6822 18.9258 19.6822 19.2187 19.9751ZM23.4758 19.715C23.595 19.3184 23.3702 18.9001 22.9735 18.7808C22.5769 18.6615 22.1586 18.8864 22.0393 19.2831L20.5351 24.2851C20.4158 24.6818 20.6407 25.1001 21.0373 25.2194C21.434 25.3386 21.8522 25.1138 21.9715 24.7171L23.4758 19.715Z" fill="white" fill-opacity="0.25"/>
</g>
<defs>
<linearGradient id="paint0_linear_11841_95506" x1="0" y1="0" x2="44" y2="44" gradientUnits="userSpaceOnUse">
<stop stop-color="white" stop-opacity="0.05"/>
<stop offset="1" stop-color="white" stop-opacity="0"/>
</linearGradient>
<clipPath id="clip0_11841_95506">
<rect width="44" height="44" fill="white"/>
</clipPath>
</defs>
</svg>
