<svg width="44" height="44" viewBox="0 0 44 44" fill="none" xmlns="http://www.w3.org/2000/svg">
<g clip-path="url(#clip0_11841_95519)">
<rect width="44" height="44" rx="8" fill="url(#paint0_linear_11841_95519)"/>
<path d="M24.3664 14.7096C23.9677 14.8219 23.7356 15.2362 23.8479 15.6349C23.9602 16.0336 24.3745 16.2657 24.7732 16.1534L24.3664 14.7096ZM25.8926 24.9999L25.892 24.2499C25.4779 24.2502 25.1424 24.5861 25.1426 25.0002C25.1427 25.4143 25.4785 25.7499 25.8927 25.7499L25.8926 24.9999ZM10.886 28.0745C10.6477 28.4133 10.7293 28.8812 11.0682 29.1194C11.407 29.3576 11.8748 29.276 12.1131 28.9372L10.886 28.0745ZM24.3864 28.9367C24.6247 29.2755 25.0925 29.3571 25.4313 29.1188C25.7702 28.8806 25.8517 28.4128 25.6135 28.0739L24.3864 28.9367ZM32.0287 28.9363C32.2667 29.2753 32.7345 29.3572 33.0735 29.1192C33.4125 28.8811 33.4944 28.4134 33.2564 28.0744L32.0287 28.9363ZM22.3749 20.1249C22.3749 22.4031 20.5281 24.2499 18.2499 24.2499V25.7499C21.3565 25.7499 23.8749 23.2315 23.8749 20.1249H22.3749ZM18.2499 24.2499C15.9717 24.2499 14.1249 22.4031 14.1249 20.1249H12.6249C12.6249 23.2315 15.1433 25.7499 18.2499 25.7499V24.2499ZM14.1249 20.1249C14.1249 17.8467 15.9717 15.9999 18.2499 15.9999V14.4999C15.1433 14.4999 12.6249 17.0183 12.6249 20.1249H14.1249ZM18.2499 15.9999C20.5281 15.9999 22.3749 17.8467 22.3749 20.1249H23.8749C23.8749 17.0183 21.3565 14.4999 18.2499 14.4999V15.9999ZM24.7732 16.1534C25.3406 15.9935 25.9356 15.9571 26.5182 16.0466L26.7459 14.564C25.9515 14.442 25.1401 14.4916 24.3664 14.7096L24.7732 16.1534ZM26.5182 16.0466C27.1009 16.1361 27.6576 16.3494 28.1508 16.6721L28.9721 15.4169C28.2995 14.9768 27.5404 14.686 26.7459 14.564L26.5182 16.0466ZM28.1508 16.6721C28.6441 16.9948 29.0624 17.4195 29.3778 17.9176L30.6451 17.1152C30.2152 16.4361 29.6447 15.857 28.9721 15.4169L28.1508 16.6721ZM29.3778 17.9176C29.6931 18.4156 29.898 18.9755 29.9787 19.5594L31.4646 19.354C31.3545 18.5578 31.0751 17.7944 30.6451 17.1152L29.3778 17.9176ZM29.9787 19.5594C30.0594 20.1433 30.0141 20.7377 29.8457 21.3026L31.2832 21.731C31.5128 20.9607 31.5746 20.1502 31.4646 19.354L29.9787 19.5594ZM29.8457 21.3026C29.6774 21.8675 29.3899 22.3898 29.0027 22.8343L30.1337 23.8196C30.6617 23.2135 31.0537 22.5013 31.2832 21.731L29.8457 21.3026ZM29.0027 22.8343C28.6155 23.2787 28.1376 23.6351 27.6011 23.8793L28.2224 25.2445C28.954 24.9115 29.6057 24.4256 30.1337 23.8196L29.0027 22.8343ZM27.6011 23.8793C27.0645 24.1234 26.4819 24.2498 25.8925 24.2499L25.8927 25.7499C26.6964 25.7498 27.4909 25.5775 28.2224 25.2445L27.6011 23.8793ZM12.1131 28.9372C12.8052 27.9526 13.7241 27.149 14.7922 26.5943L14.1008 25.2631C12.8192 25.9288 11.7165 26.8931 10.886 28.0745L12.1131 28.9372ZM14.7922 26.5943C15.8602 26.0396 17.0464 25.7499 18.2499 25.7499L18.2499 24.2499C16.8057 24.25 15.3824 24.5975 14.1008 25.2631L14.7922 26.5943ZM18.2499 25.7499C19.4534 25.7498 20.639 26.0394 21.7071 26.594L22.3984 25.2628C21.1168 24.5973 19.6941 24.2498 18.2499 24.2499L18.2499 25.7499ZM21.7071 26.594C22.7752 27.1487 23.6942 27.9522 24.3864 28.9367L25.6135 28.0739C24.7828 26.8926 23.6801 25.9284 22.3984 25.2628L21.7071 26.594ZM25.8931 25.7499C27.0966 25.749 28.2825 26.0382 29.3505 26.5928L30.0419 25.2616C28.7599 24.5959 27.3365 24.2489 25.892 24.2499L25.8931 25.7499ZM29.3505 26.5928C30.4186 27.1475 31.3372 27.9513 32.0287 28.9363L33.2564 28.0744C32.4264 26.8922 31.3238 25.9273 30.0419 25.2616L29.3505 26.5928Z" fill="white" fill-opacity="0.25"/>
</g>
<defs>
<linearGradient id="paint0_linear_11841_95519" x1="0" y1="0" x2="44" y2="44" gradientUnits="userSpaceOnUse">
<stop stop-color="white" stop-opacity="0.05"/>
<stop offset="1" stop-color="white" stop-opacity="0"/>
</linearGradient>
<clipPath id="clip0_11841_95519">
<rect width="44" height="44" fill="white"/>
</clipPath>
</defs>
</svg>
