<svg width="44" height="44" viewBox="0 0 44 44" fill="none" xmlns="http://www.w3.org/2000/svg">
<g clip-path="url(#clip0_11841_95404)">
<rect width="44" height="44" rx="8" fill="url(#paint0_linear_11841_95404)"/>
<path fill-rule="evenodd" clip-rule="evenodd" d="M24.027 14.0597C24.2681 13.8186 24.659 13.8186 24.9001 14.0597L27.0658 16.2255C27.3069 16.4665 27.3069 16.8574 27.0658 17.0985L22.1639 22.0004C21.9228 22.2415 21.5319 22.2415 21.2908 22.0004L19.1251 19.8347C18.884 19.5936 18.884 19.2027 19.1251 18.9616L24.027 14.0597ZM25.9607 12.9991C25.1338 12.1722 23.7932 12.1722 22.9664 12.9991L18.0644 17.901C17.2376 18.7278 17.2376 20.0685 18.0644 20.8953L20.2302 23.0611C21.057 23.8879 22.3977 23.8879 23.2245 23.0611L25.1524 21.1332L30.7782 26.7589C31.0711 27.0518 31.546 27.0518 31.8389 26.7589C32.1317 26.466 32.1317 25.9911 31.8389 25.6982L26.2131 20.0725L28.1264 18.1592C28.9533 17.3323 28.9533 15.9917 28.1264 15.1648L25.9607 12.9991ZM15.4074 25.9015C14.4409 25.9015 13.6574 26.685 13.6574 27.6515V30.192H12.6912C12.2769 30.192 11.9412 30.5278 11.9412 30.942C11.9412 31.3562 12.2769 31.692 12.6912 31.692H14.4074H25.0465H26.7628C27.177 31.692 27.5128 31.3562 27.5128 30.942C27.5128 30.5278 27.177 30.192 26.7628 30.192H25.7965V27.6515C25.7965 26.685 25.013 25.9015 24.0465 25.9015H15.4074ZM24.2965 30.192H15.1574V27.6515C15.1574 27.5134 15.2693 27.4015 15.4074 27.4015H24.0465C24.1846 27.4015 24.2965 27.5134 24.2965 27.6515V30.192Z" fill="#1B202C" fill-opacity="0.3"/>
</g>
<defs>
<linearGradient id="paint0_linear_11841_95404" x1="0" y1="0" x2="44" y2="44" gradientUnits="userSpaceOnUse">
<stop stop-color="#1B202C" stop-opacity="0.05"/>
<stop offset="1" stop-color="#1B202C" stop-opacity="0"/>
</linearGradient>
<clipPath id="clip0_11841_95404">
<rect width="44" height="44" fill="white"/>
</clipPath>
</defs>
</svg>
