<svg width="44" height="44" viewBox="0 0 44 44" fill="none" xmlns="http://www.w3.org/2000/svg">
<g clip-path="url(#clip0_11841_95304)">
<rect width="44" height="44" rx="8" fill="url(#paint0_linear_11841_95304)"/>
<path fill-rule="evenodd" clip-rule="evenodd" d="M24.7589 15.4829C24.7589 15.0672 24.8289 14.6678 24.9577 14.2958C24.0404 13.9434 23.0435 13.75 22 13.75C17.4437 13.75 13.75 17.4437 13.75 22C13.75 26.5563 17.4437 30.25 22 30.25C26.5563 30.25 30.25 26.5563 30.25 22C30.25 20.8956 30.0334 19.8434 29.6408 18.8823C29.2482 19.0279 28.8238 19.1076 28.3811 19.1079C26.38 19.1065 24.7589 17.4839 24.7589 15.4829ZM22 12.25C23.3262 12.25 24.5922 12.5152 25.7465 12.996C26.4074 12.2953 27.3445 11.8579 28.3839 11.8579C30.3864 11.8579 32.0089 13.4812 32.0089 15.4829C32.0089 16.4943 31.5933 17.409 30.9238 18.0666C31.4552 19.2705 31.75 20.6018 31.75 22C31.75 27.3848 27.3848 31.75 22 31.75C16.6152 31.75 12.25 27.3848 12.25 22C12.25 16.6152 16.6152 12.25 22 12.25ZM28.382 17.8579C27.071 17.857 26.0089 16.794 26.0089 15.4829C26.0089 14.1714 27.072 13.1079 28.3839 13.1079C29.6959 13.1079 30.7589 14.1714 30.7589 15.4829C30.7589 16.794 29.6929 17.857 28.382 17.8579ZM22 18.75C20.2051 18.75 18.75 20.2051 18.75 22C18.75 23.7949 20.2051 25.25 22 25.25C23.7949 25.25 25.25 23.7949 25.25 22C25.25 21.5858 25.5858 21.25 26 21.25C26.4142 21.25 26.75 21.5858 26.75 22C26.75 24.6234 24.6234 26.75 22 26.75C19.3766 26.75 17.25 24.6234 17.25 22C17.25 19.3766 19.3766 17.25 22 17.25C22.4142 17.25 22.75 17.5858 22.75 18C22.75 18.4142 22.4142 18.75 22 18.75ZM28.5608 14.5635C28.5608 14.2183 28.281 13.9385 27.9358 13.9385C27.5906 13.9385 27.3108 14.2183 27.3108 14.5635V15.9307C27.3108 16.2759 27.5906 16.5557 27.9358 16.5557H29.303C29.6482 16.5557 29.928 16.2759 29.928 15.9307C29.928 15.5855 29.6482 15.3057 29.303 15.3057H28.5608V14.5635Z" fill="#1B202C" fill-opacity="0.3"/>
</g>
<defs>
<linearGradient id="paint0_linear_11841_95304" x1="0" y1="0" x2="44" y2="44" gradientUnits="userSpaceOnUse">
<stop stop-color="#1B202C" stop-opacity="0.05"/>
<stop offset="1" stop-color="#1B202C" stop-opacity="0"/>
</linearGradient>
<clipPath id="clip0_11841_95304">
<rect width="44" height="44" fill="white"/>
</clipPath>
</defs>
</svg>
