<svg width="44" height="44" viewBox="0 0 44 44" fill="none" xmlns="http://www.w3.org/2000/svg">
<g clip-path="url(#clip0_11841_95448)">
<rect width="44" height="44" rx="8" fill="url(#paint0_linear_11841_95448)"/>
<path fill-rule="evenodd" clip-rule="evenodd" d="M13.75 22C13.75 17.4442 17.4433 13.75 22 13.75C24.6515 13.75 27.0108 15.001 28.5204 16.9462H27.531C27.1168 16.9462 26.781 17.282 26.781 17.6962C26.781 18.1104 27.1168 18.4462 27.531 18.4462H30.424C30.8382 18.4462 31.174 18.1104 31.174 17.6962V14.8032C31.174 14.389 30.8382 14.0532 30.424 14.0532C30.0098 14.0532 29.674 14.389 29.674 14.8032V15.9865C27.8903 13.7131 25.117 12.25 22 12.25C16.6147 12.25 12.25 16.6158 12.25 22C12.25 26.2461 14.9681 29.8448 18.7496 31.184C19.1401 31.3223 19.5687 31.1178 19.707 30.7274C19.8453 30.3369 19.6408 29.9083 19.2504 29.77C16.0459 28.6352 13.75 25.5879 13.75 22ZM22.75 24.25C22.75 23.4212 23.4212 22.75 24.25 22.75H28.75C29.5788 22.75 30.25 23.4212 30.25 24.25V28.75C30.25 29.5788 29.5788 30.25 28.75 30.25H24.25C23.4212 30.25 22.75 29.5788 22.75 28.75V24.25ZM24.25 21.25C22.5928 21.25 21.25 22.5928 21.25 24.25V28.75C21.25 30.4072 22.5928 31.75 24.25 31.75H28.75C30.4072 31.75 31.75 30.4072 31.75 28.75V24.25C31.75 22.5928 30.4072 21.25 28.75 21.25H24.25ZM29.0303 26.0303C29.3232 25.7374 29.3232 25.2626 29.0303 24.9697C28.7374 24.6768 28.2626 24.6768 27.9697 24.9697L26 26.9393L25.0303 25.9697C24.7374 25.6768 24.2626 25.6768 23.9697 25.9697C23.6768 26.2626 23.6768 26.7374 23.9697 27.0303L25.4697 28.5303C25.7626 28.8232 26.2374 28.8232 26.5303 28.5303L29.0303 26.0303Z" fill="#1B202C" fill-opacity="0.3"/>
</g>
<defs>
<linearGradient id="paint0_linear_11841_95448" x1="0" y1="0" x2="44" y2="44" gradientUnits="userSpaceOnUse">
<stop stop-color="#1B202C" stop-opacity="0.05"/>
<stop offset="1" stop-color="#1B202C" stop-opacity="0"/>
</linearGradient>
<clipPath id="clip0_11841_95448">
<rect width="44" height="44" fill="white"/>
</clipPath>
</defs>
</svg>
