<svg width="44" height="44" viewBox="0 0 44 44" fill="none" xmlns="http://www.w3.org/2000/svg">
<g clip-path="url(#clip0_11841_95434)">
<rect width="44" height="44" rx="8" fill="url(#paint0_linear_11841_95434)"/>
<path fill-rule="evenodd" clip-rule="evenodd" d="M18.0284 12.4658C17.7355 12.1729 17.2606 12.1729 16.9677 12.4658C16.6748 12.7587 16.6748 13.2335 16.9677 13.5264L17.4882 14.0469H16.1474C14.49 14.0469 13.1465 15.3904 13.1465 17.0478V19.2987C13.1465 19.713 13.4823 20.0487 13.8965 20.0487C14.3107 20.0487 14.6465 19.713 14.6465 19.2987V17.0478C14.6465 16.2189 15.3185 15.5469 16.1474 15.5469H17.4881L16.9677 16.0673C16.6748 16.3602 16.6748 16.835 16.9677 17.1279C17.2606 17.4208 17.7355 17.4208 18.0284 17.1279L19.8291 15.3272C19.945 15.2113 20.015 15.0671 20.0392 14.9168C20.0762 14.6871 20.0062 14.4436 19.8291 14.2665L18.0284 12.4658ZM29.9312 16.1474C29.9312 14.49 28.5876 13.1465 26.9302 13.1465L24.6793 13.1465C24.2651 13.1465 23.9293 13.4823 23.9293 13.8965C23.9293 14.3107 24.2651 14.6465 24.6793 14.6465L26.9302 14.6465C27.7592 14.6465 28.4312 15.3185 28.4312 16.1474V17.4881L27.9108 16.9677C27.6179 16.6748 27.143 16.6748 26.8501 16.9677C26.5572 17.2606 26.5572 17.7355 26.8501 18.0284L28.6509 19.8291C28.7399 19.9181 28.8457 19.9801 28.9581 20.015C28.9998 20.028 29.043 20.0374 29.0874 20.0429C29.1565 20.0516 29.2265 20.0506 29.2954 20.0401C29.3276 20.0352 29.3591 20.0282 29.3898 20.0193C29.5076 19.9853 29.6187 19.922 29.7115 19.8291L31.5123 18.0284C31.8052 17.7355 31.8052 17.2606 31.5123 16.9677C31.2194 16.6748 30.7445 16.6748 30.4516 16.9677L29.9312 17.4882V16.1474ZM15.3313 24.175C15.3169 24.1603 15.3018 24.1462 15.2863 24.1328C15.2288 24.0832 15.1655 24.0437 15.0989 24.0145C15.0065 23.9738 14.9043 23.9512 14.7969 23.9512C14.7 23.9512 14.6075 23.9695 14.5225 24.003C14.4292 24.0395 14.3419 24.0955 14.2665 24.1708L12.4658 25.9716C12.1729 26.2645 12.1729 26.7394 12.4658 27.0323C12.7587 27.3251 13.2335 27.3251 13.5264 27.0323L14.0469 26.5118V27.8525C14.0469 28.6484 14.363 29.4117 14.9258 29.9745C15.4886 30.5373 16.2519 30.8534 17.0478 30.8534H19.2987C19.713 30.8534 20.0487 30.5176 20.0487 30.1034C20.0487 29.6892 19.713 29.3534 19.2987 29.3534H17.0478C16.6497 29.3534 16.268 29.1953 15.9865 28.9138C15.705 28.6323 15.5469 28.2506 15.5469 27.8525V26.5119L16.0673 27.0323C16.3602 27.3251 16.835 27.3251 17.1279 27.0323C17.4208 26.7394 17.4208 26.2645 17.1279 25.9716L15.3313 24.175ZM27.0321 26.872C27.325 27.1649 27.325 27.6398 27.0321 27.9327L26.5118 28.453H27.8524C28.2504 28.453 28.6322 28.2949 28.9137 28.0134C29.1952 27.732 29.3533 27.3502 29.3533 26.9521V24.7012C29.3533 24.287 29.6891 23.9512 30.1033 23.9512C30.5175 23.9512 30.8533 24.287 30.8533 24.7012V26.9521C30.8533 27.748 30.5371 28.5113 29.9743 29.0741C29.4116 29.6369 28.6483 29.953 27.8524 29.953H26.5117L27.0321 30.4735C27.325 30.7664 27.325 31.2413 27.0321 31.5342C26.7392 31.8271 26.2644 31.8271 25.9715 31.5342L24.1707 29.7334C24.0935 29.6562 24.0367 29.5664 24.0002 29.4706C23.9684 29.3875 23.951 29.2973 23.951 29.203C23.951 29.0924 23.975 28.9874 24.018 28.8929C24.045 28.8333 24.0803 28.7765 24.1237 28.7242C24.1401 28.7045 24.1575 28.6857 24.1758 28.6677L25.9715 26.872C26.2644 26.5791 26.7392 26.5791 27.0321 26.872ZM20.0487 22C20.0487 20.9224 20.9223 20.0488 21.9998 20.0488C23.0774 20.0488 23.951 20.9224 23.951 22C23.951 23.0775 23.0774 23.9511 21.9998 23.9511C20.9223 23.9511 20.0487 23.0775 20.0487 22ZM25.451 22C25.451 23.906 23.9058 25.4511 21.9998 25.4511C20.0938 25.4511 18.5487 23.906 18.5487 22C18.5487 20.0939 20.0938 18.5488 21.9998 18.5488C23.9058 18.5488 25.451 20.0939 25.451 22Z" fill="#1B202C" fill-opacity="0.3"/>
</g>
<defs>
<linearGradient id="paint0_linear_11841_95434" x1="0" y1="0" x2="44" y2="44" gradientUnits="userSpaceOnUse">
<stop stop-color="#1B202C" stop-opacity="0.05"/>
<stop offset="1" stop-color="#1B202C" stop-opacity="0"/>
</linearGradient>
<clipPath id="clip0_11841_95434">
<rect width="44" height="44" fill="white"/>
</clipPath>
</defs>
</svg>
