<svg width="44" height="44" viewBox="0 0 44 44" fill="none" xmlns="http://www.w3.org/2000/svg">
<g clip-path="url(#clip0_11841_95364)">
<rect width="44" height="44" rx="8" fill="url(#paint0_linear_11841_95364)"/>
<path fill-rule="evenodd" clip-rule="evenodd" d="M23.7993 14.7974C23.7993 14.5228 23.8298 14.2553 23.8877 13.9982C23.2858 13.8363 22.653 13.75 22 13.75C17.9959 13.75 14.75 16.9959 14.75 21C14.75 21.7854 14.8749 22.5417 15.1059 23.25H18.9997C18.529 22.6233 18.25 21.8442 18.25 21C18.25 18.9289 19.9289 17.25 22 17.25C22.4142 17.25 22.75 17.5858 22.75 18C22.75 18.4142 22.4142 18.75 22 18.75C20.7574 18.75 19.75 19.7574 19.75 21C19.75 22.2426 20.7574 23.25 22 23.25C23.2426 23.25 24.25 22.2426 24.25 21C24.25 20.5858 24.5858 20.25 25 20.25C25.4142 20.25 25.75 20.5858 25.75 21C25.75 21.8442 25.471 22.6233 25.0003 23.25H28.8941C29.1251 22.5417 29.25 21.7854 29.25 21C29.25 20.0053 29.0497 19.0575 28.6872 18.1945C28.293 18.3415 27.8665 18.422 27.4215 18.4224C25.4204 18.4209 23.7993 16.7983 23.7993 14.7974ZM22 12.25C22.8781 12.25 23.7261 12.3794 24.5258 12.6201C25.1871 11.741 26.2392 11.1724 27.4243 11.1724C29.4268 11.1724 31.0493 12.7957 31.0493 14.7974C31.0493 15.8071 30.635 16.7205 29.9674 17.3779C30.47 18.4816 30.75 19.7081 30.75 21C30.75 21.7779 30.6485 22.5321 30.458 23.25H32C32.4142 23.25 32.75 23.5858 32.75 24C32.75 24.4142 32.4142 24.75 32 24.75H22H12C11.5858 24.75 11.25 24.4142 11.25 24C11.25 23.5858 11.5858 23.25 12 23.25H13.542C13.3515 22.5321 13.25 21.7779 13.25 21C13.25 16.1675 17.1675 12.25 22 12.25ZM27.4224 17.1724C26.1114 17.1714 25.0493 16.1084 25.0493 14.7974C25.0493 13.4859 26.1124 12.4224 27.4243 12.4224C28.7363 12.4224 29.7993 13.4859 29.7993 14.7974C29.7993 16.1084 28.7333 17.1714 27.4224 17.1724ZM14 26.25C14.4142 26.25 14.75 26.5858 14.75 27V30C14.75 30.4142 14.4142 30.75 14 30.75C13.5858 30.75 13.25 30.4142 13.25 30V27C13.25 26.5858 13.5858 26.25 14 26.25ZM22.75 27C22.75 26.5858 22.4142 26.25 22 26.25C21.5858 26.25 21.25 26.5858 21.25 27V30C21.25 30.4142 21.5858 30.75 22 30.75C22.4142 30.75 22.75 30.4142 22.75 30V27ZM18 26.25C18.4142 26.25 18.75 26.5858 18.75 27V29C18.75 29.4142 18.4142 29.75 18 29.75C17.5858 29.75 17.25 29.4142 17.25 29V27C17.25 26.5858 17.5858 26.25 18 26.25ZM30.75 27C30.75 26.5858 30.4142 26.25 30 26.25C29.5858 26.25 29.25 26.5858 29.25 27V29C29.25 29.4142 29.5858 29.75 30 29.75C30.4142 29.75 30.75 29.4142 30.75 29V27ZM26 26.25C26.4142 26.25 26.75 26.5858 26.75 27V31C26.75 31.4142 26.4142 31.75 26 31.75C25.5858 31.75 25.25 31.4142 25.25 31V27C25.25 26.5858 25.5858 26.25 26 26.25ZM27.6012 13.8779C27.6012 13.5327 27.3214 13.2529 26.9762 13.2529C26.631 13.2529 26.3512 13.5327 26.3512 13.8779V15.2451C26.3512 15.5903 26.631 15.8701 26.9762 15.8701H28.3434C28.6886 15.8701 28.9684 15.5903 28.9684 15.2451C28.9684 14.9 28.6886 14.6201 28.3434 14.6201H27.6012V13.8779Z" fill="#1B202C" fill-opacity="0.3"/>
</g>
<defs>
<linearGradient id="paint0_linear_11841_95364" x1="0" y1="0" x2="44" y2="44" gradientUnits="userSpaceOnUse">
<stop stop-color="#1B202C" stop-opacity="0.05"/>
<stop offset="1" stop-color="#1B202C" stop-opacity="0"/>
</linearGradient>
<clipPath id="clip0_11841_95364">
<rect width="44" height="44" fill="white"/>
</clipPath>
</defs>
</svg>
