<svg width="44" height="44" viewBox="0 0 44 44" fill="none" xmlns="http://www.w3.org/2000/svg">
<g clip-path="url(#clip0_11841_95474)">
<rect width="44" height="44" rx="8" fill="url(#paint0_linear_11841_95474)"/>
<path fill-rule="evenodd" clip-rule="evenodd" d="M18.7496 14.8994C18.7496 13.1045 20.2047 11.6494 21.9996 11.6494C23.7945 11.6494 25.2496 13.1045 25.2496 14.8994C25.2496 16.6943 23.7945 18.1494 21.9996 18.1494C20.2047 18.1494 18.7496 16.6943 18.7496 14.8994ZM21.9996 13.1494C21.0331 13.1494 20.2496 13.9329 20.2496 14.8994C20.2496 15.8659 21.0331 16.6494 21.9996 16.6494C22.9661 16.6494 23.7496 15.8659 23.7496 14.8994C23.7496 13.9329 22.9661 13.1494 21.9996 13.1494ZM29.2602 23.601C29.2602 21.4194 27.4917 19.651 25.3102 19.651L18.6895 19.651C16.5079 19.651 14.7395 21.4195 14.7395 23.601V24.0006H12C11.5858 24.0006 11.25 24.3364 11.25 24.7506C11.25 25.1648 11.5858 25.5006 12 25.5006H32C32.4142 25.5006 32.75 25.1648 32.75 24.7506C32.75 24.3364 32.4142 24.0006 32 24.0006H29.2602V23.601ZM27.7602 24.0006H16.2395V23.601C16.2395 22.2479 17.3364 21.151 18.6895 21.151L25.3102 21.151C26.6633 21.151 27.7602 22.2479 27.7602 23.601V24.0006ZM22.7499 27.7506C22.7499 27.3364 22.4141 27.0006 21.9999 27.0006C21.5857 27.0006 21.2499 27.3364 21.2499 27.7506L21.2499 29.0006L18.9999 29.0006C18.5857 29.0006 18.2499 29.3364 18.2499 29.7506C18.2499 30.1648 18.5857 30.5006 18.9999 30.5006L21.2499 30.5006L21.2499 31.7506C21.2499 32.1648 21.5857 32.5006 21.9999 32.5006C22.4141 32.5006 22.7499 32.1648 22.7499 31.7506L22.7499 30.5006H24.9999C25.4141 30.5006 25.7499 30.1648 25.7499 29.7506C25.7499 29.3364 25.4141 29.0006 24.9999 29.0006H22.7499L22.7499 27.7506Z" fill="#1B202C" fill-opacity="0.3"/>
</g>
<defs>
<linearGradient id="paint0_linear_11841_95474" x1="0" y1="0" x2="44" y2="44" gradientUnits="userSpaceOnUse">
<stop stop-color="#1B202C" stop-opacity="0.05"/>
<stop offset="1" stop-color="#1B202C" stop-opacity="0"/>
</linearGradient>
<clipPath id="clip0_11841_95474">
<rect width="44" height="44" fill="white"/>
</clipPath>
</defs>
</svg>
