<svg width="44" height="44" viewBox="0 0 44 44" fill="none" xmlns="http://www.w3.org/2000/svg">
<g clip-path="url(#clip0_11841_95531)">
<rect width="44" height="44" rx="8" fill="url(#paint0_linear_11841_95531)"/>
<path fill-rule="evenodd" clip-rule="evenodd" d="M22 13.75C17.9959 13.75 14.75 16.9959 14.75 21C14.75 21.7854 14.8749 22.5417 15.1059 23.25H18.9997C18.529 22.6233 18.25 21.8442 18.25 21C18.25 18.9289 19.9289 17.25 22 17.25C24.0711 17.25 25.75 18.9289 25.75 21C25.75 21.8442 25.471 22.6233 25.0003 23.25H28.8941C29.1251 22.5417 29.25 21.7854 29.25 21C29.25 16.9959 26.0041 13.75 22 13.75ZM22 23.25C23.2426 23.25 24.25 22.2426 24.25 21C24.25 19.7574 23.2426 18.75 22 18.75C20.7574 18.75 19.75 19.7574 19.75 21C19.75 22.2426 20.7574 23.25 22 23.25ZM22 24.75H12C11.5858 24.75 11.25 24.4142 11.25 24C11.25 23.5858 11.5858 23.25 12 23.25H13.542C13.3515 22.5321 13.25 21.7779 13.25 21C13.25 16.1675 17.1675 12.25 22 12.25C26.8325 12.25 30.75 16.1675 30.75 21C30.75 21.7779 30.6485 22.5321 30.458 23.25H32C32.4142 23.25 32.75 23.5858 32.75 24C32.75 24.4142 32.4142 24.75 32 24.75H22ZM14 26.25C14.4142 26.25 14.75 26.5858 14.75 27V30C14.75 30.4142 14.4142 30.75 14 30.75C13.5858 30.75 13.25 30.4142 13.25 30V27C13.25 26.5858 13.5858 26.25 14 26.25ZM22.75 27C22.75 26.5858 22.4142 26.25 22 26.25C21.5858 26.25 21.25 26.5858 21.25 27V30C21.25 30.4142 21.5858 30.75 22 30.75C22.4142 30.75 22.75 30.4142 22.75 30V27ZM18 26.25C18.4142 26.25 18.75 26.5858 18.75 27V29C18.75 29.4142 18.4142 29.75 18 29.75C17.5858 29.75 17.25 29.4142 17.25 29V27C17.25 26.5858 17.5858 26.25 18 26.25ZM30.75 27C30.75 26.5858 30.4142 26.25 30 26.25C29.5858 26.25 29.25 26.5858 29.25 27V29C29.25 29.4142 29.5858 29.75 30 29.75C30.4142 29.75 30.75 29.4142 30.75 29V27ZM26 26.25C26.4142 26.25 26.75 26.5858 26.75 27V31C26.75 31.4142 26.4142 31.75 26 31.75C25.5858 31.75 25.25 31.4142 25.25 31V27C25.25 26.5858 25.5858 26.25 26 26.25Z" fill="white" fill-opacity="0.25"/>
</g>
<defs>
<linearGradient id="paint0_linear_11841_95531" x1="0" y1="0" x2="44" y2="44" gradientUnits="userSpaceOnUse">
<stop stop-color="white" stop-opacity="0.05"/>
<stop offset="1" stop-color="white" stop-opacity="0"/>
</linearGradient>
<clipPath id="clip0_11841_95531">
<rect width="44" height="44" fill="white"/>
</clipPath>
</defs>
</svg>
