<svg width="44" height="44" viewBox="0 0 44 44" fill="none" xmlns="http://www.w3.org/2000/svg">
<g clip-path="url(#clip0_11841_95383)">
<rect width="44" height="44" rx="8" fill="url(#paint0_linear_11841_95383)"/>
<path fill-rule="evenodd" clip-rule="evenodd" d="M21.2061 13.102C21.6237 12.8634 22.1356 12.8604 22.556 13.094L29.6678 17.0455C30.1043 17.288 30.375 17.7481 30.375 18.2474V23.25H27.2635V19.4282L27.9858 19.8272C28.2879 19.9941 28.6682 19.8845 28.8351 19.5824C29.002 19.2802 28.8924 18.9 28.5902 18.7331L26.9407 17.8219L26.94 17.8215L25.6469 17.1094C25.3445 16.9428 24.9644 17.053 24.7979 17.3553C24.6314 17.6577 24.7415 18.0378 25.0439 18.2043L26.0135 18.7382V23.25H22.0736V22.6253H23.5894C23.9345 22.6253 24.2144 22.3455 24.2144 22.0003C24.2144 21.6551 23.9345 21.3753 23.5894 21.3753H22.0736V16.6904L23.2974 17.3371C23.6026 17.4984 23.9807 17.3817 24.142 17.0765C24.3032 16.7713 24.1866 16.3932 23.8814 16.2319L21.7406 15.1007C21.5468 14.9983 21.3136 15.0049 21.126 15.118C20.9383 15.2311 20.8236 15.4342 20.8236 15.6533V22.0003V23.25H19.5126V17.3683C19.5126 17.0231 19.2328 16.7433 18.8876 16.7433C18.5424 16.7433 18.2626 17.0231 18.2626 17.3683V22.6789L16.5182 19.0117C16.3927 18.7479 16.1012 18.6062 15.8162 18.6705C15.5312 18.7348 15.3288 18.988 15.3288 19.2802V23.25H13.625V18.2314C13.625 17.7379 13.8894 17.2823 14.3179 17.0375L21.2061 13.102ZM12.375 23.25V18.2314C12.375 17.2893 12.8798 16.4195 13.6978 15.9522L20.586 12.0167C21.3832 11.5612 22.3605 11.5554 23.1631 12.0013L30.2749 15.9528C31.1082 16.4158 31.625 17.2941 31.625 18.2474V23.25H32C32.4142 23.25 32.75 23.5858 32.75 24C32.75 24.4142 32.4142 24.75 32 24.75H12C11.5858 24.75 11.25 24.4142 11.25 24C11.25 23.5858 11.5858 23.25 12 23.25H12.375ZM16.5788 23.25H17.1501L16.5788 22.0491V23.25ZM14 26.25C14.4142 26.25 14.75 26.5858 14.75 27V30C14.75 30.4142 14.4142 30.75 14 30.75C13.5858 30.75 13.25 30.4142 13.25 30V27C13.25 26.5858 13.5858 26.25 14 26.25ZM22.75 27C22.75 26.5858 22.4142 26.25 22 26.25C21.5858 26.25 21.25 26.5858 21.25 27V30C21.25 30.4142 21.5858 30.75 22 30.75C22.4142 30.75 22.75 30.4142 22.75 30V27ZM18 26.25C18.4142 26.25 18.75 26.5858 18.75 27V29C18.75 29.4142 18.4142 29.75 18 29.75C17.5858 29.75 17.25 29.4142 17.25 29V27C17.25 26.5858 17.5858 26.25 18 26.25ZM30.75 27C30.75 26.5858 30.4142 26.25 30 26.25C29.5858 26.25 29.25 26.5858 29.25 27V29C29.25 29.4142 29.5858 29.75 30 29.75C30.4142 29.75 30.75 29.4142 30.75 29V27ZM26 26.25C26.4142 26.25 26.75 26.5858 26.75 27V31C26.75 31.4142 26.4142 31.75 26 31.75C25.5858 31.75 25.25 31.4142 25.25 31V27C25.25 26.5858 25.5858 26.25 26 26.25Z" fill="#1B202C" fill-opacity="0.3"/>
</g>
<defs>
<linearGradient id="paint0_linear_11841_95383" x1="0" y1="0" x2="44" y2="44" gradientUnits="userSpaceOnUse">
<stop stop-color="#1B202C" stop-opacity="0.05"/>
<stop offset="1" stop-color="#1B202C" stop-opacity="0"/>
</linearGradient>
<clipPath id="clip0_11841_95383">
<rect width="44" height="44" fill="white"/>
</clipPath>
</defs>
</svg>
