<svg width="44" height="44" viewBox="0 0 44 44" fill="none" xmlns="http://www.w3.org/2000/svg">
<g clip-path="url(#clip0_11841_95587)">
<rect width="44" height="44" rx="8" fill="url(#paint0_linear_11841_95587)"/>
<path fill-rule="evenodd" clip-rule="evenodd" d="M24.0273 14.0597C24.2683 13.8186 24.6592 13.8186 24.9003 14.0597L27.066 16.2255C27.3071 16.4665 27.3071 16.8574 27.066 17.0985L22.1641 22.0004C21.923 22.2415 21.5322 22.2415 21.2911 22.0004L19.1253 19.8347C18.8843 19.5936 18.8843 19.2027 19.1253 18.9616L24.0273 14.0597ZM25.961 12.9991C25.1341 12.1722 23.7935 12.1722 22.9666 12.9991L18.0647 17.901C17.2378 18.7278 17.2378 20.0685 18.0647 20.8953L20.2304 23.0611C21.0573 23.8879 22.3979 23.8879 23.2248 23.0611L25.1527 21.1332L30.7784 26.7589C31.0713 27.0518 31.5462 27.0518 31.8391 26.7589C32.132 26.466 32.132 25.9911 31.8391 25.6982L26.2134 20.0725L28.1267 18.1592C28.9536 17.3323 28.9536 15.9917 28.1267 15.1648L25.961 12.9991ZM15.4076 25.9015C14.4411 25.9015 13.6576 26.685 13.6576 27.6515V30.192H12.6914C12.2772 30.192 11.9414 30.5278 11.9414 30.942C11.9414 31.3562 12.2772 31.692 12.6914 31.692H14.4076H25.0468H26.763C27.1772 31.692 27.513 31.3562 27.513 30.942C27.513 30.5278 27.1772 30.192 26.763 30.192H25.7968V27.6515C25.7968 26.685 25.0133 25.9015 24.0468 25.9015H15.4076ZM24.2968 30.192H15.1576V27.6515C15.1576 27.5134 15.2695 27.4015 15.4076 27.4015H24.0468C24.1849 27.4015 24.2968 27.5134 24.2968 27.6515V30.192Z" fill="white" fill-opacity="0.25"/>
</g>
<defs>
<linearGradient id="paint0_linear_11841_95587" x1="0" y1="0" x2="44" y2="44" gradientUnits="userSpaceOnUse">
<stop stop-color="white" stop-opacity="0.05"/>
<stop offset="1" stop-color="white" stop-opacity="0"/>
</linearGradient>
<clipPath id="clip0_11841_95587">
<rect width="44" height="44" fill="white"/>
</clipPath>
</defs>
</svg>
