<svg width="44" height="44" viewBox="0 0 44 44" fill="none" xmlns="http://www.w3.org/2000/svg">
<g clip-path="url(#clip0_11841_95429)">
<rect width="44" height="44" rx="8" fill="url(#paint0_linear_11841_95429)"/>
<path d="M31 17.5V18.25C31.3033 18.25 31.5768 18.0673 31.6929 17.787C31.809 17.5068 31.7448 17.1842 31.5303 16.9697L31 17.5ZM28.5303 13.9697C28.2374 13.6768 27.7626 13.6768 27.4697 13.9697C27.1768 14.2626 27.1768 14.7374 27.4697 15.0303L28.5303 13.9697ZM18.25 17.5C18.25 18.7426 17.2426 19.75 16 19.75V21.25C18.0711 21.25 19.75 19.5711 19.75 17.5H18.25ZM16 19.75C14.7574 19.75 13.75 18.7426 13.75 17.5H12.25C12.25 19.5711 13.9289 21.25 16 21.25V19.75ZM13.75 17.5C13.75 16.2574 14.7574 15.25 16 15.25V13.75C13.9289 13.75 12.25 15.4289 12.25 17.5H13.75ZM16 15.25C17.2426 15.25 18.25 16.2574 18.25 17.5H19.75C19.75 15.4289 18.0711 13.75 16 13.75V15.25ZM19 18.25L31 18.25V16.75L19 16.75V18.25ZM31.5303 16.9697L28.5303 13.9697L27.4697 15.0303L30.4697 18.0303L31.5303 16.9697Z" fill="#1B202C" fill-opacity="0.3"/>
<path d="M31 26.5V27.25C31.3033 27.25 31.5768 27.0673 31.6929 26.787C31.809 26.5068 31.7448 26.1842 31.5303 25.9697L31 26.5ZM28.5303 22.9697C28.2374 22.6768 27.7626 22.6768 27.4697 22.9697C27.1768 23.2626 27.1768 23.7374 27.4697 24.0303L28.5303 22.9697ZM18.25 26.5C18.25 27.7426 17.2426 28.75 16 28.75V30.25C18.0711 30.25 19.75 28.5711 19.75 26.5H18.25ZM16 28.75C14.7574 28.75 13.75 27.7426 13.75 26.5H12.25C12.25 28.5711 13.9289 30.25 16 30.25V28.75ZM13.75 26.5C13.75 25.2574 14.7574 24.25 16 24.25V22.75C13.9289 22.75 12.25 24.4289 12.25 26.5H13.75ZM16 24.25C17.2426 24.25 18.25 25.2574 18.25 26.5H19.75C19.75 24.4289 18.0711 22.75 16 22.75V24.25ZM31.5303 25.9697L28.5303 22.9697L27.4697 24.0303L30.4697 27.0303L31.5303 25.9697ZM19 27.25L31 27.25V25.75L19 25.75V27.25Z" fill="#1B202C" fill-opacity="0.3"/>
</g>
<defs>
<linearGradient id="paint0_linear_11841_95429" x1="0" y1="0" x2="44" y2="44" gradientUnits="userSpaceOnUse">
<stop stop-color="#1B202C" stop-opacity="0.05"/>
<stop offset="1" stop-color="#1B202C" stop-opacity="0"/>
</linearGradient>
<clipPath id="clip0_11841_95429">
<rect width="44" height="44" fill="white"/>
</clipPath>
</defs>
</svg>
