<svg width="44" height="44" viewBox="0 0 44 44" fill="none" xmlns="http://www.w3.org/2000/svg">
<g clip-path="url(#clip0_11841_95456)">
<rect width="44" height="44" rx="8" fill="url(#paint0_linear_11841_95456)"/>
<path fill-rule="evenodd" clip-rule="evenodd" d="M12.25 22C12.25 16.6158 16.6147 12.25 22 12.25C25.117 12.25 27.8903 13.7131 29.674 15.9865V14.8032C29.674 14.389 30.0098 14.0532 30.424 14.0532C30.8382 14.0532 31.174 14.389 31.174 14.8032V17.6962C31.174 18.1104 30.8382 18.4462 30.424 18.4462H27.531C27.1168 18.4462 26.781 18.1104 26.781 17.6962C26.781 17.282 27.1168 16.9462 27.531 16.9462H28.5204C27.0108 15.001 24.6515 13.75 22 13.75C17.4433 13.75 13.75 17.4442 13.75 22C13.75 26.5558 17.4433 30.25 22 30.25C26.5567 30.25 30.25 26.5558 30.25 22C30.25 21.5858 30.5858 21.25 31 21.25C31.4142 21.25 31.75 21.5858 31.75 22C31.75 27.3842 27.3853 31.75 22 31.75C16.6147 31.75 12.25 27.3842 12.25 22ZM20.0553 20.0551C21.1294 18.981 22.8706 18.981 23.9447 20.0551C25.0188 21.1292 25.0188 22.8703 23.9447 23.9444C22.8706 25.0185 21.1294 25.0185 20.0553 23.9444C18.9812 22.8703 18.9812 21.1292 20.0553 20.0551ZM18.9947 18.9944C20.6546 17.3345 23.3454 17.3345 25.0053 18.9944C26.6652 20.6543 26.6652 23.3452 25.0053 25.0051C23.3454 26.665 20.6546 26.665 18.9947 25.0051C17.3348 23.3452 17.3348 20.6543 18.9947 18.9944Z" fill="#1B202C" fill-opacity="0.3"/>
</g>
<defs>
<linearGradient id="paint0_linear_11841_95456" x1="0" y1="0" x2="44" y2="44" gradientUnits="userSpaceOnUse">
<stop stop-color="#1B202C" stop-opacity="0.05"/>
<stop offset="1" stop-color="#1B202C" stop-opacity="0"/>
</linearGradient>
<clipPath id="clip0_11841_95456">
<rect width="44" height="44" fill="white"/>
</clipPath>
</defs>
</svg>
