<svg width="44" height="44" viewBox="0 0 44 44" fill="none" xmlns="http://www.w3.org/2000/svg">
<g clip-path="url(#clip0_11841_95602)">
<rect width="44" height="44" rx="8" fill="url(#paint0_linear_11841_95602)"/>
<path fill-rule="evenodd" clip-rule="evenodd" d="M14.0265 15.1949C14.0265 13.4139 15.5161 12.0166 17.2952 12.0166C19.0744 12.0166 20.564 13.4139 20.564 15.1949C20.564 16.9758 19.0744 18.3731 17.2952 18.3731C15.5161 18.3731 14.0265 16.9758 14.0265 15.1949ZM17.2952 13.5166C16.2923 13.5166 15.5265 14.2936 15.5265 15.1949C15.5265 16.0961 16.2923 16.8731 17.2952 16.8731C18.2981 16.8731 19.064 16.0961 19.064 15.1949C19.064 14.2936 18.2982 13.5166 17.2952 13.5166ZM13.7692 21.2878C13.6009 21.2878 13.5117 21.4125 13.5117 21.5091V26.8513C13.5117 28.8254 15.1796 30.4721 17.2954 30.4721C18.0203 30.4721 18.6943 30.2777 19.2668 29.9425C19.6242 29.7331 20.0837 29.8532 20.293 30.2106C20.5023 30.5681 20.3823 31.0275 20.0248 31.2368C19.2266 31.7043 18.2915 31.9721 17.2954 31.9721C14.4034 31.9721 12.0117 29.7051 12.0117 26.8513V21.5091C12.0117 20.5328 12.8247 19.7878 13.7692 19.7878H21.8291C22.2433 19.7878 22.5791 20.1236 22.5791 20.5378C22.5791 20.952 22.2433 21.2878 21.8291 21.2878H13.7692ZM23.5606 23.5C23.0624 23.5 22.6585 23.9039 22.6585 24.4021C22.6585 24.9003 23.0624 25.3042 23.5606 25.3042C24.0588 25.3042 24.4627 24.9003 24.4627 24.4021C24.4627 23.9039 24.0588 23.5 23.5606 23.5ZM21.1585 24.4021C21.1585 23.0755 22.2339 22 23.5606 22C24.6253 22 25.5282 22.6927 25.8433 23.6521H30.0104L29.6386 23.2803C29.3457 22.9874 29.3457 22.5126 29.6386 22.2197C29.9315 21.9268 30.4064 21.9268 30.6993 22.2197L32.3513 23.8718C32.5658 24.0863 32.63 24.4088 32.5139 24.6891C32.3978 24.9694 32.1244 25.1521 31.821 25.1521H25.8433C25.5282 26.1114 24.6253 26.8042 23.5606 26.8042C22.2339 26.8042 21.1585 25.7287 21.1585 24.4021ZM23.5606 28.96C23.0624 28.96 22.6585 29.3638 22.6585 29.862C22.6585 30.3603 23.0624 30.7641 23.5606 30.7641C24.0588 30.7641 24.4627 30.3603 24.4627 29.862C24.4627 29.3638 24.0588 28.96 23.5606 28.96ZM21.1585 29.862C21.1585 28.5354 22.2339 27.46 23.5606 27.46C24.6253 27.46 25.5282 28.1527 25.8433 29.112H30.0104L29.6386 28.7403C29.3457 28.4474 29.3457 27.9725 29.6386 27.6796C29.9315 27.3867 30.4064 27.3867 30.6993 27.6796L32.3513 29.3317C32.5658 29.5462 32.63 29.8688 32.5139 30.1491C32.3978 30.4293 32.1244 30.612 31.821 30.612H25.8433C25.5282 31.5714 24.6253 32.2641 23.5606 32.2641C22.2339 32.2641 21.1585 31.1887 21.1585 29.862Z" fill="white" fill-opacity="0.25"/>
</g>
<defs>
<linearGradient id="paint0_linear_11841_95602" x1="0" y1="0" x2="44" y2="44" gradientUnits="userSpaceOnUse">
<stop stop-color="white" stop-opacity="0.05"/>
<stop offset="1" stop-color="white" stop-opacity="0"/>
</linearGradient>
<clipPath id="clip0_11841_95602">
<rect width="44" height="44" fill="white"/>
</clipPath>
</defs>
</svg>
