<svg width="44" height="44" viewBox="0 0 44 44" fill="none" xmlns="http://www.w3.org/2000/svg">
<g clip-path="url(#clip0_11841_95323)">
<rect width="44" height="44" rx="8" fill="url(#paint0_linear_11841_95323)"/>
<path fill-rule="evenodd" clip-rule="evenodd" d="M27.3949 14.8128C27.3829 14.8298 27.3703 14.8462 27.3572 14.862C27.2069 15.0684 27.1182 15.3226 27.1182 15.5975C27.1182 16.2883 27.6782 16.8484 28.369 16.8484C29.0598 16.8484 29.6198 16.2883 29.6198 15.5975C29.6198 14.9067 29.0598 14.3467 28.369 14.3467C27.9754 14.3467 27.6242 14.5285 27.3949 14.8128ZM25.6182 15.5975C25.6182 15.2713 25.675 14.9584 25.7792 14.6681C22.5434 12.9796 18.5431 13.5946 15.9638 16.2532C13.2221 19.0793 12.8371 23.4405 15.0414 26.7031C17.2456 29.9658 21.4354 31.2363 25.0805 29.7474C28.7257 28.2585 30.8278 24.418 30.1174 20.5452C30.0427 20.1377 30.3124 19.7469 30.7198 19.6722C31.1272 19.5974 31.5181 19.8671 31.5928 20.2746C32.4312 24.8458 29.9501 29.3787 25.6477 31.136C21.3453 32.8934 16.4002 31.3938 13.7984 27.5429C11.1967 23.6919 11.6511 18.5444 14.8872 15.2087C17.9823 12.0184 22.8111 11.3213 26.6626 13.4398C27.1316 13.0684 27.7244 12.8467 28.369 12.8467C29.8883 12.8467 31.1198 14.0783 31.1198 15.5975C31.1198 17.1168 29.8883 18.3484 28.369 18.3484C26.8498 18.3484 25.6182 17.1168 25.6182 15.5975ZM24.781 19.9638C25.0739 19.6709 25.5488 19.6709 25.8417 19.9638L27.3283 21.4504C27.6211 21.7433 27.6212 22.218 27.3285 22.5109L25.8248 24.0156C25.532 24.3085 25.0572 24.3087 24.7642 24.0159C24.4712 23.7231 24.471 23.2482 24.7638 22.9552L25.7375 21.981L24.781 21.0245C24.4881 20.7316 24.4881 20.2567 24.781 19.9638ZM19.219 19.9751C19.5119 20.268 19.5119 20.7428 19.219 21.0357L18.2627 21.992L19.236 22.9653C19.5289 23.2582 19.5289 23.7331 19.236 24.026C18.9431 24.3189 18.4682 24.3189 18.1753 24.026L16.6717 22.5223C16.3788 22.2294 16.3788 21.7546 16.6717 21.4617L18.1583 19.9751C18.4512 19.6822 18.9261 19.6822 19.219 19.9751ZM23.476 19.715C23.5953 19.3184 23.3704 18.9001 22.9738 18.7808C22.5771 18.6615 22.1588 18.8864 22.0395 19.2831L20.5353 24.2851C20.416 24.6818 20.6409 25.1001 21.0376 25.2194C21.4342 25.3386 21.8525 25.1138 21.9718 24.7171L23.476 19.715Z" fill="#1B202C" fill-opacity="0.3"/>
</g>
<defs>
<linearGradient id="paint0_linear_11841_95323" x1="0" y1="0" x2="44" y2="44" gradientUnits="userSpaceOnUse">
<stop stop-color="#1B202C" stop-opacity="0.05"/>
<stop offset="1" stop-color="#1B202C" stop-opacity="0"/>
</linearGradient>
<clipPath id="clip0_11841_95323">
<rect width="44" height="44" fill="white"/>
</clipPath>
</defs>
</svg>
