<svg width="44" height="44" viewBox="0 0 44 44" fill="none" xmlns="http://www.w3.org/2000/svg">
<g clip-path="url(#clip0_11841_95395)">
<rect width="44" height="44" rx="8" fill="url(#paint0_linear_11841_95395)"/>
<path fill-rule="evenodd" clip-rule="evenodd" d="M17.2952 12.0166C15.5161 12.0166 14.0265 13.4139 14.0265 15.1949C14.0265 16.9758 15.5161 18.3731 17.2952 18.3731C19.0744 18.3731 20.564 16.9758 20.564 15.1949C20.564 13.4139 19.0744 12.0166 17.2952 12.0166ZM15.5265 15.1949C15.5265 14.2936 16.2923 13.5166 17.2952 13.5166C18.2982 13.5166 19.064 14.2936 19.064 15.1949C19.064 16.0961 18.2981 16.8731 17.2952 16.8731C16.2923 16.8731 15.5265 16.0961 15.5265 15.1949ZM13.5117 21.5091C13.5117 21.4125 13.6009 21.2878 13.7692 21.2878H21.8291C22.2433 21.2878 22.5791 20.952 22.5791 20.5378C22.5791 20.1236 22.2433 19.7878 21.8291 19.7878H13.7692C12.8247 19.7878 12.0117 20.5328 12.0117 21.5091V26.8513C12.0117 29.7051 14.4034 31.9721 17.2954 31.9721C18.2915 31.9721 19.2266 31.7043 20.0248 31.2368C20.3823 31.0275 20.5023 30.5681 20.293 30.2106C20.0837 29.8532 19.6242 29.7331 19.2668 29.9425C18.6943 30.2777 18.0203 30.4721 17.2954 30.4721C15.1796 30.4721 13.5117 28.8254 13.5117 26.8513V21.5091ZM26.4028 22.2769C24.1311 22.2769 22.2896 24.1184 22.2896 26.3901C22.2896 28.6618 24.1311 30.5034 26.4028 30.5034C28.6745 30.5034 30.5161 28.6618 30.5161 26.3901C30.5161 25.9759 30.8519 25.6401 31.2661 25.6401C31.6803 25.6401 32.0161 25.9759 32.0161 26.3901C32.0161 29.4903 29.503 32.0034 26.4028 32.0034C23.3027 32.0034 20.7896 29.4903 20.7896 26.3901C20.7896 23.29 23.3027 20.7769 26.4028 20.7769C27.3143 20.7769 28.1771 20.9947 28.9399 21.3817C29.3093 21.5692 29.4568 22.0206 29.2693 22.3899C29.0819 22.7593 28.6305 22.9068 28.2611 22.7194C27.7038 22.4366 27.0731 22.2769 26.4028 22.2769ZM31.606 23.6639C31.8989 23.371 31.8989 22.8961 31.606 22.6032C31.3131 22.3103 30.8382 22.3103 30.5454 22.6032L26.2358 26.9127L24.82 25.4969C24.5271 25.204 24.0522 25.204 23.7593 25.4969C23.4664 25.7898 23.4664 26.2647 23.7593 26.5576L25.7055 28.5037C25.9984 28.7966 26.4733 28.7966 26.7662 28.5037L31.606 23.6639Z" fill="#1B202C" fill-opacity="0.3"/>
</g>
<defs>
<linearGradient id="paint0_linear_11841_95395" x1="0" y1="0" x2="44" y2="44" gradientUnits="userSpaceOnUse">
<stop stop-color="#1B202C" stop-opacity="0.05"/>
<stop offset="1" stop-color="#1B202C" stop-opacity="0"/>
</linearGradient>
<clipPath id="clip0_11841_95395">
<rect width="44" height="44" fill="white"/>
</clipPath>
</defs>
</svg>
