<svg width="44" height="44" viewBox="0 0 44 44" fill="none" xmlns="http://www.w3.org/2000/svg">
<g clip-path="url(#clip0_11841_95463)">
<rect width="44" height="44" rx="8" fill="url(#paint0_linear_11841_95463)"/>
<path fill-rule="evenodd" clip-rule="evenodd" d="M21.9998 13.75C17.9957 13.75 14.7498 16.9959 14.7498 21C14.7498 22.0701 14.9817 23.0861 15.3979 24.0004H19.7496C18.8389 23.3163 18.2499 22.2271 18.2499 21.0004C18.2499 18.9293 19.9288 17.2504 21.9999 17.2504C24.071 17.2504 25.7499 18.9293 25.7499 21.0004C25.7499 22.2271 25.1609 23.3163 24.2502 24.0004H28.6017C29.018 23.0861 29.2498 22.0701 29.2498 21C29.2498 16.9959 26.0039 13.75 21.9998 13.75ZM30.2218 24.0004C30.5634 23.0646 30.7498 22.0541 30.7498 21C30.7498 16.1675 26.8323 12.25 21.9998 12.25C17.1673 12.25 13.2498 16.1675 13.2498 21C13.2498 22.0541 13.4362 23.0646 13.7778 24.0004H12C11.5858 24.0004 11.25 24.3362 11.25 24.7504C11.25 25.1646 11.5858 25.5004 12 25.5004H32C32.4142 25.5004 32.75 25.1646 32.75 24.7504C32.75 24.3362 32.4142 24.0004 32 24.0004H30.2218ZM21.9999 18.7504C20.7573 18.7504 19.7499 19.7577 19.7499 21.0004C19.7499 22.243 20.7573 23.2504 21.9999 23.2504C23.2425 23.2504 24.2499 22.243 24.2499 21.0004C24.2499 19.7577 23.2425 18.7504 21.9999 18.7504ZM22.7499 27.7504C22.7499 27.3362 22.4141 27.0004 21.9999 27.0004C21.5857 27.0004 21.2499 27.3362 21.2499 27.7504L21.2499 29.0004L18.9999 29.0004C18.5857 29.0004 18.2499 29.3362 18.2499 29.7504C18.2499 30.1646 18.5857 30.5004 18.9999 30.5004L21.2499 30.5004L21.2499 31.7504C21.2499 32.1646 21.5857 32.5004 21.9999 32.5004C22.4141 32.5004 22.7499 32.1646 22.7499 31.7504L22.7499 30.5004H24.9999C25.4141 30.5004 25.7499 30.1646 25.7499 29.7504C25.7499 29.3362 25.4141 29.0004 24.9999 29.0004H22.7499L22.7499 27.7504Z" fill="#1B202C" fill-opacity="0.3"/>
</g>
<defs>
<linearGradient id="paint0_linear_11841_95463" x1="0" y1="0" x2="44" y2="44" gradientUnits="userSpaceOnUse">
<stop stop-color="#1B202C" stop-opacity="0.05"/>
<stop offset="1" stop-color="#1B202C" stop-opacity="0"/>
</linearGradient>
<clipPath id="clip0_11841_95463">
<rect width="44" height="44" fill="white"/>
</clipPath>
</defs>
</svg>
