<svg width="513" height="513" viewBox="0 0 513 513" fill="none" xmlns="http://www.w3.org/2000/svg">
<rect width="512" height="512" transform="translate(0.330627 0.252686)" fill="white"/>
<path d="M119.483 241.905H106.111L100.796 226.71H76.4613L71.4366 241.905H58.3973L82.1089 175.012H95.1067L119.483 241.905ZM96.8508 215.44L88.4624 190.617L80.2402 215.44H96.8508Z" fill="black"/>
<path d="M132.605 241.905L118.652 193.446H129.989L138.253 225.205L145.852 193.446H157.106L164.456 225.205L172.886 193.446H184.389L170.228 241.905H159.016L151.417 210.74L143.942 241.905H132.605Z" fill="black"/>
<path d="M216.115 226.482L227.742 228.627C226.247 233.311 223.88 236.886 220.641 239.35C217.43 241.783 213.402 243 208.557 243C200.888 243 195.213 240.247 191.531 234.741C188.624 230.33 187.171 224.763 187.171 218.041C187.171 210.01 189.081 203.728 192.902 199.196C196.722 194.633 201.553 192.351 207.394 192.351C213.955 192.351 219.132 194.739 222.925 199.515C226.718 204.261 228.531 211.546 228.365 221.372H199.131C199.214 225.174 200.155 228.14 201.954 230.269C203.754 232.368 205.996 233.418 208.682 233.418C210.509 233.418 212.045 232.87 213.291 231.775C214.537 230.68 215.478 228.916 216.115 226.482ZM216.779 213.523C216.696 209.812 215.824 206.998 214.163 205.082C212.502 203.135 210.481 202.162 208.1 202.162C205.553 202.162 203.449 203.181 201.788 205.219C200.127 207.257 199.31 210.025 199.338 213.523H216.779Z" fill="black"/>
<path d="M233.805 228.079L245.516 226.117C246.014 228.612 247.024 230.513 248.547 231.821C250.07 233.098 252.201 233.737 254.942 233.737C257.96 233.737 260.23 233.129 261.752 231.912C262.777 231.06 263.289 229.92 263.289 228.49C263.289 227.516 263.012 226.71 262.458 226.072C261.877 225.463 260.576 224.9 258.555 224.383C249.142 222.102 243.176 220.018 240.657 218.132C237.169 215.516 235.425 211.881 235.425 207.226C235.425 203.029 236.933 199.5 239.951 196.64C242.969 193.781 247.647 192.351 253.987 192.351C260.022 192.351 264.507 193.431 267.442 195.591C270.376 197.751 272.397 200.945 273.504 205.173L262.5 207.409C262.029 205.523 261.13 204.078 259.801 203.074C258.5 202.07 256.631 201.568 254.195 201.568C251.122 201.568 248.921 202.04 247.592 202.983C246.706 203.652 246.263 204.519 246.263 205.584C246.263 206.496 246.651 207.272 247.426 207.911C248.478 208.763 252.104 209.964 258.306 211.516C264.535 213.067 268.881 214.968 271.345 217.219C273.781 219.501 274.999 222.68 274.999 226.756C274.999 231.197 273.311 235.015 269.933 238.209C266.556 241.403 261.559 243 254.942 243C248.935 243 244.173 241.662 240.657 238.985C237.169 236.308 234.885 232.673 233.805 228.079Z" fill="black"/>
<path d="M282.557 216.991C282.557 212.732 283.512 208.611 285.423 204.626C287.333 200.641 290.032 197.599 293.52 195.5C297.036 193.401 300.953 192.351 305.272 192.351C311.944 192.351 317.412 194.739 321.675 199.515C325.939 204.261 328.07 210.268 328.07 217.539C328.07 224.87 325.911 230.954 321.592 235.791C317.301 240.597 311.889 243 305.355 243C301.313 243 297.451 241.996 293.769 239.989C290.115 237.981 287.333 235.045 285.423 231.182C283.512 227.288 282.557 222.558 282.557 216.991ZM294.517 217.676C294.517 222.482 295.555 226.163 297.631 228.718C299.708 231.273 302.268 232.551 305.314 232.551C308.359 232.551 310.906 231.273 312.955 228.718C315.031 226.163 316.069 222.452 316.069 217.584C316.069 212.839 315.031 209.189 312.955 206.633C310.906 204.078 308.359 202.8 305.314 202.8C302.268 202.8 299.708 204.078 297.631 206.633C295.555 209.189 294.517 212.869 294.517 217.676Z" fill="black"/>
<path d="M336.376 193.446H347.131V200.063C350.979 194.922 355.561 192.351 360.876 192.351C363.7 192.351 366.15 192.99 368.226 194.268C370.303 195.545 372.005 197.477 373.334 200.063C375.272 197.477 377.362 195.545 379.605 194.268C381.847 192.99 384.242 192.351 386.789 192.351C390.028 192.351 392.768 193.081 395.011 194.541C397.253 195.971 398.928 198.085 400.036 200.884C400.838 202.953 401.24 206.299 401.24 210.922V241.905H389.571V214.208C389.571 209.402 389.17 206.299 388.367 204.899C387.287 203.074 385.626 202.162 383.383 202.162C381.75 202.162 380.214 202.709 378.774 203.804C377.334 204.899 376.296 206.512 375.66 208.641C375.023 210.74 374.704 214.071 374.704 218.634V241.905H363.036V215.349C363.036 210.634 362.828 207.592 362.413 206.223C361.997 204.854 361.347 203.835 360.461 203.165C359.603 202.496 358.426 202.162 356.931 202.162C355.132 202.162 353.512 202.694 352.073 203.759C350.633 204.823 349.595 206.36 348.958 208.367C348.349 210.375 348.044 213.706 348.044 218.36V241.905H336.376V193.446Z" fill="black"/>
<path d="M438.448 226.482L450.075 228.627C448.58 233.311 446.213 236.886 442.974 239.35C439.763 241.783 435.735 243 430.89 243C423.221 243 417.546 240.247 413.864 234.741C410.957 230.33 409.504 224.763 409.504 218.041C409.504 210.01 411.414 203.728 415.234 199.196C419.055 194.633 423.886 192.351 429.727 192.351C436.288 192.351 441.465 194.739 445.258 199.515C449.051 204.261 450.864 211.546 450.698 221.372H421.463C421.546 225.174 422.488 228.14 424.287 230.269C426.087 232.368 428.329 233.418 431.014 233.418C432.842 233.418 434.378 232.87 435.624 231.775C436.87 230.68 437.811 228.916 438.448 226.482ZM439.112 213.523C439.029 209.812 438.157 206.998 436.496 205.082C434.835 203.135 432.814 202.162 430.433 202.162C427.886 202.162 425.782 203.181 424.121 205.219C422.46 207.257 421.643 210.025 421.671 213.523H439.112Z" fill="black"/>
<path d="M158.808 335.355V269.009H171.1V324.084H201.664V335.355H158.808Z" fill="black"/>
<path d="M207.685 310.441C207.685 306.182 208.64 302.06 210.55 298.075C212.461 294.09 215.16 291.048 218.648 288.949C222.164 286.85 226.081 285.801 230.4 285.801C237.072 285.801 242.54 288.189 246.803 292.965C251.066 297.71 253.198 303.718 253.198 310.988C253.198 318.319 251.039 324.403 246.72 329.24C242.429 334.046 237.016 336.45 230.483 336.45C226.441 336.45 222.579 335.446 218.897 333.438C215.243 331.43 212.461 328.495 210.55 324.632C208.64 320.738 207.685 316.008 207.685 310.441ZM219.645 311.125C219.645 315.932 220.683 319.612 222.759 322.168C224.835 324.723 227.396 326 230.441 326C233.487 326 236.034 324.723 238.082 322.168C240.159 319.612 241.197 315.901 241.197 311.034C241.197 306.288 240.159 302.638 238.082 300.083C236.034 297.528 233.487 296.25 230.441 296.25C227.396 296.25 224.835 297.528 222.759 300.083C220.683 302.638 219.645 306.319 219.645 311.125Z" fill="black"/>
<path d="M261.296 338.549L274.626 340.328C274.847 342.032 275.359 343.203 276.162 343.842C277.269 344.754 279.014 345.211 281.394 345.211C284.44 345.211 286.724 344.709 288.246 343.705C289.271 343.036 290.046 341.956 290.572 340.465C290.932 339.4 291.112 337.438 291.112 334.579V327.506C287.623 332.738 283.222 335.355 277.906 335.355C271.982 335.355 267.289 332.602 263.829 327.096C261.116 322.746 259.759 317.331 259.759 310.851C259.759 302.729 261.531 296.524 265.075 292.235C268.646 287.945 273.075 285.801 278.363 285.801C283.817 285.801 288.316 288.432 291.859 293.695V286.896H302.781V330.381C302.781 336.1 302.351 340.374 301.493 343.203C300.635 346.032 299.431 348.253 297.88 349.865C296.33 351.477 294.254 352.739 291.651 353.652C289.077 354.565 285.81 355.021 281.851 355.021C274.376 355.021 269.075 353.606 265.947 350.777C262.818 347.979 261.254 344.42 261.254 340.1C261.254 339.674 261.268 339.157 261.296 338.549ZM271.719 310.121C271.719 315.262 272.619 319.034 274.418 321.437C276.245 323.81 278.488 324.997 281.145 324.997C283.997 324.997 286.405 323.78 288.371 321.346C290.336 318.882 291.319 315.247 291.319 310.441C291.319 305.421 290.378 301.695 288.495 299.261C286.613 296.828 284.232 295.611 281.353 295.611C278.557 295.611 276.245 296.813 274.418 299.216C272.619 301.589 271.719 305.224 271.719 310.121Z" fill="black"/>
<path d="M311.667 310.441C311.667 306.182 312.622 302.06 314.533 298.075C316.443 294.09 319.142 291.048 322.63 288.949C326.146 286.85 330.063 285.801 334.382 285.801C341.054 285.801 346.522 288.189 350.785 292.965C355.049 297.71 357.18 303.718 357.18 310.988C357.18 318.319 355.021 324.403 350.702 329.24C346.411 334.046 340.999 336.45 334.465 336.45C330.423 336.45 326.561 335.446 322.879 333.438C319.225 331.43 316.443 328.495 314.533 324.632C312.622 320.738 311.667 316.008 311.667 310.441ZM323.627 311.125C323.627 315.932 324.665 319.612 326.741 322.168C328.818 324.723 331.378 326 334.424 326C337.469 326 340.016 324.723 342.065 322.168C344.141 319.612 345.179 315.901 345.179 311.034C345.179 306.288 344.141 302.638 342.065 300.083C340.016 297.528 337.469 296.25 334.424 296.25C331.378 296.25 328.818 297.528 326.741 300.083C324.665 302.638 323.627 306.319 323.627 311.125Z" fill="black"/>
</svg>

