<svg width="24" height="24" viewBox="0 0 24 24" fill="none" xmlns="http://www.w3.org/2000/svg">
<path d="M23.8988 11.9741C23.8988 18.5441 18.5738 23.8729 12.0001 23.8729C5.42632 23.8729 0.101318 18.5479 0.101318 11.9741C0.101318 5.40035 5.43007 0.0791016 12.0001 0.0791016C18.5701 0.0791016 23.8988 5.4041 23.8988 11.9741Z"
      fill="black" />
<path d="M11.6214 19.9177H11.2161C11.2125 19.9093 11.2145 19.9029 11.2222 19.898C11.3164 19.8737 11.4122 19.8911 11.5072 19.887C11.5433 19.8855 11.5807 19.8811 11.6152 19.898C11.6229 19.9029 11.625 19.9095 11.6214 19.9177Z"
      fill="#7F7F7F" />
<path d="M2.25122 12.035V11.8878C2.25865 11.884 2.26505 11.8855 2.26991 11.8924C2.2863 11.9385 2.2863 11.9846 2.26991 12.0307C2.26505 12.0376 2.25865 12.0391 2.25122 12.0353V12.035Z"
      fill="#808080" />
<path d="M11.6213 19.9185C11.6218 19.9152 11.6221 19.9119 11.6224 19.9085C11.651 19.8834 11.6797 19.8832 11.7081 19.9088C11.7089 19.9121 11.7086 19.9154 11.7074 19.9185H11.6213Z"
      fill="#BCBCBC" />
<path d="M11.2152 19.9075C11.2152 19.9108 11.2154 19.9141 11.2162 19.9175H11.1302C11.1297 19.9141 11.1294 19.9108 11.1294 19.9075C11.1581 19.8824 11.1865 19.8824 11.2152 19.9075Z"
      fill="#BCBCBC" />
<path d="M2.26121 11.8868L2.25609 11.8863L2.25122 11.8878V11.8141C2.25481 11.8136 2.25813 11.8133 2.26172 11.8136C2.28374 11.8382 2.28425 11.8627 2.26121 11.8868Z"
      fill="#BEBEBE" />
<path d="M2.25122 12.0352C2.25478 12.0354 2.25833 12.0357 2.26189 12.0359C2.28095 12.0565 2.2812 12.0768 2.26113 12.0969L2.25605 12.0979L2.25122 12.0961V12.0352Z"
      fill="#BEBEBE" />
<path d="M2.26147 12.0973C2.26147 12.0769 2.26199 12.0564 2.26224 12.0359C2.26224 11.9862 2.26173 11.9365 2.26147 11.8869C2.26147 11.8625 2.26199 11.838 2.26199 11.8136C2.29246 11.4905 2.34597 11.173 2.517 10.8891C2.74743 10.5066 3.09283 10.2797 3.51503 10.1589C3.53039 10.1545 3.54652 10.154 3.56598 10.1512C3.5053 9.99758 3.44257 9.84728 3.38599 9.69469C3.22597 9.26352 3.09155 8.82493 3.01781 8.3697C2.93741 7.8735 2.92231 7.37499 3.09001 6.89672C3.28767 6.33241 3.66481 5.92403 4.25472 5.75633C4.66233 5.64034 5.06508 5.70384 5.45553 5.85465C5.75817 5.97166 6.0288 6.14192 6.26384 6.36442C6.40799 6.50114 6.51783 6.66859 6.64226 6.82272C6.90957 7.15352 7.1738 7.48663 7.43931 7.81896C7.44417 7.82511 7.45006 7.83023 7.46004 7.84072C7.49205 7.77083 7.52175 7.70502 7.55247 7.63974C8.10833 6.46043 8.98065 5.58632 10.1264 4.97849C10.839 4.60058 11.5979 4.35658 12.3903 4.21268C12.8337 4.13229 13.2803 4.07724 13.7309 4.08236C14.9099 4.09567 16.0337 4.35427 17.0973 4.86583C17.8032 5.20559 18.4386 5.64623 18.9863 6.20798C19.7462 6.98735 20.2565 7.90601 20.5133 8.96447C20.595 9.30065 20.6482 9.64143 20.6718 9.98657C20.6744 10.0245 20.6877 10.0324 20.723 10.0344C21.0423 10.0529 21.3393 10.1404 21.6166 10.3038C21.7886 10.4049 21.7922 10.6136 21.6296 10.7327C21.3162 10.9621 21.0016 11.1897 20.6861 11.4158C20.6477 11.4432 20.6301 11.4736 20.6242 11.5195C20.5489 12.0978 20.4329 12.667 20.2429 13.2195C20.128 13.5537 19.992 13.8786 19.8328 14.194C19.8161 14.2268 19.8113 14.2562 19.8189 14.2931C19.8363 14.3771 19.844 14.4629 19.8471 14.5489C19.8835 15.6063 19.8584 16.6643 19.8622 17.722C19.8648 18.4517 19.2487 19.0188 18.5037 18.986C17.89 18.9591 17.363 18.4563 17.3052 17.8436C17.2901 17.6823 17.3008 17.5204 17.2972 17.3591C17.2967 17.3374 17.2972 17.3156 17.2972 17.2813C17.1846 17.3771 17.0811 17.4651 16.9777 17.553C16.3678 18.0717 15.73 18.5513 15.028 18.9407C14.2837 19.3537 13.4974 19.6512 12.6584 19.8033C12.3442 19.8601 12.0272 19.8934 11.7085 19.9077C11.6798 19.9077 11.6514 19.9077 11.6227 19.9075H11.2156C11.1869 19.9075 11.1585 19.9075 11.1298 19.9075C9.61587 19.8409 8.26323 19.3171 7.03272 18.4542C6.13147 17.8221 5.35414 17.0614 4.70176 16.174C4.68691 16.1537 4.6695 16.1376 4.64953 16.123C3.83431 15.5367 3.23979 14.7706 2.80504 13.8714C2.60252 13.4528 2.43763 13.0221 2.33291 12.569C2.29706 12.4135 2.27223 12.2563 2.26199 12.0968L2.26147 12.0973Z"
      fill="#202020" />
<path d="M7.72824 13.7885C7.7582 13.7947 7.7838 13.8464 7.80966 13.8188C7.83245 13.7944 7.79968 13.7553 7.78329 13.7256C7.76537 13.693 7.73643 13.6697 7.70776 13.6464C7.48961 13.4693 7.27147 13.2916 7.05333 13.1141C7.05256 13.0903 7.06715 13.0978 7.0797 13.1011C7.26328 13.1303 7.44634 13.1623 7.63274 13.1684C7.80505 13.1741 7.97583 13.1692 8.14532 13.0944C8.08029 13.0704 8.01782 13.0693 7.95765 13.0588C7.25893 12.9382 6.64341 12.6392 6.09165 12.1991C5.69275 11.8808 5.364 11.5011 5.0862 11.0751C4.87881 10.7568 4.66271 10.4439 4.48528 10.1067C4.28506 9.72652 4.16037 9.31917 4.04387 8.90823C3.94863 8.57205 3.85901 8.23511 3.816 7.88715C3.78579 7.64315 3.79244 7.4012 3.84928 7.16231C3.92405 6.84764 4.25817 6.56882 4.58257 6.54629C4.78535 6.53221 4.98122 6.56268 5.1689 6.6423C5.16019 6.65638 5.14509 6.65639 5.13126 6.65895C4.96023 6.69018 4.8678 6.82153 4.8998 6.99333C4.9441 7.23247 5.0716 7.41886 5.26773 7.56019C5.39959 7.65518 5.54041 7.73353 5.69608 7.78269C5.90756 7.84952 6.06298 7.99392 6.20559 8.15394C6.38482 8.35544 6.56199 8.55899 6.73584 8.76536C6.98497 9.06083 7.23947 9.35143 7.49166 9.64408C7.81453 10.0189 8.14072 10.3912 8.45026 10.7773C8.76749 11.1734 9.06911 11.581 9.35663 11.9994C9.63264 12.4008 9.89585 12.81 10.1434 13.2294C10.3142 13.5187 10.4625 13.8193 10.5933 14.1286C10.5979 14.1437 10.602 14.1588 10.5987 14.1749C10.5838 14.2118 10.5564 14.2402 10.5308 14.2689C10.2924 14.5323 10.0177 14.7489 9.7028 14.9146C9.22221 15.1673 8.7104 15.3171 8.17195 15.3747C7.98505 15.3947 7.79737 15.409 7.60893 15.4018C7.0244 15.3798 6.46188 15.2587 5.92293 15.0293C5.49688 14.848 5.10079 14.6163 4.73722 14.3293C4.49424 14.1375 4.27251 13.923 4.06436 13.6941C3.79756 13.4004 3.56944 13.0788 3.37843 12.7316C3.28011 12.5527 3.18333 12.3724 3.11497 12.1786C3.10806 12.1591 3.10883 12.1384 3.0991 12.1202C3.07375 11.9185 3.06402 11.7152 3.12726 11.5203C3.2138 11.2543 3.37971 11.0589 3.67159 11.0098C3.82112 10.9847 3.96732 11.0121 4.10558 11.0761C4.09303 11.0984 4.06896 11.1002 4.04822 11.1076C3.93122 11.1498 3.87233 11.2545 3.9028 11.3754C3.93096 11.4868 3.99318 11.5807 4.06692 11.6668C4.17419 11.7917 4.29172 11.9039 4.44483 11.973C4.50679 12.0009 4.57233 12.017 4.63737 12.0344C4.75412 12.0657 4.8678 12.1054 4.97866 12.1537C5.067 12.1924 5.13126 12.2626 5.20372 12.322C5.64641 12.6845 6.11675 13.0048 6.62114 13.276C6.94758 13.4516 7.28402 13.6045 7.62736 13.743C7.66142 13.7568 7.69368 13.775 7.72798 13.7883L7.72824 13.7885Z"
      fill="#FE0079" />
<path d="M19.6557 9.01264C19.7266 9.23232 19.7658 9.45865 19.7996 9.68601C19.816 9.79509 19.8244 9.90518 19.8388 10.0145C19.8436 10.0516 19.8365 10.0655 19.7947 10.0731C19.19 10.182 18.6001 10.3427 18.0504 10.6236C17.7518 10.7762 17.4807 10.9688 17.2874 11.2522C17.262 11.2896 17.2385 11.328 17.2234 11.3705C17.2031 11.4271 17.1811 11.4893 17.2351 11.5359C17.2884 11.5822 17.3547 11.5697 17.4144 11.5454C17.4971 11.5113 17.5775 11.4716 17.6589 11.4342C17.7206 11.5361 17.8174 11.5364 17.9172 11.5208C18.1233 11.4883 18.3141 11.4086 18.5036 11.3259C18.7396 11.223 18.9693 11.1052 19.2107 11.0146C19.6337 10.8558 20.0697 10.7493 20.5168 10.6861C20.5429 10.6825 20.57 10.6884 20.5956 10.6782C20.6148 10.6776 20.6348 10.6718 20.6622 10.6866C20.6248 10.7079 20.5926 10.7263 20.56 10.7447C20.3667 10.8331 20.1645 10.8986 19.9694 10.9826C19.542 11.1669 19.1355 11.3892 18.7401 11.6337C18.31 11.8997 17.8983 12.1918 17.5053 12.5104C17.2479 12.7188 16.995 12.9323 16.7515 13.1568C16.6207 13.2774 16.4896 13.397 16.3623 13.5214C16.2622 13.6195 16.138 13.6016 16.0722 13.4779C15.9593 13.2654 15.8981 13.038 15.891 12.7966C15.881 12.464 15.9432 12.1458 16.0799 11.8426C16.1362 11.7177 16.2059 11.6001 16.2819 11.508C16.1411 11.595 16.032 11.7358 15.9396 11.892C15.9294 11.9094 15.9258 11.9368 15.8956 11.9343C15.8948 11.9343 15.8935 11.9315 15.8933 11.9299C15.8933 11.9279 15.8938 11.9258 15.894 11.9238C15.9573 11.6275 15.998 11.3285 16.0128 11.0261C16.043 10.4193 15.9232 9.84476 15.6434 9.30452C15.639 9.29607 15.6303 9.28967 15.6237 9.28224C15.6052 9.2761 15.6004 9.26048 15.5968 9.24435C15.5194 8.89563 15.3587 8.58275 15.171 8.28396C15.0637 8.11344 15.0752 7.93959 15.1157 7.75908C15.1328 7.68304 15.1684 7.61314 15.2058 7.54478C15.2322 7.49664 15.2688 7.4695 15.3254 7.46054C15.5246 7.42956 15.7115 7.36453 15.8687 7.23446C15.9941 7.13051 16.1083 7.01734 16.1391 6.84503C16.1595 6.72981 16.1288 6.62612 16.0807 6.52524C16.04 6.43998 16.0415 6.4323 16.1275 6.39389C16.2735 6.3286 16.4266 6.29762 16.5863 6.29609C16.8288 6.29378 17.0687 6.31196 17.3025 6.38058C17.4966 6.43742 17.6748 6.52857 17.8448 6.63585C18.1262 6.81354 18.385 7.01965 18.6149 7.26083C18.8902 7.54939 19.1242 7.86867 19.316 8.21892C19.4322 8.43092 19.5372 8.64753 19.6096 8.87873C19.6204 8.89665 19.6176 8.91842 19.6268 8.93685C19.6309 8.94146 19.6352 8.94581 19.6393 8.95042C19.6378 8.9727 19.6434 8.99318 19.6552 9.01213L19.6557 9.01264Z"
      fill="#FEC100" />
<path d="M15.3533 13.2875C15.4375 13.7261 15.6221 14.1148 15.9291 14.442C16.0628 14.5844 16.2187 14.6983 16.3861 14.7979C16.4051 14.8312 16.3871 14.8622 16.3772 14.8921C16.2919 15.152 16.1734 15.396 16.0282 15.6277C15.8308 15.9429 15.605 16.2355 15.3346 16.4916C15.1367 16.679 14.9252 16.85 14.7024 17.007C14.4361 17.1947 14.1604 17.3667 13.8652 17.506C13.3506 17.7487 12.8131 17.9118 12.2475 17.9845C11.9416 18.0237 11.6346 18.0306 11.3289 18.0155C10.7843 17.9886 10.2546 17.8775 9.74223 17.688C9.52332 17.6071 9.30978 17.5129 9.10265 17.4051C9.07474 17.3905 9.03147 17.3808 9.03352 17.3442C9.03531 17.3114 9.07756 17.3065 9.10495 17.2948C9.51717 17.1143 9.88663 16.8695 10.2249 16.573C10.6017 16.2427 10.8219 15.8208 10.9653 15.3512C11.0204 15.1709 11.0608 14.9871 11.0897 14.801C11.0992 14.7395 11.1233 14.727 11.1778 14.7582C11.4264 14.9001 11.6966 14.9546 11.9795 14.9531C12.3643 14.951 12.7484 14.9338 13.1263 14.8563C13.6839 14.7418 14.1732 14.4909 14.5995 14.1133C14.8665 13.8769 15.0977 13.6114 15.2852 13.308C15.2939 13.2942 15.3026 13.2804 15.3156 13.2699C15.3402 13.2504 15.3461 13.2696 15.3525 13.2878L15.3533 13.2875Z"
      fill="#FE0079" />
<path d="M15.3532 13.2879C15.3328 13.2574 15.3243 13.2769 15.3125 13.2961C15.2511 13.3975 15.1838 13.4945 15.1123 13.589C14.8924 13.8788 14.6335 14.1285 14.3393 14.342C13.9873 14.5975 13.5979 14.7683 13.1741 14.863C13.0131 14.8991 12.8505 14.9212 12.6859 14.9347C12.4316 14.9555 12.1776 14.9765 11.9224 14.969C11.6538 14.9614 11.3965 14.9078 11.1635 14.766C11.1261 14.7432 11.1117 14.7504 11.1048 14.7957C11.0234 15.3265 10.8624 15.8275 10.5372 16.2638C10.3687 16.4902 10.1526 16.6678 9.92809 16.8353C9.66181 17.0337 9.37633 17.1991 9.06908 17.3264C9.05961 17.3302 9.0509 17.3356 9.03708 17.3428C9.05295 17.3632 9.07369 17.3732 9.09417 17.3837C9.48386 17.585 9.88994 17.7435 10.3165 17.8471C10.5715 17.9091 10.8298 17.9519 11.0913 17.9805C11.3647 18.0108 11.6384 18.0115 11.9113 17.9992C12.2695 17.9831 12.6231 17.9217 12.969 17.8249C13.3039 17.7314 13.6276 17.6075 13.9389 17.4518C14.2853 17.2787 14.6066 17.0667 14.9124 16.8302C15.0852 16.6965 15.2503 16.5542 15.4047 16.3993C15.6666 16.1358 15.8855 15.8396 16.0737 15.5203C16.2079 15.2929 16.318 15.0543 16.3861 14.798C16.6567 14.9373 16.9471 14.9926 17.2487 14.9952C17.2863 14.9954 17.2981 15.0067 17.2973 15.0441C17.2948 15.1626 17.2953 15.2809 17.2948 15.3994C17.1337 15.4504 17.062 15.5874 16.9822 15.7187C16.7799 16.0513 16.5535 16.3673 16.2947 16.6584C15.8328 17.1779 15.3031 17.6134 14.6911 17.947C14.2897 18.1659 13.8744 18.3536 13.4394 18.4949C13.0804 18.6117 12.7122 18.6877 12.3371 18.7307C12.1748 18.7494 12.0125 18.7684 11.8486 18.7676C11.8181 18.7666 11.7879 18.7681 11.7585 18.7776C11.6545 18.7848 11.5506 18.7853 11.4469 18.7776C11.4136 18.7666 11.379 18.7671 11.3447 18.7679C10.9323 18.7607 10.5275 18.6931 10.125 18.6089C9.74988 18.5303 9.38401 18.4204 9.02684 18.2822C8.60822 18.1201 8.20854 17.9196 7.82756 17.6823C7.58945 17.534 7.36183 17.3712 7.1442 17.194C7.11987 17.1743 7.0871 17.1589 7.09017 17.1187C7.2525 17.1356 7.4138 17.1622 7.57716 17.1722C8.57109 17.2327 9.47848 17.0222 10.234 16.3301C10.3884 16.1888 10.5323 16.0385 10.6601 15.8728C10.7712 15.7287 10.8286 15.5561 10.9074 15.3948C10.943 15.3219 10.9832 15.2499 10.9978 15.168C11.0093 15.1032 10.9976 15.0487 10.9479 15.0008C10.8729 14.9288 10.8132 14.8415 10.7282 14.7788C10.7046 14.7614 10.6813 14.7458 10.6509 14.7458C10.5922 14.7199 10.5572 14.7473 10.5229 14.7939C10.2686 15.1398 9.95727 15.423 9.58551 15.6378C9.17457 15.8754 8.73342 16.0231 8.26129 16.079C8.09025 16.0992 7.91845 16.1112 7.74716 16.1007C7.36234 16.0769 6.98238 16.0203 6.61241 15.9084C6.22067 15.7901 5.8466 15.6301 5.49865 15.4145C5.1955 15.2269 4.91617 15.0054 4.63427 14.7878C4.45607 14.65 4.28145 14.5082 4.10786 14.365C4.08097 14.3428 4.06305 14.312 4.03233 14.2944C3.87461 14.0849 3.73917 13.8617 3.62523 13.6261C3.45624 13.2769 3.29187 12.9254 3.18101 12.5523C3.13902 12.4115 3.10906 12.2676 3.1001 12.1201C3.18024 12.3032 3.26371 12.485 3.35818 12.6611C3.51667 12.9566 3.70358 13.2334 3.91404 13.4945C4.07713 13.697 4.25713 13.884 4.44711 14.0604C4.72439 14.3177 5.02805 14.5404 5.35681 14.7291C5.67506 14.9119 6.0074 15.0617 6.35714 15.1718C6.62752 15.2568 6.90276 15.3196 7.18516 15.3503C7.36746 15.3702 7.55002 15.3882 7.73334 15.3854C8.12584 15.3787 8.51271 15.3285 8.89037 15.2212C9.29568 15.1063 9.67768 14.9391 10.0254 14.6987C10.2402 14.5502 10.4258 14.3707 10.591 14.1694C10.6007 14.1382 10.5866 14.1103 10.5787 14.0816C10.5684 14.0225 10.5531 13.9646 10.5316 13.9083C10.5239 13.8881 10.5129 13.8678 10.5218 13.8448C10.5398 13.8238 10.5561 13.8404 10.5695 13.8494C10.605 13.8732 10.6442 13.8906 10.6803 13.9137C10.7049 13.9316 10.7336 13.9418 10.7597 13.9567C11.1763 14.2063 11.6236 14.3622 12.108 14.4142C12.7511 14.4831 13.3638 14.3873 13.9389 14.086C14.4441 13.8212 14.8514 13.4477 15.1581 12.9661C15.2009 12.8987 15.247 12.8337 15.2874 12.7648C15.2985 12.7459 15.3105 12.7251 15.3376 12.7254C15.3161 12.9131 15.3235 13.1002 15.3535 13.2866L15.3532 13.2879Z"
      fill="#C10065" />
<path d="M8.71095 9.86181C8.60649 9.7297 8.50663 9.59477 8.42803 9.44499C8.39193 9.34923 8.39577 9.24937 8.39756 9.14978C8.40038 9.05965 8.39807 8.96927 8.39858 8.87914C8.4014 8.57062 8.45158 8.2685 8.53889 7.9738C8.58191 7.82863 8.67254 7.70317 8.74833 7.57259C8.76676 7.54084 8.78418 7.50832 8.80491 7.47811C8.82028 7.46198 8.83871 7.44841 8.84946 7.42793C9.39277 6.73381 10.0626 6.19793 10.8658 5.83384C11.3107 5.63209 11.778 5.49434 12.256 5.39474C12.5786 5.32766 12.9046 5.28516 13.2338 5.26314C13.4814 5.2465 13.7293 5.24496 13.9758 5.25648C14.5253 5.28183 15.0645 5.37503 15.5922 5.53326C15.956 5.64233 16.306 5.78443 16.6455 5.95316C16.7846 6.02229 16.9215 6.09628 17.0536 6.17847C17.0713 6.18948 17.1018 6.19793 17.0951 6.22404C17.089 6.2476 17.0595 6.24811 17.0378 6.2517C16.9891 6.25963 16.9397 6.25451 16.8908 6.25605C16.7438 6.2604 16.5964 6.24632 16.4497 6.26706C15.9079 6.34336 15.5005 6.61424 15.2437 7.10097C15.1236 7.32859 15.0584 7.57156 15.0509 7.82991C15.0494 7.8847 15.034 7.93898 15.0445 7.99479C15.0471 8.00836 15.0484 8.02577 15.0312 8.03166C15.0153 8.03704 15.0051 8.02321 14.9956 8.01297C14.9449 7.9569 14.9019 7.89443 14.8517 7.83759C14.5706 7.51754 14.2434 7.25741 13.8652 7.05949C13.5057 6.8713 13.1255 6.75302 12.7256 6.69259C12.5738 6.6698 12.4207 6.66315 12.2676 6.65598C12.1946 6.64522 12.1214 6.64727 12.0484 6.6547C11.8382 6.68337 11.6267 6.7036 11.4193 6.75353C11.0762 6.83623 10.7554 6.97013 10.454 7.15192C10.2167 7.2953 10.0014 7.46685 9.80704 7.66476C9.61143 7.86447 9.44577 8.08671 9.30931 8.33071C9.29062 8.36425 9.27756 8.40215 9.24581 8.4275C9.10525 8.57216 9.00795 8.74447 8.92884 8.92728C8.82284 9.17154 8.76651 9.42834 8.75115 9.69437C8.74859 9.73917 8.73886 9.78347 8.73706 9.82853C8.73655 9.84312 8.73527 9.86309 8.71095 9.86181Z"
      fill="#FE0079" />
<path d="M15.3373 12.7268C15.2861 12.8029 15.2334 12.8779 15.184 12.9552C14.7277 13.6708 14.0907 14.1401 13.2706 14.3593C12.9664 14.4405 12.6548 14.4656 12.342 14.4504C11.8258 14.4256 11.3337 14.3066 10.8833 14.0423C10.8395 14.0165 10.7937 13.9937 10.7489 13.9696C10.733 13.9445 10.7031 13.9391 10.6818 13.9215C10.6163 13.8851 10.5569 13.8398 10.497 13.7955C10.4816 13.7812 10.4724 13.7627 10.4637 13.7443C10.2965 13.3881 10.0924 13.0525 9.89093 12.7153C9.81335 12.5855 9.74089 12.4523 9.66818 12.3197C9.66126 12.3069 9.65461 12.2944 9.6564 12.2793C9.64949 12.1845 9.61031 12.0982 9.5824 12.0094C9.40036 11.4323 9.2091 10.8585 8.95563 10.3075C8.93437 10.2612 8.91261 10.2151 8.89136 10.169C8.84399 10.0064 8.85987 9.84255 8.8801 9.67843C8.88803 9.64873 8.89725 9.61929 8.90263 9.58882C8.9395 9.41753 8.99301 9.25085 9.04908 9.08468C9.05497 9.06727 9.06111 9.04986 9.07673 9.03809C9.12128 9.04654 9.10566 9.08136 9.10285 9.10568C9.08262 9.28234 9.06854 9.45927 9.07084 9.63747C9.07648 10.0814 9.15713 10.5113 9.31228 10.9269C9.48178 11.3816 9.72425 11.7951 10.0333 12.1679C10.5359 12.7737 11.1775 13.1349 11.9605 13.2348C12.755 13.3362 13.4908 13.1651 14.1611 12.7306C14.5905 12.4523 14.9292 12.0842 15.1758 11.6338C15.4121 11.2019 15.5606 10.7415 15.6231 10.253C15.6264 10.2266 15.6333 10.2007 15.6387 10.1746C15.65 10.1332 15.643 10.0909 15.6443 10.0492C15.6474 9.85536 15.6377 9.66205 15.6205 9.46925C15.618 9.44109 15.6141 9.41164 15.6379 9.38886C15.7158 9.59625 15.7619 9.81183 15.7831 10.031C15.8581 10.8019 15.7099 11.5421 15.4597 12.2665C15.4078 12.4173 15.3588 12.5681 15.3373 12.7266V12.7268Z"
      fill="#CB6F00" />
<path d="M9.08363 9.03613C9.01654 9.21715 8.96406 9.40277 8.91669 9.58968C8.89774 9.58994 8.89698 9.57483 8.89288 9.56228C8.89032 9.43273 8.91976 9.30753 8.94665 9.18258C8.99632 8.95266 9.07492 8.73247 9.17426 8.51945C9.19219 8.48104 9.21293 8.4434 9.24339 8.41293C9.38114 8.16355 9.53681 7.92646 9.73319 7.71882C10.2745 7.14606 10.9353 6.7999 11.7144 6.68059C11.8214 6.6642 11.9295 6.65575 12.037 6.64372C12.1151 6.63348 12.1932 6.63937 12.2713 6.64065C12.5706 6.64884 12.8663 6.68392 13.1554 6.76431C13.9061 6.97324 14.5277 7.37522 15.0022 7.9979C15.0093 8.00712 15.0129 8.02069 15.0306 8.02299C15.0211 7.76823 15.0549 7.52013 15.1438 7.28048C15.3801 6.64398 15.961 6.23918 16.64 6.23918C16.7891 6.23918 16.9378 6.23918 17.0955 6.23918C17.0822 6.2059 17.0612 6.20103 17.0459 6.19182C16.3305 5.76551 15.5614 5.48797 14.7397 5.3533C14.2187 5.26778 13.6948 5.23808 13.1689 5.28263C12.1317 5.37019 11.145 5.62802 10.2512 6.18106C9.71015 6.51596 9.24928 6.94149 8.85601 7.44128C8.84398 7.44332 8.8409 7.43564 8.83911 7.42617C8.87675 7.31812 8.94613 7.22876 9.01296 7.13915C9.18604 6.90846 9.37474 6.69083 9.57624 6.48447C9.90858 6.16288 10.2832 5.89789 10.6836 5.66899C11.3611 5.28161 12.0869 5.03223 12.8602 4.92827C13.9816 4.77772 15.068 4.92827 16.1203 5.33486C16.7555 5.58014 17.3564 5.88892 17.8892 6.31907C18.7144 6.98527 19.29 7.82251 19.608 8.8354C19.6124 8.84897 19.6147 8.86305 19.6177 8.87687C19.6231 8.88916 19.6172 8.89198 19.6062 8.89019C19.3817 8.28978 19.0591 7.74903 18.6138 7.28586C18.2812 6.9397 17.9107 6.64065 17.4627 6.45707C17.0894 6.30422 16.6992 6.2717 16.3021 6.3503C16.2299 6.36464 16.1628 6.39665 16.0957 6.42711C16.0683 6.4394 16.0563 6.44888 16.0762 6.48421C16.2155 6.73103 16.1825 6.94917 15.9841 7.15272C15.7995 7.34219 15.5726 7.44307 15.314 7.47866C15.2784 7.48352 15.2544 7.49607 15.2352 7.52679C15.1207 7.70909 15.08 7.90649 15.1115 8.119C15.1166 8.15383 15.1312 8.18429 15.1496 8.21451C15.325 8.50306 15.4889 8.79699 15.5829 9.1242C15.598 9.17669 15.6105 9.22995 15.6243 9.28295C15.6151 9.31982 15.633 9.35336 15.6379 9.38843C15.6476 9.61067 15.6663 9.83266 15.6594 10.0557C15.6377 10.059 15.6338 10.0413 15.6266 10.0278C15.6046 9.79784 15.5749 9.56894 15.5258 9.34286C15.4515 9.00105 15.3135 8.68613 15.1315 8.38912C14.994 8.16483 14.8324 7.95847 14.6463 7.77361C14.4338 7.56289 14.1977 7.38008 13.9371 7.2303C13.5143 6.98732 13.0622 6.83652 12.5772 6.78198C12.3939 6.76124 12.2101 6.75151 12.0263 6.75996C11.6279 6.77814 11.2446 6.86468 10.8815 7.03264C10.5197 7.20009 10.1933 7.41849 9.91421 7.70499C9.56984 8.05858 9.30766 8.46465 9.13842 8.92936C9.12459 8.967 9.1187 9.00924 9.08363 9.03638V9.03613Z"
      fill="#FEFEFE" />
<path d="M18.7109 13.3961C18.9247 13.6198 19.0627 13.8846 19.1364 14.1839C19.1843 14.3782 19.1859 14.5764 19.1859 14.7748C19.1866 15.7198 19.1874 16.6649 19.1879 17.6099C19.1879 17.8754 19.0737 18.0779 18.8348 18.1944C18.6085 18.305 18.3845 18.2805 18.1817 18.1297C18.027 18.0147 17.9466 17.8554 17.9356 17.6629C17.9318 17.5956 17.9336 17.528 17.9336 17.4604C17.9336 16.6114 17.9341 15.7626 17.9331 14.9136C17.9331 14.7646 17.9487 14.6161 17.9366 14.4665C17.9046 14.0687 17.7441 13.7363 17.4428 13.4731C17.432 13.4639 17.4225 13.4534 17.4125 13.4434C17.4115 13.4424 17.4118 13.4393 17.4125 13.438C17.4136 13.4365 17.4159 13.4357 17.4177 13.4347C17.5162 13.3781 17.6281 13.3761 17.7357 13.3571C17.8097 13.3441 17.8854 13.3425 17.9599 13.3313C17.9968 13.33 18.0337 13.3297 18.0706 13.3305C18.1307 13.3323 18.1906 13.3318 18.2508 13.3305C18.3837 13.3272 18.5145 13.3464 18.6454 13.3664C18.6704 13.3702 18.6914 13.3815 18.7114 13.3958L18.7109 13.3961Z"
      fill="#FD018A" />
<path d="M7.08969 17.1199C7.18416 17.2226 7.30015 17.2994 7.41101 17.3813C7.73439 17.621 8.07799 17.8292 8.439 18.0071C8.86786 18.2183 9.31311 18.3876 9.77628 18.5092C10.115 18.5983 10.4573 18.6667 10.804 18.7115C10.9809 18.7342 11.1591 18.7606 11.3389 18.7524C11.3704 18.7686 11.4062 18.7488 11.4377 18.7639C11.5478 18.7639 11.6576 18.7639 11.7677 18.7639C11.7951 18.7494 11.8269 18.768 11.8543 18.7527C12.1661 18.7455 12.4736 18.7035 12.7801 18.6469C13.1688 18.5752 13.5431 18.4577 13.9072 18.3072C14.4336 18.0898 14.9326 17.822 15.3894 17.4799C15.6592 17.2779 15.9073 17.05 16.1393 16.8055C16.4957 16.4297 16.7948 16.0105 17.058 15.5655C17.1125 15.4734 17.1885 15.4168 17.2943 15.4004C17.2953 15.6152 17.2958 15.83 17.2976 16.0448C17.2979 16.083 17.2677 16.1027 17.2495 16.1257C17.1898 16.2018 17.1212 16.2712 17.0577 16.3444C16.8982 16.5282 16.7179 16.6916 16.5485 16.8657C16.4524 16.9643 16.3446 17.0493 16.241 17.1391C16.1316 17.2339 16.0182 17.3227 15.9053 17.4128C15.7445 17.5411 15.5753 17.6571 15.4045 17.7708C15.1694 17.9272 14.9283 18.0729 14.6768 18.2025C14.2044 18.4457 13.7315 18.6869 13.2218 18.8456C12.9194 18.9398 12.6116 19.0092 12.2975 19.0505C12.2611 19.0553 12.2255 19.0622 12.1887 19.0612C12.1684 19.0717 12.1449 19.0592 12.1246 19.0704C12.1054 19.0714 12.086 19.0727 12.0668 19.0737C12.0458 19.0827 12.0227 19.0727 12.0018 19.0817C11.9741 19.083 11.9464 19.0842 11.9185 19.0858C11.8566 19.0983 11.7933 19.0814 11.7314 19.095C11.5798 19.1009 11.4282 19.1014 11.2767 19.0945C11.2354 19.0827 11.1924 19.0978 11.1512 19.0858C11.1233 19.0848 11.0956 19.0837 11.0677 19.0827C11.0426 19.0714 11.015 19.0835 10.9896 19.0743C10.9666 19.073 10.9433 19.0714 10.9203 19.0702C10.9 19.0594 10.8765 19.0714 10.8562 19.0612C10.6478 19.0507 10.444 19.0097 10.2405 18.9672C9.80496 18.8766 9.38326 18.7412 8.97335 18.5688C8.67148 18.4419 8.37934 18.2957 8.09386 18.1346C7.72133 17.9244 7.36953 17.6837 7.03182 17.4228C6.87308 17.3002 6.71715 17.1732 6.57812 17.0206C6.74839 17.0539 6.91865 17.0872 7.08892 17.1204L7.08969 17.1199Z"
      fill="#E50071" />
<path d="M15.8947 11.9252C15.932 11.9016 15.9405 11.8581 15.9628 11.8243C16.0616 11.6758 16.1742 11.5424 16.3481 11.4561C16.1338 11.7035 16.016 11.9838 15.952 12.2893C15.8678 12.692 15.888 13.0838 16.0777 13.4571C16.1443 13.5879 16.2546 13.6066 16.3583 13.5052C16.7014 13.1698 17.0622 12.8541 17.4337 12.5502C17.7878 12.2603 18.1557 11.9895 18.5403 11.7419C18.889 11.5173 19.2457 11.3056 19.6197 11.1258C19.9106 10.986 20.2068 10.8591 20.5133 10.7564C20.5287 10.7513 20.5448 10.749 20.5604 10.7451C20.372 10.8672 20.1828 10.9884 19.9953 11.1118C19.3688 11.5245 18.742 11.9367 18.1596 12.4117C17.763 12.735 17.3881 13.082 17.0317 13.4489C16.9966 13.485 16.9856 13.5208 17.0192 13.562C17.2181 13.8073 17.2903 14.0925 17.2847 14.4026C17.2837 14.4638 17.288 14.5252 17.2934 14.5862C17.2972 14.6305 17.2806 14.6423 17.2381 14.6384C16.9296 14.6113 16.6484 14.5109 16.3998 14.3253C15.9973 14.0247 15.7858 13.6153 15.7221 13.1234C15.6916 12.8884 15.6998 12.6526 15.7513 12.4224C15.7799 12.2944 15.8294 12.17 15.8632 12.0419C15.8734 12.0028 15.8839 11.9639 15.8941 11.9247L15.8947 11.9252Z"
      fill="#CB6F00" />
<path d="M9.65665 12.2782C9.87914 12.6753 10.1249 13.0591 10.3395 13.4608C10.3969 13.5684 10.4493 13.6785 10.5041 13.7873C10.5167 13.8037 10.5325 13.8185 10.5272 13.8423C10.5487 13.9222 10.5902 13.9965 10.592 14.0817C10.5927 14.0994 10.6088 14.1206 10.5809 14.1322C10.2683 13.3874 9.82486 12.7181 9.37578 12.0524C8.83298 11.2474 8.21823 10.4987 7.5807 9.76802C7.12521 9.2457 6.67228 8.72108 6.22217 8.19416C6.05216 7.99548 5.8545 7.84851 5.60461 7.76018C5.36035 7.67389 5.14835 7.53 5.006 7.30392C4.9448 7.20663 4.89872 7.10216 4.88464 6.98592C4.87465 6.90374 4.89155 6.82667 4.93251 6.75626C4.985 6.66588 5.07462 6.64693 5.1696 6.64258C5.40772 6.73347 5.63303 6.84587 5.80534 7.04148C6.91014 8.29581 7.9197 9.62285 8.84194 11.017C9.07954 11.3762 9.30997 11.7398 9.53503 12.1069C9.57164 12.1668 9.60851 12.227 9.6569 12.2787L9.65665 12.2782Z"
      fill="#FEFEFE" />
<path d="M4.03151 14.2954C4.07734 14.2995 4.09987 14.3392 4.13008 14.3643C4.46421 14.6419 4.80832 14.9063 5.1573 15.1647C5.4095 15.3513 5.67526 15.5139 5.96023 15.645C6.33814 15.8186 6.73013 15.9466 7.14158 16.0147C7.41964 16.0608 7.69821 16.0964 7.98036 16.0859C8.3977 16.0705 8.79968 15.9825 9.18501 15.8194C9.40956 15.7244 9.62207 15.6089 9.8205 15.4665C10.095 15.2697 10.3295 15.0333 10.5282 14.7609C10.5722 14.7007 10.5889 14.6984 10.6501 14.7463C10.6152 14.756 10.5971 14.7814 10.584 14.8131C10.3692 15.3429 9.99025 15.7187 9.49098 15.9835C9.15659 16.1607 8.80787 16.2935 8.4315 16.3486C8.11222 16.3954 7.79141 16.4059 7.47162 16.3737C6.3512 16.2608 5.4095 15.7723 4.61322 14.9893C4.39713 14.777 4.20484 14.5435 4.03125 14.2949L4.03151 14.2954Z"
      fill="#FE007A" />
<path d="M7.72844 13.7893C7.70412 13.7978 7.6844 13.7832 7.66417 13.7753C6.70685 13.3999 5.83095 12.8884 5.05132 12.215C4.97297 12.1474 4.86851 12.1266 4.77326 12.0916C4.72564 12.0739 4.67622 12.0596 4.62655 12.0486C4.29857 11.9753 4.08273 11.7615 3.92604 11.4804C3.81927 11.2889 3.89122 11.1225 4.10603 11.0771C4.2914 11.1414 4.44118 11.2594 4.58328 11.3903C5.11072 11.8762 5.63099 12.3712 6.20041 12.8087C6.60572 13.1203 7.05148 13.371 7.48751 13.6365C7.56867 13.6859 7.65547 13.7274 7.72869 13.7893H7.72844Z"
      fill="#FEFEFE" />
<path d="M20.5964 10.6779C20.6013 10.7051 20.579 10.693 20.5695 10.6943C19.9717 10.7755 19.3948 10.9304 18.8467 11.1864C18.6231 11.2909 18.4009 11.3982 18.1659 11.4755C18.065 11.5088 17.9626 11.5367 17.8558 11.5423C17.8207 11.5441 17.7867 11.5403 17.7526 11.5318C17.7006 11.519 17.6633 11.4924 17.6594 11.4337C18.1884 11.1695 18.7238 10.9242 19.3091 10.8054C19.7123 10.7238 20.1179 10.6733 20.5293 10.6738C20.5516 10.6738 20.5739 10.6764 20.5964 10.6777V10.6779Z"
      fill="#FEFEFE" />
<path d="M9.5767 6.48463C9.46097 6.62084 9.3455 6.75757 9.229 6.89327C9.08511 7.06097 8.9489 7.23405 8.84623 7.4312C8.83932 7.44912 8.83317 7.4673 8.81806 7.48061C8.76071 7.58098 8.70566 7.68263 8.64575 7.78146C8.55435 7.93226 8.51543 8.10048 8.48317 8.26998C8.44579 8.46712 8.41532 8.66555 8.41583 8.86705C8.40585 8.96102 8.40585 9.05524 8.41583 9.14921C8.40917 9.24804 8.42735 9.34584 8.42812 9.44442C8.29882 9.23831 8.18821 9.02221 8.09066 8.79971C8.04355 8.69218 8.03997 8.58669 8.0963 8.47148C8.46013 7.72718 8.94275 7.07147 9.54675 6.50486C9.55545 6.49666 9.56672 6.49129 9.5767 6.48438V6.48463Z"
      fill="#D4006B" />
<path d="M19.6716 12.1848C19.5707 12.5778 19.4524 12.9609 19.2767 13.3045C19.1654 13.2013 19.0532 13.0973 18.9411 12.9931C18.9352 12.9875 18.9306 12.9808 18.925 12.9747C18.8912 12.9376 18.8274 12.9043 18.8318 12.8626C18.8353 12.8277 18.8996 12.7985 18.938 12.7681C19.1825 12.5735 19.427 12.3792 19.6718 12.1846L19.6716 12.1848Z"
      fill="#CB6F00" />
<path d="M9.24375 8.41309C9.12188 8.66247 9.02151 8.91953 8.96288 9.19169C8.93651 9.3151 8.91218 9.43902 8.90527 9.56551C8.89861 9.597 8.90757 9.63028 8.89656 9.66152C8.87787 9.83051 8.87864 9.99949 8.89119 10.1687C8.83102 10.0663 8.77085 9.96416 8.71094 9.86174C8.73654 9.81105 8.72937 9.75421 8.73244 9.70146C8.75498 9.32406 8.85713 8.97201 9.05454 8.64941C9.10728 8.56338 9.16207 8.4771 9.24349 8.41309H9.24375Z"
      fill="#BE0064" />
<path d="M18.069 13.3485L17.9584 13.3492C17.9415 13.3392 17.931 13.3246 17.93 13.3052C17.9246 13.2058 17.9241 13.1065 17.93 13.0074C17.9308 12.9933 17.9387 12.9805 17.9459 12.9682C17.9577 12.9485 17.9746 12.9577 17.9892 12.9616C18.2652 13.0358 18.5035 13.1746 18.7022 13.3802C18.7063 13.3843 18.7081 13.3907 18.7112 13.3961C18.5591 13.3723 18.4073 13.3477 18.2526 13.3487C18.1914 13.339 18.13 13.339 18.0688 13.3487L18.069 13.3485Z"
      fill="#D60072" />
<path d="M17.9457 12.9678C17.9457 13.0712 17.9457 13.1747 17.9457 13.2783C17.9457 13.3027 17.9447 13.3272 17.9582 13.349C17.7764 13.3672 17.5957 13.3933 17.4175 13.4345C17.5895 13.2745 17.7649 13.1181 17.9457 12.9678Z"
      fill="#D60072" />
<path d="M11.7319 19.0935C11.7934 19.0714 11.8566 19.0858 11.9191 19.0842C11.8574 19.1011 11.7944 19.0919 11.7319 19.0935Z"
      fill="#C10065" />
<path d="M11.1521 19.0839C11.1941 19.0839 11.2368 19.0734 11.2776 19.0926C11.2353 19.0947 11.1933 19.0977 11.1521 19.0839Z"
      fill="#C10065" />
<path d="M10.9905 19.0725C11.0169 19.0715 11.0442 19.0623 11.0686 19.081C11.0422 19.0825 11.0156 19.0848 10.9905 19.0725Z"
      fill="#C10065" />
<path d="M19.6555 9.0124C19.6369 8.99538 19.6232 8.97709 19.6397 8.95117C19.6542 8.96921 19.655 8.99081 19.6555 9.0124Z"
      fill="#EBD9A0" />
<path d="M19.6067 8.89017C19.6105 8.88585 19.6143 8.88153 19.6181 8.87695C19.6339 8.89499 19.6316 8.91583 19.6275 8.93692C19.6108 8.92548 19.6125 8.90617 19.6067 8.89017Z"
      fill="#FBEFC9" />
<path d="M7.07969 13.1017C7.07105 13.106 7.06216 13.1103 7.05352 13.1146C7.04463 13.1111 7.02964 13.1027 7.03472 13.0976C7.04844 13.0831 7.06546 13.0915 7.07994 13.1017H7.07969Z"
      fill="#C7005F" />
<path d="M10.8574 19.0599C10.879 19.0591 10.9016 19.0517 10.9209 19.0687C10.8991 19.0705 10.8775 19.0715 10.8574 19.0599Z"
      fill="#C10065" />
<path d="M12.125 19.0699C12.1441 19.0527 12.1669 19.06 12.1885 19.0608C12.1687 19.0725 12.1469 19.0715 12.125 19.0699Z"
      fill="#C10065" />
<path d="M12.0022 19.0799C12.022 19.0636 12.0446 19.0707 12.0665 19.072C12.0462 19.0837 12.024 19.0824 12.0022 19.0799Z"
      fill="#C10065" />
<path d="M4.37711 7.43728C4.24525 7.43831 4.14284 7.33769 4.14258 7.20634C4.14207 7.07832 4.24295 6.97616 4.37071 6.97463C4.50026 6.97309 4.60729 7.07806 4.60729 7.20608C4.60729 7.33257 4.50385 7.43626 4.37737 7.43728H4.37711Z"
      fill="#FEFEFE" />
<path d="M3.69005 11.73C3.68954 11.8268 3.61657 11.9 3.51979 11.9003C3.42582 11.9003 3.34747 11.8237 3.34645 11.73C3.34517 11.6348 3.42608 11.5551 3.52286 11.5567C3.61887 11.5582 3.69031 11.6324 3.6898 11.73H3.69005Z"
      fill="#FEFEFE" />
<path d="M5.18673 8.04493C5.25867 8.04416 5.31449 8.0987 5.31603 8.17116C5.31756 8.24361 5.26354 8.29943 5.19082 8.30071C5.11862 8.30199 5.06281 8.24745 5.06178 8.175C5.06076 8.10279 5.11555 8.04544 5.18673 8.04493Z"
      fill="#FEFDFD" />
<path d="M10.5808 14.1325C10.5957 14.1181 10.5854 14.0982 10.5918 14.082C10.6028 14.1115 10.6141 14.1409 10.5906 14.1696C10.5872 14.1571 10.5839 14.1448 10.5806 14.1322L10.5808 14.1325Z"
      fill="#FDC7E1" />
<path d="M16.1038 9.0174C16.0907 8.7419 16.1325 8.42749 16.2864 8.13432C16.3957 7.92565 16.547 7.75949 16.7618 7.65605C16.8934 7.59255 17.1044 7.67909 17.1382 7.81044C17.1625 7.9044 17.121 8.00861 17.0378 8.05828C16.8015 8.1991 16.6748 8.40572 16.6428 8.67943C16.6077 8.97822 16.6346 9.27497 16.6502 9.57274C16.6566 9.69282 16.6881 9.81162 16.6722 9.93273C16.6594 10.0305 16.6133 10.1114 16.5155 10.1409C16.4144 10.1714 16.3332 10.1222 16.2654 10.0487C16.1891 9.96601 16.1845 9.85924 16.1686 9.75709C16.1333 9.5287 16.1117 9.29904 16.1041 9.01791L16.1038 9.0174Z"
      fill="#202020" />
<path d="M18.2104 7.63877C18.3187 7.63697 18.4083 7.67743 18.489 7.74144C18.7568 7.95472 18.9191 8.2384 19.0392 8.55256C19.1206 8.76533 19.1427 8.98859 19.1736 9.21083C19.2 9.40107 19.2248 9.59156 19.2533 9.78154C19.275 9.92748 19.1678 10.0747 19.0236 10.0911C18.8984 10.1052 18.7847 9.99251 18.7686 9.84657C18.7276 9.47532 18.6949 9.10227 18.5876 8.74177C18.5077 8.47345 18.371 8.24506 18.1341 8.08478C18.0967 8.05943 18.0678 8.02436 18.0402 7.98851C17.9828 7.91401 17.9667 7.8331 18.01 7.74809C18.0514 7.66642 18.1239 7.63493 18.2102 7.63902L18.2104 7.63877Z"
      fill="#202020" />
<path d="M15.4829 7.67871C15.5184 7.68383 15.5443 7.70918 15.5438 7.75091C15.5433 7.79342 15.5154 7.81825 15.4731 7.82107C15.4327 7.82388 15.4002 7.78701 15.4025 7.74554C15.4045 7.70662 15.4368 7.67743 15.4826 7.67897L15.4829 7.67871Z"
      fill="#FEFDF9" />
<path d="M10.5269 13.8431C10.5141 13.827 10.5052 13.8091 10.5039 13.7881C10.5648 13.8303 10.626 13.8723 10.6872 13.9146C10.69 13.9256 10.6883 13.9317 10.6752 13.9263C10.6258 13.8987 10.5764 13.871 10.5272 13.8434L10.5269 13.8431Z"
      fill="#F9B806" />
<path d="M10.6753 13.9258C10.6794 13.922 10.6832 13.9182 10.6873 13.9141C10.7091 13.931 10.7414 13.9361 10.7493 13.9686C10.7247 13.9543 10.6999 13.9399 10.6753 13.9256V13.9258Z"
      fill="#ED9A0D" />
<path d="M11.4382 18.7628C11.4052 18.7584 11.3698 18.7753 11.3394 18.7512C11.3721 18.7559 11.4075 18.7397 11.4382 18.7628Z"
      fill="#E40071" />
<path d="M11.8544 18.7513C11.828 18.7741 11.7968 18.759 11.7678 18.7626C11.7942 18.7406 11.8254 18.7549 11.8544 18.7513Z"
      fill="#E50071" />
<path d="M8.41572 9.14934C8.39626 9.05537 8.39626 8.96115 8.41572 8.86719C8.41572 8.96115 8.41572 9.05537 8.41572 9.14934Z"
      fill="#DA006D" />
<path d="M12.2714 6.64085C12.1933 6.64187 12.1152 6.6429 12.0371 6.64392C12.1149 6.626 12.193 6.62805 12.2714 6.64085Z"
      fill="#FE613D" />
<path d="M8.81812 7.4797C8.82752 7.46344 8.83692 7.44718 8.84606 7.43066C8.84937 7.43397 8.85267 7.43752 8.85597 7.44083C8.8481 7.45836 8.8392 7.47487 8.81812 7.4797Z"
      fill="#F6AED2" />
<path d="M9.08391 9.03652C9.25136 8.52905 9.52173 8.08406 9.8958 7.70257C10.3336 7.25604 10.8572 6.95468 11.4666 6.81975C12.2196 6.65307 12.9529 6.74115 13.6508 7.06555C14.4993 7.4601 15.0995 8.09584 15.4341 8.97251C15.5642 9.31304 15.6162 9.67123 15.6405 10.0335C15.6495 10.0814 15.6641 10.1288 15.6505 10.1782C15.6039 10.595 15.4912 10.9932 15.3222 11.3769C15.1389 11.7928 14.8798 12.154 14.5431 12.4577C14.2095 12.7585 13.826 12.9756 13.3986 13.1152C13.0883 13.2163 12.7716 13.2721 12.4439 13.2773C11.9044 13.286 11.3946 13.1756 10.9182 12.9221C10.5935 12.7496 10.316 12.5176 10.0745 12.2406C9.81054 11.9382 9.59905 11.6017 9.427 11.241C9.268 10.9079 9.1597 10.5581 9.10234 10.1925C9.06343 9.9434 9.04678 9.69351 9.05728 9.44234C9.06189 9.32891 9.06803 9.21446 9.08903 9.10206C9.09313 9.0803 9.09722 9.05751 9.08416 9.03652H9.08391Z"
      fill="#FEC100" />
<path d="M15.6503 10.1781C15.6539 10.1295 15.6313 10.0824 15.6403 10.0332C15.6467 10.0406 15.6529 10.0481 15.6593 10.0555C15.66 10.0967 15.6708 10.1384 15.6503 10.1779V10.1781Z"
      fill="#E4B57D" />
<path d="M8.89655 9.66144C8.89553 9.62918 8.88938 9.59641 8.90526 9.56543C8.9091 9.57362 8.91294 9.58182 8.91678 9.59001C8.91217 9.61433 8.91345 9.64045 8.89655 9.66144Z"
      fill="#ECC0BA" />
<path d="M18.6231 14.7977C18.631 14.5959 18.6047 14.3711 18.5604 14.1481C18.5419 14.0552 18.5048 13.9689 18.4523 13.89C18.3965 13.8063 18.428 13.7141 18.5248 13.6821C18.5734 13.6662 18.6221 13.6721 18.6689 13.6895C18.7975 13.7374 18.885 13.8273 18.9293 13.9563C19.0187 14.2167 19.0684 14.4848 19.0732 14.7605C19.075 14.8627 19.0763 14.9651 19.0727 15.0673C19.0678 15.203 18.969 15.2982 18.842 15.2957C18.7161 15.2931 18.6234 15.1925 18.6231 15.057C18.6229 14.9794 18.6231 14.9016 18.6231 14.7977Z"
      fill="#FEFEFE" />
<path d="M18.9476 17.559C18.9476 17.7659 18.7815 17.9336 18.5743 17.9354C18.3672 17.9372 18.1928 17.7646 18.1936 17.5583C18.1944 17.3534 18.3644 17.1824 18.5687 17.1816C18.7781 17.1806 18.9476 17.3494 18.9476 17.559Z"
      fill="#FEFEFE" />
<path d="M18.3565 14.4736C18.3565 14.5476 18.2955 14.6104 18.2216 14.6116C18.1455 14.6132 18.0815 14.5487 18.0828 14.4716C18.0841 14.3973 18.1458 14.3369 18.2205 14.3369C18.2943 14.3369 18.3562 14.3991 18.3565 14.4734V14.4736Z"
      fill="#FEFDFE" />
<path d="M18.4002 17.0251C18.3984 17.0827 18.3508 17.1291 18.2937 17.1286C18.2333 17.1281 18.1877 17.0797 18.1895 17.0175C18.191 16.9581 18.2358 16.9148 18.2952 16.915C18.3567 16.9156 18.402 16.9629 18.4002 17.0249V17.0251Z"
      fill="#FEFDFD" />
<path d="M18.0688 13.3486C18.13 13.3291 18.1915 13.3291 18.2527 13.3486C18.1915 13.3486 18.13 13.3486 18.0688 13.3486Z"
      fill="#D80173" />
<path d="M10.758 8.2646C10.9118 8.26691 11.0368 8.31351 11.1446 8.40747C11.5148 8.72982 11.8855 9.05115 12.2545 9.37478C12.2909 9.40678 12.3029 9.40474 12.3275 9.363C12.5702 8.94899 12.8142 8.53549 13.0602 8.12353C13.1942 7.8995 13.4679 7.79938 13.7154 7.87824C13.9656 7.95813 14.13 8.19624 14.1126 8.45458C14.1059 8.55418 14.0736 8.64533 14.0224 8.73136C13.7482 9.19325 13.4758 9.65642 13.2008 10.1178C13.1757 10.1598 13.1801 10.1805 13.2162 10.2118C13.6199 10.5607 14.0222 10.9115 14.4249 11.2618C14.5949 11.4095 14.6671 11.5951 14.6239 11.8158C14.5811 12.034 14.4477 12.1822 14.2342 12.2475C14.0337 12.309 13.8491 12.2682 13.6901 12.1308C13.3357 11.8245 12.9827 11.517 12.6314 11.2075C12.5868 11.1681 12.574 11.1763 12.5471 11.2226C12.3014 11.642 12.0561 12.0616 11.8044 12.4777C11.6738 12.6938 11.4713 12.7844 11.2239 12.7447C10.9894 12.7068 10.8353 12.5635 10.7697 12.3333C10.7226 12.1687 10.7564 12.0155 10.8435 11.8693C11.1226 11.4008 11.3983 10.9302 11.6779 10.4622C11.7045 10.4176 11.6999 10.3969 11.6618 10.3638C11.2424 10.0016 10.8243 9.63773 10.4072 9.27313C10.2239 9.11285 10.1563 8.91084 10.2234 8.67682C10.2889 8.44793 10.4492 8.31402 10.684 8.27177C10.7119 8.26665 10.7408 8.2664 10.7582 8.26486L10.758 8.2646Z"
      fill="#202020" />
</svg>
