<svg width="24" height="24" viewBox="0 0 24 24" fill="none" xmlns="http://www.w3.org/2000/svg">
<g clip-path="url(#clip0_19091_29325)">
<path d="M12 24C18.6274 24 24 18.6274 24 12C24 5.37258 18.6274 0 12 0C5.37258 0 0 5.37258 0 12C0 18.6274 5.37258 24 12 24Z"
      fill="#E6007A" />
<path d="M12 7.06691C13.6944 7.06691 15.0679 6.26843 15.0679 5.28345C15.0679 4.29848 13.6944 3.5 12 3.5C10.3056 3.5 8.93201 4.29848 8.93201 5.28345C8.93201 6.26843 10.3056 7.06691 12 7.06691Z"
      fill="white" />
<path d="M12 20.5C13.6944 20.5 15.0679 19.7015 15.0679 18.7165C15.0679 17.7316 13.6944 16.9331 12 16.9331C10.3056 16.9331 8.93201 17.7316 8.93201 18.7165C8.93201 19.7015 10.3056 20.5 12 20.5Z"
      fill="white" />
<path d="M7.72387 9.53352C8.57106 8.06751 8.5657 6.47984 7.71188 5.98736C6.85806 5.49487 5.47912 6.28406 4.63192 7.75007C3.78473 9.21607 3.79009 10.8037 4.64391 11.2962C5.49773 11.7887 6.87667 10.9995 7.72387 9.53352Z"
      fill="white" />
<path d="M19.3681 16.25C20.2153 14.784 20.2099 13.1964 19.3561 12.7039C18.5023 12.2114 17.1234 13.0006 16.2762 14.4666C15.429 15.9326 15.4343 17.5203 16.2882 18.0128C17.142 18.5052 18.5209 17.7161 19.3681 16.25Z"
      fill="white" />
<path d="M7.71187 18.0127C8.56569 17.5202 8.57106 15.9325 7.72386 14.4665C6.87667 13.0005 5.49772 12.2113 4.6439 12.7038C3.79009 13.1963 3.78472 14.784 4.63192 16.25C5.47912 17.716 6.85806 18.5052 7.71187 18.0127Z"
      fill="white" />
<path d="M19.3561 11.2963C20.2099 10.8038 20.2152 9.21613 19.368 7.75012C18.5208 6.28412 17.1419 5.49492 16.2881 5.98741C15.4343 6.4799 15.4289 8.06757 16.2761 9.53357C17.1233 10.9996 18.5022 11.7888 19.3561 11.2963Z"
      fill="white" />
</g>
<defs>
<clipPath id="clip0_19091_29325">
<rect width="24" height="24" fill="white" />
</clipPath>
</defs>
</svg>
