<svg width="25" height="24" viewBox="0 0 25 24" fill="none" xmlns="http://www.w3.org/2000/svg">
<path d="M12.0383 24C18.6658 24 24.0383 18.6274 24.0383 12C24.0383 5.37258 18.6658 0 12.0383 0C5.41092 0 0.0383301 5.37258 0.0383301 12C0.0383301 18.6274 5.41092 24 12.0383 24Z" fill="#DE0376"/>
<path d="M17.9783 17.7899C17.9783 17.7899 17.4383 17.8199 17.1383 17.6999C16.3883 17.3999 16.0583 16.7699 16.0583 15.6599V12.1499V3.89989C16.0583 3.53989 15.7883 3.29989 15.2482 3.17989H15.0682C14.7383 3.17989 14.5283 3.41989 14.3783 3.92989V4.73989V9.14989C13.0283 7.94989 11.5883 7.31989 10.0283 7.31989C8.82824 7.31989 7.68828 7.67989 6.57828 8.42989C4.83826 9.77989 3.96826 11.4299 3.96826 13.3799C3.96826 14.6699 4.38826 15.9299 5.25826 17.1599C6.66826 18.6899 8.19826 19.4699 9.81829 19.4699H10.1783C11.8282 19.4699 13.2983 18.7799 14.6183 17.3699C15.2783 18.7799 16.2683 19.4699 17.5883 19.4699H17.7983C18.2482 19.4699 18.6083 19.2299 18.6083 18.6599V18.5999C18.6083 18.0899 18.3682 17.7899 17.9783 17.7899ZM10.1783 17.7299H9.90826C9.48825 17.7299 9.03827 17.6699 8.52829 17.5199C6.63829 16.6499 5.70826 15.2999 5.70826 13.4999V13.2899C5.70826 12.8699 5.79826 12.3899 5.97826 11.8799C6.87829 10.0199 8.19826 9.08989 9.96826 9.08989H10.1483C10.4782 9.08989 10.9283 9.14989 11.5283 9.29989C13.4483 10.1999 14.4083 11.5199 14.4083 13.3199V13.4999V13.5899C14.4083 13.8899 14.3483 14.3399 14.1983 14.9099C13.2683 16.7999 11.9183 17.7299 10.1783 17.7299Z" fill="white"/>
<path d="M19.8383 13.7402C20.1983 13.7402 20.4983 13.8602 20.7982 14.1302C21.0683 14.4002 21.1883 14.7302 21.1883 15.0902C21.1883 15.6002 20.9483 15.9902 20.4683 16.2902C20.2583 16.3802 20.0483 16.4402 19.8683 16.4402H19.7783C19.4183 16.4402 19.0883 16.2602 18.7583 15.9302C18.5783 15.6602 18.4583 15.3902 18.4583 15.0902C18.4583 14.6402 18.6383 14.2802 19.0283 13.9802C19.3282 13.8302 19.5682 13.7402 19.8383 13.7402Z" fill="white"/>
</svg>
