<svg width="49" height="48" viewBox="0 0 49 48" fill="none" xmlns="http://www.w3.org/2000/svg">
<g id="icons/20/asset-dota">
<path id="vector" d="M24.0762 48C37.3311 48 48.0762 37.2548 48.0762 24C48.0762 10.7452 37.3311 0 24.0762 0C10.8213 0 0.0761719 10.7452 0.0761719 24C0.0761719 37.2548 10.8213 48 24.0762 48Z" fill="#DE0376"/>
<path id="vector_2" d="M35.9565 35.5798C35.9565 35.5798 34.8765 35.6398 34.2765 35.3998C32.7765 34.7998 32.1166 33.5398 32.1166 31.3198V24.2998V7.79974C32.1166 7.07974 31.5765 6.59974 30.4965 6.35974H30.1365C29.4765 6.35974 29.0566 6.83974 28.7565 7.85974V9.47974V18.2998C26.0565 15.8998 23.1766 14.6398 20.0565 14.6398C17.6565 14.6398 15.3766 15.3598 13.1566 16.8598C9.67652 19.5598 7.93652 22.8598 7.93652 26.7598C7.93652 29.3398 8.77652 31.8598 10.5165 34.3198C13.3365 37.3798 16.3965 38.9398 19.6366 38.9398H20.3566C23.6565 38.9398 26.5966 37.5598 29.2365 34.7398C30.5566 37.5598 32.5365 38.9398 35.1766 38.9398H35.5965C36.4965 38.9398 37.2165 38.4598 37.2165 37.3198V37.1998C37.2165 36.1798 36.7365 35.5798 35.9565 35.5798ZM20.3566 35.4598H19.8165C18.9765 35.4598 18.0765 35.3398 17.0566 35.0398C13.2766 33.2998 11.4165 30.5998 11.4165 26.9998V26.5798C11.4165 25.7398 11.5965 24.7798 11.9565 23.7598C13.7566 20.0398 16.3965 18.1798 19.9365 18.1798H20.2965C20.9565 18.1798 21.8566 18.2998 23.0566 18.5998C26.8965 20.3998 28.8166 23.0398 28.8166 26.6398V26.9998V27.1798C28.8166 27.7798 28.6966 28.6798 28.3965 29.8198C26.5365 33.5998 23.8365 35.4598 20.3566 35.4598Z" fill="white"/>
<path id="vector_3" d="M39.677 27.4805C40.3971 27.4805 40.9971 27.7205 41.597 28.2605C42.137 28.8005 42.377 29.4605 42.377 30.1805C42.377 31.2005 41.897 31.9805 40.937 32.5805C40.5171 32.7605 40.097 32.8805 39.737 32.8805H39.557C38.837 32.8805 38.1771 32.5205 37.517 31.8605C37.157 31.3205 36.917 30.7805 36.917 30.1805C36.917 29.2805 37.277 28.5605 38.0571 27.9605C38.657 27.6605 39.137 27.4805 39.677 27.4805Z" fill="white"/>
</g>
</svg>
