<svg width="24" height="24" viewBox="0 0 24 24" fill="none" xmlns="http://www.w3.org/2000/svg">
<g clip-path="url(#clip0_11999_10188)">
<circle cx="12" cy="12" r="12" fill="#2D022D"/>
<path d="M6.17071 6.59498C6.10771 6.53198 6 6.5766 6 6.66569V17.3343C6 17.4234 6.10771 17.468 6.17071 17.405L11.4343 12.1414C11.5124 12.0633 11.5124 11.9367 11.4343 11.8586L6.17071 6.59498Z" fill="#FF2184"/>
<path d="M6.59498 17.8293C6.53198 17.8923 6.5766 18 6.66569 18H11.5811C11.6872 18 11.7889 17.9579 11.864 17.8828L14.1761 15.5707C14.2391 15.5077 14.1945 15.4 14.1054 15.4H9.18995C9.08386 15.4 8.98212 15.4421 8.90711 15.5172L6.59498 17.8293Z" fill="#83ABFF"/>
<path d="M17.8293 11.434C17.8923 11.497 18 11.4523 18 11.3633V6.66569C18 6.57659 17.8923 6.53198 17.8293 6.59497L15.5512 8.87305C15.4731 8.95115 15.4731 9.07778 15.5512 9.15589L17.8293 11.434Z" fill="#D4FC8A"/>
<path d="M17.5054 11.9586C17.5835 12.0367 17.5835 12.1633 17.5054 12.2414L15.227 14.5199C15.1488 14.598 15.0222 14.598 14.9441 14.5199L12.5657 12.1414C12.4876 12.0633 12.4876 11.9367 12.5657 11.8586L14.8441 9.58015C14.9222 9.50205 15.0488 9.50205 15.127 9.58015L17.5054 11.9586Z" fill="#FFD207"/>
<path d="M12.1414 12.5657C12.0633 12.4876 11.9367 12.4876 11.8586 12.5657L9.79498 14.6293C9.73198 14.6923 9.7766 14.8 9.86569 14.8H14.1343C14.2234 14.8 14.268 14.6923 14.205 14.6293L12.1414 12.5657Z" fill="#B2004A"/>
<path d="M12.8368 18C12.7477 18 12.703 17.8923 12.766 17.8293L17.8293 12.766C17.8923 12.703 18 12.7477 18 12.8368V17.8C18 17.9105 17.9105 18 17.8 18H12.8368Z" fill="#61FFB5"/>
<path d="M6.66568 6H17.3343C17.4234 6 17.468 6.10771 17.405 6.17071L12.1414 11.4343C12.0633 11.5124 11.9367 11.5124 11.8586 11.4343L6.59497 6.17071C6.53198 6.10771 6.57659 6 6.66568 6Z" fill="#FECCA9"/>
</g>
<defs>
<clipPath id="clip0_11999_10188">
<rect width="24" height="24" fill="white"/>
</clipPath>
</defs>
</svg>
