<svg width="36" height="36" viewBox="0 0 36 36" fill="none" xmlns="http://www.w3.org/2000/svg">
<rect width="36" height="36" rx="4" fill="#38157B"/>
<path d="M24.3497 15.6507V17.948H24.7717V19.2472H24.3497V20.3087H25.6806V19.4529L25.8913 19.2472H26.3133L26.9358 18.6395L27.4492 19.2472H27.0273L27.9242 20.3087H29.6493L28.7524 19.2472H29.1744L28.0767 17.948H27.6547L27.4592 17.7166L29.5756 15.6507H27.6934L25.6806 17.6156V15.6507H24.3497Z" fill="#EB3089"/>
<path fill-rule="evenodd" clip-rule="evenodd" d="M21.8177 15.6666C23.3555 15.6666 24.1494 16.9837 23.6055 17.948H23.1835C23.027 18.2254 22.7599 18.4735 22.368 18.6528C22.5972 18.7505 22.8049 18.9847 22.9779 19.2472H23.3999C23.7182 19.7301 23.9189 20.3087 23.9189 20.3087H22.2071L21.8601 19.6058C21.7518 19.3865 21.5246 19.2472 21.2752 19.2472H20.1622V20.3087H18.8314V19.2472H18.4094V17.948H18.8314V15.6666H21.8177ZM20.1622 17.948H21.7204C21.9982 17.948 22.2235 17.7281 22.2235 17.4569C22.2235 17.1856 21.9982 16.9657 21.7204 16.9657H20.1622V17.948Z" fill="#EB3089"/>
<path fill-rule="evenodd" clip-rule="evenodd" d="M18.0523 15.6666V17.948H17.6303V19.2472H18.0523V20.3087H16.7214V19.2472H16.2994V17.948H16.0693L15.4582 19.2472H15.8801L15.3808 20.3087H14.7446L14.2563 19.2472H13.8343L13.2368 17.948H13.0209V19.2472H13.4429V20.3087H12.112V19.2472H11.69V17.948H12.112V15.6666H14.0683L15.0727 17.8503L16.1 15.6666H18.0523ZM13.4429 17.948H13.6588L13.4429 17.4786V17.948ZM16.4913 17.948H16.7214V17.4587L16.4913 17.948Z" fill="#EB3089"/>
<path fill-rule="evenodd" clip-rule="evenodd" d="M9.48267 15.6666C11.0205 15.6666 11.8143 16.9837 11.2704 17.948H10.8484C10.692 18.2254 10.4249 18.4735 10.033 18.6528C10.2621 18.7505 10.4698 18.9847 10.6428 19.2472H11.0648C11.3831 19.7301 11.5838 20.3087 11.5838 20.3087H9.87203L9.52501 19.6058C9.41677 19.3865 9.18948 19.2472 8.94017 19.2472H7.82717V20.3087H6.49628V19.2472H6.07429V17.948H6.49628V15.6666H9.48267ZM7.82717 17.948L9.38616 17.948C9.66364 17.9475 9.88843 17.7278 9.88843 17.4569C9.88843 17.1856 9.66316 16.9657 9.38529 16.9657H7.82717V17.948Z" fill="#EB3089"/>
<path fill-rule="evenodd" clip-rule="evenodd" d="M4.72745 13.5C4.3689 13.5 4.07824 13.7837 4.07824 14.1337V17.948H3.65625V19.2472H4.07824V21.8663C4.07824 22.2163 4.3689 22.5 4.72745 22.5H31.132C31.4906 22.5 31.7812 22.2163 31.7812 21.8663V19.2472H31.3593V17.948H31.7812V14.1337C31.7812 13.7837 31.4906 13.5 31.132 13.5H4.72745ZM4.69499 19.2472V17.948H5.11698V14.514H30.7425V17.948H30.3205V19.2472H30.7425V21.486H5.11698V19.2472H4.69499Z" fill="#EB3089"/>
</svg>
