<svg xmlns="http://www.w3.org/2000/svg" width="20" height="20" viewBox="0 0 20 20" fill="none">
  <path fill-rule="evenodd" clip-rule="evenodd" d="M3.25 4.16667C3.25 3.56908 3.65776 3.25 3.97059 3.25H16.0294C16.3422 3.25 16.75 3.56908 16.75 4.16667V15.8333C16.75 16.4309 16.3422 16.75 16.0294 16.75H3.97059C3.65776 16.75 3.25 16.4309 3.25 15.8333V4.16667ZM3.97059 1.75C2.65841 1.75 1.75 2.92259 1.75 4.16667V15.8333C1.75 17.0774 2.65841 18.25 3.97059 18.25H16.0294C17.3416 18.25 18.25 17.0774 18.25 15.8333V4.16667C18.25 2.92259 17.3416 1.75 16.0294 1.75H3.97059ZM7.22222 5.91667C6.80801 5.91667 6.47222 6.25245 6.47222 6.66667C6.47222 7.08088 6.80801 7.41667 7.22222 7.41667H12.7778C13.192 7.41667 13.5278 7.08088 13.5278 6.66667C13.5278 6.25245 13.192 5.91667 12.7778 5.91667H7.22222ZM5.83333 9.25C5.41912 9.25 5.08333 9.58579 5.08333 10C5.08333 10.4142 5.41912 10.75 5.83333 10.75H14.1667C14.5809 10.75 14.9167 10.4142 14.9167 10C14.9167 9.58579 14.5809 9.25 14.1667 9.25H5.83333ZM7.22222 12.5833C6.80801 12.5833 6.47222 12.9191 6.47222 13.3333C6.47222 13.7475 6.80801 14.0833 7.22222 14.0833H12.7778C13.192 14.0833 13.5278 13.7475 13.5278 13.3333C13.5278 12.9191 13.192 12.5833 12.7778 12.5833H7.22222Z" fill="#1B202C" fill-opacity="0.6"/>
</svg>