<svg width="24" height="24" viewBox="0 0 24 24" fill="none" xmlns="http://www.w3.org/2000/svg">
    <g clip-path="url(#clip0_9560_16144)">
        <path d="M12 24C18.6274 24 24 18.6274 24 12C24 5.37258 18.6274 0 12 0C5.37258 0 0 5.37258 0 12C0 18.6274 5.37258 24 12 24Z"
              fill="#2B75C6"/>
        <path d="M9.35076 4.19012C9.67095 4.08304 9.98886 4.32962 9.98886 4.66515V5.17951C9.98886 5.40569 9.83965 5.60365 9.62628 5.68276C7.04821 6.63859 5.21235 9.10636 5.21235 12C5.21235 14.8935 7.04821 17.3613 9.62628 18.3171C9.83965 18.3963 9.98886 18.5942 9.98886 18.8204V19.3348C9.98886 19.6703 9.67095 19.9169 9.35076 19.8098C6.0681 18.712 3.70398 15.6301 3.70398 12C3.70398 8.36977 6.06811 5.28795 9.35076 4.19012Z"
              fill="white"/>
        <path d="M14.3738 18.3171C14.1604 18.3963 14.0112 18.5942 14.0112 18.8204V19.3348C14.0112 19.6703 14.3291 19.9169 14.6493 19.8098C17.932 18.712 20.2961 15.6301 20.2961 12C20.2961 8.36977 17.932 5.28795 14.6493 4.19012C14.3291 4.08304 14.0112 4.32963 14.0112 4.66515V5.17951C14.0112 5.40569 14.1604 5.60365 14.3738 5.68276C16.9518 6.63859 18.7877 9.10636 18.7877 12C18.7877 14.8935 16.9518 17.3613 14.3738 18.3171Z"
              fill="white"/>
        <path d="M11.4224 7.05009C11.4224 6.9122 11.5349 6.80042 11.6738 6.80042H12.3777C12.5165 6.80042 12.6291 6.9122 12.6291 7.05009V8.01147C12.99 8.05513 13.3218 8.1472 13.6245 8.28767C14.0638 8.48792 14.4041 8.7722 14.6453 9.14052C14.8459 9.44221 14.9643 9.77749 15.0006 10.1464C15.0141 10.2836 14.9001 10.3957 14.7612 10.3957H13.6437C13.5048 10.3957 13.3956 10.283 13.3718 10.1471C13.3298 9.90699 13.2232 9.71271 13.052 9.56426C12.8252 9.36401 12.5065 9.26389 12.096 9.26389C11.7 9.26389 11.3921 9.34792 11.1725 9.51599C10.9528 9.68048 10.843 9.89861 10.843 10.1704C10.843 10.4243 10.9708 10.637 11.2265 10.8087C11.4857 10.9803 11.8656 11.1412 12.3661 11.2914C12.4321 11.3111 12.4968 11.3303 12.5603 11.3492L12.5636 11.3502C13.3855 11.5941 13.9984 11.7761 14.389 12.154C14.8103 12.5617 15.0126 13.2313 15.0126 13.8392C15.0126 14.5151 14.7552 15.0461 14.2403 15.4323C13.8213 15.7437 13.2842 15.9283 12.6292 15.9863L12.6291 16.9286C12.629 17.0664 12.5165 17.1782 12.3777 17.1782H11.6737C11.5349 17.1782 11.4223 17.0664 11.4223 16.9285V15.9477C11.0996 15.8945 10.7949 15.8049 10.5081 15.679C10.0112 15.4573 9.63135 15.1552 9.3685 14.7726C9.15287 14.4543 9.02692 14.094 8.99063 13.6917C8.97824 13.5544 9.09217 13.4423 9.23101 13.4423H10.3539C10.4928 13.4423 10.6028 13.5549 10.6214 13.6915C10.716 14.3872 11.2291 14.735 12.1609 14.735C12.5461 14.735 12.8468 14.6581 13.0628 14.5044C13.2789 14.347 13.3869 14.1289 13.3869 13.85C13.3869 13.546 13.2872 13.1517 13.0712 12.9908C12.9424 12.8928 12.7494 12.8497 12.4955 12.7931C12.3233 12.7546 12.1232 12.71 11.8962 12.6377C11.3345 12.4554 10.8898 12.2766 10.5621 12.1014C9.66915 11.6222 9.22267 10.9767 9.22267 10.165C9.22267 9.74306 9.34149 9.36759 9.57914 9.03861C9.82039 8.70605 10.1643 8.4468 10.6107 8.26085C10.8642 8.15615 11.1347 8.08093 11.4224 8.03519V7.05009Z"
              fill="white"/>
    </g>
    <defs>
        <clipPath id="clip0_9560_16144">
            <rect width="24" height="24" fill="white"/>
        </clipPath>
    </defs>
</svg>
