<svg width="24" height="24" viewBox="0 0 24 24" fill="none" xmlns="http://www.w3.org/2000/svg">
<g clip-path="url(#clip0_11999_9400)">
<path d="M12 24C18.6274 24 24 18.6274 24 12C24 5.37258 18.6274 0 12 0C5.37258 0 0 5.37258 0 12C0 18.6274 5.37258 24 12 24Z" fill="#009393"/>
<path fill-rule="evenodd" clip-rule="evenodd" d="M18.0618 6.00073V8.26334H13.5109V9.83209C16.7072 9.99973 19.1052 10.6883 19.123 11.5136L19.1229 13.234C19.1051 14.0593 16.7072 14.7478 13.5109 14.9155V18.7653H10.4891V14.9155C7.29279 14.7478 4.89475 14.0593 4.87695 13.234L4.87708 11.5136C4.89485 10.6883 7.29279 9.99973 10.4891 9.83209V8.26334H5.93813V6.00073H18.0618ZM12 13.7335C15.411 13.7335 18.262 13.1513 18.9597 12.3738C18.368 11.7145 16.2279 11.1956 13.5109 11.0531V12.6955C13.0239 12.7211 12.5184 12.7345 12 12.7345C11.4815 12.7345 10.976 12.7211 10.4891 12.6955V11.0531C7.77207 11.1956 5.63196 11.7145 5.04029 12.3738C5.73802 13.1513 8.589 13.7335 12 13.7335Z" fill="white"/>
</g>
<defs>
<clipPath id="clip0_11999_9400">
<rect width="24" height="24" fill="white"/>
</clipPath>
</defs>
</svg>
