<svg width="16" height="16" viewBox="0 0 16 16" fill="none" xmlns="http://www.w3.org/2000/svg">
    <path d="M7.97211 8.00065L10.9861 6.35744M7.97211 8.00065L4.98606 6.35744M7.97211 8.00065L8 11.334M7.42711 1.61351L2.50392 4.42632C2.19231 4.60436 2 4.93572 2 5.2946V10.7013C2 11.0631 2.19537 11.3966 2.51089 11.5736L7.54335 14.3956C7.84469 14.5646 8.2119 14.5661 8.51458 14.3995L13.4821 11.6659C13.8016 11.4901 14 11.1544 14 10.7898V5.3026C14 4.93945 13.8031 4.60484 13.4857 4.42847L8.40888 1.60765C8.10312 1.43776 7.73082 1.43998 7.42711 1.61351Z" stroke="#111111" stroke-opacity="0.2" stroke-linecap="round" stroke-linejoin="round"/>
</svg>
